<?xml version="1.0" encoding="utf-8"?>
<!-- Generator: Adobe Illustrator 25.2.0, SVG Export Plug-In . SVG Version: 6.00 Build 0)  -->
<svg version="1.0" id="Layer_1" xmlns="http://www.w3.org/2000/svg" xmlns:xlink="http://www.w3.org/1999/xlink" x="0px" y="0px"
	 width="691.23px" height="252.63px" viewBox="0 0 691.23 252.63" style="enable-background:new 0 0 691.23 252.63;"
	 xml:space="preserve">
<style type="text/css">
	.st0{fill:#FFFFFF;}
</style>
<g>
	<path class="st0" d="M681.39,155.15c-5.49,0-9.89,4.43-9.89,9.85c0,5.46,4.4,9.9,9.89,9.9c5.44,0,9.84-4.44,9.84-9.9
		C691.23,159.58,686.82,155.15,681.39,155.15z M681.39,173.6c-4.85,0-8.34-3.75-8.34-8.6c0-4.79,3.49-8.54,8.34-8.54
		c4.79,0,8.28,3.75,8.28,8.54C689.67,169.84,686.18,173.6,681.39,173.6z"/>
	<path class="st0" d="M683.76,165.25v-0.03c1.3-0.36,1.86-1.41,1.86-2.71c0-1.73-1.23-2.81-3.25-2.81h-5.04v10.71h1.42v-4.57h3.49
		c1.38,0,1.61,0.9,1.78,1.93c0.21,1.05-0.01,2.2,0.39,2.64H686c-0.6-0.72-0.55-1.92-0.63-2.96
		C685.24,166.42,684.99,165.49,683.76,165.25z M681.71,164.63h-2.97v-3.74h3.54c1.34,0,1.91,0.77,1.91,1.83
		C684.19,164.29,683.04,164.63,681.71,164.63z"/>
	<path class="st0" d="M301.95,133.47c0-1.59,0-21.27-16.43-26.41c14.47-8.36,13.22-25.57,13.22-33.79c0-0.99,0-26.72-28.66-26.72
		h-46.24v128.13h45.72C301.95,174.68,301.95,144.07,301.95,133.47z M253.97,69.24c8.52,0,15.77-0.3,15.77,9.84
		c0,8.36,0.68,17.99-8.5,17.99h-7.27L253.97,69.24L253.97,69.24z M253.97,151.8v-32.81c11.91,0.49,17.23,0.18,17.23,15.29
		C271.2,152.33,267,151.8,253.97,151.8z"/>
	<path class="st0" d="M342.85,177.24c33.32,0,33.32-27.03,33.32-29.93v-42.18c0-10.31,0-34.29-33.32-34.29
		c-34.46,0-34.46,23.97-34.46,30.13v46.34C308.4,152.32,308.4,177.24,342.85,177.24z M336.41,99.19c0-2.13,0-9.18,5.95-9.18
		c5.29,0,5.29,7.06,5.29,9.52v47.49c0,2.73,0.31,9.49-5.29,9.49c-5.95,0-5.95-6.76-5.95-9.18V99.19z"/>
	<path class="st0" d="M649.7,145.25V94.19h7.36V73.46h-7.36v-21.1h-28.03v21.1h-5.79v20.73h5.79v61.48
		c0,19.01,13.52,20.94,21.4,20.94c3.69,0,11.46,0,14.53-1.6l-0.21-19.8C651.11,154.72,649.7,155.36,649.7,145.25z"/>
	<path class="st0" d="M413.6,165.34c1.77,3.67,8.05,11.77,19.81,11.9c20.59-0.13,20.78-20.75,20.78-32.97V97.26
		c0-5.5,0-26.41-20.64-26.41c-9.96,0-16.58,8.37-19.59,13.33V46.54h-28.03v128.13h27.67L413.6,165.34L413.6,165.34z M414.1,104.99
		c0-4.2,1.76-12.26,6.74-12.26c4.52,0,4.52,5.8,4.52,8.41v46.03c0,6.09-1.45,8.68-4.2,8.68c-3.71,0-7.06-3.87-7.06-13.69V104.99z"/>
	<path class="st0" d="M531.2,131.05h-27.67v13.39c0,7.36,0,13.19-5.8,13.19c-5.61,0-5.61-6.77-5.61-13.19v-40.6
		c0-5.77,0-13.35,5.61-13.35c5.8,0,5.8,7.89,5.8,7.89v13.2h27.67c0.32-23.68-2.42-40.74-33.48-40.74c-34.3,0-34.3,25.13-34.3,35.08
		v34.27c0,10.65,0.32,37.03,34.15,37.03C534.12,177.24,530.91,152.8,531.2,131.05z"/>
	<path class="st0" d="M579.52,162.83h0.34v11.85h28.03V99.73c0-20.37-17.02-27.59-33.85-27.59c-16.84,0-33.85,7.22-33.85,27.59v7.13
		h28.02v-8.88c0-4.05,1.22-7.45,5.83-7.45c4.61,0,5.82,3.4,5.82,7.45c0,18.78-39.67,15.57-39.67,42.14v15.08
		c0,13.28,7.48,20.72,19.66,20.72C571.05,175.92,576.12,170.07,579.52,162.83z M568.2,137.64c0-7.94,6.19-10.26,11.65-14.12v17.49
		c0,9.04-0.69,12.94-6.53,12.94c-2.67,0-5.12-1.78-5.12-5.33V137.64z"/>
	<path class="st0" d="M179.38,18.35c-10.53,10.14-21.09,15.83-23.92,17.26c-2.81,1.45-11.49,5.9-20.3,9.4
		c-8.82,3.48-6.94,4.13-8.54,6.01c-1.58,1.91-3.94,0.95-5.19,0.51c-1.29-0.49-9.82-3.61-16.46-5.63
		c-9.38-2.86-22.87-4.82-28.86-5.27c-5.86-0.45-18.33,1.32-21.64,1.32c0-1.11-0.77-2.98-2.38-3.6c-1.55-0.64-3.77,0.62-18.65-8.02
		C18.58,21.73,15.28,13.37,8.56,0c-0.21-0.31-0.1,19.24,2.77,30.45c3.85,13.86,4.84,17.34,12.71,27.73
		c7.97,10.36,23.13,16.17,26.45,17.71c3.31,1.57,28.62,9.23,31.72,9.99c3.17,0.79,12.82,1.37,14.53,1.37c1.75,0,0.94,1.26-0.13,2.21
		c-2.84,3.02-3.91,6.83-5.96,12.04c-4.55,5.71-10.85,5.23-18.45,4.94c-4.57-0.16-10.13-5.16-10.91-6.74
		c-0.81-1.57-3.49-5.82-5.91-11.5c-2.35-5.68-3-6.14-6.62-7.85c-3.65-1.73-8.66-5.88-13.77-9.88c-6.18-4.9-3.51-4.57-9.62,0.16
		c-2.5,1.91-4.13,3.79-11.98,13.45S2.58,101,0.86,105.13c-1.72,4.08,0.31,4.85,1.28,5.85c0.94,0.93,5.24,4.98,12.82,11.46
		c5.16,4.39,3.94,2.97,11.4,2.01c4.07-0.59,17.64-3.07,25.55-3.11c7.88-0.04,7.09,1.68,9.32,5.98c2.2,4.23,6.8,10.07,18.05,10.97
		c11.17,0.9,16.06-2.73,20.64-5.58c4.57-2.88,1.09-3.49,0.31-4.12c-0.93-0.72-2.86-2.33-5.25-5.04c-2.37-2.67-1.28-3.95,0.27-4.74
		c5.11-0.96,3.36-0.47,5.86-2.36c2.53-1.94,8.19-1,10.44-0.68c1.26,0.94,1.89,1.58,3.75,1.58c2.27,0,1.29-0.63,0.67-1.43
		c-1.58-1.89-2.56-4.3-3.35-7.24c-0.8-3.03-0.66-11.38,0.74-16.91c0,0,0.45-0.48-0.51-1.87c-0.94-1.46,1.43-1.46,3.02-0.65
		c4.73,2.31,2.39,1.4,10.26,2.31c7.89,0.92,16.87-5.11,20.51-7.63c3.6-2.53,5.64-6.19,0.74-9.62c-4.93-3.47,0.42-7.74,0.42-7.74
		s5.99-5.11,7.56-6.49c1.58-1.41,12.41-13.46,14.47-16.77c2.02-3.33,8.95-16.6,11.6-24.05c0.31-0.6,0.76-1.42,0.13-2.04
		C180.97,16.61,180.65,17.06,179.38,18.35z"/>
	<path class="st0" d="M143.14,122.9c-0.22-2.84,1.44-2.52,2.37-2.52c0.94,0,10.26,0.27,11.53,0.13c1.24-0.17,0.6-1.59-0.82-2.7
		c-5.05-6.22-5.07-27.67-4.96-30.42c0.11-4.88-1.18-2.52-2.42-0.95c-2.04,1.75-2.04,2.71-2.16,6.97
		c-2.04,11.52-7.22,13.91-12.44,16.11c-5.18,2.24-11.98,0.36-15.15-0.09c-4.06-0.61,0.59,6.45,0.05,5.36
		c0.77,1.58,1.27,1.89,0.19,4.43c-1.11,2.5-7.29,8.69-7.9,9.5c-0.64,0.8-0.3,1.25,0,1.72c0.34,0.45,0.94,1.23,4.44,3.78
		c10.25,5.67,15.59,3.31,21,1.18C142.61,133.12,143.43,126.35,143.14,122.9z"/>
	<path class="st0" d="M160.84,126.31c0,0-3.97-1.68-8.85-2.94c-5.46-1.4-4.84,0.22-5.23,1.75c-0.6,3.31,4.23,3,7.9,3.11
		c13.43,2.48,18.35,8.93,21.06,11.77c2.66,2.84,2.2,0.31,1.41-1.11C175.05,134.16,166.2,128.98,160.84,126.31z"/>
	<path class="st0" d="M156.46,133.12c-0.35-0.13-5.21-1.88-7.12-2.5c-1.92-0.62-2.07-1.11-3.98,0.5c-1.87,1.58-0.89,2.37,1.13,2.99
		c11.69,2.94,18.49,8.6,19.64,9.71c1.08,1.1,1.54,1.57,2.53,0.96c0.92-0.63,0.29-1.29-0.51-2.53
		C167.35,140.98,162.83,136.31,156.46,133.12z"/>
	<path class="st0" d="M151.43,141.99c0,0-6.81-4.24-8.23-4.89c-1.43-0.61-1.43-0.77-2.65,0.82c-1.32,1.58-0.51,1.89,1.38,2.5
		c1.9,0.64,9.79,5.66,12.01,6.91c2.24,1.23,4.44,4.41,6.03,4.53c1.57,0.18,1.74,0.18,0.77-0.93
		C159.8,149.83,155.37,144.81,151.43,141.99z"/>
	<path class="st0" d="M119.05,139.43c0,0-1.09-0.65-1.89-1.14c-2.52-0.28-2.36,0.52-2.36,2.23c0.02,5.05-0.93,7.12-2.79,11.07
		c-4.11,5.68,0.48,2.68,2.09,1.58c4.22-3,5.13-5.25,6.55-8.88C122.06,140.67,120,140.05,119.05,139.43z"/>
	<path class="st0" d="M106.52,162.79c-1.64,2.66-6.2,5.87-11.97,5.88c-4.46,0-7.59-3.75-9.84-8.34c0,0-0.34-1.9-0.46-2.82
		c-0.17-0.97-0.49-1.6-1.61,0.14c-1.09,1.77-1.36,4.75-1.36,6.32c0,1.59-0.31,2.06-1.57,2.22c-1.27,0.15-0.96,0.04-4.12,0.04
		c-3.19,0-3.65,0.91-4.08,3c-0.45,2.04-1.26,5.22-1.41,10.56c-0.11,5.96,0.96,5.24,3.52,6.31c4.24,1.74,14.04,1.69,21.48,1.64
		c7.41-0.01,9.14-4.76,9.75-6.65c0.62-1.9,1.22-5.04-0.05-7.25c-1.23-2.22-0.3-3.95,0.31-5.2
		C105.76,167.38,106.68,165.97,106.52,162.79z"/>
	<path class="st0" d="M95.2,140.73c0,0,1.6-2.99-3.13-0.92c-5.82,2.55-4.26,3.34-4.23,4.92c0,1.6,0.93,5.98,1.92,10.09
		C92.43,151.48,94.44,144.07,95.2,140.73z"/>
	<path class="st0" d="M58.91,138.37c-2.36,0.62-5.04,2.23-5.04,2.23c-1.87,0.77-17.86,13.43-20.44,17.42
		c-0.21,0.28-3.4,3.49-5.92,6.34c-1.72,1.95,0.33,2.19,1.51,1.89c2.22-2.57,8.82-9.54,13.22-12.72c5.85-4.19,14.17-9.63,19.69-11.85
		C63.65,139.9,63.65,137.06,58.91,138.37z"/>
	<path class="st0" d="M57.34,136.46c1.57-0.15,1.89-0.96,1.25-2.54c-0.99-2.49-5.22-1.55-10.11-0.59
		c-9.57,3.05-19.32,6.02-32.12,16.96c0,0-0.5,0.63-3.28,2.88c-2.74,2.24,0.87,3.29,2.13,2.03c1.94-1.87,7.6-6.32,12.18-9.02
		C38.91,139.4,50.55,136.81,57.34,136.46z"/>
	<path class="st0" d="M53.2,130c2.85-0.17,5.07,0.31,1.4-4.26c-4.42-1.26-14.67,0.52-14.67,0.52c-7.71,1.75-15.77,3.54-26.48,9.09
		c0,0-8.74,4.72-9.71,5.21c-0.93,0.47-3.22,1.78-3.67,2.99c-0.37,1.32,0.84,1.4,2.1,0.83c3.4-1.59,13.97-6.81,22.78-9.69
		C33.8,131.8,43.58,129.89,53.2,130z"/>
	<path class="st0" d="M237.49,207.97h-13.87v43.81h7v-18.1h6.14c8.16,0,12.82-5.09,12.82-12.95
		C249.58,213.25,245.9,207.97,237.49,207.97z M235.59,228.4h-4.97v-15.16h4.48c5.59,0,7.49,2.88,7.49,7.61
		C242.59,226.44,239.34,228.4,235.59,228.4z"/>
	<path class="st0" d="M268.19,207.11c-10.07,0-14.48,7.12-14.48,22.76c0,15.65,4.41,22.76,14.48,22.76
		c10.06,0,14.49-7.12,14.49-22.76C282.67,214.23,278.25,207.11,268.19,207.11z M268.19,247.36c-4.17,0-7.49-2.64-7.49-17.67
		c0-14.73,3.31-17.3,7.49-17.3s7.49,2.58,7.49,17.3C275.68,244.72,272.36,247.36,268.19,247.36z"/>
	<path class="st0" d="M315.21,247.98c-0.18-2.64-0.18-6.02-0.24-8.9c-0.25-6.14-2.45-8.53-6.87-8.95v-0.12
		c4.85-0.74,7.3-5.1,7.3-10.74c0-8.16-4.97-11.29-11.11-11.29h-15.47v43.81h7v-19.02h5.71c4.72,0,6.19,2.09,6.38,6.87
		c0.07,1.59,0.13,3.07,0.13,4.35c0,1.29,0.06,2.64,0.18,3.93c0.18,1.72,0.49,3.07,1.17,3.86h7.92
		C316.38,251.11,315.4,250.12,315.21,247.98z M301.4,227.48h-5.58v-14.23h5.95c4.67,0,6.63,2.45,6.63,7.12
		C308.4,224.78,305.88,227.48,301.4,227.48z"/>
	<polygon class="st0" points="346.77,207.97 319.09,207.97 319.09,213.86 329.53,213.86 329.53,251.78 336.52,251.78 336.52,213.86 
		346.77,213.86 	"/>
	<path class="st0" d="M356.46,207.97L344,251.79h7.3l2.82-10.74h12.83l2.7,10.74h7.3l-11.54-43.82L356.46,207.97L356.46,207.97z
		 M355.41,235.46l5.22-21.6h0.12l5.04,21.6H355.41z"/>
	<path class="st0" d="M400.47,228.64v-0.12c4.3-1.35,6.44-4.66,6.44-9.94c0-7.67-5.22-10.61-11.78-10.61h-14.18v43.81h13.88
		c8.22,0,13.5-4.6,13.5-11.96C408.33,232.39,405.26,229.5,400.47,228.64z M387.96,213.24h4.91c3.92,0,7.06,1.05,7.06,6.26
		c0,4.18-2.21,6.93-6.44,6.93h-5.52L387.96,213.24L387.96,213.24z M394.89,246.5h-6.93v-15.16h6.51c4.11,0,6.87,2.7,6.87,7.43
		C401.33,243.86,399.07,246.5,394.89,246.5z"/>
	<polygon class="st0" points="420.51,207.97 413.51,207.97 413.51,251.78 437.45,251.78 437.45,245.89 420.51,245.89 	"/>
	<polygon class="st0" points="448.97,231.9 464.68,231.9 464.68,226.01 448.97,226.01 448.97,213.86 465.66,213.86 465.66,207.97 
		441.97,207.97 441.97,251.78 466.16,251.78 466.16,245.89 448.97,245.89 	"/>
	<path class="st0" d="M500.09,207.97h-13.87v43.81h7v-18.1h6.14c8.16,0,12.82-5.09,12.82-12.95
		C512.18,213.25,508.5,207.97,500.09,207.97z M498.18,228.4h-4.97v-15.16h4.48c5.59,0,7.49,2.88,7.49,7.61
		C505.19,226.44,501.93,228.4,498.18,228.4z"/>
	<path class="st0" d="M530.78,207.11c-10.07,0-14.48,7.12-14.48,22.76c0,15.65,4.41,22.76,14.48,22.76s14.49-7.12,14.49-22.76
		C545.27,214.23,540.85,207.11,530.78,207.11z M530.78,247.36c-4.17,0-7.49-2.64-7.49-17.67c0-14.73,3.31-17.3,7.49-17.3
		s7.49,2.58,7.49,17.3C538.27,244.72,534.95,247.36,530.78,247.36z"/>
	<polygon class="st0" points="579.86,242.21 579.74,242.21 573.85,207.97 566.48,207.97 560.72,242.02 560.59,242.02 554.82,207.97 
		547.77,207.97 556.24,251.78 564.33,251.78 569.92,218.77 570.04,218.77 575.69,251.78 583.79,251.78 592.51,207.97 585.57,207.97 
			"/>
	<polygon class="st0" points="604.02,231.9 619.74,231.9 619.74,226.01 604.02,226.01 604.02,213.86 620.71,213.86 620.71,207.97 
		597.03,207.97 597.03,251.78 621.21,251.78 621.21,245.89 604.02,245.89 	"/>
	<path class="st0" d="M652.73,247.98c-0.18-2.64-0.18-6.02-0.24-8.9c-0.25-6.14-2.45-8.53-6.87-8.95v-0.12
		c4.85-0.74,7.3-5.1,7.3-10.74c0-8.16-4.97-11.29-11.11-11.29h-15.47v43.81h7v-19.02h5.71c4.72,0,6.19,2.09,6.38,6.87
		c0.07,1.59,0.13,3.07,0.13,4.35c0,1.29,0.06,2.64,0.18,3.93c0.18,1.72,0.49,3.07,1.17,3.86h7.92
		C653.9,251.11,652.92,250.12,652.73,247.98z M638.92,227.48h-5.58v-14.23h5.96c4.67,0,6.63,2.45,6.63,7.12
		C645.92,224.78,643.4,227.48,638.92,227.48z"/>
</g>
</svg>
