<?xml version="1.0" encoding="utf-8"?>
<!-- Generator: Adobe Illustrator 25.2.0, SVG Export Plug-In . SVG Version: 6.00 Build 0)  -->
<svg version="1.1" id="Layer_1" xmlns="http://www.w3.org/2000/svg" xmlns:xlink="http://www.w3.org/1999/xlink" x="0px" y="0px"
	 width="628.3px" height="204.2px" viewBox="0 0 628.3 204.2" style="enable-background:new 0 0 628.3 204.2;" xml:space="preserve"
	>
<style type="text/css">
	.st0{fill:#FFFFFF;}
</style>
<g>
	<path class="st0" d="M192.8,166.9h9.1l6.4,27h0.1l6.3-27h8.9v36.5h-5.5V173H218l-7.4,30.4h-4.9l-7.4-30.4h-0.1v30.4h-5.5V166.9z"/>
	<path class="st0" d="M238.8,166.9h7.5l9.6,36.5h-6.1l-2.3-9h-10.7l-2.3,9h-6.1L238.8,166.9z M246.5,189.8l-4.2-18h-0.1l-4.4,18
		H246.5z"/>
	<path class="st0" d="M263.8,171.8h-8.7v-4.9h23.1v4.9h-8.5v31.6h-5.8C263.8,203.4,263.8,171.8,263.8,171.8z"/>
	<path class="st0" d="M283.2,166.9h19.8v4.9H289v10.1h13.1v4.9H289v11.7h14.3v4.9h-20.2V166.9z"/>
	<path class="st0" d="M308.9,166.9h12.9c5.1,0,9.3,2.6,9.3,9.4c0,4.7-2,8.3-6.1,9v0.1c3.7,0.4,5.5,2.3,5.7,7.5c0,2.4,0,5.2,0.2,7.4
		c0.1,1.8,1,2.6,1.8,3.2h-6.6c-0.5-0.7-0.8-1.8-1-3.2c-0.1-1.1-0.1-2.2-0.1-3.3c0-1.1,0-2.3-0.1-3.6c-0.1-4-1.4-5.7-5.3-5.7h-4.8
		v15.8H309L308.9,166.9C309,166.9,308.9,166.9,308.9,166.9z M319.4,183.2c3.7,0,5.8-2.2,5.8-5.9c0-3.9-1.6-5.9-5.5-5.9h-5v11.9
		C314.7,183.2,319.4,183.2,319.4,183.2z"/>
	<path class="st0" d="M337.8,166.9h5.8v36.5h-5.8V166.9z"/>
	<path class="st0" d="M358.5,166.9h7.5l9.6,36.5h-6.1l-2.3-9h-10.7l-2.3,9h-6.1L358.5,166.9z M366.3,189.8l-4.2-18H362l-4.4,18
		H366.3z"/>
	<path class="st0" d="M379.9,166.9h5.8v31.6h14.1v4.9h-19.9C379.9,203.4,379.9,166.9,379.9,166.9z"/>
	<path class="st0" d="M418.1,166.9h5.8v14.6h10.8v-14.6h5.8v36.5h-5.8v-17h-10.8v17h-5.8V166.9z"/>
	<path class="st0" d="M455.6,166.9h7.5l9.6,36.5h-6.1l-2.3-9h-10.7l-2.3,9h-6.1L455.6,166.9z M463.3,189.8l-4.2-18H459l-4.4,18
		H463.3z"/>
	<path class="st0" d="M477.3,166.9h7.1l10.6,27.2h0.1v-27.2h5.5v36.5h-7.1l-10.6-27.9h-0.1v27.9h-5.5V166.9z"/>
	<path class="st0" d="M508,166.9h10.4c11.5,0,12.9,7.5,12.9,18.3s-1.4,18.3-12.9,18.3H508V166.9z M513.8,199h4.8
		c4.8,0,6.8-3.2,6.8-13.9c0-10.3-1.8-13.9-6.8-13.9h-4.8V199z"/>
	<path class="st0" d="M537.3,166.9h5.8v31.6h14.1v4.9h-19.9V166.9z"/>
	<path class="st0" d="M562.2,166.9h5.8v36.5h-5.8V166.9z"/>
	<path class="st0" d="M575.2,166.9h7.1l10.6,27.2h0.1v-27.2h5.5v36.5h-7.1l-10.6-27.9h-0.1v27.9h-5.5V166.9z"/>
	<path class="st0" d="M623.9,199.2h-0.1c-1.6,3.4-3.7,5-8,5c-8,0-10.8-5.9-10.8-19c0-13,3.7-19,12.1-19c9.1,0,10.7,7.2,10.7,10.5
		v0.7h-5.5v-0.9c0-2.7-1.1-5.9-5.1-5.9c-4.1,0-6.3,2.7-6.3,14.4c0,11.7,1.9,14.7,5.9,14.7c4.5,0,6.1-3.2,6.1-11.2h-6.1v-4.4h11.7
		v19.2h-4.4L623.9,199.2L623.9,199.2z"/>
</g>
<path class="st0" d="M226.3,83.4H220V59.3c7.4,0,13.7-0.3,13.7,8.5C233.7,75.1,234.2,83.4,226.3,83.4 M193.9,150.8h39.7
	c28.1,0,28.1-26.6,28.1-35.8c0-1.4,0-18.4-14.2-22.9c12.6-7.3,11.4-22.2,11.4-29.3c0-0.8,0-23.2-24.9-23.2h-40.1L193.9,150.8
	 M220,130.9v-28.5c10.4,0.4,15,0.1,15,13.3C234.9,131.3,231.3,130.9,220,130.9"/>
<path class="st0" d="M296.7,77.3c4.6,0,4.6,6.2,4.6,8.2v41.2c0,2.4,0.3,8.2-4.6,8.2c-5.2,0-5.2-5.9-5.2-8V85.2
	C291.5,83.4,291.5,77.3,296.7,77.3 M297.1,153c28.9,0,28.9-23.5,28.9-26V90.4c0-8.9,0-29.8-28.9-29.8c-29.9,0-29.9,20.8-29.9,26.1
	V127C267.2,131.3,267.2,153,297.1,153"/>
<path class="st0" d="M534.1,62.9h5V44.6h24.3v18.3h6.4v18h-6.4v44.3c0,8.8,1.3,8.3,6.7,8.7l0.1,17.2c-2.7,1.4-9.4,1.4-12.6,1.4
	c-6.8,0-18.6-1.7-18.6-18.2V80.9h-5L534.1,62.9L534.1,62.9z"/>
<path class="st0" d="M364.8,79.7c3.9,0,3.9,5,3.9,7.3v39.9c0,5.3-1.2,7.6-3.6,7.6c-3.2,0-6.1-3.4-6.1-11.9V90.3
	C359,86.7,360.5,79.7,364.8,79.7 M334.5,150.8h24v-8.1c1.5,3.2,7,10.2,17.2,10.3c17.9-0.1,18-18,18-28.7V83.6
	c0-4.8,0-22.9-17.9-22.9c-8.7,0-14.4,7.3-17,11.6V39.6h-24.3L334.5,150.8L334.5,150.8z"/>
<path class="st0" d="M460.6,96h-24V84.5c0,0,0-6.8-5-6.8c-4.9,0-4.9,6.6-4.9,11.6v35.2c0,5.6,0,11.5,4.9,11.5c5,0,5-5,5-11.5v-11.6
	h24c-0.3,18.9,2.5,40.1-29.2,40.1c-29.4,0-29.6-22.9-29.6-32.1V91.1c0-8.7,0-30.5,29.8-30.5C458.5,60.7,460.9,75.5,460.6,96"/>
<path class="st0" d="M492.7,118.6c0-6.9,5.4-8.9,10.1-12.3v15.2c0,7.8-0.6,11.2-5.7,11.2c-2.3,0-4.5-1.5-4.5-4.6L492.7,118.6
	 M502.8,150.8h24.3v-65c0-17.7-14.8-24-29.4-24c-14.6,0-29.4,6.3-29.4,24v6.2h24.3v-7.7c0-3.5,1.1-6.5,5.1-6.5c4,0,5.1,2.9,5.1,6.5
	c0,16.3-34.4,13.5-34.4,36.6v13.1c0,11.5,6.5,18,17,18c9.7,0,14.2-5.1,17.1-11.4h0.3L502.8,150.8L502.8,150.8z"/>
<path class="st0" d="M7.4,0c5.8,11.6,8.7,18.9,21.6,26.4s14.8,6.4,16.2,6.9s2.1,2.2,2.1,3.1c2.9,0,13.7-1.5,18.8-1.2
	c5.2,0.4,16.9,2.1,25.1,4.6c5.8,1.8,13.2,4.5,14.3,4.9c1.1,0.4,3.2,1.2,4.5-0.4c1.4-1.7-0.3-2.2,7.4-5.2c7.7-3,15.2-6.9,17.6-8.1
	c2.5-1.2,11.6-6.2,20.8-15c1.1-1.1,1.4-1.5,1.9-1s0.1,1.2-0.1,1.8c-2.3,6.4-8.3,18-10.1,20.8s-11.2,13.3-12.6,14.6
	c-1.4,1.2-6.6,5.6-6.6,5.6s-4.6,3.7-0.4,6.7c4.3,3,2.5,6.2-0.7,8.3c-3.1,2.2-10.9,7.4-17.8,6.6c-6.8-0.8-4.8,0-8.9-2
	c-1.4-0.7-3.4-0.7-2.6,0.6c0.8,1.2,0.4,1.6,0.4,1.6c-1.2,4.8-1.3,12.1-0.6,14.7s1.5,4.7,2.9,6.3c0.6,0.7,1.4,1.2-0.5,1.2
	c-1.6,0-2.2-0.5-3.3-1.4c-1.9-0.3-6.8-1.1-9,0.6c-2.2,1.7-0.7,1.2-5.1,2.1c-1.4,0.7-2.3,1.8-0.3,4.1c2.1,2.4,3.8,3.7,4.5,4.4
	c0.7,0.6,3.7,1.1-0.3,3.6c-4,2.5-8.2,5.6-17.9,4.8c-9.7-0.8-13.7-5.8-15.6-9.5s-1.2-5.2-8.1-5.2s-18.6,2.2-22.2,2.7
	c-6.4,0.8-5.4,2.1-9.9-1.8c-6.6-5.6-10.3-9.1-11.1-9.9c-0.8-0.8-2.6-1.5-1.1-5.1c1.5-3.6,4.1-9.9,10.9-18.2s8.2-10,10.4-11.7
	c5.3-4.1,3-4.4,8.4-0.2c4.4,3.5,8.8,7.1,11.9,8.6c3.2,1.5,3.7,1.9,5.8,6.8s4.4,8.6,5.1,10s5.5,5.7,9.5,5.8c6.6,0.2,12.1,0.7,16-4.3
	c1.8-4.5,2.7-7.8,5.2-10.4c1-0.8,1.6-1.9,0.1-1.9s-9.9-0.5-12.6-1.2c-2.7-0.7-24.7-7.3-27.5-8.7c-2.9-1.4-16-6.4-22.9-15.4
	c-6.9-9-7.7-12-11-24.1C7.3,16.7,7.3-0.3,7.4,0"/>
<path class="st0" d="M131.2,75.8c-0.1,2.4,0,21,4.3,26.4c1.2,0.9,1.8,2.2,0.7,2.3c-1.1,0.1-9.2-0.1-10-0.1c-0.8,0-2.2-0.3-2.1,2.2
	c0.2,3-0.5,8.9-5.4,10.8c-4.7,1.9-9.3,3.9-18.2-1c-3-2.2-3.6-2.9-3.8-3.3c-0.3-0.4-0.6-0.8,0-1.5c0.5-0.7,5.9-6,6.8-8.2
	s0.5-2.5-0.2-3.8c0.5,0.9-3.5-5.2,0-4.7c2.7,0.4,8.6,2,13.1,0.1s9-4,10.8-14c0.1-3.7,0.1-4.5,1.9-6
	C130.2,73.6,131.3,71.6,131.2,75.8"/>
<path class="st0" d="M139.5,109.6c4.7,2.3,12.3,6.8,14.1,10.9c0.7,1.2,1.1,3.4-1.2,1c-2.3-2.5-6.6-8.1-18.2-10.2
	c-3.2-0.1-7.4,0.2-6.9-2.7c0.3-1.3-0.2-2.7,4.5-1.5C136.1,108.1,139.5,109.6,139.5,109.6"/>
<path class="st0" d="M135.7,115.5c5.6,2.8,9.5,6.8,10.2,7.9s1.2,1.6,0.4,2.2s-1.2,0.1-2.2-0.8c-1-1-6.9-5.9-17-8.4
	c-1.8-0.5-2.6-1.2-1-2.6c1.6-1.4,1.8-1,3.4-0.4C131.2,113.9,135.4,115.4,135.7,115.5"/>
<path class="st0" d="M131.3,123.2c3.4,2.4,7.3,6.8,8.1,7.8c0.8,1,0.7,1-0.7,0.8c-1.4-0.1-3.3-2.9-5.2-4c-1.9-1.1-8.8-5.4-10.4-6
	c-1.6-0.5-2.3-0.8-1.2-2.2s1.1-1.2,2.3-0.7C125.4,119.5,131.3,123.2,131.3,123.2"/>
<path class="st0" d="M103.3,120.9c0.8,0.6,2.6,1.1,1.4,4.2c-1.2,3.2-2,5.1-5.7,7.7c-1.4,1-5.3,3.6-1.8-1.4c1.6-3.4,2.4-5.2,2.4-9.6
	c0-1.5-0.1-2.2,2.1-1.9C102.3,120.4,103.3,120.9,103.3,120.9"/>
<path class="st0" d="M73.5,139.1c1.9,4,4.7,7.2,8.5,7.2c5,0,8.9-2.8,10.4-5.1c0.2,2.7-0.7,4-1.2,5.1c-0.5,1.1-1.4,2.6-0.3,4.5
	c1.1,1.9,0.6,4.7,0,6.3c-0.5,1.6-2,5.8-8.5,5.8c-6.4,0-14.9,0.1-18.6-1.4c-2.2-0.9-3.2-0.3-3-5.5c0.1-4.7,0.8-7.4,1.2-9.2
	s0.8-2.6,3.5-2.6c2.7,0,2.5,0.1,3.6,0c1.1-0.1,1.4-0.6,1.4-1.9c0-1.4,0.3-4,1.2-5.5s1.2-1,1.4-0.1C73.2,137.5,73.5,139.1,73.5,139.1
	"/>
<path class="st0" d="M82.6,122.1c-0.7,2.9-2.4,9.3-4.8,12.2c-0.8-3.6-1.7-7.4-1.7-8.8c0-1.4-1.4-2,3.7-4.2
	C83.9,119.5,82.6,122.1,82.6,122.1"/>
<path class="st0" d="M29,137.1c2.2-3.4,16.1-14.4,17.8-15.1c0,0,2.3-1.4,4.4-1.9c4.1-1.1,4.1,1.3,2.6,2.9c-4.8,1.9-12,6.7-17.1,10.3
	c-3.8,2.8-9.5,8.8-11.5,11c-1,0.3-2.8,0.1-1.3-1.6C26,140.1,28.8,137.3,29,137.1"/>
<path class="st0" d="M14.2,130.4c11.1-9.5,19.5-12.1,27.8-14.7c4.2-0.8,7.9-1.7,8.8,0.5c0.5,1.4,0.3,2.1-1.1,2.2
	c-5.9,0.3-16,2.6-26,8.4c-4,2.3-8.9,6.2-10.6,7.8c-1.1,1.1-4.2,0.2-1.9-1.8C13.8,130.9,14.2,130.4,14.2,130.4"/>
<path class="st0" d="M11.7,117.4c9.3-4.8,16.3-6.3,23-7.9c0,0,8.9-1.5,12.7-0.4c3.2,4,1.2,3.6-1.2,3.7c-8.4-0.1-16.8,1.6-24.5,4.1
	s-16.8,7-19.8,8.4c-1.1,0.5-2.1,0.4-1.8-0.7c0.4-1,2.3-2.2,3.2-2.6C4.1,121.5,11.7,117.4,11.7,117.4"/>
<path class="st0" d="M592.6,149.9c-4.9,0-8.5-3.8-8.5-8.8c0-4.9,3.6-8.8,8.5-8.8c4.9,0,8.5,3.8,8.5,8.8
	C601.1,146,597.5,149.9,592.6,149.9 M592.6,151.2c5.6,0,10.1-4.5,10.1-10.1c0-5.5-4.5-10.1-10.1-10.1c-5.6,0-10.1,4.5-10.1,10.1
	C582.5,146.7,587,151.2,592.6,151.2 M594.2,141.5c2-0.1,3.5-0.9,3.5-3.1c0-1.9-1-3-4-3h-4.9v11.3h1.4v-5.2h2.5l3.2,5.2h1.7
	L594.2,141.5z M590.2,140.5v-4h3.2c1.4,0,2.8,0.2,2.8,2c0,2.3-2.3,2-3.9,2H590.2z"/>
</svg>
