<?xml version="1.0" encoding="utf-8"?>
<!-- Generator: Adobe Illustrator 25.2.0, SVG Export Plug-In . SVG Version: 6.00 Build 0)  -->
<svg version="1.0" id="Layer_1" xmlns="http://www.w3.org/2000/svg" xmlns:xlink="http://www.w3.org/1999/xlink" x="0px" y="0px"
	 width="994.01px" height="372.69px" viewBox="0 0 994.01 372.69" style="enable-background:new 0 0 994.01 372.69;"
	 xml:space="preserve">
<style type="text/css">
	.st0{fill:#EF4123;}
	.st1{fill:#FFFFFF;}
</style>
<rect class="st0" width="994.01" height="372.69"/>
<g>
	<path class="st1" d="M832.78,209.61c-5.49,0-9.89,4.43-9.89,9.85c0,5.46,4.4,9.9,9.89,9.9c5.44,0,9.84-4.44,9.84-9.9
		C842.62,214.04,838.21,209.61,832.78,209.61z M832.78,228.06c-4.85,0-8.34-3.75-8.34-8.6c0-4.79,3.49-8.54,8.34-8.54
		c4.79,0,8.28,3.75,8.28,8.54C841.06,224.3,837.57,228.06,832.78,228.06z"/>
	<path class="st1" d="M835.15,219.71v-0.03c1.3-0.36,1.86-1.41,1.86-2.71c0-1.73-1.23-2.81-3.25-2.81h-5.04v10.71h1.42v-4.57h3.49
		c1.38,0,1.61,0.9,1.78,1.93c0.21,1.05-0.01,2.2,0.39,2.64h1.59c-0.6-0.72-0.55-1.92-0.63-2.96
		C836.63,220.88,836.38,219.95,835.15,219.71z M833.1,219.09h-2.97v-3.74h3.54c1.34,0,1.91,0.77,1.91,1.83
		C835.58,218.75,834.43,219.09,833.1,219.09z"/>
	<path class="st1" d="M453.34,187.93c0-1.59,0-21.27-16.43-26.41c14.47-8.36,13.22-25.57,13.22-33.79c0-0.99,0-26.72-28.66-26.72
		h-46.24v128.13h45.72C453.34,229.14,453.34,198.53,453.34,187.93z M405.36,123.7c8.52,0,15.77-0.3,15.77,9.84
		c0,8.36,0.68,17.99-8.5,17.99h-7.27L405.36,123.7L405.36,123.7z M405.36,206.26v-32.81c11.91,0.49,17.23,0.18,17.23,15.29
		C422.59,206.79,418.39,206.26,405.36,206.26z"/>
	<path class="st1" d="M494.24,231.7c33.32,0,33.32-27.03,33.32-29.93v-42.18c0-10.31,0-34.29-33.32-34.29
		c-34.46,0-34.46,23.97-34.46,30.13v46.34C459.79,206.78,459.79,231.7,494.24,231.7z M487.8,153.65c0-2.13,0-9.18,5.95-9.18
		c5.29,0,5.29,7.06,5.29,9.52v47.49c0,2.73,0.31,9.49-5.29,9.49c-5.95,0-5.95-6.76-5.95-9.18V153.65z"/>
	<path class="st1" d="M801.09,199.71v-51.06h7.36v-20.73h-7.36v-21.1h-28.03v21.1h-5.79v20.73h5.79v61.48
		c0,19.01,13.52,20.94,21.4,20.94c3.69,0,11.46,0,14.53-1.6l-0.21-19.8C802.5,209.18,801.09,209.82,801.09,199.71z"/>
	<path class="st1" d="M564.99,219.8c1.77,3.67,8.05,11.77,19.81,11.9c20.59-0.13,20.78-20.75,20.78-32.97v-47.01
		c0-5.5,0-26.41-20.64-26.41c-9.96,0-16.58,8.37-19.59,13.33V101h-28.03v128.13h27.67L564.99,219.8L564.99,219.8z M565.49,159.45
		c0-4.2,1.76-12.26,6.74-12.26c4.52,0,4.52,5.8,4.52,8.41v46.03c0,6.09-1.45,8.68-4.2,8.68c-3.71,0-7.06-3.87-7.06-13.69V159.45z"/>
	<path class="st1" d="M682.59,185.51h-27.67v13.39c0,7.36,0,13.19-5.8,13.19c-5.61,0-5.61-6.77-5.61-13.19v-40.6
		c0-5.77,0-13.35,5.61-13.35c5.8,0,5.8,7.89,5.8,7.89v13.2h27.67c0.32-23.68-2.42-40.74-33.48-40.74c-34.3,0-34.3,25.13-34.3,35.08
		v34.27c0,10.65,0.32,37.03,34.15,37.03C685.51,231.7,682.3,207.26,682.59,185.51z"/>
	<path class="st1" d="M730.91,217.29h0.34v11.85h28.03v-74.95c0-20.37-17.02-27.59-33.85-27.59c-16.84,0-33.85,7.22-33.85,27.59
		v7.13h28.02v-8.88c0-4.05,1.22-7.45,5.83-7.45c4.61,0,5.82,3.4,5.82,7.45c0,18.78-39.67,15.57-39.67,42.14v15.08
		c0,13.28,7.48,20.72,19.66,20.72C722.44,230.38,727.51,224.53,730.91,217.29z M719.59,192.1c0-7.94,6.19-10.26,11.65-14.12v17.49
		c0,9.04-0.69,12.94-6.53,12.94c-2.67,0-5.12-1.78-5.12-5.33V192.1z"/>
	<path class="st1" d="M330.77,72.81c-10.53,10.14-21.09,15.83-23.92,17.26c-2.81,1.45-11.49,5.9-20.3,9.4
		c-8.82,3.48-6.94,4.13-8.54,6.01c-1.58,1.91-3.94,0.95-5.19,0.51c-1.29-0.49-9.82-3.61-16.46-5.63
		c-9.38-2.86-22.87-4.82-28.86-5.27c-5.86-0.45-18.33,1.32-21.64,1.32c0-1.11-0.77-2.98-2.38-3.6c-1.55-0.64-3.77,0.62-18.65-8.02
		c-14.86-8.6-18.16-16.96-24.88-30.33c-0.21-0.31-0.1,19.24,2.77,30.45c3.85,13.86,4.84,17.34,12.71,27.73
		c7.97,10.36,23.13,16.17,26.45,17.71c3.31,1.57,28.62,9.23,31.72,9.99c3.17,0.79,12.82,1.37,14.53,1.37c1.75,0,0.94,1.26-0.13,2.21
		c-2.84,3.02-3.91,6.83-5.96,12.04c-4.55,5.71-10.85,5.23-18.45,4.94c-4.57-0.16-10.13-5.16-10.91-6.74
		c-0.81-1.57-3.49-5.82-5.91-11.5c-2.35-5.68-3-6.14-6.62-7.85c-3.65-1.73-8.66-5.88-13.77-9.88c-6.18-4.9-3.51-4.57-9.62,0.16
		c-2.5,1.91-4.13,3.79-11.98,13.45s-10.81,16.92-12.53,21.05c-1.72,4.08,0.31,4.85,1.28,5.85c0.94,0.93,5.24,4.98,12.82,11.46
		c5.16,4.39,3.94,2.97,11.4,2.01c4.07-0.59,17.64-3.07,25.55-3.11c7.88-0.04,7.09,1.68,9.32,5.98c2.2,4.23,6.8,10.07,18.05,10.97
		c11.17,0.9,16.06-2.73,20.64-5.58c4.57-2.88,1.09-3.49,0.31-4.12c-0.93-0.72-2.86-2.33-5.25-5.04c-2.37-2.67-1.28-3.95,0.27-4.74
		c5.11-0.96,3.36-0.47,5.86-2.36c2.53-1.94,8.19-1,10.44-0.68c1.26,0.94,1.89,1.58,3.75,1.58c2.27,0,1.29-0.63,0.67-1.43
		c-1.58-1.89-2.56-4.3-3.35-7.24c-0.8-3.03-0.66-11.38,0.74-16.91c0,0,0.45-0.48-0.51-1.87c-0.94-1.46,1.43-1.46,3.02-0.65
		c4.73,2.31,2.39,1.4,10.26,2.31c7.89,0.92,16.87-5.11,20.51-7.63c3.6-2.53,5.64-6.19,0.74-9.62c-4.93-3.47,0.42-7.74,0.42-7.74
		s5.99-5.11,7.56-6.49c1.58-1.41,12.41-13.46,14.47-16.77c2.02-3.33,8.95-16.6,11.6-24.05c0.31-0.6,0.76-1.42,0.13-2.04
		C332.36,71.07,332.04,71.52,330.77,72.81z"/>
	<path class="st1" d="M294.53,177.36c-0.22-2.84,1.44-2.52,2.37-2.52c0.94,0,10.26,0.27,11.53,0.13c1.24-0.17,0.6-1.59-0.82-2.7
		c-5.05-6.22-5.07-27.67-4.96-30.42c0.11-4.88-1.18-2.52-2.42-0.95c-2.04,1.75-2.04,2.71-2.16,6.97
		c-2.04,11.52-7.22,13.91-12.44,16.11c-5.18,2.24-11.98,0.36-15.15-0.09c-4.06-0.61,0.59,6.45,0.05,5.36
		c0.77,1.58,1.27,1.89,0.19,4.43c-1.11,2.5-7.29,8.69-7.9,9.5c-0.64,0.8-0.3,1.25,0,1.72c0.34,0.45,0.94,1.23,4.44,3.78
		c10.25,5.67,15.59,3.31,21,1.18C294,187.58,294.82,180.81,294.53,177.36z"/>
	<path class="st1" d="M312.23,180.77c0,0-3.97-1.68-8.85-2.94c-5.46-1.4-4.84,0.22-5.23,1.75c-0.6,3.31,4.23,3,7.9,3.11
		c13.43,2.48,18.35,8.93,21.06,11.77c2.66,2.84,2.2,0.31,1.41-1.11C326.44,188.62,317.59,183.44,312.23,180.77z"/>
	<path class="st1" d="M307.85,187.58c-0.35-0.13-5.21-1.88-7.12-2.5c-1.92-0.62-2.07-1.11-3.98,0.5c-1.87,1.58-0.89,2.37,1.13,2.99
		c11.69,2.94,18.49,8.6,19.64,9.71c1.08,1.1,1.54,1.57,2.53,0.96c0.92-0.63,0.29-1.29-0.51-2.53
		C318.74,195.44,314.22,190.77,307.85,187.58z"/>
	<path class="st1" d="M302.82,196.45c0,0-6.81-4.24-8.23-4.89c-1.43-0.61-1.43-0.77-2.65,0.82c-1.32,1.58-0.51,1.89,1.38,2.5
		c1.9,0.64,9.79,5.66,12.01,6.91c2.24,1.23,4.44,4.41,6.03,4.53c1.57,0.18,1.74,0.18,0.77-0.93
		C311.19,204.29,306.76,199.27,302.82,196.45z"/>
	<path class="st1" d="M270.44,193.89c0,0-1.09-0.65-1.89-1.14c-2.52-0.28-2.36,0.52-2.36,2.23c0.02,5.05-0.93,7.12-2.79,11.07
		c-4.11,5.68,0.48,2.68,2.09,1.58c4.22-3,5.13-5.25,6.55-8.88C273.45,195.13,271.39,194.51,270.44,193.89z"/>
	<path class="st1" d="M257.91,217.25c-1.64,2.66-6.2,5.87-11.97,5.88c-4.46,0-7.59-3.75-9.84-8.34c0,0-0.34-1.9-0.46-2.82
		c-0.17-0.97-0.49-1.6-1.61,0.14c-1.09,1.77-1.36,4.75-1.36,6.32c0,1.59-0.31,2.06-1.57,2.22c-1.27,0.15-0.96,0.04-4.12,0.04
		c-3.19,0-3.65,0.91-4.08,3c-0.45,2.04-1.26,5.22-1.41,10.56c-0.11,5.96,0.96,5.24,3.52,6.31c4.24,1.74,14.04,1.69,21.48,1.64
		c7.41-0.01,9.14-4.76,9.75-6.65c0.62-1.9,1.22-5.04-0.05-7.25c-1.23-2.22-0.3-3.95,0.31-5.2
		C257.15,221.84,258.07,220.43,257.91,217.25z"/>
	<path class="st1" d="M246.59,195.19c0,0,1.6-2.99-3.13-0.92c-5.82,2.55-4.26,3.34-4.23,4.92c0,1.6,0.93,5.98,1.92,10.09
		C243.82,205.94,245.83,198.53,246.59,195.19z"/>
	<path class="st1" d="M210.3,192.83c-2.36,0.62-5.04,2.23-5.04,2.23c-1.87,0.77-17.86,13.43-20.44,17.42
		c-0.21,0.28-3.4,3.49-5.92,6.34c-1.72,1.95,0.33,2.19,1.51,1.89c2.22-2.57,8.82-9.54,13.22-12.72c5.85-4.19,14.17-9.63,19.69-11.85
		C215.04,194.36,215.04,191.52,210.3,192.83z"/>
	<path class="st1" d="M208.73,190.92c1.57-0.15,1.89-0.96,1.25-2.54c-0.99-2.49-5.22-1.55-10.11-0.59
		c-9.57,3.05-19.32,6.02-32.12,16.96c0,0-0.5,0.63-3.28,2.88c-2.74,2.24,0.87,3.29,2.13,2.03c1.94-1.87,7.6-6.32,12.18-9.02
		C190.3,193.86,201.94,191.27,208.73,190.92z"/>
	<path class="st1" d="M204.59,184.46c2.85-0.17,5.07,0.31,1.4-4.26c-4.42-1.26-14.67,0.52-14.67,0.52
		c-7.71,1.75-15.77,3.54-26.48,9.09c0,0-8.74,4.72-9.71,5.21c-0.93,0.47-3.22,1.78-3.67,2.99c-0.37,1.32,0.84,1.4,2.1,0.83
		c3.4-1.59,13.97-6.81,22.78-9.69C185.19,186.26,194.97,184.35,204.59,184.46z"/>
	<path class="st1" d="M388.88,262.43h-13.87v43.81h7v-18.1h6.14c8.16,0,12.82-5.09,12.82-12.95
		C400.97,267.71,397.29,262.43,388.88,262.43z M386.98,282.86h-4.97V267.7h4.48c5.59,0,7.49,2.88,7.49,7.61
		C393.98,280.9,390.73,282.86,386.98,282.86z"/>
	<path class="st1" d="M419.58,261.57c-10.07,0-14.48,7.12-14.48,22.76c0,15.65,4.41,22.76,14.48,22.76
		c10.06,0,14.49-7.12,14.49-22.76C434.06,268.69,429.64,261.57,419.58,261.57z M419.58,301.82c-4.17,0-7.49-2.64-7.49-17.67
		c0-14.73,3.31-17.3,7.49-17.3s7.49,2.58,7.49,17.3C427.07,299.18,423.75,301.82,419.58,301.82z"/>
	<path class="st1" d="M466.6,302.44c-0.18-2.64-0.18-6.02-0.24-8.9c-0.25-6.14-2.45-8.53-6.87-8.95v-0.12
		c4.85-0.74,7.3-5.1,7.3-10.74c0-8.16-4.97-11.29-11.11-11.29h-15.47v43.81h7v-19.02h5.71c4.72,0,6.19,2.09,6.38,6.87
		c0.07,1.59,0.13,3.07,0.13,4.35c0,1.29,0.06,2.64,0.18,3.93c0.18,1.72,0.49,3.07,1.17,3.86h7.92
		C467.77,305.57,466.79,304.58,466.6,302.44z M452.79,281.94h-5.58v-14.23h5.95c4.67,0,6.63,2.45,6.63,7.12
		C459.79,279.24,457.27,281.94,452.79,281.94z"/>
	<polygon class="st1" points="498.16,262.43 470.48,262.43 470.48,268.32 480.92,268.32 480.92,306.24 487.91,306.24 487.91,268.32 
		498.16,268.32 	"/>
	<path class="st1" d="M507.85,262.43l-12.46,43.82h7.3l2.82-10.74h12.83l2.7,10.74h7.3l-11.54-43.82L507.85,262.43L507.85,262.43z
		 M506.8,289.92l5.22-21.6h0.12l5.04,21.6H506.8z"/>
	<path class="st1" d="M551.86,283.1v-0.12c4.3-1.35,6.44-4.66,6.44-9.94c0-7.67-5.22-10.61-11.78-10.61h-14.18v43.81h13.88
		c8.22,0,13.5-4.6,13.5-11.96C559.72,286.85,556.65,283.96,551.86,283.1z M539.35,267.7h4.91c3.92,0,7.06,1.05,7.06,6.26
		c0,4.18-2.21,6.93-6.44,6.93h-5.52L539.35,267.7L539.35,267.7z M546.28,300.96h-6.93V285.8h6.51c4.11,0,6.87,2.7,6.87,7.43
		C552.72,298.32,550.46,300.96,546.28,300.96z"/>
	<polygon class="st1" points="571.9,262.43 564.9,262.43 564.9,306.24 588.84,306.24 588.84,300.35 571.9,300.35 	"/>
	<polygon class="st1" points="600.36,286.36 616.07,286.36 616.07,280.47 600.36,280.47 600.36,268.32 617.05,268.32 617.05,262.43 
		593.36,262.43 593.36,306.24 617.55,306.24 617.55,300.35 600.36,300.35 	"/>
	<path class="st1" d="M651.48,262.43h-13.87v43.81h7v-18.1h6.14c8.16,0,12.82-5.09,12.82-12.95
		C663.57,267.71,659.89,262.43,651.48,262.43z M649.57,282.86h-4.97V267.7h4.48c5.59,0,7.49,2.88,7.49,7.61
		C656.58,280.9,653.32,282.86,649.57,282.86z"/>
	<path class="st1" d="M682.17,261.57c-10.07,0-14.48,7.12-14.48,22.76c0,15.65,4.41,22.76,14.48,22.76s14.49-7.12,14.49-22.76
		C696.66,268.69,692.24,261.57,682.17,261.57z M682.17,301.82c-4.17,0-7.49-2.64-7.49-17.67c0-14.73,3.31-17.3,7.49-17.3
		s7.49,2.58,7.49,17.3C689.66,299.18,686.34,301.82,682.17,301.82z"/>
	<polygon class="st1" points="731.25,296.67 731.13,296.67 725.24,262.43 717.87,262.43 712.11,296.48 711.98,296.48 706.21,262.43 
		699.16,262.43 707.63,306.24 715.72,306.24 721.31,273.23 721.43,273.23 727.08,306.24 735.18,306.24 743.9,262.43 736.96,262.43 	
		"/>
	<polygon class="st1" points="755.41,286.36 771.13,286.36 771.13,280.47 755.41,280.47 755.41,268.32 772.1,268.32 772.1,262.43 
		748.42,262.43 748.42,306.24 772.6,306.24 772.6,300.35 755.41,300.35 	"/>
	<path class="st1" d="M804.12,302.44c-0.18-2.64-0.18-6.02-0.24-8.9c-0.25-6.14-2.45-8.53-6.87-8.95v-0.12
		c4.85-0.74,7.3-5.1,7.3-10.74c0-8.16-4.97-11.29-11.11-11.29h-15.47v43.81h7v-19.02h5.71c4.72,0,6.19,2.09,6.38,6.87
		c0.07,1.59,0.13,3.07,0.13,4.35c0,1.29,0.06,2.64,0.18,3.93c0.18,1.72,0.49,3.07,1.17,3.86h7.92
		C805.29,305.57,804.31,304.58,804.12,302.44z M790.31,281.94h-5.58v-14.23h5.96c4.67,0,6.63,2.45,6.63,7.12
		C797.31,279.24,794.79,281.94,790.31,281.94z"/>
</g>
</svg>
