<?xml version="1.0" encoding="utf-8"?>
<!-- Generator: Adobe Illustrator 27.9.0, SVG Export Plug-In . SVG Version: 6.00 Build 0)  -->
<svg version="1.1" id="Layer_1" xmlns="http://www.w3.org/2000/svg" xmlns:xlink="http://www.w3.org/1999/xlink" x="0px" y="0px"
	 viewBox="0 0 213.41 100.64" style="enable-background:new 0 0 213.41 100.64;" xml:space="preserve">
<style type="text/css">
	.st0{fill:#E53312;}
	.st1{clip-path:url(#SVGID_00000053538562755731623800000003489936856148876679_);fill:#FFFFFF;}
	.st2{fill:#FFFFFF;}
</style>
<rect x="0" y="0" class="st0" width="213.41" height="100.64"/>
<g>
	<defs>
		<rect id="SVGID_1_" width="213.41" height="100.64"/>
	</defs>
	<clipPath id="SVGID_00000082359303404488240210000009320621435352418713_">
		<use xlink:href="#SVGID_1_"  style="overflow:visible;"/>
	</clipPath>
	<path style="clip-path:url(#SVGID_00000082359303404488240210000009320621435352418713_);fill:#FFFFFF;" d="M184.17,61.84
		c-1.17,0-2.01-0.9-2.01-2.07c0-1.15,0.84-2.06,2.01-2.06c1.15,0,1.99,0.9,1.99,2.06C186.16,60.94,185.33,61.84,184.17,61.84
		 M184.17,62.16c1.31,0,2.37-1.07,2.37-2.38c0-1.31-1.06-2.37-2.37-2.37c-1.32,0-2.38,1.07-2.38,2.37
		C181.79,61.09,182.85,62.16,184.17,62.16"/>
	<path style="clip-path:url(#SVGID_00000082359303404488240210000009320621435352418713_);fill:#FFFFFF;" d="M183.19,58.5h1.21
		c0.49,0,0.78,0.26,0.78,0.68c0,0.31-0.13,0.57-0.45,0.65v0.01c0.3,0.06,0.36,0.28,0.39,0.53c0.02,0.25,0.01,0.54,0.15,0.71h-0.38
		c-0.1-0.1-0.04-0.38-0.09-0.64c-0.04-0.25-0.1-0.47-0.43-0.47h-0.84v1.1h-0.34V58.5z M184.25,59.68c0.32,0,0.6-0.08,0.6-0.46
		c0-0.26-0.14-0.44-0.46-0.44h-0.85v0.9H184.25z"/>
	<path style="clip-path:url(#SVGID_00000082359303404488240210000009320621435352418713_);fill:#FFFFFF;" d="M83.02,43.41h-1.75
		v-6.7c2.05,0,3.8-0.07,3.8,2.37C85.06,41.09,85.23,43.41,83.02,43.41 M74.01,62.1h11.01c7.8,0,7.8-7.37,7.8-9.92
		c0-0.38,0-5.12-3.96-6.36c3.49-2.01,3.18-6.16,3.18-8.14c0-0.24,0-6.44-6.9-6.44H74.01V62.1 M81.26,56.59v-7.9
		c2.87,0.12,4.15,0.04,4.15,3.68C85.41,56.72,84.4,56.59,81.26,56.59"/>
	<path style="clip-path:url(#SVGID_00000082359303404488240210000009320621435352418713_);fill:#FFFFFF;" d="M102.55,41.71
		c1.27,0,1.27,1.7,1.27,2.29v11.44c0,0.66,0.08,2.28-1.27,2.28c-1.43,0-1.43-1.63-1.43-2.21V43.93
		C101.11,43.41,101.11,41.71,102.55,41.71 M102.66,62.72c8.02,0,8.02-6.51,8.02-7.21V45.36c0-2.48,0-8.26-8.02-8.26
		c-8.3,0-8.3,5.77-8.3,7.25v11.16C94.37,56.72,94.37,62.72,102.66,62.72"/>
	<path style="clip-path:url(#SVGID_00000082359303404488240210000009320621435352418713_);fill:#FFFFFF;" d="M168.4,37.73h1.39
		v-5.08h6.75v5.08h1.77v4.99h-1.77v12.3c0,2.44,0.34,2.28,1.85,2.4l0.05,4.77c-0.74,0.38-2.61,0.38-3.5,0.38
		c-1.9,0-5.15-0.47-5.15-5.04V42.72h-1.39V37.73z"/>
	<path style="clip-path:url(#SVGID_00000082359303404488240210000009320621435352418713_);fill:#FFFFFF;" d="M121.44,42.37
		c1.09,0,1.09,1.4,1.09,2.02v11.09c0,1.47-0.35,2.09-1.01,2.09c-0.89,0-1.7-0.93-1.7-3.3v-8.95
		C119.82,44.31,120.24,42.37,121.44,42.37 M113.03,62.1h6.66v-2.25c0.43,0.88,1.94,2.83,4.77,2.87c4.96-0.03,5-5,5-7.94V43.46
		c0-1.32,0-6.36-4.97-6.36c-2.4,0-3.99,2.02-4.72,3.21v-9.06h-6.75V62.1z"/>
	<path style="clip-path:url(#SVGID_00000082359303404488240210000009320621435352418713_);fill:#FFFFFF;" d="M148.01,46.91h-6.66
		v-3.18c0,0,0-1.9-1.4-1.9c-1.35,0-1.35,1.83-1.35,3.22v9.78c0,1.54,0,3.17,1.35,3.17c1.4,0,1.4-1.4,1.4-3.17V51.6h6.66
		c-0.07,5.24,0.7,11.12-8.1,11.12c-8.15,0-8.22-6.35-8.22-8.92v-8.25c0-2.4,0-8.45,8.26-8.45C147.43,37.1,148.09,41.21,148.01,46.91
		"/>
	<path style="clip-path:url(#SVGID_00000082359303404488240210000009320621435352418713_);fill:#FFFFFF;" d="M156.92,53.18
		c0-1.91,1.49-2.47,2.81-3.4V54c0,2.18-0.17,3.12-1.57,3.12c-0.64,0-1.23-0.43-1.23-1.28V53.18z M159.72,62.1h6.75V44.05
		c0-4.91-4.1-6.65-8.15-6.65c-4.05,0-8.15,1.74-8.15,6.65v1.72h6.74v-2.14c0-0.97,0.29-1.79,1.4-1.79c1.11,0,1.4,0.82,1.4,1.79
		c0,4.52-9.55,3.75-9.55,10.15v3.63c0,3.2,1.8,4.99,4.73,4.99c2.7,0,3.92-1.41,4.74-3.15h0.08V62.1z"/>
	<path style="clip-path:url(#SVGID_00000082359303404488240210000009320621435352418713_);fill:#FFFFFF;" d="M22.18,20.04
		c1.62,3.22,2.41,5.23,5.99,7.31c3.58,2.08,4.11,1.78,4.49,1.93c0.39,0.15,0.57,0.6,0.57,0.87c0.8,0,3.8-0.43,5.21-0.32
		c1.44,0.11,4.69,0.58,6.95,1.27c1.6,0.49,3.65,1.24,3.96,1.36c0.3,0.11,0.87,0.34,1.25-0.12c0.38-0.45-0.07-0.61,2.06-1.45
		c2.12-0.84,4.21-1.92,4.89-2.26c0.68-0.34,3.22-1.71,5.76-4.15c0.31-0.31,0.38-0.42,0.53-0.27c0.15,0.15,0.04,0.35-0.03,0.49
		c-0.64,1.79-2.31,4.99-2.79,5.79c-0.5,0.8-3.11,3.7-3.49,4.04c-0.38,0.33-1.82,1.56-1.82,1.56s-1.29,1.03-0.1,1.87
		c1.18,0.83,0.69,1.71-0.18,2.32c-0.88,0.61-3.04,2.06-4.94,1.84c-1.9-0.22-1.33,0-2.47-0.56c-0.39-0.19-0.95-0.19-0.73,0.16
		c0.23,0.33,0.12,0.45,0.12,0.45c-0.34,1.33-0.37,3.34-0.18,4.07c0.19,0.71,0.42,1.29,0.81,1.74c0.15,0.19,0.39,0.34-0.16,0.34
		c-0.45,0-0.6-0.15-0.9-0.38c-0.54-0.08-1.91-0.3-2.51,0.16c-0.6,0.46-0.18,0.34-1.41,0.57c-0.37,0.19-0.63,0.5-0.06,1.14
		c0.58,0.65,1.04,1.04,1.27,1.21c0.19,0.15,1.02,0.3-0.08,0.99c-1.1,0.68-2.28,1.56-4.97,1.34c-2.71-0.22-3.81-1.62-4.35-2.64
		c-0.54-1.03-0.35-1.45-2.24-1.44c-1.91,0.01-5.17,0.6-6.15,0.75c-1.8,0.23-1.5,0.57-2.74-0.49c-1.83-1.56-2.86-2.54-3.09-2.76
		c-0.23-0.24-0.72-0.43-0.31-1.41c0.42-0.99,1.13-2.74,3.02-5.07c1.89-2.33,2.28-2.78,2.88-3.24c1.47-1.14,0.83-1.22,2.32-0.04
		c1.23,0.96,2.43,1.96,3.31,2.38c0.87,0.41,1.03,0.52,1.59,1.89c0.58,1.37,1.23,2.39,1.42,2.77c0.19,0.38,1.53,1.59,2.63,1.62
		c1.83,0.07,3.34,0.19,4.44-1.19c0.49-1.26,0.75-2.17,1.43-2.9c0.26-0.23,0.45-0.53,0.03-0.53c-0.42,0-2.74-0.14-3.5-0.33
		c-0.75-0.18-6.84-2.03-7.64-2.41c-0.8-0.37-4.45-1.77-6.37-4.27c-1.9-2.5-2.13-3.34-3.06-6.68C22.16,24.67,22.13,19.96,22.18,20.04
		"/>
	<path style="clip-path:url(#SVGID_00000082359303404488240210000009320621435352418713_);fill:#FFFFFF;" d="M56.54,41.08
		c-0.03,0.66-0.02,5.83,1.19,7.33c0.34,0.27,0.5,0.61,0.2,0.65c-0.31,0.03-2.55-0.03-2.78-0.03c-0.22,0-0.62-0.08-0.57,0.61
		c0.07,0.83-0.13,2.46-1.51,3.01c-1.3,0.51-2.59,1.08-5.06-0.28c-0.84-0.61-0.99-0.8-1.07-0.91c-0.07-0.11-0.15-0.22,0-0.41
		c0.15-0.2,1.64-1.69,1.9-2.29c0.26-0.61,0.14-0.69-0.05-1.06c0.13,0.26-0.99-1.44-0.01-1.29c0.76,0.11,2.4,0.56,3.65,0.02
		c1.25-0.53,2.5-1.11,2.99-3.88c0.03-1.03,0.03-1.26,0.52-1.68C56.25,40.47,56.56,39.91,56.54,41.08"/>
	<path style="clip-path:url(#SVGID_00000082359303404488240210000009320621435352418713_);fill:#FFFFFF;" d="M58.84,50.45
		c1.29,0.64,3.42,1.89,3.92,3.03c0.19,0.34,0.3,0.95-0.34,0.27c-0.65-0.69-1.84-2.24-5.07-2.84c-0.88-0.02-2.04,0.05-1.9-0.75
		c0.09-0.37-0.06-0.76,1.26-0.42C57.89,50.05,58.84,50.45,58.84,50.45"/>
	<path style="clip-path:url(#SVGID_00000082359303404488240210000009320621435352418713_);fill:#FFFFFF;" d="M57.79,52.1
		c1.53,0.77,2.62,1.89,2.81,2.2c0.19,0.3,0.34,0.46,0.12,0.61c-0.24,0.15-0.35,0.03-0.61-0.23c-0.27-0.27-1.91-1.63-4.73-2.34
		c-0.49-0.15-0.72-0.34-0.27-0.72c0.46-0.39,0.5-0.27,0.96-0.12C56.53,51.64,57.7,52.06,57.79,52.1"/>
	<path style="clip-path:url(#SVGID_00000082359303404488240210000009320621435352418713_);fill:#FFFFFF;" d="M56.58,54.23
		c0.95,0.68,2.01,1.89,2.24,2.16c0.23,0.27,0.19,0.27-0.18,0.22c-0.38-0.03-0.92-0.8-1.45-1.09c-0.54-0.3-2.44-1.51-2.89-1.66
		c-0.46-0.15-0.65-0.22-0.33-0.6c0.3-0.38,0.3-0.35,0.64-0.2C54.94,53.21,56.58,54.23,56.58,54.23"/>
	<path style="clip-path:url(#SVGID_00000082359303404488240210000009320621435352418713_);fill:#FFFFFF;" d="M48.78,53.61
		c0.23,0.15,0.72,0.3,0.38,1.17c-0.34,0.88-0.56,1.42-1.58,2.14c-0.39,0.27-1.49,0.99-0.5-0.38c0.45-0.95,0.68-1.45,0.67-2.67
		c0-0.41-0.04-0.6,0.57-0.54C48.51,53.46,48.78,53.61,48.78,53.61"/>
	<path style="clip-path:url(#SVGID_00000082359303404488240210000009320621435352418713_);fill:#FFFFFF;" d="M40.51,58.65
		c0.54,1.1,1.3,2.01,2.37,2.01c1.39,0,2.49-0.78,2.88-1.42c0.04,0.76-0.18,1.1-0.34,1.41c-0.15,0.3-0.37,0.72-0.07,1.25
		c0.31,0.53,0.16,1.29,0.01,1.75c-0.15,0.45-0.56,1.6-2.35,1.6c-1.79,0.01-4.15,0.02-5.17-0.4c-0.62-0.26-0.87-0.08-0.85-1.52
		c0.04-1.29,0.23-2.05,0.34-2.55c0.1-0.5,0.22-0.72,0.98-0.72c0.76,0,0.69,0.03,0.99-0.01c0.3-0.04,0.38-0.15,0.38-0.53
		c0-0.38,0.07-1.1,0.33-1.52c0.27-0.42,0.35-0.27,0.39-0.03C40.43,58.19,40.51,58.65,40.51,58.65"/>
	<path style="clip-path:url(#SVGID_00000082359303404488240210000009320621435352418713_);fill:#FFFFFF;" d="M43.04,53.93
		c-0.18,0.8-0.67,2.59-1.31,3.39c-0.24-0.99-0.46-2.04-0.46-2.43c0-0.38-0.38-0.57,1.02-1.18C43.42,53.21,43.04,53.93,43.04,53.93"
		/>
	<path style="clip-path:url(#SVGID_00000082359303404488240210000009320621435352418713_);fill:#FFFFFF;" d="M28.17,58.09
		c0.62-0.96,4.47-4.01,4.92-4.19c0,0,0.65-0.39,1.21-0.54c1.14-0.32,1.14,0.37,0.73,0.8c-1.33,0.54-3.33,1.84-4.74,2.85
		c-1.06,0.77-2.65,2.44-3.18,3.06c-0.28,0.07-0.78,0.01-0.36-0.45C27.35,58.93,28.12,58.16,28.17,58.09"/>
	<path style="clip-path:url(#SVGID_00000082359303404488240210000009320621435352418713_);fill:#FFFFFF;" d="M24.06,56.23
		c3.08-2.63,5.43-3.35,7.73-4.08c1.18-0.23,2.19-0.46,2.43,0.14c0.15,0.38,0.08,0.57-0.3,0.61c-1.63,0.08-4.43,0.71-7.21,2.34
		c-1.1,0.65-2.46,1.72-2.93,2.17c-0.3,0.3-1.17,0.05-0.51-0.49C23.94,56.38,24.06,56.23,24.06,56.23"/>
	<path style="clip-path:url(#SVGID_00000082359303404488240210000009320621435352418713_);fill:#FFFFFF;" d="M23.36,52.63
		c2.58-1.34,4.52-1.77,6.38-2.19c0,0,2.47-0.43,3.53-0.13c0.88,1.1,0.35,0.99-0.34,1.03c-2.32-0.03-4.67,0.43-6.8,1.13
		c-2.12,0.69-4.67,1.95-5.49,2.33c-0.3,0.14-0.59,0.12-0.5-0.2c0.11-0.29,0.66-0.61,0.88-0.72C21.25,53.77,23.36,52.63,23.36,52.63"
		/>
</g>
<g>
	<path class="st2" d="M74.21,70.56h2.49l1.76,7.39h0.03l1.73-7.39h2.43v9.98h-1.51v-8.3h-0.03l-2.01,8.3h-1.34l-2.01-8.3h-0.03v8.3
		h-1.51V70.56z"/>
	<path class="st2" d="M86.78,70.56h2.04l2.63,9.98h-1.66l-0.62-2.45h-2.92l-0.64,2.45h-1.66L86.78,70.56z M88.9,76.82l-1.15-4.92
		h-0.03l-1.19,4.92H88.9z"/>
	<path class="st2" d="M93.62,71.9h-2.38v-1.34h6.3v1.34h-2.33v8.64h-1.59V71.9z"/>
	<path class="st2" d="M98.92,70.56h5.4v1.34h-3.8v2.77h3.58v1.34h-3.58v3.19h3.91v1.34h-5.51V70.56z"/>
	<path class="st2" d="M105.95,70.56h3.52c1.4,0,2.53,0.71,2.53,2.57c0,1.29-0.56,2.28-1.66,2.45v0.03c1.01,0.1,1.51,0.64,1.57,2.04
		c0.01,0.66,0.01,1.43,0.06,2.03c0.04,0.49,0.27,0.71,0.48,0.87h-1.8c-0.15-0.18-0.22-0.49-0.27-0.88c-0.03-0.29-0.04-0.6-0.04-0.89
		c0-0.29-0.01-0.63-0.03-0.99c-0.04-1.09-0.38-1.57-1.45-1.57h-1.3v4.33h-1.59V70.56z M108.82,75.01c1.02,0,1.59-0.61,1.59-1.62
		c0-1.06-0.45-1.62-1.51-1.62h-1.36v3.24H108.82z"/>
	<path class="st2" d="M113.84,70.56h1.59v9.98h-1.59V70.56z"/>
	<path class="st2" d="M119.5,70.56h2.04l2.63,9.98h-1.66l-0.62-2.45h-2.92l-0.64,2.45h-1.66L119.5,70.56z M121.63,76.82l-1.15-4.92
		h-0.03l-1.19,4.92H121.63z"/>
	<path class="st2" d="M125.35,70.56h1.59v8.64h3.86v1.34h-5.45V70.56z"/>
	<path class="st2" d="M135.79,70.56h1.59v4h2.94v-4h1.59v9.98h-1.59V75.9h-2.94v4.64h-1.59V70.56z"/>
	<path class="st2" d="M146.03,70.56h2.04l2.63,9.98h-1.66l-0.62-2.45h-2.92l-0.64,2.45h-1.66L146.03,70.56z M148.15,76.82
		l-1.15-4.92h-0.03l-1.19,4.92H148.15z"/>
	<path class="st2" d="M151.97,70.56h1.94l2.89,7.44h0.03v-7.44h1.51v9.98h-1.94l-2.89-7.63h-0.03v7.63h-1.51V70.56z"/>
	<path class="st2" d="M160.35,70.56h2.84c3.13,0,3.52,2.04,3.52,4.99c0,2.95-0.39,4.99-3.52,4.99h-2.84V70.56z M161.94,79.34h1.31
		c1.31,0,1.86-0.87,1.86-3.79c0-2.81-0.48-3.79-1.86-3.79h-1.31V79.34z"/>
	<path class="st2" d="M168.37,70.56h1.59v8.64h3.86v1.34h-5.45V70.56z"/>
	<path class="st2" d="M175.18,70.56h1.59v9.98h-1.59V70.56z"/>
	<path class="st2" d="M178.72,70.56h1.94l2.89,7.44h0.03v-7.44h1.51v9.98h-1.94l-2.89-7.63h-0.03v7.63h-1.51V70.56z"/>
	<path class="st2" d="M192.03,79.38H192c-0.43,0.94-1.01,1.36-2.18,1.36c-2.18,0-2.96-1.62-2.96-5.19c0-3.56,1.01-5.18,3.31-5.18
		c2.5,0,2.92,1.97,2.92,2.88v0.18h-1.51v-0.24c0-0.74-0.31-1.62-1.4-1.62c-1.13,0-1.73,0.75-1.73,3.94c0,3.21,0.53,4.03,1.61,4.03
		c1.22,0.01,1.66-0.87,1.66-3.05h-1.68v-1.2h3.19v5.25h-1.2V79.38z"/>
</g>
</svg>
