<?xml version="1.0" encoding="utf-8"?>
<!-- Generator: Adobe Illustrator 25.2.0, SVG Export Plug-In . SVG Version: 6.00 Build 0)  -->
<svg version="1.1" id="Layer_1" xmlns="http://www.w3.org/2000/svg" xmlns:xlink="http://www.w3.org/1999/xlink" x="0px" y="0px"
	 width="688.1px" height="232.8px" viewBox="0 0 688.1 232.8" style="enable-background:new 0 0 688.1 232.8;" xml:space="preserve"
	>
<style type="text/css">
	.st0{display:none;}
	.st1{display:inline;fill:#FFFFFF;}
	.st2{fill:#FFFFFF;}
</style>
<g id="Layer_1_1_" class="st0">
	<rect x="-106" y="-58.4" class="st1" width="937.4" height="402"/>
</g>
<g>
	<path class="st2" d="M216.7,192.5h9.9l7,29.3h0.1l6.8-29.3h9.6V232h-6v-32.9H244l-8,32.9h-5.3l-8-32.9h-0.1V232h-6v-39.5H216.7z"/>
	<path class="st2" d="M266.5,192.5h8.1L285,232h-6.6l-2.5-9.7h-11.6l-2.5,9.7h-6.6L266.5,192.5z M274.9,217.3l-4.6-19.5h-0.1
		l-4.7,19.5H274.9z"/>
	<path class="st2" d="M293.6,197.8h-9.4v-5.3h24.9v5.3h-9.2V232h-6.3V197.8z"/>
	<path class="st2" d="M314.6,192.5H336v5.3h-15v11h14.2v5.3H321v12.6h15.5v5.3h-21.8v-39.5H314.6z"/>
	<path class="st2" d="M342.4,192.5h13.9c5.5,0,10,2.8,10,10.2c0,5.1-2.2,9-6.6,9.7v0.1c4,0.4,6,2.5,6.2,8.1c0,2.6,0,5.7,0.2,8
		c0.2,1.9,1.1,2.8,1.9,3.4h-7c-0.6-0.7-0.9-1.9-1.1-3.5c-0.1-1.1-0.2-2.4-0.2-3.5s0-2.5-0.1-3.9c-0.2-4.3-1.5-6.2-5.7-6.2h-5.1V232
		h-6.3L342.4,192.5C342.5,192.5,342.4,192.5,342.4,192.5z M353.7,210.1c4,0,6.3-2.4,6.3-6.4c0-4.2-1.8-6.4-6-6.4h-5.4v12.8
		C348.7,210.1,353.7,210.1,353.7,210.1z"/>
	<path class="st2" d="M373.6,192.5h6.3V232h-6.3V192.5z"/>
	<path class="st2" d="M396,192.5h8.1l10.4,39.5h-6.6l-2.5-9.7h-11.6l-2.5,9.7h-6.6L396,192.5z M404.5,217.3l-4.6-19.5h-0.1
		l-4.7,19.5H404.5z"/>
	<path class="st2" d="M419.2,192.5h6.3v34.2h15.3v5.3h-21.6C419.2,232,419.2,192.5,419.2,192.5z"/>
	<path class="st2" d="M460.5,192.5h6.3v15.8h11.6v-15.8h6.3V232h-6.3v-18.4h-11.6V232h-6.3V192.5z"/>
	<path class="st2" d="M501.1,192.5h8.1l10.4,39.5H513l-2.5-9.7H499l-2.5,9.7h-6.6L501.1,192.5z M509.5,217.3l-4.6-19.5h-0.1
		l-4.7,19.5H509.5z"/>
	<path class="st2" d="M524.6,192.5h7.7l11.4,29.5h0.1v-29.5h6V232h-7.7l-11.4-30.2h-0.1V232h-6V192.5z"/>
	<path class="st2" d="M557.8,192.5H569c12.4,0,13.9,8.1,13.9,19.8S581.4,232,569,232h-11.2V192.5z M564,227.3h5.2
		c5.2,0,7.4-3.4,7.4-15c0-11.1-1.9-15-7.4-15H564V227.3z"/>
	<path class="st2" d="M589.5,192.5h6.3v34.2h15.3v5.3h-21.6V192.5z"/>
	<path class="st2" d="M616.5,192.5h6.3V232h-6.3V192.5z"/>
	<path class="st2" d="M630.5,192.5h7.7l11.4,29.5h0.1v-29.5h6V232H648l-11.4-30.2h-0.1V232h-6V192.5z"/>
	<path class="st2" d="M683.2,227.4L683.2,227.4c-1.8,3.7-4.1,5.4-8.7,5.4c-8.6,0-11.7-6.4-11.7-20.5s4-20.5,13.1-20.5
		c9.9,0,11.6,7.8,11.6,11.4v0.7h-6v-1c0-2.9-1.2-6.4-5.5-6.4c-4.5,0-6.8,3-6.8,15.6c0,12.7,2.1,16,6.4,16c4.8,0,6.6-3.4,6.6-12.1
		h-6.7v-4.8h12.6V232h-4.8L683.2,227.4L683.2,227.4z"/>
</g>
<path class="st2" d="M244.8,90.3H238V64.1c8,0,14.8-0.3,14.8,9.2C252.8,81.2,253.4,90.3,244.8,90.3 M209.7,163.1h42.9
	c30.4,0,30.4-28.7,30.4-38.7c0-1.5,0-19.9-15.4-24.8c13.6-7.9,12.4-24,12.4-31.7c0-0.9,0-25.1-26.9-25.1h-43.4L209.7,163.1
	 M238,141.7v-30.8c11.2,0.4,16.2,0.2,16.2,14.3C254.2,142.1,250.2,141.7,238,141.7"/>
<path class="st2" d="M321,83.6c5,0,5,6.7,5,8.9v44.6c0,2.6,0.3,8.9-5,8.9c-5.6,0-5.6-6.3-5.6-8.6V92.2
	C315.4,90.3,315.4,83.6,321,83.6 M321.5,165.5c31.3,0,31.3-25.4,31.3-28.1V97.8c0-9.7,0-32.2-31.3-32.2c-32.4,0-32.4,22.5-32.4,28.3
	v43.5C289.1,142.1,289.1,165.5,321.5,165.5"/>
<path class="st2" d="M577.8,68h5.4V48.2h26.3V68h7v19.5h-7v47.9c0,9.5,1.4,8.9,7.3,9.4l0.2,18.6c-2.9,1.5-10.1,1.5-13.6,1.5
	c-7.4,0-20.1-1.8-20.1-19.7V87.5h-5.4L577.8,68L577.8,68z"/>
<path class="st2" d="M394.7,86.2c4.2,0,4.2,5.4,4.2,7.9v43.2c0,5.7-1.4,8.2-3.9,8.2c-3.5,0-6.6-3.6-6.6-12.9V97.7
	C388.3,93.7,390,86.2,394.7,86.2 M361.9,163.1h26v-8.8c1.7,3.5,7.5,11,18.6,11.2c19.3-0.2,19.5-19.5,19.5-31V90.4
	c0-5.1,0-24.8-19.4-24.8c-9.4,0-15.6,7.9-18.4,12.5V42.8h-26.3L361.9,163.1L361.9,163.1z"/>
<path class="st2" d="M498.3,103.9h-26V91.5c0,0,0-7.4-5.5-7.4c-5.3,0-5.3,7.1-5.3,12.5v38.1c0,6,0,12.4,5.3,12.4
	c5.5,0,5.5-5.4,5.5-12.4v-12.5h26c-0.3,20.4,2.7,43.4-31.6,43.4c-31.8,0-32-24.8-32-34.8V98.6c0-9.4,0-32.9,32.2-32.9
	C496,65.6,498.6,81.6,498.3,103.9"/>
<path class="st2" d="M533,128.3c0-7.5,5.8-9.6,11-13.3v16.5c0,8.5-0.7,12.1-6.1,12.1c-2.5,0-4.8-1.7-4.8-5v-10.3 M544,163.1h26.3
	V92.8c0-19.1-16-26-31.8-26s-31.8,6.8-31.8,26v6.7H533v-8.3c0-3.8,1.2-7,5.5-7s5.5,3.2,5.5,7c0,17.6-37.2,14.6-37.2,39.6v14.1
	c0,12.5,7,19.5,18.4,19.5c10.5,0,15.3-5.5,18.5-12.3h0.3V163.1L544,163.1z"/>
<path class="st2" d="M8,0c6.3,12.5,9.4,20.4,23.3,28.5s16,6.9,17.5,7.5s2.2,2.4,2.2,3.4c3.1,0,14.8-1.7,20.3-1.3
	c5.6,0.4,18.3,2.2,27.1,4.9c6.2,1.9,14.2,4.8,15.4,5.3c1.2,0.4,3.4,1.3,4.9-0.5s-0.3-2.4,8-5.7s16.4-7.5,19.1-8.8
	s12.6-6.7,22.4-16.2c1.2-1.2,1.5-1.6,2.1-1c0.6,0.6,0.2,1.3-0.1,1.9c-2.5,7-9,19.4-10.9,22.5s-12.1,14.4-13.6,15.8
	c-1.5,1.3-7.1,6.1-7.1,6.1s-5,4-0.4,7.3s2.7,6.7-0.7,9c-3.4,2.4-11.8,8-19.2,7.2c-7.4-0.9-5.2,0-9.6-2.2c-1.5-0.7-3.7-0.7-2.8,0.6
	c0.9,1.3,0.5,1.8,0.5,1.8c-1.3,5.2-1.4,13-0.7,15.8s1.6,5,3.1,6.8c0.6,0.7,1.5,1.3-0.6,1.3c-1.8,0-2.4-0.6-3.6-1.5
	c-2.1-0.3-7.4-1.2-9.8,0.6c-2.4,1.8-0.7,1.3-5.5,2.2c-1.5,0.7-2.5,1.9-0.3,4.4c2.3,2.6,4.1,4,4.9,4.7c0.7,0.6,4,1.2-0.3,3.9
	c-4.3,2.7-8.9,6.1-19.4,5.2c-10.5-0.9-14.8-6.3-16.9-10.3c-2.1-4-1.4-5.6-8.8-5.6s-20.1,2.4-24,2.9c-7,0.9-5.8,2.2-10.7-1.9
	c-7.1-6-11.1-9.9-12-10.8s-2.8-1.6-1.2-5.5c1.8-3.5,4.6-10.3,12-19.4s8.9-10.8,11.2-12.6c5.8-4.5,3.2-4.7,9-0.2
	c4.8,3.8,9.5,7.7,12.9,9.3c3.4,1.6,4,2.1,6.2,7.4s4.8,9.3,5.5,10.8s6,6.2,10.2,6.3c7.1,0.3,13,0.7,17.3-4.6C87,90.4,88,86.8,90.7,84
	c1-0.9,1.8-2.1,0.1-2.1c-1.6,0-10.7-0.6-13.6-1.3c-3-0.7-26.7-7.9-29.8-9.4S30,64.3,22.6,54.6s-8.3-13-11.9-26C7.9,18.1,7.9-0.3,8,0
	"/>
<path class="st2" d="M141.9,82c-0.1,2.6,0,22.7,4.7,28.6c1.3,1,1.9,2.4,0.7,2.5c-1.2,0.2-9.9-0.1-10.8-0.1c-0.9,0-2.4-0.3-2.2,2.4
	c0.2,3.2-0.5,9.6-5.9,11.7c-5.1,2-10.1,4.2-19.7-1.1c-3.3-2.4-3.9-3.1-4.2-3.5c-0.3-0.4-0.6-0.9,0-1.6s6.3-6.5,7.4-8.9
	c1-2.4,0.6-2.7-0.2-4.1c0.5,1-3.8-5.6,0-5c3,0.4,9.3,2.2,14.2,0.1c4.9-2.1,9.8-4.3,11.7-15.1c0.1-4,0.1-4.9,2.1-6.5
	C140.9,79.7,142,77.4,141.9,82"/>
<path class="st2" d="M150.9,118.6c5,2.5,13.4,7.4,15.3,11.8c0.7,1.3,1.2,3.7-1.3,1s-7.1-8.7-19.7-11c-3.5-0.1-8,0.2-7.4-2.9
	c0.3-1.4-0.2-3,4.9-1.6C147.2,117,150.9,118.6,150.9,118.6"/>
<path class="st2" d="M146.8,124.9c6,3,10.2,7.4,11,8.5c0.7,1.2,1.3,1.8,0.5,2.4c-0.9,0.6-1.3,0.2-2.4-0.9c-1-1-7.4-6.4-18.4-9.1
	c-1.9-0.6-2.8-1.3-1-2.8s1.9-1,3.7-0.5C141.9,123.2,146.5,124.8,146.8,124.9"/>
<path class="st2" d="M142.1,133.3c3.7,2.7,7.9,7.4,8.8,8.4c0.9,1,0.7,1-0.7,0.9c-1.5-0.2-3.6-3.1-5.6-4.3c-2.1-1.2-9.5-5.9-11.3-6.5
	s-2.5-0.9-1.3-2.4c1.2-1.5,1.2-1.3,2.5-0.7C135.7,129.3,142.1,133.3,142.1,133.3"/>
<path class="st2" d="M111.7,130.8c0.9,0.6,2.8,1.2,1.5,4.6c-1.3,3.4-2.2,5.5-6.2,8.3c-1.5,1-5.8,3.9-1.9-1.5
	c1.8-3.7,2.6-5.6,2.6-10.4c0-1.6-0.2-2.4,2.2-2.1C110.7,130.3,111.7,130.8,111.7,130.8"/>
<path class="st2" d="M79.5,150.5c2.1,4.3,5.1,7.8,9.2,7.8c5.4,0,9.7-3,11.2-5.5c0.2,3-0.7,4.3-1.3,5.5c-0.6,1.2-1.5,2.8-0.3,4.9
	c1.2,2.1,0.6,5,0,6.8s-2.2,6.2-9.2,6.3c-7,0-16.1,0.1-20.1-1.6c-2.4-1-3.4-0.3-3.3-5.9c0.1-5,0.9-8,1.3-9.9s0.9-2.8,3.8-2.8
	c3,0,2.7,0.1,3.9,0c1.2-0.2,1.5-0.6,1.5-2.1s0.3-4.3,1.3-5.9c1-1.6,1.3-1,1.5-0.2C79.2,148.7,79.5,150.5,79.5,150.5"/>
<path class="st2" d="M89.3,132.1c-0.7,3.1-2.6,10.1-5.1,13.2c-0.9-3.9-1.8-8-1.8-9.5s-1.5-2.2,4-4.6
	C90.8,129.3,89.3,132.1,89.3,132.1"/>
<path class="st2" d="M54.7,178.5c2.4-3.7,17.4-15.6,19.2-16.4c0,0,2.5-1.5,4.7-2.1c4.4-1.2,4.4,1.5,2.8,3.1
	c-5.2,2.1-13,7.2-18.5,11.2c-4.1,3-10.3,9.5-12.4,11.9c-1.1,0.3-3,0.1-1.4-1.8C51.6,181.8,54.6,178.8,54.7,178.5"/>
<path class="st2" d="M38.8,171.3c12-10.3,21.1-13.1,30.1-15.9c4.6-0.9,8.5-1.8,9.5,0.6c0.6,1.5,0.3,2.2-1.2,2.4
	c-6.4,0.3-17.3,2.8-28.1,9.1c-4.3,2.5-9.6,6.7-11.4,8.5c-1.2,1.2-4.6,0.2-2-1.9C38.3,171.8,38.8,171.3,38.8,171.3"/>
<path class="st2" d="M36,157.2c10.1-5.2,17.6-6.9,24.9-8.5c0,0,9.6-1.7,13.8-0.5c3.4,4.3,1.4,3.9-1.3,4c-9-0.1-18.2,1.7-26.5,4.4
	c-8.3,2.7-18.2,7.6-21.4,9.1c-1.1,0.5-2.3,0.5-1.9-0.8c0.4-1.1,2.5-2.4,3.4-2.8C27.8,161.7,36,157.2,36,157.2"/>
<path class="st2" d="M641.1,162.2c-5.3,0-9.2-4.2-9.2-9.5s3.9-9.5,9.2-9.5s9.2,4.2,9.2,9.5S646.4,162.2,641.1,162.2 M641.1,163.6
	c6,0,10.9-4.9,10.9-10.9s-4.9-10.9-10.9-10.9c-6.1,0-10.9,4.9-10.9,10.9C630.2,158.7,635.1,163.6,641.1,163.6 M642.9,153.1
	c2.2-0.1,3.8-1,3.8-3.3c0-2-1.1-3.2-4.3-3.2H637v12.2h1.5v-5.6h2.7l3.5,5.6h1.8L642.9,153.1z M638.5,151.9v-4.3h3.5
	c1.5,0,3.1,0.2,3.1,2.1c0,2.5-2.5,2.2-4.3,2.2H638.5z"/>
</svg>
