<?xml version="1.0" encoding="utf-8"?>
<!-- Generator: Adobe Illustrator 25.2.0, SVG Export Plug-In . SVG Version: 6.00 Build 0)  -->
<svg version="1.0" id="Layer_1" xmlns="http://www.w3.org/2000/svg" xmlns:xlink="http://www.w3.org/1999/xlink" x="0px" y="0px"
	 viewBox="0 0 2000 2000" style="enable-background:new 0 0 2000 2000;" xml:space="preserve">
<style type="text/css">
	.st0{fill:#FFFFFF;}
	.st1{fill:url(#SVGID_1_);}
	.st2{fill:url(#SVGID_2_);}
	.st3{fill:url(#SVGID_3_);}
</style>
<g>
	<g>
		<g>
			<g>
				<g>
					<g>
						<path class="st0" d="M177.57,1200.45c-3.85,1.29-7.54,3.12-10.96,5.46c-3.57,2.43-6.52,5.73-8.75,9.79
							c-2.27,4.11-3.43,8.7-3.43,13.68c0,6.83,2.14,12.57,6.35,17.07c4.25,4.53,10.15,6.82,17.54,6.82c7.32,0,13.05-2.11,17.03-6.27
							c3.98-4.13,6-9.12,6-14.82v-31.94l-1.71-0.49C193.7,1198.1,185.47,1197.81,177.57,1200.45 M187.39,1236.17
							c0,2.32-0.66,4.1-2.01,5.46c-1.35,1.35-3.3,2-5.99,2c-3.27,0-5.82-1.31-7.82-4.01c-2.12-2.88-3.2-7.05-3.2-12.39
							c0-3.14,0.49-6.01,1.46-8.54c0.96-2.48,2.15-4.47,3.54-5.87c1.46-1.49,3.1-2.75,4.9-3.74c1.83-1.03,3.51-1.73,4.99-2.09
							c1.47-0.38,2.85-0.58,4.11-0.58h0.12L187.39,1236.17z"/>
						<path class="st0" d="M190.16,1191.23c2.12,0,4.02-0.8,5.53-2.3l0.01-0.01c1.53-1.52,2.3-3.38,2.3-5.53
							c0-2.12-0.79-4.03-2.3-5.53c-3.02-3.02-8.07-3.01-11.06,0c-1.51,1.5-2.31,3.41-2.31,5.53c0,2.15,0.78,4.01,2.3,5.53
							C186.13,1190.43,188.05,1191.23,190.16,1191.23"/>
						<path class="st0" d="M173.25,1191.23c2.14,0,4-0.78,5.53-2.3c1.53-1.53,2.31-3.39,2.31-5.53c0-2.12-0.8-4.03-2.3-5.53
							c-3.06-3.06-8.01-3.06-11.08,0c-1.51,1.51-2.3,3.42-2.3,5.53c0,2.14,0.77,3.99,2.3,5.53
							C169.24,1190.45,171.11,1191.23,173.25,1191.23"/>
						<path class="st0" d="M229.59,1199.68c-4.54,0-8.52,0.87-11.85,2.57c-3.74,1.91-5.73,3.81-6.27,5.99l-0.17,0.71l0.26,0.69
							c0.53,1.41,2.09,3.77,6.5,3.77c1.05,0,2.03-0.15,2.89-0.44l0.95-0.32l0.43-0.89c1.39-2.92,3.7-4.28,7.26-4.28
							c3.02,0,4.03,1.44,4.58,2.69c1.05,2.42,1.58,6.53,1.58,12.21v15.08c0,2.61-0.8,4.23-4.76,4.23H208.5v11.57H234
							c13.66,0,15.7-8.28,15.7-13.22v-18.21c0-7.23-1.66-12.77-4.96-16.47C241.39,1201.6,236.29,1199.68,229.59,1199.68"/>
						<path class="st0" d="M284.63,1198.06c-7.79,0-14.27,2.9-19.27,8.61c-4.92,5.63-7.42,12.4-7.42,20.13
							c0,3.13,0.37,6.17,1.1,9.02c0.74,2.93,1.9,5.71,3.44,8.28c1.63,2.75,3.95,4.98,6.87,6.64c2.93,1.67,6.33,2.52,10.1,2.52
							c4.59,0,8.79-1.48,12.53-4.41v6.48c0,2.75-1.05,5.1-3.23,7.21c-2.91,2.82-5.98,3.54-10.35,2.92c-0.65-0.1-1.88-0.45-3.97-1.58
							c-1.55-0.83-2.7-1.93-3.48-3.33l-0.8-1.44l-1.63,0.27c-1.94,0.33-3.7,1.64-5.26,3.9c-1.47,2.15-2.18,3.95-2.18,5.53v1.35
							l1.17,0.68c4.79,2.78,11.23,4.19,19.17,4.19c6.57,0,12.34-2.42,17.16-7.2c4.81-4.78,7.25-11.41,7.25-19.7v-26.5
							c0-6.61-1.72-12.2-5.11-16.61C297.17,1200.41,291.77,1198.06,284.63,1198.06 M291.98,1232.73c0,3.22-0.78,5.52-2.31,6.84
							c-1.66,1.44-3.88,2.14-6.77,2.14c-3.43,0-5.94-1.46-7.86-4.6c-2.09-3.42-3.16-8.04-3.16-13.75c0-4.71,1.1-8.95,3.28-12.58
							c1.96-3.29,4.88-4.9,8.92-4.9c2.54,0,4.33,0.91,5.66,2.85c1.51,2.21,2.23,4.6,2.23,7.3V1232.73z"/>
						<path class="st0" d="M580.83,1178.03c-2.95,1.93-4.46,4.31-4.46,7.07v49.45c0,6.29-2.9,7.14-5.74,7.14h-7.25v-0.01h-6.01
							c-2.23,0-4.27-0.58-6.21-1.75c-1.75-1.07-3.11-2.31-4.06-3.72l-0.09-4.38c-0.08-7.77-2.31-14.43-6.61-19.81
							c-4.42-5.55-10.6-8.36-18.36-8.36c-6.3,0-11.39,2.27-15.1,6.77c-3.61,4.36-5.44,10.44-5.44,18.08v7.22
							c0,3.41-0.76,4.54-1.09,4.87c-0.4,0.4-1.55,1.08-4.65,1.08h-2.5h-2.88c-2.52,0-4.94-0.45-7.28-1.37
							c-3.85-1.39-7.45-3.61-10.69-6.57c-3.36-3.09-6.21-6.26-8.46-9.4l-7.12-9.92c-2.44-3.36-5.24-6.14-8.31-8.3
							c-3.27-2.28-6.91-3.44-10.83-3.44c-5.77,0-10.51,2.05-14.08,6.07c-3.39,3.81-5.69,8.48-6.9,14.37c0,1.95,1.21,3.16,3.62,3.29
							c1.8-0.24,2.98-1.99,3.91-3.68l2.83-5.24c0.76-1.53,2.06-2.99,3.85-4.36c3.45-2.62,8.49-2.52,11.9,0.14
							c1.91,1.5,3.65,3.55,5.12,6.06l4.92,8.55c1.64,3.06,3.84,6.32,6.54,9.68c1.19,1.49,2.46,2.86,3.77,4.11h-53.57v0.01h-37.33
							h-5.22h-2.5c-2.35,0-4.45-0.53-6.41-1.6c-1.79-0.98-3.09-2.12-3.96-3.46v-14.79c0-7.24-1.66-12.79-4.95-16.48
							c-3.35-3.77-8.45-5.69-15.16-5.69c-4.51,0-8.5,0.87-11.85,2.58c-3.73,1.9-5.71,3.8-6.26,5.98l-0.17,0.71l0.26,0.68
							c0.53,1.41,2.09,3.78,6.5,3.78c1.03,0,2-0.15,2.88-0.43l0.95-0.31l0.43-0.9c1.4-2.92,3.71-4.28,7.26-4.28
							c3.03,0,4.04,1.44,4.58,2.69c1.05,2.41,1.58,6.52,1.58,12.21v15.08c0,2.61-0.8,4.23-4.76,4.23h-22.48v11.57h25.5
							c8.15,0,12.16-2.96,14.07-6.38c1.46,1.32,3.12,2.52,4.94,3.59c3.1,1.8,6.32,2.73,9.56,2.78v0.01h0.29h4.93h46.32v-0.01h68.89
							v0.01h10.42c2.56,0,5.04-0.55,7.35-1.62c1.33-0.62,2.51-1.39,3.52-2.3c1.4,1.58,3.06,2.91,4.94,3.98
							c2.73,1.54,4.99,2.46,6.96,2.81c1.81,0.31,3.58,0.46,5.24,0.46c4.82,0,9.13-1.47,12.82-4.38c2.45-1.93,4.34-4.15,5.67-6.64
							c1.55,1.58,3.33,3.03,5.33,4.33c2.57,1.69,5.21,2.73,7.88,3.15v0.2h2.56h3.2h11.88c4.93,0,8.74-1.79,11.33-5.34
							c2.4-3.31,3.62-7.66,3.62-12.95v-59.55h-2.34C585.81,1175.44,583.5,1176.29,580.83,1178.03 M523.34,1246.33
							c-2.12,0-4.02-0.62-5.81-1.89c-1.57-1.1-2.3-2.73-2.3-5.13v-14.54c0-13.82,5.5-13.82,7.57-13.82c2.54,0,10.26,0,10.26,17.48
							C533.07,1246.33,525.75,1246.33,523.34,1246.33"/>
						<path class="st0" d="M605.13,1178.13c-3,1.93-4.52,4.31-4.52,7.09v68.37l2.63-0.33c3.55-0.44,6.41-2.21,8.48-5.26
							c1.96-2.86,2.95-6.73,2.95-11.5v-60.95h-2.34C610.19,1175.55,607.84,1176.39,605.13,1178.13"/>
						<path class="st0" d="M685.98,1200.25l-1.71-0.49c-5.92-1.66-14.15-1.94-22.06,0.69c-3.85,1.29-7.54,3.12-10.96,5.46
							c-3.57,2.43-6.52,5.73-8.75,9.79c-2.27,4.11-3.43,8.7-3.43,13.68c0,6.83,2.14,12.57,6.35,17.07
							c4.25,4.53,10.15,6.82,17.55,6.82c7.31,0,13.04-2.11,17.03-6.27c3.97-4.13,5.99-9.12,5.99-14.82V1200.25z M672.02,1236.17
							c0,2.32-0.65,4.1-2,5.46c-1.35,1.35-3.31,2-5.99,2c-3.27,0-5.82-1.31-7.82-4.01c-2.12-2.87-3.2-7.04-3.2-12.39
							c0-3.14,0.49-6.02,1.45-8.54c0.96-2.48,2.15-4.47,3.54-5.87c1.46-1.49,3.1-2.75,4.9-3.74c1.83-1.03,3.51-1.73,4.99-2.09
							c1.47-0.38,2.85-0.58,4.11-0.58h0.12L672.02,1236.17z"/>
						<path class="st0" d="M657.89,1191.23c2.14,0,4-0.78,5.53-2.3c1.53-1.53,2.31-3.39,2.31-5.53c0-2.12-0.8-4.03-2.3-5.53
							c-3.06-3.06-8.01-3.06-11.08,0c-1.51,1.51-2.3,3.42-2.3,5.53c0,2.14,0.77,3.99,2.3,5.53
							C653.88,1190.45,655.74,1191.23,657.89,1191.23"/>
						<path class="st0" d="M674.8,1191.23c2.14,0,4-0.78,5.53-2.3c1.53-1.53,2.3-3.39,2.3-5.53c0-2.12-0.8-4.03-2.3-5.53
							c-3.04-3.04-8.04-3.03-11.06,0c-1.51,1.5-2.3,3.41-2.3,5.53c0,2.15,0.77,4.01,2.3,5.53
							C670.77,1190.43,672.68,1191.23,674.8,1191.23"/>
						<path class="st0" d="M709.01,1200.33c-2.95,1.93-4.45,4.31-4.45,7.08v50.84c0,2.18-0.53,3.78-1.6,4.88
							c-1.05,1.08-2.51,1.61-4.47,1.61c-2.56,0-4.39-1.02-5.77-3.2l-0.76-1.23l-1.44,0.14c-1.83,0.17-3.77,0.98-5.77,2.42
							c-2.32,1.66-3.46,3.39-3.46,5.28v0.8l0.49,0.63c1.28,1.65,3.07,2.89,5.33,3.69c2.07,0.74,4.02,1.1,5.79,1.1
							c7.64,0,13.86-2.27,18.48-6.74c4.66-4.49,7.02-11.06,7.02-19.52v-50.38h-2.34C713.99,1197.75,711.69,1198.59,709.01,1200.33"
							/>
						<path class="st0" d="M780.54,1261.01c-1.51,1.5-2.3,3.42-2.3,5.53c0,2.15,0.78,4.01,2.3,5.54c1.53,1.53,3.39,2.3,5.53,2.3
							c2.11,0,4.02-0.79,5.53-2.3v-0.01c1.53-1.53,2.3-3.38,2.3-5.53c0-2.12-0.8-4.04-2.3-5.53
							C788.55,1257.98,783.58,1257.98,780.54,1261.01"/>
						<path class="st0" d="M836.7,1194.02c2.14,0,4-0.78,5.53-2.3c1.53-1.52,2.31-3.38,2.31-5.53c0-2.13-0.8-4.04-2.3-5.52
							c-3.06-3.07-8.02-3.06-11.06-0.01c-1.51,1.5-2.3,3.41-2.3,5.53c0,2.15,0.77,4.01,2.3,5.53
							C832.7,1193.25,834.55,1194.02,836.7,1194.02"/>
						<path class="st0" d="M853.61,1194.02c2.14,0,4.01-0.78,5.53-2.3l0.01-0.01c1.53-1.52,2.3-3.38,2.3-5.53
							c0-2.12-0.8-4.03-2.3-5.52c-3.03-3.04-8.07-3.04-11.06-0.01c-1.51,1.49-2.31,3.41-2.31,5.53c0,2.15,0.78,4.02,2.3,5.53
							C849.58,1193.23,851.49,1194.02,853.61,1194.02"/>
						<path class="st0" d="M984.45,1178.03c-2.95,1.93-4.45,4.31-4.45,7.08v49.44c0,6.28-2.77,7.14-5.74,7.14h-7.24h-5.77h-1.96
							c-2.35,0-4.45-0.53-6.41-1.6c-1.72-0.94-2.98-2.03-3.85-3.3v-61.24h-2.34c-2.07,0-4.37,0.85-7.04,2.59
							c-2.96,1.92-4.46,4.3-4.46,7.07v46.87c0,1.64-0.05,2.98-0.15,4.03c-0.09,0.91-0.34,1.96-0.74,3.11
							c-0.29,0.84-0.73,1.41-1.37,1.82c-0.69,0.44-1.64,0.67-2.83,0.67h-2.18h-8.99h-37.33v-0.01h-7.73c-2.36,0-4.45-0.52-6.41-1.59
							c-1.71-0.94-2.98-2.03-3.85-3.31v-35.83h-2.34c-2.07,0-4.37,0.85-7.05,2.59c-3.68,2.4-4.45,5.17-4.45,7.07v21.44
							c0,1.63-0.05,2.97-0.15,4.03c-0.1,0.94-0.33,1.96-0.73,3.1c-0.31,0.85-0.74,1.43-1.37,1.82c-0.69,0.44-1.64,0.66-2.84,0.66
							h-8.34c-2.48-0.01-4.89-0.46-7.23-1.37c-3.85-1.39-7.45-3.6-10.69-6.57c-3.34-3.07-6.19-6.22-8.46-9.39l-7.12-9.92
							c-2.43-3.34-5.22-6.13-8.31-8.31c-3.27-2.27-6.91-3.43-10.83-3.43c-5.77,0-10.51,2.04-14.08,6.06
							c-3.38,3.81-5.69,8.48-6.89,14.37c0,1.94,1.35,3.3,3.54,3.3h0.03c1.82-0.21,3.01-1.98,3.94-3.69l2.84-5.24
							c0.76-1.52,2.05-2.98,3.84-4.34c3.46-2.63,8.5-2.52,11.9,0.13c1.91,1.5,3.64,3.55,5.12,6.06l4.92,8.54
							c1.64,3.07,3.84,6.32,6.55,9.69c1.19,1.49,2.45,2.86,3.77,4.11h-47.82h-12.8c-2.83,0-5.73-0.85-5.73-7.14v-59h-2.34
							c-2.03,0-4.36,0.82-7.1,2.5c-3.81,2.34-4.61,5.13-4.61,7.06v49.87c0,5.3,1.22,9.65,3.62,12.97c2.58,3.53,6.39,5.33,11.33,5.33
							h17.64v-0.01h72.12h12.58c8.23,0,12.47-3.53,14.63-7.5c1.52,1.55,3.29,2.95,5.28,4.22c3.34,2.12,6.83,3.19,10.39,3.25v0.03
							h42.55h8.99h3.58c8.23,0,12.48-3.54,14.64-7.5c1.51,1.54,3.28,2.95,5.28,4.22c3.16,2.01,6.46,3.06,9.83,3.21v0.06h0.8
							c0.01,0,0.02,0.01,0.03,0.01h4.93v-0.01h11.87c4.93,0,8.74-1.79,11.33-5.33c2.4-3.31,3.62-7.66,3.62-12.96v-59.55h-2.34
							C989.43,1175.44,987.13,1176.29,984.45,1178.03"/>
						<path class="st0" d="M1155.83,1261.02c-1.51,1.51-2.3,3.42-2.3,5.53c0,2.12,0.8,4.02,2.3,5.53c1.5,1.51,3.42,2.3,5.53,2.3
							c2.12,0,4.02-0.79,5.53-2.3v-0.01c1.53-1.53,2.3-3.39,2.3-5.53c0-2.12-0.8-4.03-2.3-5.53
							C1163.88,1258.01,1158.85,1258,1155.83,1261.02"/>
						<path class="st0" d="M1350.63,1191.11c2.12,0,4.03-0.79,5.53-2.3c1.51-1.5,2.3-3.42,2.3-5.53c0-2.15-0.77-4.02-2.3-5.53
							c-3.01-3.02-8.04-3.02-11.07,0c-1.53,1.52-2.3,3.38-2.3,5.53c0,2.12,0.79,4.04,2.3,5.53
							C1346.61,1190.32,1348.52,1191.11,1350.63,1191.11"/>
						<path class="st0" d="M1361.26,1200.33c-2.96,1.92-4.47,4.31-4.47,7.08v27.14c0,6.29-2.9,7.14-5.74,7.14h-4.01v-0.01h-43.09
							h-8.45h-34.63h-8.45h-40.78c-2.49,0-4.91-0.46-7.25-1.37c-3.85-1.39-7.44-3.6-10.69-6.57c-3.33-3.06-6.18-6.22-8.45-9.39
							l-7.12-9.92c-2.43-3.34-5.22-6.14-8.31-8.31c-3.27-2.27-6.91-3.43-10.83-3.43c-5.78,0-10.51,2.05-14.09,6.07
							c-3.38,3.81-5.68,8.47-6.89,14.37c0,1.94,1.34,3.3,3.54,3.3h0.04c1.81-0.22,3-1.98,3.94-3.69l2.83-5.24
							c0.76-1.53,2.06-3,3.85-4.35c3.47-2.64,8.52-2.52,11.9,0.13c1.91,1.5,3.64,3.54,5.12,6.06l4.92,8.54
							c1.65,3.07,3.85,6.33,6.55,9.69c1.19,1.48,2.46,2.86,3.78,4.11h-44.59v-0.01h-46.32h-5.22h-2.5c-2.35,0-4.45-0.52-6.42-1.6
							c-1.72-0.94-2.98-2.03-3.85-3.3v-58.91l-0.1-2.34h-2.34c-2.07,0-4.37,0.85-7,2.6c-2.91,1.92-4.39,4.29-4.39,7.06v57.42
							c0,12.8-6,18.77-18.88,18.77c-4.3,0-7.85-1.2-10.85-3.67c-2.86-2.35-4.26-5.71-4.26-10.25c0-3.5,0.76-6.79,2.24-9.79
							c1.64-3.32,3.7-3.7,5.12-3.7h1.49l0.63-1.36c0.58-1.26,0.87-2.78,0.87-4.65c0-3.97-2.03-5.03-3.23-5.3l-0.44-0.1l-0.44,0.08
							c-4.42,0.69-8.24,4.06-11.35,10c-2.93,5.6-4.42,11.17-4.42,16.55c0,8.09,2.21,14.38,6.57,18.68
							c4.35,4.31,10.24,6.51,17.54,6.51c8.16,0,15.44-3.25,21.66-9.66c5-5.16,8.43-11.03,10.2-17.5c1.4,1.19,2.93,2.27,4.6,3.25
							c3.09,1.8,6.31,2.73,9.56,2.78v0.02h0.29h4.93h46.32v-0.01h69.43v0.01h43.09h8.45h34.63h8.45h43.09v-0.01h8.65
							c4.94,0,8.74-1.79,11.32-5.33c2.4-3.3,3.62-7.66,3.62-12.95v-37.25h-2.34C1366.25,1197.74,1363.95,1198.59,1361.26,1200.33"/>
						<path class="st0" d="M1395.09,1236.49v-60.95h-2.34c-2.12,0-4.47,0.84-7.19,2.58c-3,1.93-4.51,4.31-4.51,7.09v68.37l2.63-0.33
							c3.54-0.44,6.4-2.21,8.48-5.26C1394.1,1245.14,1395.09,1241.26,1395.09,1236.49"/>
						<path class="st0" d="M1570.92,1191.23c2.12,0,4.04-0.8,5.53-2.3c1.53-1.53,2.31-3.39,2.31-5.53c0-2.12-0.8-4.03-2.3-5.53
							c-3.01-3.01-8.05-3.02-11.07,0c-1.51,1.5-2.3,3.42-2.3,5.53c0,2.14,0.77,4,2.3,5.53
							C1566.9,1190.43,1568.81,1191.23,1570.92,1191.23"/>
						<path class="st0" d="M1587.83,1191.23c2.14,0,4-0.78,5.53-2.3h0.01c1.53-1.53,2.3-3.39,2.3-5.53c0-2.12-0.8-4.03-2.3-5.53
							c-3.04-3.04-8.06-3.02-11.05-0.01c-1.51,1.5-2.31,3.41-2.31,5.54c0,2.15,0.77,4.02,2.3,5.53
							C1583.8,1190.43,1585.71,1191.23,1587.83,1191.23"/>
						<path class="st0" d="M1592.21,1200.34c-2.96,1.93-4.46,4.31-4.46,7.07v27.15c0,6.27-2.76,7.14-5.74,7.14H1578h-8.99h-34.09
							h-8.45h-34.63h-8.45h-37.86h-5.23h-2.5c-2.35,0-4.45-0.53-6.42-1.6c-1.71-0.94-2.98-2.03-3.85-3.3v-35.83h-2.34
							c-2.07,0-4.37,0.85-7.05,2.59c-2.95,1.93-4.45,4.31-4.45,7.08v47.62c0,2.17-0.52,3.74-1.59,4.81
							c-1.07,1.07-2.55,1.62-4.47,1.69c-2.57,0-4.4-1.02-5.78-3.21l-0.77-1.23l-1.44,0.14c-1.84,0.18-3.78,1-5.77,2.42
							c-2.33,1.66-3.46,3.4-3.46,5.29c0,1.06,0.4,2,0.98,2.59c2.07,2.46,5.55,3.64,10.63,3.64c7.62,0,13.84-2.27,18.48-6.74
							c4.61-4.46,6.98-10.96,7.01-19.31c1.1,0.83,2.27,1.61,3.5,2.31c2.98,1.69,6.1,2.56,9.27,2.61v0.02h0.3h4.93h37.86h8.45h34.63
							h8.45h34.09h8.99h8.65c4.94,0,8.75-1.8,11.33-5.33c2.4-3.31,3.62-7.67,3.62-12.95v-37.25h-2.34
							C1597.19,1197.74,1594.89,1198.6,1592.21,1200.34"/>
						<path class="st0" d="M1827.58,1261.01c-1.51,1.51-2.31,3.43-2.31,5.53c0,2.12,0.8,4.03,2.31,5.53c1.5,1.51,3.42,2.3,5.53,2.3
							c2.14,0,4-0.77,5.53-2.3l0.01-0.01c1.51-1.51,2.3-3.42,2.3-5.53c0-2.11-0.8-4.02-2.31-5.53
							C1835.6,1257.98,1830.61,1257.99,1827.58,1261.01"/>
						<path class="st0" d="M1845.39,1197.74c-2.06,0-4.36,0.85-7.05,2.59c-2.95,1.92-4.45,4.31-4.45,7.07v27.14
							c0,6.3-2.9,7.14-5.74,7.14h-4.02h-46.32h-5.22h-2.5c-2.35,0-4.45-0.53-6.41-1.59c-1.72-0.94-2.98-2.03-3.85-3.31v-61.24h-2.34
							c-2.07,0-4.37,0.85-7.04,2.59c-2.95,1.92-4.45,4.31-4.45,7.07v46.87c0,1.64-0.05,2.98-0.15,4.03
							c-0.09,0.91-0.34,1.96-0.74,3.11c-0.29,0.83-0.74,1.42-1.36,1.82c-0.69,0.44-1.65,0.66-2.84,0.66h-2.18h-8.99h-37.33h-5.23
							h-10.18v-19.42c0-6.62-1.73-12.16-5.14-16.43c-3.54-4.45-8.94-6.71-16.05-6.71c-7.7,0-13.98,3.14-18.67,9.33
							c-4.54,5.98-6.83,13.02-6.83,20.92c0,6.52,2.06,12.16,6.13,16.79c4.14,4.71,10.01,7.1,17.43,7.1h9.29v2.07
							c0,2.74-1.05,5.1-3.21,7.21c-2.92,2.82-5.96,3.56-10.37,2.92c-0.66-0.1-1.89-0.46-3.97-1.58c-1.55-0.83-2.69-1.93-3.48-3.34
							l-0.8-1.44l-1.63,0.27c-1.93,0.33-3.7,1.64-5.26,3.9c-1.48,2.14-2.19,3.96-2.19,5.53v1.35l1.16,0.68
							c4.79,2.78,11.24,4.19,19.17,4.19c6.18,0,11.67-2.14,16.33-6.37c4.21-3.81,6.8-8.98,7.73-15.38h10.53h5.23h37.33h8.99h3.58
							c8.23,0,12.47-3.53,14.64-7.5c1.51,1.55,3.27,2.95,5.27,4.23c3.34,2.11,6.83,3.19,10.39,3.25v0.02h0.29h4.93h46.32v-0.01h8.65
							c4.94,0,8.75-1.79,11.32-5.33c2.4-3.3,3.63-7.66,3.63-12.95v-37.25H1845.39z M1663.16,1241.7h-7.57
							c-4.05,0-6.85-1.14-8.55-3.5c-1.85-2.56-2.8-6.68-2.8-12.25c0-2.27,0.21-4.54,0.61-6.74c0.4-2.16,1.04-4.29,1.91-6.37
							c0.77-1.83,1.87-3.25,3.36-4.34c1.43-1.04,3.11-1.54,5.14-1.54c2.57,0,4.38,0.85,5.69,2.69c1.48,2.05,2.2,4.35,2.2,7.03
							V1241.7z"/>
					</g>
					<g>
						<path class="st0" d="M199.34,1404.18v-0.26c9.94-3.68,15.25-11.43,15.25-19.87c0-7.76-3.82-13.75-9.54-17.15
							c-6.25-4.35-13.88-5.85-26.26-5.85c-9.39,0-19.05,0.81-24.37,1.9v90.24c4.23,0.54,11.3,1.22,20.56,1.22
							c16.74,0,27.49-2.86,34.02-8.58c5.31-4.35,8.85-10.74,8.85-18.92C217.85,1414.26,209,1406.63,199.34,1404.18 M171.03,1374.11
							c1.77-0.41,4.62-0.68,9.52-0.68c10.62,0,17.15,3.95,17.15,12.52c0,7.76-6.53,13.21-18.1,13.21h-8.57V1374.11z M179.87,1441.75
							c-3.81,0-6.66-0.14-8.84-0.41v-29.94h8.3c11.56,0,20.83,4.36,20.83,14.97C200.16,1437.66,190.63,1441.75,179.87,1441.75"/>
						<rect x="232.11" y="1356.83" class="st0" width="16.87" height="96.63"/>
						<path class="st0" d="M326.41,1387.18h-16.74v40.01c0,1.9-0.4,3.68-0.95,5.16c-1.77,4.23-6.13,8.99-12.8,8.99
							c-8.84,0-12.38-7.07-12.38-18.1v-36.06H266.8v38.92c0,21.63,11.02,28.86,23.14,28.86c11.84,0,18.38-6.82,21.23-11.58h0.27
							l0.82,10.08h14.7c-0.27-5.45-0.55-11.98-0.55-19.88V1387.18z"/>
						<path class="st0" d="M372.66,1385.67c-21.23,0-32.4,17.28-32.4,35.67c0,20.27,12.66,33.48,34.16,33.48
							c9.54,0,17.42-1.78,23.14-4.09l-2.45-11.56c-5.04,1.9-10.62,2.99-18.38,2.99c-10.61,0-20.01-5.17-20.42-17.14h44.37
							c0.28-1.49,0.54-3.95,0.54-7.07C401.23,1403.37,394.16,1385.67,372.66,1385.67 M356.33,1413.31
							c0.68-6.8,5.04-16.19,15.38-16.19c11.16,0,13.89,10.06,13.75,16.19H356.33z"/>
						<polygon class="st0" points="429.51,1375.74 455.65,1375.74 455.65,1453.46 472.39,1453.46 472.39,1375.74 498.79,1375.74 
							498.79,1361.72 429.51,1361.72 						"/>
						<path class="st0" d="M517.14,1399.83h-0.55l-0.54-12.66h-14.57c0.41,5.98,0.54,12.38,0.54,21.36v44.92h16.74v-34.3
							c0-1.91,0.26-3.68,0.55-5.17c1.49-7.49,6.94-12.66,14.96-12.66c2.05,0,3.54,0.28,4.91,0.54v-15.78
							c-1.36-0.27-2.32-0.41-3.95-0.41C528.17,1385.67,520.41,1390.44,517.14,1399.83"/>
						<rect x="550.47" y="1387.18" class="st0" width="16.88" height="66.28"/>
						<path class="st0" d="M558.91,1359.54c-5.58,0-9.4,3.95-9.4,9.12c0,5.04,3.68,8.99,9.26,8.99c5.85,0,9.54-3.95,9.54-8.99
							C568.16,1363.49,564.62,1359.54,558.91,1359.54"/>
						<path class="st0" d="M636.74,1413.58c0-14.43-6.12-27.9-27.35-27.9c-10.48,0-19.06,2.86-23.96,5.85l3.27,10.89
							c4.49-2.85,11.29-4.91,17.83-4.91c11.71,0,13.48,7.22,13.48,11.58v1.08c-24.5-0.13-39.33,8.31-39.33,25.05
							c0,10.07,7.48,19.73,20.82,19.73c8.57,0,15.51-3.68,19.6-8.85h0.4l1.09,7.35h15.11c-0.68-4.08-0.95-9.94-0.95-15.92V1413.58z
							 M620.41,1430.17c0,1.09-0.15,2.45-0.55,3.68c-1.49,4.76-6.39,9.12-13.07,9.12c-5.3,0-9.52-3-9.52-9.53
							c0-10.08,11.29-12.66,23.14-12.38V1430.17z"/>
						<path class="st0" d="M690.89,1385.68c-11.02,0-18.24,6.26-21.09,11.44h-0.41l-0.82-9.95h-14.69
							c0.4,5.72,0.54,12.11,0.54,19.74v46.55h16.88v-38.93c0-1.9,0.14-3.95,0.67-5.44c1.78-5.05,6.4-9.81,13.07-9.81
							c9.12,0,12.66,7.21,12.66,16.74v37.44h16.74v-39.34C714.43,1393.15,702.46,1385.68,690.89,1385.68"/>
						<path class="st0" d="M777.55,1396.03h-0.28c-3.13-5.45-9.11-10.36-19.18-10.36c-15.93,0-30.08,13.2-30.08,34.98
							c0,18.78,11.7,32.39,28.17,32.39c8.71,0,15.51-3.95,19.32-9.79h0.28v5.71c0,14.3-8.17,20.01-19.06,20.01
							c-8.03,0-15.11-2.59-19.33-5.04l-3.68,12.66c5.72,3.54,14.7,5.32,23.14,5.32c9.12,0,18.65-1.9,25.59-8.03
							c6.94-6.26,9.8-16.2,9.8-30.08v-37.56c0-9.12,0.27-14.56,0.54-19.05h-14.56L777.55,1396.03z M775.51,1424.46
							c0,1.9-0.28,4.23-0.68,5.99c-1.9,5.99-7.35,10.08-13.61,10.08c-10.47,0-16.19-9.12-16.19-20.42
							c0-13.48,6.94-21.65,16.33-21.65c7.08,0,11.84,4.63,13.61,10.76c0.4,1.36,0.54,3,0.54,4.48V1424.46z"/>
						<rect x="810.19" y="1356.83" class="st0" width="16.87" height="96.63"/>
						<path class="st0" d="M873.33,1385.67c-21.23,0-32.39,17.28-32.39,35.67c0,20.27,12.66,33.48,34.16,33.48
							c9.53,0,17.42-1.78,23.14-4.09l-2.45-11.56c-5.03,1.9-10.61,2.99-18.37,2.99c-10.61,0-20.01-5.17-20.42-17.14h44.37
							c0.28-1.49,0.54-3.95,0.54-7.07C901.9,1403.37,894.83,1385.67,873.33,1385.67 M857,1413.31c0.69-6.8,5.04-16.19,15.38-16.19
							c11.15,0,13.89,10.06,13.75,16.19H857z"/>
						<polygon class="st0" points="930.18,1375.74 956.31,1375.74 956.31,1453.46 973.05,1453.46 973.05,1375.74 999.45,1375.74 
							999.45,1361.72 930.18,1361.72 						"/>
						<path class="st0" d="M1017.81,1399.83h-0.55l-0.54-12.66h-14.57c0.41,5.98,0.54,12.38,0.54,21.36v44.92h16.74v-34.3
							c0-1.91,0.26-3.68,0.54-5.17c1.49-7.49,6.94-12.66,14.97-12.66c2.04,0,3.54,0.28,4.9,0.54v-15.78
							c-1.36-0.27-2.31-0.41-3.94-0.41C1028.83,1385.67,1021.08,1390.44,1017.81,1399.83"/>
						<path class="st0" d="M1101.35,1413.58c0-14.43-6.12-27.9-27.35-27.9c-10.48,0-19.06,2.86-23.96,5.85l3.27,10.89
							c4.49-2.85,11.29-4.91,17.83-4.91c11.71,0,13.48,7.22,13.48,11.58v1.08c-24.5-0.13-39.34,8.31-39.34,25.05
							c0,10.07,7.49,19.73,20.83,19.73c8.57,0,15.51-3.68,19.6-8.85h0.4l1.09,7.35h15.11c-0.68-4.08-0.96-9.94-0.96-15.92V1413.58z
							 M1085.03,1430.17c0,1.09-0.15,2.45-0.55,3.68c-1.49,4.76-6.39,9.12-13.07,9.12c-5.3,0-9.52-3-9.52-9.53
							c0-10.08,11.29-12.66,23.14-12.38V1430.17z"/>
						<path class="st0" d="M1180.14,1356.83h-16.74v37.56h-0.27c-3-4.89-9.53-8.71-18.65-8.71c-15.92,0-29.81,13.2-29.67,35.39
							c0,20.42,12.52,33.89,28.31,33.89c9.66,0,17.69-4.64,21.64-11.98h0.27l0.68,10.48h14.97c-0.27-4.5-0.54-11.84-0.54-18.65
							V1356.83z M1163.4,1424.73c0,1.78-0.14,3.41-0.55,4.91c-1.63,7.21-7.62,11.84-14.42,11.84c-10.62,0-16.6-8.85-16.6-20.97
							c0-12.38,5.98-21.91,16.74-21.91c7.62,0,12.93,5.32,14.43,11.85c0.26,1.36,0.4,3,0.4,4.36V1424.73z"/>
						<path class="st0" d="M1206.51,1359.54c-5.59,0-9.4,3.95-9.4,9.12c0,5.04,3.68,8.99,9.26,8.99c5.84,0,9.53-3.95,9.53-8.99
							C1215.77,1363.49,1212.22,1359.54,1206.51,1359.54"/>
						<rect x="1198.07" y="1387.18" class="st0" width="16.87" height="66.28"/>
						<path class="st0" d="M1269.38,1385.68c-11.02,0-18.24,6.26-21.09,11.44h-0.41l-0.82-9.95h-14.7
							c0.41,5.72,0.54,12.11,0.54,19.74v46.55h16.88v-38.93c0-1.9,0.13-3.95,0.67-5.44c1.77-5.05,6.4-9.81,13.07-9.81
							c9.12,0,12.66,7.21,12.66,16.74v37.44h16.74v-39.34C1292.91,1393.15,1280.94,1385.68,1269.38,1385.68"/>
						<path class="st0" d="M1356.04,1396.03h-0.27c-3.13-5.45-9.12-10.36-19.19-10.36c-15.93,0-30.08,13.2-30.08,34.98
							c0,18.78,11.7,32.39,28.17,32.39c8.71,0,15.52-3.95,19.33-9.79h0.27v5.71c0,14.3-8.17,20.01-19.06,20.01
							c-8.03,0-15.1-2.59-19.32-5.04l-3.68,12.66c5.72,3.54,14.7,5.32,23.14,5.32c9.12,0,18.65-1.9,25.59-8.03
							c6.94-6.26,9.8-16.2,9.8-30.08v-37.56c0-9.12,0.27-14.56,0.54-19.05h-14.56L1356.04,1396.03z M1354,1424.46
							c0,1.9-0.27,4.23-0.68,5.99c-1.9,5.99-7.35,10.08-13.61,10.08c-10.47,0-16.19-9.12-16.19-20.42
							c0-13.48,6.94-21.65,16.34-21.65c7.07,0,11.84,4.63,13.6,10.76c0.41,1.36,0.55,3,0.55,4.48V1424.46z"/>
						<polygon class="st0" points="1434.27,1361.72 1417.52,1361.72 1417.52,1453.45 1471.95,1453.45 1471.95,1439.43 
							1434.27,1439.43 						"/>
						<path class="st0" d="M1492.35,1359.54c-5.58,0-9.39,3.95-9.39,9.12c0,5.04,3.68,8.99,9.25,8.99c5.85,0,9.54-3.95,9.54-8.99
							C1501.61,1363.49,1498.06,1359.54,1492.35,1359.54"/>
						<rect x="1483.92" y="1387.18" class="st0" width="16.88" height="66.28"/>
						<path class="st0" d="M1594.28,1385.68c-5.44,0-9.67,1.36-13.34,3.95c-3.13,1.9-5.86,4.62-8.17,8.3h-0.27
							c-2.86-7.34-9.67-12.25-18.38-12.25c-11.15,0-17.15,6.13-20.42,11.3h-0.4l-0.68-9.81h-14.43c0.4,5.72,0.54,12.11,0.54,19.74
							v46.55h16.33v-39.2c0-1.9,0.28-3.81,0.96-5.44c1.49-4.63,5.71-9.53,11.97-9.53c7.76,0,11.43,6.54,11.43,15.78v38.39h16.33
							v-39.75c0-1.9,0.41-3.94,0.81-5.57c1.77-4.76,5.98-8.85,11.71-8.85c8.02,0,11.84,6.54,11.84,17.56v36.62h16.33v-39.06
							C1616.46,1393.15,1605.3,1385.68,1594.28,1385.68"/>
						<path class="st0" d="M1642.55,1359.54c-5.58,0-9.39,3.95-9.39,9.12c0,5.04,3.68,8.99,9.25,8.99c5.85,0,9.54-3.95,9.54-8.99
							C1651.81,1363.49,1648.26,1359.54,1642.55,1359.54"/>
						<rect x="1634.11" y="1387.18" class="st0" width="16.88" height="66.28"/>
						<path class="st0" d="M1688.13,1368.25l-16.33,3.95v14.97h-9.53v12.51h9.53v31.18c0,8.71,1.63,14.69,5.18,18.51
							c3.13,3.41,8.3,5.45,14.42,5.45c5.31,0,9.66-0.7,12.11-1.64l-0.28-12.79c-1.49,0.41-3.67,0.82-6.53,0.82
							c-6.4,0-8.58-4.22-8.58-12.25v-29.27h15.93v-12.51h-15.93V1368.25z"/>
						<path class="st0" d="M1744.06,1385.67c-21.23,0-32.4,17.28-32.4,35.67c0,20.27,12.66,33.48,34.16,33.48
							c9.54,0,17.42-1.78,23.14-4.09l-2.45-11.56c-5.04,1.9-10.62,2.99-18.38,2.99c-10.62,0-20.01-5.17-20.42-17.14h44.37
							c0.28-1.49,0.55-3.95,0.55-7.07C1772.64,1403.37,1765.56,1385.67,1744.06,1385.67 M1727.72,1413.31
							c0.68-6.8,5.03-16.19,15.38-16.19c11.15,0,13.88,10.06,13.75,16.19H1727.72z"/>
						<path class="st0" d="M1847.19,1434.81v-77.98h-16.74v37.56h-0.28c-2.99-4.89-9.52-8.71-18.64-8.71
							c-15.92,0-29.8,13.2-29.68,35.39c0,20.42,12.52,33.89,28.31,33.89c9.67,0,17.69-4.64,21.64-11.98h0.26l0.69,10.48h14.97
							C1847.46,1448.96,1847.19,1441.61,1847.19,1434.81 M1830.45,1424.73c0,1.78-0.15,3.41-0.55,4.91
							c-1.63,7.21-7.62,11.84-14.42,11.84c-10.62,0-16.6-8.85-16.6-20.97c0-12.38,5.98-21.91,16.74-21.91
							c7.62,0,12.93,5.32,14.43,11.85c0.26,1.36,0.41,3,0.41,4.36V1424.73z"/>
					</g>
				</g>
			</g>
		</g>
	</g>
	<g>
		<g>
		</g>
		<linearGradient id="SVGID_1_" gradientUnits="userSpaceOnUse" x1="1253.0566" y1="950.6272" x2="1253.0566" y2="1134.3347">
			<stop  offset="0" style="stop-color:#DBD8D6"/>
			<stop  offset="0" style="stop-color:#E5E3E1"/>
			<stop  offset="0" style="stop-color:#FFFFFF"/>
			<stop  offset="0.0532" style="stop-color:#EBEBEB"/>
			<stop  offset="0.1618" style="stop-color:#B6B6B6"/>
			<stop  offset="0.264" style="stop-color:#808080"/>
			<stop  offset="0.3585" style="stop-color:#C1C1C1"/>
			<stop  offset="0.4329" style="stop-color:#EEEEEE"/>
			<stop  offset="0.4703" style="stop-color:#FFFFFF"/>
			<stop  offset="0.5435" style="stop-color:#E9E9E9"/>
			<stop  offset="0.6959" style="stop-color:#B0B0B0"/>
			<stop  offset="0.8764" style="stop-color:#666666"/>
			<stop  offset="0.9064" style="stop-color:#7A7A7A"/>
			<stop  offset="0.9677" style="stop-color:#ACAEAD"/>
			<stop  offset="1" style="stop-color:#C9CCCB"/>
			<stop  offset="1" style="stop-color:#FFFFFF"/>
		</linearGradient>
		<polygon class="st1" points="1408.43,1109.37 1309.98,950.63 1097.68,1109.39 1408.43,1109.39 		"/>
		<linearGradient id="SVGID_2_" gradientUnits="userSpaceOnUse" x1="723.9091" y1="670.2422" x2="723.9091" y2="1179.3124">
			<stop  offset="0" style="stop-color:#DBD8D6"/>
			<stop  offset="0" style="stop-color:#E5E3E1"/>
			<stop  offset="0" style="stop-color:#FFFFFF"/>
			<stop  offset="0.0532" style="stop-color:#EBEBEB"/>
			<stop  offset="0.1618" style="stop-color:#B6B6B6"/>
			<stop  offset="0.264" style="stop-color:#808080"/>
			<stop  offset="0.3585" style="stop-color:#C1C1C1"/>
			<stop  offset="0.4329" style="stop-color:#EEEEEE"/>
			<stop  offset="0.4703" style="stop-color:#FFFFFF"/>
			<stop  offset="0.5435" style="stop-color:#E9E9E9"/>
			<stop  offset="0.6959" style="stop-color:#B0B0B0"/>
			<stop  offset="0.8764" style="stop-color:#666666"/>
			<stop  offset="0.9064" style="stop-color:#7A7A7A"/>
			<stop  offset="0.9677" style="stop-color:#ACAEAD"/>
			<stop  offset="1" style="stop-color:#C9CCCB"/>
			<stop  offset="1" style="stop-color:#FFFFFF"/>
		</linearGradient>
		<polygon class="st2" points="593.72,1109.39 854.09,1109.39 854.09,670.24 		"/>
		<linearGradient id="SVGID_3_" gradientUnits="userSpaceOnUse" x1="1090.2957" y1="437.7895" x2="1090.2957" y2="1024.5404">
			<stop  offset="0" style="stop-color:#DBD8D6"/>
			<stop  offset="0" style="stop-color:#E5E3E1"/>
			<stop  offset="0" style="stop-color:#FFFFFF"/>
			<stop  offset="0.0532" style="stop-color:#EBEBEB"/>
			<stop  offset="0.1618" style="stop-color:#B6B6B6"/>
			<stop  offset="0.264" style="stop-color:#808080"/>
			<stop  offset="0.3585" style="stop-color:#C1C1C1"/>
			<stop  offset="0.4329" style="stop-color:#EEEEEE"/>
			<stop  offset="0.4703" style="stop-color:#FFFFFF"/>
			<stop  offset="0.5435" style="stop-color:#E9E9E9"/>
			<stop  offset="0.6959" style="stop-color:#B0B0B0"/>
			<stop  offset="0.8764" style="stop-color:#666666"/>
			<stop  offset="0.9064" style="stop-color:#7A7A7A"/>
			<stop  offset="0.9677" style="stop-color:#ACAEAD"/>
			<stop  offset="1" style="stop-color:#C9CCCB"/>
			<stop  offset="1" style="stop-color:#FFFFFF"/>
		</linearGradient>
		<polygon class="st3" points="1177.19,888.09 1062.81,835.36 1064.47,692.82 1188.79,755.23 991.91,437.79 991.81,437.97 
			991.8,1024.54 		"/>
	</g>
</g>
</svg>
