<?xml version="1.0" encoding="utf-8"?>
<!-- Generator: Adobe Illustrator 25.2.0, SVG Export Plug-In . SVG Version: 6.00 Build 0)  -->
<svg version="1.0" id="Layer_1" xmlns="http://www.w3.org/2000/svg" xmlns:xlink="http://www.w3.org/1999/xlink" x="0px" y="0px"
	 width="333.8px" height="210.9px" viewBox="0 0 333.8 210.9" style="enable-background:new 0 0 333.8 210.9;" xml:space="preserve"
	>
<style type="text/css">
	.st0{fill:#FFFFFF;}
	.st1{fill:#009BDF;}
	.st2{fill:url(#SVGID_1_);}
	.st3{fill:url(#SVGID_2_);}
	.st4{fill:url(#SVGID_3_);}
</style>
<g>
	<g>
		<g>
			<g>
				<path class="st0" d="M4.57,155.42c-0.76,0.25-1.49,0.62-2.16,1.08c-0.7,0.48-1.29,1.13-1.73,1.93c-0.45,0.81-0.68,1.72-0.68,2.7
					c0,1.35,0.42,2.48,1.25,3.36c0.84,0.89,2,1.35,3.46,1.35c1.44,0,2.57-0.42,3.36-1.24c0.78-0.81,1.18-1.8,1.18-2.92v-6.3
					l-0.34-0.1C7.75,154.95,6.12,154.9,4.57,155.42 M6.5,162.46c0,0.46-0.13,0.81-0.4,1.08s-0.65,0.4-1.18,0.4
					c-0.64,0-1.15-0.26-1.54-0.79c-0.42-0.57-0.63-1.39-0.63-2.44c0-0.62,0.1-1.19,0.29-1.68s0.42-0.88,0.7-1.16
					c0.29-0.29,0.61-0.54,0.97-0.74c0.36-0.2,0.69-0.34,0.98-0.41c0.29-0.08,0.56-0.11,0.81-0.11h0.02L6.5,162.46z"/>
				<path class="st0" d="M7.05,153.6c0.42,0,0.79-0.16,1.09-0.45l0,0c0.3-0.3,0.45-0.67,0.45-1.09c0-0.42-0.16-0.79-0.45-1.09
					c-0.59-0.59-1.59-0.59-2.18,0c-0.3,0.3-0.46,0.67-0.46,1.09c0,0.42,0.15,0.79,0.45,1.09C6.26,153.44,6.63,153.6,7.05,153.6"/>
				<path class="st0" d="M3.72,153.6c0.42,0,0.79-0.15,1.09-0.45c0.3-0.3,0.46-0.67,0.46-1.09c0-0.42-0.16-0.79-0.45-1.09
					c-0.6-0.6-1.58-0.6-2.18,0c-0.3,0.3-0.45,0.67-0.45,1.09c0,0.42,0.15,0.79,0.45,1.09C2.93,153.45,3.29,153.6,3.72,153.6"/>
				<path class="st0" d="M14.82,155.27c-0.89,0-1.68,0.17-2.33,0.51c-0.74,0.38-1.13,0.75-1.24,1.18l-0.03,0.14l0.05,0.14
					c0.11,0.28,0.41,0.74,1.28,0.74c0.21,0,0.4-0.03,0.57-0.09l0.19-0.06l0.08-0.18c0.27-0.58,0.73-0.84,1.43-0.84
					c0.6,0,0.79,0.28,0.9,0.53c0.21,0.48,0.31,1.29,0.31,2.41v2.97c0,0.52-0.16,0.83-0.94,0.83h-4.43v2.28h5.03
					c2.69,0,3.1-1.63,3.1-2.61v-3.59c0-1.42-0.33-2.52-0.98-3.25C17.15,155.64,16.14,155.27,14.82,155.27"/>
				<path class="st0" d="M25.67,154.95c-1.54,0-2.81,0.57-3.8,1.7c-0.97,1.11-1.46,2.44-1.46,3.97c0,0.62,0.07,1.22,0.22,1.78
					c0.15,0.58,0.37,1.13,0.68,1.63c0.32,0.54,0.78,0.98,1.35,1.31c0.58,0.33,1.25,0.5,1.99,0.5c0.9,0,1.73-0.29,2.47-0.87v1.28
					c0,0.54-0.21,1.01-0.64,1.42c-0.57,0.56-1.18,0.7-2.04,0.58c-0.13-0.02-0.37-0.09-0.78-0.31c-0.31-0.16-0.53-0.38-0.69-0.66
					L22.81,167l-0.32,0.05c-0.38,0.06-0.73,0.32-1.04,0.77c-0.29,0.42-0.43,0.78-0.43,1.09v0.27l0.23,0.13
					c0.94,0.55,2.21,0.83,3.78,0.83c1.29,0,2.43-0.48,3.38-1.42s1.43-2.25,1.43-3.88v-5.22c0-1.3-0.34-2.4-1.01-3.27
					C28.14,155.41,27.08,154.95,25.67,154.95 M27.12,161.78c0,0.63-0.15,1.09-0.46,1.35c-0.33,0.28-0.76,0.42-1.33,0.42
					c-0.68,0-1.17-0.29-1.55-0.91c-0.41-0.67-0.62-1.59-0.62-2.71c0-0.93,0.22-1.76,0.65-2.48c0.39-0.65,0.96-0.97,1.76-0.97
					c0.5,0,0.85,0.18,1.12,0.56c0.3,0.44,0.44,0.91,0.44,1.44v3.3H27.12z"/>
				<path class="st0" d="M84.06,151c-0.58,0.38-0.88,0.85-0.88,1.39v9.75c0,1.24-0.57,1.41-1.13,1.41h-1.43l0,0h-1.18
					c-0.44,0-0.84-0.11-1.22-0.35c-0.34-0.21-0.61-0.46-0.8-0.73l-0.02-0.86c-0.02-1.53-0.46-2.84-1.3-3.91
					c-0.87-1.09-2.09-1.65-3.62-1.65c-1.24,0-2.24,0.45-2.98,1.33c-0.71,0.86-1.07,2.06-1.07,3.56v1.42c0,0.67-0.15,0.89-0.21,0.96
					c-0.08,0.08-0.3,0.21-0.92,0.21h-0.49h-0.57c-0.5,0-0.97-0.09-1.44-0.27c-0.76-0.27-1.47-0.71-2.11-1.3
					c-0.66-0.61-1.22-1.23-1.67-1.85l-1.4-1.95c-0.48-0.66-1.03-1.21-1.64-1.64c-0.65-0.45-1.36-0.68-2.13-0.68
					c-1.14,0-2.07,0.4-2.78,1.2c-0.67,0.75-1.12,1.67-1.36,2.83c0,0.38,0.24,0.62,0.71,0.65c0.36-0.05,0.59-0.39,0.77-0.73
					l0.56-1.03c0.15-0.3,0.41-0.59,0.76-0.86c0.68-0.52,1.67-0.5,2.35,0.03c0.38,0.3,0.72,0.7,1.01,1.19l0.97,1.69
					c0.32,0.6,0.76,1.25,1.29,1.91c0.24,0.29,0.48,0.56,0.74,0.81H50.31l0,0h-7.36h-1.03h-0.49c-0.46,0-0.88-0.1-1.26-0.32
					c-0.35-0.19-0.61-0.42-0.78-0.68v-2.91c0-1.43-0.33-2.52-0.98-3.25c-0.66-0.74-1.67-1.12-2.99-1.12c-0.89,0-1.68,0.17-2.33,0.51
					c-0.74,0.37-1.13,0.75-1.23,1.18l-0.03,0.14l0.05,0.13c0.11,0.28,0.41,0.75,1.28,0.75c0.2,0,0.4-0.03,0.57-0.08l0.19-0.06
					l0.08-0.18c0.28-0.58,0.73-0.84,1.43-0.84c0.6,0,0.8,0.28,0.9,0.53c0.21,0.47,0.31,1.29,0.31,2.41v2.97
					c0,0.52-0.16,0.83-0.94,0.83h-4.43v2.28h5.03c1.61,0,2.4-0.58,2.77-1.26c0.29,0.26,0.62,0.5,0.97,0.71
					c0.61,0.35,1.25,0.54,1.88,0.55l0,0h0.06h0.97h9.13l0,0h13.58l0,0h2.05c0.5,0,0.99-0.11,1.45-0.32
					c0.26-0.12,0.49-0.27,0.69-0.45c0.28,0.31,0.6,0.57,0.97,0.78c0.54,0.3,0.98,0.49,1.37,0.55c0.36,0.06,0.71,0.09,1.03,0.09
					c0.95,0,1.8-0.29,2.53-0.86c0.48-0.38,0.86-0.82,1.12-1.31c0.3,0.31,0.66,0.6,1.05,0.85c0.51,0.33,1.03,0.54,1.55,0.62v0.04h0.5
					h0.63h2.34c0.97,0,1.72-0.35,2.23-1.05c0.47-0.65,0.71-1.51,0.71-2.55v-11.72h-0.46C85.04,150.49,84.58,150.65,84.06,151
					 M72.73,164.46c-0.42,0-0.79-0.12-1.15-0.37c-0.31-0.22-0.45-0.54-0.45-1.01v-2.87c0-2.72,1.08-2.72,1.49-2.72
					c0.5,0,2.02,0,2.02,3.44C74.64,164.46,73.2,164.46,72.73,164.46"/>
				<path class="st0" d="M88.85,151.02c-0.59,0.38-0.89,0.85-0.89,1.4v13.48l0.52-0.06c0.7-0.09,1.26-0.44,1.67-1.04
					c0.39-0.56,0.58-1.33,0.58-2.27v-12.01h-0.46C89.85,150.51,89.38,150.68,88.85,151.02"/>
				<path class="st0" d="M104.78,155.38l-0.34-0.1c-1.17-0.33-2.79-0.38-4.35,0.14c-0.76,0.25-1.49,0.62-2.16,1.08
					c-0.7,0.48-1.29,1.13-1.73,1.93c-0.45,0.81-0.68,1.72-0.68,2.7c0,1.35,0.42,2.48,1.25,3.36c0.84,0.89,2,1.35,3.46,1.35
					c1.44,0,2.57-0.42,3.36-1.24c0.78-0.81,1.18-1.8,1.18-2.92L104.78,155.38L104.78,155.38z M102.03,162.46
					c0,0.46-0.13,0.81-0.4,1.08s-0.65,0.4-1.18,0.4c-0.64,0-1.15-0.26-1.54-0.79c-0.42-0.57-0.63-1.39-0.63-2.44
					c0-0.62,0.1-1.19,0.29-1.68s0.42-0.88,0.7-1.16c0.29-0.29,0.61-0.54,0.97-0.74c0.36-0.2,0.69-0.34,0.98-0.41
					c0.29-0.08,0.56-0.11,0.81-0.11h0.02L102.03,162.46z"/>
				<path class="st0" d="M99.25,153.6c0.42,0,0.79-0.15,1.09-0.45c0.3-0.3,0.46-0.67,0.46-1.09c0-0.42-0.16-0.79-0.45-1.09
					c-0.6-0.6-1.58-0.6-2.18,0c-0.3,0.3-0.45,0.67-0.45,1.09c0,0.42,0.15,0.79,0.45,1.09C98.46,153.45,98.82,153.6,99.25,153.6"/>
				<path class="st0" d="M102.58,153.6c0.42,0,0.79-0.15,1.09-0.45c0.3-0.3,0.45-0.67,0.45-1.09c0-0.42-0.16-0.79-0.45-1.09
					c-0.6-0.6-1.59-0.6-2.18,0c-0.3,0.3-0.45,0.67-0.45,1.09c0,0.42,0.15,0.79,0.45,1.09C101.79,153.44,102.16,153.6,102.58,153.6"
					/>
				<path class="st0" d="M109.32,155.39c-0.58,0.38-0.88,0.85-0.88,1.4v10.02c0,0.43-0.1,0.74-0.32,0.96
					c-0.21,0.21-0.49,0.32-0.88,0.32c-0.5,0-0.87-0.2-1.14-0.63l-0.15-0.24l-0.28,0.03c-0.36,0.03-0.74,0.19-1.14,0.48
					c-0.46,0.33-0.68,0.67-0.68,1.04v0.16l0.1,0.12c0.25,0.33,0.61,0.57,1.05,0.73c0.41,0.14,0.79,0.22,1.14,0.22
					c1.51,0,2.73-0.45,3.64-1.33c0.92-0.88,1.38-2.18,1.38-3.85v-9.93h-0.46C110.31,154.88,109.85,155.05,109.32,155.39"/>
				<path class="st0" d="M123.42,167.35c-0.3,0.3-0.45,0.67-0.45,1.09c0,0.42,0.15,0.79,0.45,1.09s0.67,0.45,1.09,0.45
					c0.42,0,0.79-0.16,1.09-0.45l0,0c0.3-0.3,0.45-0.67,0.45-1.09c0-0.42-0.16-0.8-0.45-1.09
					C125,166.76,124.02,166.76,123.42,167.35"/>
				<path class="st0" d="M134.49,154.15c0.42,0,0.79-0.15,1.09-0.45c0.3-0.3,0.46-0.67,0.46-1.09c0-0.42-0.16-0.8-0.45-1.09
					c-0.6-0.61-1.58-0.6-2.18,0c-0.3,0.3-0.45,0.67-0.45,1.09c0,0.42,0.15,0.79,0.45,1.09C133.7,154,134.07,154.15,134.49,154.15"/>
				<path class="st0" d="M137.83,154.15c0.42,0,0.79-0.15,1.09-0.45l0,0c0.3-0.3,0.45-0.67,0.45-1.09c0-0.42-0.16-0.79-0.45-1.09
					c-0.6-0.6-1.59-0.6-2.18,0c-0.3,0.29-0.46,0.67-0.46,1.09c0,0.42,0.15,0.79,0.45,1.09
					C137.03,153.99,137.41,154.15,137.83,154.15"/>
				<path class="st0" d="M163.62,151c-0.58,0.38-0.88,0.85-0.88,1.4v9.75c0,1.24-0.55,1.41-1.13,1.41h-1.43h-1.14h-0.39
					c-0.46,0-0.88-0.1-1.26-0.32c-0.34-0.19-0.59-0.4-0.76-0.65v-12.07h-0.46c-0.41,0-0.86,0.17-1.39,0.51
					c-0.58,0.38-0.88,0.85-0.88,1.39v9.24c0,0.32-0.01,0.59-0.03,0.79c-0.02,0.18-0.07,0.39-0.15,0.61
					c-0.06,0.17-0.14,0.28-0.27,0.36c-0.14,0.09-0.32,0.13-0.56,0.13h-0.43h-1.77h-7.36l0,0h-1.52c-0.46,0-0.88-0.1-1.26-0.31
					c-0.34-0.19-0.59-0.4-0.76-0.65v-7.06h-0.46c-0.41,0-0.86,0.17-1.39,0.51c-0.72,0.47-0.88,1.02-0.88,1.39v4.23
					c0,0.32-0.01,0.59-0.03,0.79c-0.02,0.18-0.07,0.39-0.14,0.61c-0.06,0.17-0.15,0.28-0.27,0.36c-0.14,0.09-0.32,0.13-0.56,0.13
					h-1.64c-0.49,0-0.96-0.09-1.42-0.27c-0.76-0.27-1.47-0.71-2.11-1.3c-0.66-0.6-1.22-1.23-1.67-1.85l-1.4-1.95
					c-0.48-0.66-1.03-1.21-1.64-1.64c-0.65-0.45-1.36-0.68-2.13-0.68c-1.14,0-2.07,0.4-2.78,1.19c-0.67,0.75-1.12,1.67-1.36,2.83
					c0,0.38,0.27,0.65,0.7,0.65h0.01c0.36-0.04,0.59-0.39,0.78-0.73l0.56-1.03c0.15-0.3,0.4-0.59,0.76-0.86
					c0.68-0.52,1.68-0.5,2.35,0.03c0.38,0.3,0.72,0.7,1.01,1.19l0.97,1.68c0.32,0.6,0.76,1.25,1.29,1.91
					c0.23,0.29,0.48,0.56,0.74,0.81h-9.43h-2.52c-0.56,0-1.13-0.17-1.13-1.41v-11.63h-0.46c-0.4,0-0.86,0.16-1.4,0.49
					c-0.75,0.46-0.91,1.01-0.91,1.39v9.83c0,1.04,0.24,1.9,0.71,2.56c0.51,0.7,1.26,1.05,2.23,1.05h3.48l0,0h14.22h2.48
					c1.62,0,2.46-0.7,2.88-1.48c0.3,0.3,0.65,0.58,1.04,0.83c0.66,0.42,1.35,0.63,2.05,0.64v0.01h8.39h1.77h0.71
					c1.62,0,2.46-0.7,2.89-1.48c0.3,0.3,0.65,0.58,1.04,0.83c0.62,0.4,1.27,0.6,1.94,0.63v0.01h0.16c0,0,0,0,0.01,0h0.97l0,0h2.34
					c0.97,0,1.72-0.35,2.23-1.05c0.47-0.65,0.71-1.51,0.71-2.55v-11.71h-0.46C164.6,150.49,164.15,150.66,163.62,151"/>
				<path class="st0" d="M197.4,167.36c-0.3,0.3-0.45,0.67-0.45,1.09c0,0.42,0.16,0.79,0.45,1.09c0.3,0.3,0.67,0.45,1.09,0.45
					c0.42,0,0.79-0.16,1.09-0.45l0,0c0.3-0.3,0.45-0.67,0.45-1.09c0-0.42-0.16-0.79-0.45-1.09
					C198.99,166.76,198,166.76,197.4,167.36"/>
				<path class="st0" d="M235.8,153.58c0.42,0,0.79-0.16,1.09-0.45c0.3-0.3,0.45-0.67,0.45-1.09c0-0.42-0.15-0.79-0.45-1.09
					c-0.59-0.59-1.59-0.6-2.18,0c-0.3,0.3-0.45,0.67-0.45,1.09c0,0.42,0.16,0.8,0.45,1.09C235.01,153.42,235.38,153.58,235.8,153.58
					"/>
				<path class="st0" d="M237.89,155.39c-0.58,0.38-0.88,0.85-0.88,1.4v5.35c0,1.24-0.57,1.41-1.13,1.41h-0.79l0,0h-8.49h-1.67
					h-6.83h-1.67h-8.04c-0.49,0-0.97-0.09-1.43-0.27c-0.76-0.27-1.47-0.71-2.11-1.3c-0.66-0.6-1.22-1.23-1.67-1.85l-1.4-1.95
					c-0.48-0.66-1.03-1.21-1.64-1.64c-0.65-0.45-1.36-0.68-2.13-0.68c-1.14,0-2.07,0.4-2.78,1.2c-0.67,0.75-1.12,1.67-1.36,2.83
					c0,0.38,0.26,0.65,0.7,0.65h0.01c0.36-0.04,0.59-0.39,0.78-0.73l0.56-1.03c0.15-0.3,0.41-0.59,0.76-0.86
					c0.68-0.52,1.68-0.5,2.35,0.03c0.38,0.3,0.72,0.7,1.01,1.19l0.97,1.68c0.33,0.61,0.76,1.25,1.29,1.91
					c0.24,0.29,0.48,0.56,0.75,0.81h-8.79l0,0h-9.13h-1.03h-0.49c-0.46,0-0.88-0.1-1.26-0.31c-0.34-0.19-0.59-0.4-0.76-0.65v-11.61
					l-0.02-0.46h-0.46c-0.41,0-0.86,0.17-1.38,0.51c-0.57,0.38-0.87,0.85-0.87,1.39v11.32c0,2.52-1.18,3.7-3.72,3.7
					c-0.85,0-1.55-0.24-2.14-0.72c-0.56-0.46-0.84-1.13-0.84-2.02c0-0.69,0.15-1.34,0.44-1.93c0.32-0.65,0.73-0.73,1.01-0.73h0.29
					l0.12-0.27c0.11-0.25,0.17-0.55,0.17-0.92c0-0.78-0.4-0.99-0.64-1.04l-0.09-0.02l-0.09,0.02c-0.87,0.14-1.62,0.8-2.24,1.97
					c-0.58,1.1-0.87,2.2-0.87,3.26c0,1.59,0.44,2.83,1.29,3.68c0.86,0.85,2.02,1.28,3.46,1.28c1.61,0,3.04-0.64,4.27-1.9
					c0.99-1.02,1.66-2.17,2.01-3.45c0.28,0.24,0.58,0.45,0.91,0.64c0.61,0.36,1.24,0.54,1.88,0.55l0,0h0.06h0.97h9.13l0,0h13.71l0,0
					h8.49h1.67h6.83h1.67h8.49l0,0h1.7c0.97,0,1.72-0.35,2.23-1.05c0.47-0.65,0.71-1.51,0.71-2.55v-7.34h-0.46
					C238.88,154.88,238.42,155.05,237.89,155.39"/>
				<path class="st0" d="M244.56,162.52v-12.01h-0.46c-0.42,0-0.88,0.17-1.42,0.51c-0.59,0.38-0.89,0.85-0.89,1.4v13.48l0.52-0.06
					c0.7-0.09,1.26-0.44,1.67-1.04C244.37,164.23,244.56,163.46,244.56,162.52"/>
				<path class="st0" d="M279.22,153.6c0.42,0,0.8-0.16,1.09-0.45c0.3-0.3,0.46-0.67,0.46-1.09c0-0.42-0.16-0.79-0.45-1.09
					c-0.59-0.59-1.59-0.6-2.18,0c-0.3,0.3-0.45,0.67-0.45,1.09c0,0.42,0.15,0.79,0.45,1.09C278.43,153.44,278.81,153.6,279.22,153.6
					"/>
				<path class="st0" d="M282.56,153.6c0.42,0,0.79-0.15,1.09-0.45l0,0c0.3-0.3,0.45-0.67,0.45-1.09c0-0.42-0.16-0.79-0.45-1.09
					c-0.6-0.6-1.59-0.59-2.18,0c-0.3,0.3-0.46,0.67-0.46,1.09c0,0.42,0.15,0.79,0.45,1.09C281.76,153.44,282.14,153.6,282.56,153.6"
					/>
				<path class="st0" d="M283.42,155.39c-0.58,0.38-0.88,0.85-0.88,1.39v5.35c0,1.24-0.54,1.41-1.13,1.41h-0.79h-1.77h-6.72h-1.67
					h-6.83h-1.67h-7.46h-1.03h-0.49c-0.46,0-0.88-0.1-1.26-0.32c-0.34-0.18-0.59-0.4-0.76-0.65v-7.06h-0.46
					c-0.41,0-0.86,0.17-1.39,0.51c-0.58,0.38-0.88,0.85-0.88,1.4v9.39c0,0.43-0.1,0.74-0.31,0.95c-0.21,0.21-0.5,0.32-0.88,0.33
					c-0.51,0-0.87-0.2-1.14-0.63l-0.15-0.24l-0.28,0.03c-0.36,0.04-0.75,0.2-1.14,0.48c-0.46,0.33-0.68,0.67-0.68,1.04
					c0,0.21,0.08,0.4,0.19,0.51c0.41,0.48,1.09,0.72,2.1,0.72c1.5,0,2.73-0.45,3.64-1.33c0.91-0.88,1.38-2.16,1.38-3.81
					c0.22,0.16,0.45,0.32,0.69,0.46c0.59,0.33,1.2,0.5,1.83,0.51l0,0h0.06h0.97h7.46h1.67h6.83h1.67h6.72h1.77h1.7
					c0.97,0,1.72-0.35,2.23-1.05c0.47-0.65,0.71-1.51,0.71-2.55v-7.34h-0.46C284.4,154.88,283.95,155.05,283.42,155.39"/>
				<path class="st0" d="M329.81,167.35c-0.3,0.3-0.46,0.68-0.46,1.09c0,0.42,0.16,0.79,0.46,1.09c0.3,0.3,0.67,0.45,1.09,0.45
					c0.42,0,0.79-0.15,1.09-0.45l0,0c0.3-0.3,0.45-0.67,0.45-1.09c0-0.42-0.16-0.79-0.46-1.09
					C331.39,166.76,330.41,166.76,329.81,167.35"/>
				<path class="st0" d="M333.32,154.88c-0.41,0-0.86,0.17-1.39,0.51c-0.58,0.38-0.88,0.85-0.88,1.39v5.35
					c0,1.24-0.57,1.41-1.13,1.41h-0.79H320h-1.03h-0.49c-0.46,0-0.88-0.1-1.26-0.31c-0.34-0.19-0.59-0.4-0.76-0.65v-12.07H316
					c-0.41,0-0.86,0.17-1.39,0.51c-0.58,0.38-0.88,0.85-0.88,1.39v9.24c0,0.32-0.01,0.59-0.03,0.79c-0.02,0.18-0.07,0.39-0.15,0.61
					c-0.06,0.16-0.14,0.28-0.27,0.36c-0.14,0.09-0.33,0.13-0.56,0.13h-0.43h-1.77h-7.36h-1.03h-2.01v-3.83
					c0-1.31-0.34-2.4-1.01-3.24c-0.7-0.88-1.76-1.32-3.16-1.32c-1.52,0-2.76,0.62-3.68,1.84c-0.89,1.18-1.35,2.57-1.35,4.12
					c0,1.29,0.41,2.4,1.21,3.31c0.82,0.93,1.97,1.4,3.44,1.4h1.83v0.41c0,0.54-0.21,1-0.63,1.42c-0.58,0.56-1.17,0.7-2.04,0.58
					c-0.13-0.02-0.37-0.09-0.78-0.31c-0.31-0.16-0.53-0.38-0.69-0.66l-0.16-0.28l-0.32,0.05c-0.38,0.06-0.73,0.32-1.04,0.77
					c-0.29,0.42-0.43,0.78-0.43,1.09v0.27l0.23,0.13c0.94,0.55,2.22,0.83,3.78,0.83c1.22,0,2.3-0.42,3.22-1.26
					c0.83-0.75,1.34-1.77,1.52-3.03h2.08h1.03h7.36h1.77h0.71c1.62,0,2.46-0.7,2.89-1.48c0.3,0.3,0.65,0.58,1.04,0.83
					c0.66,0.42,1.35,0.63,2.05,0.64l0,0h0.06h0.97h9.13l0,0h1.7c0.97,0,1.73-0.35,2.23-1.05c0.47-0.65,0.71-1.51,0.71-2.55v-7.34
					H333.32z M297.4,163.55h-1.49c-0.8,0-1.35-0.23-1.69-0.69c-0.36-0.5-0.55-1.32-0.55-2.41c0-0.45,0.04-0.89,0.12-1.33
					c0.08-0.43,0.21-0.85,0.38-1.25c0.15-0.36,0.37-0.64,0.66-0.86c0.28-0.21,0.61-0.3,1.01-0.3c0.51,0,0.86,0.17,1.12,0.53
					c0.29,0.4,0.43,0.86,0.43,1.38v4.93H297.4z"/>
			</g>
			<g>
				<path class="st0" d="M8.86,195.58v-0.05c1.96-0.72,3.01-2.25,3.01-3.92c0-1.53-0.75-2.71-1.88-3.38
					c-1.23-0.86-2.74-1.15-5.18-1.15c-1.85,0-3.75,0.16-4.8,0.38v17.79c0.83,0.11,2.23,0.24,4.05,0.24c3.3,0,5.42-0.56,6.71-1.69
					c1.05-0.86,1.74-2.12,1.74-3.73C12.51,197.56,10.76,196.06,8.86,195.58 M3.28,189.65c0.35-0.08,0.91-0.13,1.88-0.13
					c2.09,0,3.38,0.78,3.38,2.47c0,1.53-1.29,2.6-3.57,2.6H3.28V189.65z M5.02,202.98c-0.75,0-1.31-0.03-1.74-0.08V197h1.64
					c2.28,0,4.11,0.86,4.11,2.95C9.02,202.18,7.14,202.98,5.02,202.98"/>
				<rect x="15.32" y="186.24" class="st0" width="3.33" height="19.05"/>
				<path class="st0" d="M33.91,192.22h-3.3v7.89c0,0.37-0.08,0.72-0.19,1.02c-0.35,0.83-1.21,1.77-2.52,1.77
					c-1.74,0-2.44-1.39-2.44-3.57v-7.11h-3.3v7.67c0,4.26,2.17,5.69,4.56,5.69c2.33,0,3.62-1.34,4.19-2.28h0.05l0.16,1.99h2.9
					c-0.05-1.07-0.11-2.36-0.11-3.92L33.91,192.22L33.91,192.22z"/>
				<path class="st0" d="M43.02,191.93c-4.19,0-6.39,3.41-6.39,7.03c0,4,2.49,6.6,6.73,6.6c1.88,0,3.43-0.35,4.56-0.81l-0.48-2.28
					c-0.99,0.37-2.09,0.59-3.62,0.59c-2.09,0-3.94-1.02-4.02-3.38h8.75c0.05-0.29,0.11-0.78,0.11-1.39
					C48.66,195.42,47.26,191.93,43.02,191.93 M39.8,197.37c0.13-1.34,0.99-3.19,3.03-3.19c2.2,0,2.74,1.98,2.71,3.19H39.8z"/>
				<polygon class="st0" points="54.23,189.97 59.38,189.97 59.38,205.29 62.68,205.29 62.68,189.97 67.89,189.97 67.89,187.21 
					54.23,187.21 				"/>
				<path class="st0" d="M71.5,194.72h-0.11l-0.11-2.49h-2.87c0.08,1.18,0.11,2.44,0.11,4.21v8.85h3.3v-6.76
					c0-0.38,0.05-0.72,0.11-1.02c0.29-1.48,1.37-2.5,2.95-2.5c0.4,0,0.7,0.05,0.97,0.11v-3.11c-0.27-0.05-0.46-0.08-0.78-0.08
					C73.68,191.93,72.15,192.87,71.5,194.72"/>
				<rect x="78.07" y="192.22" class="st0" width="3.33" height="13.06"/>
				<path class="st0" d="M79.74,186.78c-1.1,0-1.85,0.78-1.85,1.8c0,0.99,0.73,1.77,1.82,1.77c1.15,0,1.88-0.78,1.88-1.77
					C81.56,187.56,80.86,186.78,79.74,186.78"/>
				<path class="st0" d="M95.08,197.43c0-2.84-1.21-5.5-5.39-5.5c-2.07,0-3.76,0.56-4.72,1.15l0.64,2.15
					c0.89-0.56,2.23-0.97,3.51-0.97c2.31,0,2.66,1.42,2.66,2.28v0.21c-4.83-0.03-7.75,1.64-7.75,4.94c0,1.99,1.48,3.89,4.1,3.89
					c1.69,0,3.06-0.72,3.86-1.74h0.08l0.22,1.45h2.98c-0.13-0.8-0.19-1.96-0.19-3.14L95.08,197.43L95.08,197.43z M91.86,200.7
					c0,0.22-0.03,0.48-0.11,0.73c-0.29,0.94-1.26,1.8-2.58,1.8c-1.05,0-1.88-0.59-1.88-1.88c0-1.99,2.23-2.5,4.56-2.44v1.79H91.86z"
					/>
				<path class="st0" d="M105.75,191.93c-2.17,0-3.6,1.23-4.16,2.25h-0.08l-0.16-1.96h-2.9c0.08,1.13,0.11,2.39,0.11,3.89v9.18h3.33
					v-7.67c0-0.38,0.03-0.78,0.13-1.07c0.35-0.99,1.26-1.93,2.58-1.93c1.8,0,2.49,1.42,2.49,3.3v7.38h3.3v-7.75
					C110.39,193.4,108.03,191.93,105.75,191.93"/>
				<path class="st0" d="M122.83,193.97h-0.05c-0.62-1.07-1.8-2.04-3.78-2.04c-3.14,0-5.93,2.6-5.93,6.9c0,3.7,2.31,6.38,5.55,6.38
					c1.72,0,3.06-0.78,3.81-1.93h0.05v1.13c0,2.82-1.61,3.94-3.76,3.94c-1.58,0-2.98-0.51-3.81-0.99l-0.72,2.49
					c1.13,0.7,2.9,1.05,4.56,1.05c1.8,0,3.68-0.38,5.04-1.58c1.37-1.23,1.93-3.19,1.93-5.93v-7.4c0-1.8,0.05-2.87,0.11-3.75h-2.87
					L122.83,193.97z M122.43,199.57c0,0.38-0.05,0.83-0.13,1.18c-0.38,1.18-1.45,1.99-2.68,1.99c-2.06,0-3.19-1.8-3.19-4.02
					c0-2.66,1.37-4.27,3.22-4.27c1.4,0,2.33,0.91,2.68,2.12c0.08,0.27,0.11,0.59,0.11,0.88L122.43,199.57L122.43,199.57z"/>
				<rect x="129.27" y="186.24" class="st0" width="3.32" height="19.05"/>
				<path class="st0" d="M141.71,191.93c-4.19,0-6.39,3.41-6.39,7.03c0,4,2.49,6.6,6.73,6.6c1.88,0,3.43-0.35,4.56-0.81l-0.48-2.28
					c-0.99,0.37-2.09,0.59-3.62,0.59c-2.09,0-3.94-1.02-4.02-3.38h8.75c0.05-0.29,0.11-0.78,0.11-1.39
					C147.35,195.42,145.95,191.93,141.71,191.93 M138.49,197.37c0.14-1.34,0.99-3.19,3.03-3.19c2.2,0,2.74,1.98,2.71,3.19H138.49z"
					/>
				<polygon class="st0" points="152.92,189.97 158.07,189.97 158.07,205.29 161.37,205.29 161.37,189.97 166.58,189.97 
					166.58,187.21 152.92,187.21 				"/>
				<path class="st0" d="M170.19,194.72h-0.11l-0.11-2.49h-2.87c0.08,1.18,0.11,2.44,0.11,4.21v8.85h3.3v-6.76
					c0-0.38,0.05-0.72,0.11-1.02c0.29-1.48,1.37-2.5,2.95-2.5c0.4,0,0.7,0.05,0.97,0.11v-3.11c-0.27-0.05-0.46-0.08-0.78-0.08
					C172.37,191.93,170.84,192.87,170.19,194.72"/>
				<path class="st0" d="M186.66,197.43c0-2.84-1.21-5.5-5.39-5.5c-2.07,0-3.76,0.56-4.72,1.15l0.64,2.15
					c0.88-0.56,2.23-0.97,3.51-0.97c2.31,0,2.66,1.42,2.66,2.28v0.21c-4.83-0.03-7.75,1.64-7.75,4.94c0,1.99,1.48,3.89,4.11,3.89
					c1.69,0,3.06-0.72,3.86-1.74h0.08l0.22,1.45h2.98c-0.13-0.8-0.19-1.96-0.19-3.14L186.66,197.43L186.66,197.43z M183.44,200.7
					c0,0.22-0.03,0.48-0.11,0.73c-0.29,0.94-1.26,1.8-2.58,1.8c-1.05,0-1.88-0.59-1.88-1.88c0-1.99,2.23-2.5,4.56-2.44v1.79H183.44z
					"/>
				<path class="st0" d="M202.19,186.24h-3.3v7.4h-0.05c-0.59-0.96-1.88-1.72-3.68-1.72c-3.14,0-5.88,2.6-5.85,6.98
					c0,4.02,2.47,6.68,5.58,6.68c1.9,0,3.49-0.91,4.27-2.36h0.05l0.13,2.07h2.95c-0.05-0.89-0.11-2.33-0.11-3.68L202.19,186.24
					L202.19,186.24z M198.89,199.63c0,0.35-0.03,0.67-0.11,0.97c-0.32,1.42-1.5,2.33-2.84,2.33c-2.09,0-3.27-1.74-3.27-4.13
					c0-2.44,1.18-4.32,3.3-4.32c1.5,0,2.55,1.05,2.85,2.34c0.05,0.27,0.08,0.59,0.08,0.86L198.89,199.63L198.89,199.63z"/>
				<path class="st0" d="M207.39,186.78c-1.1,0-1.85,0.78-1.85,1.8c0,0.99,0.72,1.77,1.83,1.77c1.15,0,1.88-0.78,1.88-1.77
					C209.21,187.56,208.52,186.78,207.39,186.78"/>
				<rect x="205.73" y="192.22" class="st0" width="3.32" height="13.06"/>
				<path class="st0" d="M219.78,191.93c-2.17,0-3.6,1.23-4.16,2.25h-0.08l-0.16-1.96h-2.9c0.08,1.13,0.11,2.39,0.11,3.89v9.18h3.33
					v-7.67c0-0.38,0.03-0.78,0.13-1.07c0.35-0.99,1.26-1.93,2.58-1.93c1.8,0,2.49,1.42,2.49,3.3v7.38h3.3v-7.75
					C224.42,193.4,222.06,191.93,219.78,191.93"/>
				<path class="st0" d="M236.87,193.97h-0.05c-0.62-1.07-1.8-2.04-3.78-2.04c-3.14,0-5.93,2.6-5.93,6.9c0,3.7,2.31,6.38,5.55,6.38
					c1.72,0,3.06-0.78,3.81-1.93h0.05v1.13c0,2.82-1.61,3.94-3.76,3.94c-1.58,0-2.98-0.51-3.81-0.99l-0.72,2.49
					c1.13,0.7,2.9,1.05,4.56,1.05c1.8,0,3.68-0.38,5.04-1.58c1.37-1.23,1.93-3.19,1.93-5.93v-7.4c0-1.8,0.05-2.87,0.11-3.75H237
					L236.87,193.97z M236.46,199.57c0,0.38-0.05,0.83-0.13,1.18c-0.38,1.18-1.45,1.99-2.68,1.99c-2.06,0-3.19-1.8-3.19-4.02
					c0-2.66,1.37-4.27,3.22-4.27c1.39,0,2.33,0.91,2.68,2.12c0.08,0.27,0.11,0.59,0.11,0.88L236.46,199.57L236.46,199.57z"/>
				<polygon class="st0" points="252.28,187.21 248.98,187.21 248.98,205.29 259.71,205.29 259.71,202.52 252.28,202.52 				"/>
				<path class="st0" d="M263.73,186.78c-1.1,0-1.85,0.78-1.85,1.8c0,0.99,0.72,1.77,1.82,1.77c1.15,0,1.88-0.78,1.88-1.77
					C265.56,187.56,264.86,186.78,263.73,186.78"/>
				<rect x="262.07" y="192.22" class="st0" width="3.33" height="13.06"/>
				<path class="st0" d="M283.83,191.93c-1.07,0-1.91,0.27-2.63,0.78c-0.62,0.38-1.15,0.91-1.61,1.64h-0.05
					c-0.56-1.45-1.91-2.41-3.62-2.41c-2.2,0-3.38,1.21-4.02,2.23h-0.08l-0.13-1.93h-2.84c0.08,1.13,0.11,2.39,0.11,3.89v9.18h3.22
					v-7.73c0-0.37,0.05-0.75,0.19-1.07c0.29-0.91,1.13-1.88,2.36-1.88c1.53,0,2.25,1.29,2.25,3.11v7.57h3.22v-7.84
					c0-0.38,0.08-0.78,0.16-1.1c0.35-0.94,1.18-1.74,2.31-1.74c1.58,0,2.33,1.29,2.33,3.46v7.22h3.22v-7.7
					C288.2,193.4,286,191.93,283.83,191.93"/>
				<path class="st0" d="M293.34,186.78c-1.1,0-1.85,0.78-1.85,1.8c0,0.99,0.72,1.77,1.82,1.77c1.15,0,1.88-0.78,1.88-1.77
					C295.17,187.56,294.47,186.78,293.34,186.78"/>
				<rect x="291.68" y="192.22" class="st0" width="3.33" height="13.06"/>
				<path class="st0" d="M302.33,188.49l-3.22,0.78v2.95h-1.88v2.47h1.88v6.15c0,1.72,0.32,2.9,1.02,3.65
					c0.62,0.67,1.64,1.07,2.84,1.07c1.05,0,1.9-0.14,2.39-0.32l-0.05-2.52c-0.29,0.08-0.72,0.16-1.29,0.16
					c-1.26,0-1.69-0.83-1.69-2.42v-5.77h3.14v-2.47h-3.14L302.33,188.49L302.33,188.49z"/>
				<path class="st0" d="M313.35,191.93c-4.19,0-6.39,3.41-6.39,7.03c0,4,2.49,6.6,6.73,6.6c1.88,0,3.43-0.35,4.56-0.81l-0.48-2.28
					c-0.99,0.37-2.09,0.59-3.62,0.59c-2.09,0-3.94-1.02-4.02-3.38h8.75c0.05-0.29,0.11-0.78,0.11-1.39
					C318.98,195.42,317.59,191.93,313.35,191.93 M310.13,197.37c0.13-1.34,0.99-3.19,3.03-3.19c2.2,0,2.74,1.98,2.71,3.19H310.13z"
					/>
				<path class="st0" d="M333.68,201.61v-15.37h-3.3v7.4h-0.05c-0.59-0.96-1.88-1.72-3.67-1.72c-3.14,0-5.87,2.6-5.85,6.98
					c0,4.02,2.47,6.68,5.58,6.68c1.91,0,3.49-0.91,4.27-2.36h0.05l0.14,2.07h2.95C333.73,204.4,333.68,202.95,333.68,201.61
					 M330.38,199.63c0,0.35-0.03,0.67-0.11,0.97c-0.32,1.42-1.5,2.33-2.84,2.33c-2.09,0-3.27-1.74-3.27-4.13
					c0-2.44,1.18-4.32,3.3-4.32c1.5,0,2.55,1.05,2.84,2.34c0.05,0.27,0.08,0.59,0.08,0.86V199.63z"/>
			</g>
		</g>
	</g>
	<g>
		<polygon class="st1" points="204.89,64.25 179.73,51.62 179.39,80.46 202.54,91.14 165.02,118.76 165.02,0.03 137.15,47.05 
			137.15,135.93 186.45,135.93 229.42,103.8 		"/>
		
			<linearGradient id="SVGID_1_" gradientUnits="userSpaceOnUse" x1="217.895" y1="106.47" x2="217.895" y2="69.2877" gradientTransform="matrix(1 0 0 -1 0 210.27)">
			<stop  offset="0" style="stop-color:#DBD8D6"/>
			<stop  offset="0" style="stop-color:#E5E3E1"/>
			<stop  offset="0" style="stop-color:#FFFFFF"/>
			<stop  offset="0.0532" style="stop-color:#EBEBEB"/>
			<stop  offset="0.1618" style="stop-color:#B6B6B6"/>
			<stop  offset="0.264" style="stop-color:#808080"/>
			<stop  offset="0.3585" style="stop-color:#C1C1C1"/>
			<stop  offset="0.4329" style="stop-color:#EEEEEE"/>
			<stop  offset="0.4703" style="stop-color:#FFFFFF"/>
			<stop  offset="0.5435" style="stop-color:#E9E9E9"/>
			<stop  offset="0.6959" style="stop-color:#B0B0B0"/>
			<stop  offset="0.8764" style="stop-color:#666666"/>
			<stop  offset="0.9064" style="stop-color:#7A7A7A"/>
			<stop  offset="0.9677" style="stop-color:#ACAEAD"/>
			<stop  offset="1" style="stop-color:#C9CCCB"/>
			<stop  offset="1" style="stop-color:#FFFFFF"/>
		</linearGradient>
		<polygon class="st2" points="249.34,135.92 229.42,103.8 186.45,135.93 249.34,135.93 		"/>
		
			<linearGradient id="SVGID_2_" gradientUnits="userSpaceOnUse" x1="110.8" y1="163.22" x2="110.8" y2="60.1845" gradientTransform="matrix(1 0 0 -1 0 210.27)">
			<stop  offset="0" style="stop-color:#DBD8D6"/>
			<stop  offset="0" style="stop-color:#E5E3E1"/>
			<stop  offset="0" style="stop-color:#FFFFFF"/>
			<stop  offset="0.0532" style="stop-color:#EBEBEB"/>
			<stop  offset="0.1618" style="stop-color:#B6B6B6"/>
			<stop  offset="0.264" style="stop-color:#808080"/>
			<stop  offset="0.3585" style="stop-color:#C1C1C1"/>
			<stop  offset="0.4329" style="stop-color:#EEEEEE"/>
			<stop  offset="0.4703" style="stop-color:#FFFFFF"/>
			<stop  offset="0.5435" style="stop-color:#E9E9E9"/>
			<stop  offset="0.6959" style="stop-color:#B0B0B0"/>
			<stop  offset="0.8764" style="stop-color:#666666"/>
			<stop  offset="0.9064" style="stop-color:#7A7A7A"/>
			<stop  offset="0.9677" style="stop-color:#ACAEAD"/>
			<stop  offset="1" style="stop-color:#C9CCCB"/>
			<stop  offset="1" style="stop-color:#FFFFFF"/>
		</linearGradient>
		<polygon class="st3" points="84.45,135.93 137.15,135.93 137.15,47.05 		"/>
		
			<linearGradient id="SVGID_3_" gradientUnits="userSpaceOnUse" x1="184.955" y1="210.27" x2="184.955" y2="91.51" gradientTransform="matrix(1 0 0 -1 0 210.27)">
			<stop  offset="0" style="stop-color:#DBD8D6"/>
			<stop  offset="0" style="stop-color:#E5E3E1"/>
			<stop  offset="0" style="stop-color:#FFFFFF"/>
			<stop  offset="0.0532" style="stop-color:#EBEBEB"/>
			<stop  offset="0.1618" style="stop-color:#B6B6B6"/>
			<stop  offset="0.264" style="stop-color:#808080"/>
			<stop  offset="0.3585" style="stop-color:#C1C1C1"/>
			<stop  offset="0.4329" style="stop-color:#EEEEEE"/>
			<stop  offset="0.4703" style="stop-color:#FFFFFF"/>
			<stop  offset="0.5435" style="stop-color:#E9E9E9"/>
			<stop  offset="0.6959" style="stop-color:#B0B0B0"/>
			<stop  offset="0.8764" style="stop-color:#666666"/>
			<stop  offset="0.9064" style="stop-color:#7A7A7A"/>
			<stop  offset="0.9677" style="stop-color:#ACAEAD"/>
			<stop  offset="1" style="stop-color:#C9CCCB"/>
			<stop  offset="1" style="stop-color:#FFFFFF"/>
		</linearGradient>
		<polygon class="st4" points="202.54,91.14 179.39,80.46 179.73,51.62 204.89,64.25 165.04,0 165.02,0.03 165.02,118.76 		"/>
	</g>
</g>
</svg>
