<?xml version="1.0" encoding="utf-8"?>
<!-- Generator: Adobe Illustrator 25.2.0, SVG Export Plug-In . SVG Version: 6.00 Build 0)  -->
<svg version="1.1" id="Layer_1" xmlns="http://www.w3.org/2000/svg" xmlns:xlink="http://www.w3.org/1999/xlink" x="0px" y="0px"
	 width="271.3px" height="171.4px" viewBox="0 0 271.3 171.4" style="enable-background:new 0 0 271.3 171.4;" xml:space="preserve"
	>
<style type="text/css">
	.st0{fill:#FFFFFF;}
	.st1{fill:#009BDF;}
	.st2{fill:url(#SVGID_1_);}
	.st3{fill:url(#SVGID_2_);}
	.st4{fill:url(#SVGID_3_);}
</style>
<g>
	<g>
		<g>
			<g>
				<path class="st0" d="M3.7,126.3c-0.6,0.2-1.2,0.5-1.8,0.9c-0.6,0.4-1,0.9-1.4,1.6c-0.4,0.7-0.6,1.4-0.6,2.2c0,1.1,0.3,2,1,2.7
					c0.7,0.7,1.6,1.1,2.8,1.1c1.2,0,2.1-0.3,2.7-1c0.6-0.7,1-1.5,1-2.4v-5.1l-0.3-0.1C6.3,125.9,5,125.9,3.7,126.3 M5.3,132
					c0,0.4-0.1,0.7-0.3,0.9s-0.5,0.3-1,0.3c-0.5,0-0.9-0.2-1.3-0.6c-0.3-0.5-0.5-1.1-0.5-2c0-0.5,0.1-1,0.2-1.4
					c0.2-0.4,0.3-0.7,0.6-0.9c0.2-0.2,0.5-0.4,0.8-0.6c0.3-0.2,0.6-0.3,0.8-0.3c0.2-0.1,0.5-0.1,0.7-0.1h0L5.3,132z"/>
				<path class="st0" d="M5.7,124.8c0.3,0,0.6-0.1,0.9-0.4l0,0c0.2-0.2,0.4-0.5,0.4-0.9s-0.1-0.6-0.4-0.9c-0.5-0.5-1.3-0.5-1.8,0
					c-0.2,0.2-0.4,0.5-0.4,0.9s0.1,0.6,0.4,0.9C5.1,124.7,5.4,124.8,5.7,124.8"/>
				<path class="st0" d="M3,124.8c0.3,0,0.6-0.1,0.9-0.4c0.2-0.2,0.4-0.5,0.4-0.9s-0.1-0.6-0.4-0.9c-0.5-0.5-1.3-0.5-1.8,0
					c-0.2,0.2-0.4,0.5-0.4,0.9s0.1,0.6,0.4,0.9C2.4,124.7,2.7,124.8,3,124.8"/>
				<path class="st0" d="M12,126.2c-0.7,0-1.4,0.1-1.9,0.4c-0.6,0.3-0.9,0.6-1,1l0,0.1l0,0.1c0.1,0.2,0.3,0.6,1,0.6
					c0.2,0,0.3,0,0.5-0.1l0.2,0l0.1-0.1c0.2-0.5,0.6-0.7,1.2-0.7c0.5,0,0.6,0.2,0.7,0.4c0.2,0.4,0.3,1,0.3,2v2.4
					c0,0.4-0.1,0.7-0.8,0.7H8.7v1.9h4.1c2.2,0,2.5-1.3,2.5-2.1v-2.9c0-1.2-0.3-2-0.8-2.6C13.9,126.5,13.1,126.2,12,126.2"/>
				<path class="st0" d="M20.9,125.9c-1.3,0-2.3,0.5-3.1,1.4c-0.8,0.9-1.2,2-1.2,3.2c0,0.5,0.1,1,0.2,1.4c0.1,0.5,0.3,0.9,0.6,1.3
					c0.3,0.4,0.6,0.8,1.1,1.1c0.5,0.3,1,0.4,1.6,0.4c0.7,0,1.4-0.2,2-0.7v1c0,0.4-0.2,0.8-0.5,1.2c-0.5,0.5-1,0.6-1.7,0.5
					c-0.1,0-0.3-0.1-0.6-0.3c-0.3-0.1-0.4-0.3-0.6-0.5l-0.1-0.2l-0.3,0c-0.3,0-0.6,0.3-0.8,0.6c-0.2,0.3-0.3,0.6-0.3,0.9v0.2
					l0.2,0.1c0.8,0.4,1.8,0.7,3.1,0.7c1,0,2-0.4,2.7-1.2s1.2-1.8,1.2-3.2v-4.2c0-1.1-0.3-2-0.8-2.7C22.9,126.3,22,125.9,20.9,125.9
					 M22,131.5c0,0.5-0.1,0.9-0.4,1.1c-0.3,0.2-0.6,0.3-1.1,0.3c-0.6,0-1-0.2-1.3-0.7c-0.3-0.5-0.5-1.3-0.5-2.2c0-0.8,0.2-1.4,0.5-2
					c0.3-0.5,0.8-0.8,1.4-0.8c0.4,0,0.7,0.1,0.9,0.5c0.2,0.4,0.4,0.7,0.4,1.2L22,131.5L22,131.5z"/>
				<path class="st0" d="M68.3,122.7c-0.5,0.3-0.7,0.7-0.7,1.1v7.9c0,1-0.5,1.1-0.9,1.1h-1.2l0,0h-1c-0.4,0-0.7-0.1-1-0.3
					c-0.3-0.2-0.5-0.4-0.7-0.6l0-0.7c0-1.2-0.4-2.3-1.1-3.2c-0.7-0.9-1.7-1.3-2.9-1.3c-1,0-1.8,0.4-2.4,1.1
					c-0.6,0.7-0.9,1.7-0.9,2.9v1.2c0,0.5-0.1,0.7-0.2,0.8c-0.1,0.1-0.2,0.2-0.7,0.2h-0.4h-0.5c-0.4,0-0.8-0.1-1.2-0.2
					c-0.6-0.2-1.2-0.6-1.7-1.1c-0.5-0.5-1-1-1.4-1.5l-1.1-1.6c-0.4-0.5-0.8-1-1.3-1.3c-0.5-0.4-1.1-0.6-1.7-0.6
					c-0.9,0-1.7,0.3-2.3,1c-0.5,0.6-0.9,1.4-1.1,2.3c0,0.3,0.2,0.5,0.6,0.5c0.3,0,0.5-0.3,0.6-0.6l0.5-0.8c0.1-0.2,0.3-0.5,0.6-0.7
					c0.6-0.4,1.4-0.4,1.9,0c0.3,0.2,0.6,0.6,0.8,1l0.8,1.4c0.3,0.5,0.6,1,1,1.6c0.2,0.2,0.4,0.5,0.6,0.7h-8.6l0,0h-6h-0.8h-0.4
					c-0.4,0-0.7-0.1-1-0.3c-0.3-0.2-0.5-0.3-0.6-0.6v-2.4c0-1.2-0.3-2-0.8-2.6c-0.5-0.6-1.4-0.9-2.4-0.9c-0.7,0-1.4,0.1-1.9,0.4
					c-0.6,0.3-0.9,0.6-1,1l0,0.1l0,0.1c0.1,0.2,0.3,0.6,1,0.6c0.2,0,0.3,0,0.5-0.1l0.2,0l0.1-0.1c0.2-0.5,0.6-0.7,1.2-0.7
					c0.5,0,0.7,0.2,0.7,0.4c0.2,0.4,0.3,1,0.3,2v2.4c0,0.4-0.1,0.7-0.8,0.7h-3.6v1.9h4.1c1.3,0,2-0.5,2.3-1c0.2,0.2,0.5,0.4,0.8,0.6
					c0.5,0.3,1,0.4,1.5,0.4l0,0h0h0.8h7.4l0,0h11l0,0H55c0.4,0,0.8-0.1,1.2-0.3c0.2-0.1,0.4-0.2,0.6-0.4c0.2,0.3,0.5,0.5,0.8,0.6
					c0.4,0.2,0.8,0.4,1.1,0.4c0.3,0,0.6,0.1,0.8,0.1c0.8,0,1.5-0.2,2.1-0.7c0.4-0.3,0.7-0.7,0.9-1.1c0.2,0.3,0.5,0.5,0.9,0.7
					c0.4,0.3,0.8,0.4,1.3,0.5v0H65h0.5h1.9c0.8,0,1.4-0.3,1.8-0.9c0.4-0.5,0.6-1.2,0.6-2.1v-9.5h-0.4
					C69.1,122.3,68.7,122.4,68.3,122.7 M59.1,133.6c-0.3,0-0.6-0.1-0.9-0.3c-0.3-0.2-0.4-0.4-0.4-0.8v-2.3c0-2.2,0.9-2.2,1.2-2.2
					c0.4,0,1.6,0,1.6,2.8C60.7,133.6,59.5,133.6,59.1,133.6"/>
				<path class="st0" d="M72.2,122.7c-0.5,0.3-0.7,0.7-0.7,1.1v11l0.4,0c0.6-0.1,1-0.4,1.4-0.8c0.3-0.5,0.5-1.1,0.5-1.8v-9.8h-0.4
					C73,122.3,72.6,122.4,72.2,122.7"/>
				<path class="st0" d="M85.1,126.3l-0.3-0.1c-1-0.3-2.3-0.3-3.5,0.1c-0.6,0.2-1.2,0.5-1.8,0.9c-0.6,0.4-1,0.9-1.4,1.6
					c-0.4,0.7-0.6,1.4-0.6,2.2c0,1.1,0.3,2,1,2.7c0.7,0.7,1.6,1.1,2.8,1.1c1.2,0,2.1-0.3,2.7-1c0.6-0.7,1-1.5,1-2.4L85.1,126.3
					L85.1,126.3z M82.9,132c0,0.4-0.1,0.7-0.3,0.9s-0.5,0.3-1,0.3c-0.5,0-0.9-0.2-1.3-0.6c-0.3-0.5-0.5-1.1-0.5-2
					c0-0.5,0.1-1,0.2-1.4c0.2-0.4,0.3-0.7,0.6-0.9c0.2-0.2,0.5-0.4,0.8-0.6c0.3-0.2,0.6-0.3,0.8-0.3c0.2-0.1,0.5-0.1,0.7-0.1h0
					L82.9,132z"/>
				<path class="st0" d="M80.7,124.8c0.3,0,0.6-0.1,0.9-0.4c0.2-0.2,0.4-0.5,0.4-0.9s-0.1-0.6-0.4-0.9c-0.5-0.5-1.3-0.5-1.8,0
					c-0.2,0.2-0.4,0.5-0.4,0.9s0.1,0.6,0.4,0.9C80,124.7,80.3,124.8,80.7,124.8"/>
				<path class="st0" d="M83.4,124.8c0.3,0,0.6-0.1,0.9-0.4c0.2-0.2,0.4-0.5,0.4-0.9s-0.1-0.6-0.4-0.9c-0.5-0.5-1.3-0.5-1.8,0
					c-0.2,0.2-0.4,0.5-0.4,0.9s0.1,0.6,0.4,0.9C82.7,124.7,83,124.8,83.4,124.8"/>
				<path class="st0" d="M88.8,126.3c-0.5,0.3-0.7,0.7-0.7,1.1v8.1c0,0.3-0.1,0.6-0.3,0.8c-0.2,0.2-0.4,0.3-0.7,0.3
					c-0.4,0-0.7-0.2-0.9-0.5l-0.1-0.2l-0.2,0c-0.3,0-0.6,0.2-0.9,0.4c-0.4,0.3-0.6,0.5-0.6,0.8v0.1l0.1,0.1c0.2,0.3,0.5,0.5,0.9,0.6
					c0.3,0.1,0.6,0.2,0.9,0.2c1.2,0,2.2-0.4,3-1.1c0.7-0.7,1.1-1.8,1.1-3.1v-8.1H90C89.6,125.9,89.3,126,88.8,126.3"/>
				<path class="st0" d="M100.3,136c-0.2,0.2-0.4,0.5-0.4,0.9c0,0.3,0.1,0.6,0.4,0.9c0.2,0.2,0.5,0.4,0.9,0.4s0.6-0.1,0.9-0.4l0,0
					c0.2-0.2,0.4-0.5,0.4-0.9c0-0.3-0.1-0.7-0.4-0.9C101.6,135.5,100.8,135.5,100.3,136"/>
				<path class="st0" d="M109.3,125.3c0.3,0,0.6-0.1,0.9-0.4c0.2-0.2,0.4-0.5,0.4-0.9s-0.1-0.7-0.4-0.9c-0.5-0.5-1.3-0.5-1.8,0
					c-0.2,0.2-0.4,0.5-0.4,0.9s0.1,0.6,0.4,0.9C108.7,125.1,109,125.3,109.3,125.3"/>
				<path class="st0" d="M112,125.3c0.3,0,0.6-0.1,0.9-0.4l0,0c0.2-0.2,0.4-0.5,0.4-0.9s-0.1-0.6-0.4-0.9c-0.5-0.5-1.3-0.5-1.8,0
					c-0.2,0.2-0.4,0.5-0.4,0.9s0.1,0.6,0.4,0.9C111.4,125.1,111.7,125.3,112,125.3"/>
				<path class="st0" d="M133,122.7c-0.5,0.3-0.7,0.7-0.7,1.1v7.9c0,1-0.4,1.1-0.9,1.1h-1.2h-0.9h-0.3c-0.4,0-0.7-0.1-1-0.3
					c-0.3-0.2-0.5-0.3-0.6-0.5v-9.8h-0.4c-0.3,0-0.7,0.1-1.1,0.4c-0.5,0.3-0.7,0.7-0.7,1.1v7.5c0,0.3,0,0.5,0,0.6
					c0,0.1-0.1,0.3-0.1,0.5c0,0.1-0.1,0.2-0.2,0.3c-0.1,0.1-0.3,0.1-0.5,0.1h-0.3h-1.4h-6l0,0h-1.2c-0.4,0-0.7-0.1-1-0.3
					c-0.3-0.2-0.5-0.3-0.6-0.5v-5.7h-0.4c-0.3,0-0.7,0.1-1.1,0.4c-0.6,0.4-0.7,0.8-0.7,1.1v3.4c0,0.3,0,0.5,0,0.6
					c0,0.1-0.1,0.3-0.1,0.5c0,0.1-0.1,0.2-0.2,0.3c-0.1,0.1-0.3,0.1-0.5,0.1h-1.3c-0.4,0-0.8-0.1-1.2-0.2c-0.6-0.2-1.2-0.6-1.7-1.1
					c-0.5-0.5-1-1-1.4-1.5l-1.1-1.6c-0.4-0.5-0.8-1-1.3-1.3c-0.5-0.4-1.1-0.6-1.7-0.6c-0.9,0-1.7,0.3-2.3,1
					c-0.5,0.6-0.9,1.4-1.1,2.3c0,0.3,0.2,0.5,0.6,0.5h0c0.3,0,0.5-0.3,0.6-0.6l0.5-0.8c0.1-0.2,0.3-0.5,0.6-0.7
					c0.6-0.4,1.4-0.4,1.9,0c0.3,0.2,0.6,0.6,0.8,1l0.8,1.4c0.3,0.5,0.6,1,1,1.6c0.2,0.2,0.4,0.5,0.6,0.7h-7.7h-2
					c-0.5,0-0.9-0.1-0.9-1.1v-9.5h-0.4c-0.3,0-0.7,0.1-1.1,0.4c-0.6,0.4-0.7,0.8-0.7,1.1v8c0,0.8,0.2,1.5,0.6,2.1
					c0.4,0.6,1,0.9,1.8,0.9h2.8l0,0h11.6h2c1.3,0,2-0.6,2.3-1.2c0.2,0.2,0.5,0.5,0.8,0.7c0.5,0.3,1.1,0.5,1.7,0.5v0h6.8h1.4h0.6
					c1.3,0,2-0.6,2.3-1.2c0.2,0.2,0.5,0.5,0.8,0.7c0.5,0.3,1,0.5,1.6,0.5v0h0.1c0,0,0,0,0,0h0.8l0,0h1.9c0.8,0,1.4-0.3,1.8-0.9
					c0.4-0.5,0.6-1.2,0.6-2.1v-9.5h-0.4C133.8,122.3,133.4,122.4,133,122.7"/>
				<path class="st0" d="M160.4,136c-0.2,0.2-0.4,0.5-0.4,0.9s0.1,0.6,0.4,0.9c0.2,0.2,0.5,0.4,0.9,0.4s0.6-0.1,0.9-0.4l0,0
					c0.2-0.2,0.4-0.5,0.4-0.9s-0.1-0.6-0.4-0.9C161.7,135.5,160.9,135.5,160.4,136"/>
				<path class="st0" d="M191.6,124.8c0.3,0,0.6-0.1,0.9-0.4c0.2-0.2,0.4-0.5,0.4-0.9s-0.1-0.6-0.4-0.9c-0.5-0.5-1.3-0.5-1.8,0
					c-0.2,0.2-0.4,0.5-0.4,0.9s0.1,0.7,0.4,0.9C191,124.7,191.3,124.8,191.6,124.8"/>
				<path class="st0" d="M193.3,126.3c-0.5,0.3-0.7,0.7-0.7,1.1v4.3c0,1-0.5,1.1-0.9,1.1H191l0,0h-6.9h-1.4h-5.6h-1.4h-6.5
					c-0.4,0-0.8-0.1-1.2-0.2c-0.6-0.2-1.2-0.6-1.7-1.1c-0.5-0.5-1-1-1.4-1.5l-1.1-1.6c-0.4-0.5-0.8-1-1.3-1.3
					c-0.5-0.4-1.1-0.6-1.7-0.6c-0.9,0-1.7,0.3-2.3,1c-0.5,0.6-0.9,1.4-1.1,2.3c0,0.3,0.2,0.5,0.6,0.5h0c0.3,0,0.5-0.3,0.6-0.6
					l0.5-0.8c0.1-0.2,0.3-0.5,0.6-0.7c0.6-0.4,1.4-0.4,1.9,0c0.3,0.2,0.6,0.6,0.8,1l0.8,1.4c0.3,0.5,0.6,1,1,1.6
					c0.2,0.2,0.4,0.5,0.6,0.7h-7.1l0,0h-7.4h-0.8h-0.4c-0.4,0-0.7-0.1-1-0.3c-0.3-0.2-0.5-0.3-0.6-0.5v-9.4l0-0.4h-0.4
					c-0.3,0-0.7,0.1-1.1,0.4c-0.5,0.3-0.7,0.7-0.7,1.1v9.2c0,2-1,3-3,3c-0.7,0-1.3-0.2-1.7-0.6c-0.5-0.4-0.7-0.9-0.7-1.6
					c0-0.6,0.1-1.1,0.4-1.6c0.3-0.5,0.6-0.6,0.8-0.6h0.2l0.1-0.2c0.1-0.2,0.1-0.4,0.1-0.7c0-0.6-0.3-0.8-0.5-0.8l-0.1,0l-0.1,0
					c-0.7,0.1-1.3,0.7-1.8,1.6c-0.5,0.9-0.7,1.8-0.7,2.6c0,1.3,0.4,2.3,1,3c0.7,0.7,1.6,1,2.8,1c1.3,0,2.5-0.5,3.5-1.5
					c0.8-0.8,1.3-1.8,1.6-2.8c0.2,0.2,0.5,0.4,0.7,0.5c0.5,0.3,1,0.4,1.5,0.4l0,0h0h0.8h7.4l0,0H169l0,0h6.9h1.4h5.6h1.4h6.9l0,0
					h1.4c0.8,0,1.4-0.3,1.8-0.9c0.4-0.5,0.6-1.2,0.6-2.1v-6h-0.4C194.1,125.9,193.8,126,193.3,126.3"/>
				<path class="st0" d="M198.7,132.1v-9.8h-0.4c-0.3,0-0.7,0.1-1.2,0.4c-0.5,0.3-0.7,0.7-0.7,1.1v11l0.4,0c0.6-0.1,1-0.4,1.4-0.8
					C198.6,133.5,198.7,132.8,198.7,132.1"/>
				<path class="st0" d="M226.9,124.8c0.3,0,0.7-0.1,0.9-0.4c0.2-0.2,0.4-0.5,0.4-0.9s-0.1-0.6-0.4-0.9c-0.5-0.5-1.3-0.5-1.8,0
					c-0.2,0.2-0.4,0.5-0.4,0.9s0.1,0.6,0.4,0.9C226.3,124.7,226.6,124.8,226.9,124.8"/>
				<path class="st0" d="M229.6,124.8c0.3,0,0.6-0.1,0.9-0.4l0,0c0.2-0.2,0.4-0.5,0.4-0.9s-0.1-0.6-0.4-0.9c-0.5-0.5-1.3-0.5-1.8,0
					c-0.2,0.2-0.4,0.5-0.4,0.9s0.1,0.6,0.4,0.9C229,124.7,229.3,124.8,229.6,124.8"/>
				<path class="st0" d="M230.3,126.3c-0.5,0.3-0.7,0.7-0.7,1.1v4.3c0,1-0.4,1.1-0.9,1.1H228h-1.4h-5.5h-1.4h-5.6h-1.4h-6.1H206
					h-0.4c-0.4,0-0.7-0.1-1-0.3c-0.3-0.1-0.5-0.3-0.6-0.5v-5.7h-0.4c-0.3,0-0.7,0.1-1.1,0.4c-0.5,0.3-0.7,0.7-0.7,1.1v7.6
					c0,0.3-0.1,0.6-0.3,0.8c-0.2,0.2-0.4,0.3-0.7,0.3c-0.4,0-0.7-0.2-0.9-0.5l-0.1-0.2l-0.2,0c-0.3,0-0.6,0.2-0.9,0.4
					c-0.4,0.3-0.6,0.5-0.6,0.8c0,0.2,0.1,0.3,0.2,0.4c0.3,0.4,0.9,0.6,1.7,0.6c1.2,0,2.2-0.4,3-1.1c0.7-0.7,1.1-1.8,1.1-3.1
					c0.2,0.1,0.4,0.3,0.6,0.4c0.5,0.3,1,0.4,1.5,0.4l0,0h0h0.8h6.1h1.4h5.6h1.4h5.5h1.4h1.4c0.8,0,1.4-0.3,1.8-0.9
					c0.4-0.5,0.6-1.2,0.6-2.1v-6h-0.4C231.1,125.9,230.7,126,230.3,126.3"/>
				<path class="st0" d="M268,136c-0.2,0.2-0.4,0.6-0.4,0.9c0,0.3,0.1,0.6,0.4,0.9c0.2,0.2,0.5,0.4,0.9,0.4s0.6-0.1,0.9-0.4l0,0
					c0.2-0.2,0.4-0.5,0.4-0.9c0-0.3-0.1-0.6-0.4-0.9C269.3,135.5,268.5,135.5,268,136"/>
				<path class="st0" d="M270.9,125.9c-0.3,0-0.7,0.1-1.1,0.4c-0.5,0.3-0.7,0.7-0.7,1.1v4.3c0,1-0.5,1.1-0.9,1.1h-0.6H260h-0.8h-0.4
					c-0.4,0-0.7-0.1-1-0.3c-0.3-0.2-0.5-0.3-0.6-0.5v-9.8h-0.4c-0.3,0-0.7,0.1-1.1,0.4c-0.5,0.3-0.7,0.7-0.7,1.1v7.5
					c0,0.3,0,0.5,0,0.6c0,0.1-0.1,0.3-0.1,0.5c0,0.1-0.1,0.2-0.2,0.3c-0.1,0.1-0.3,0.1-0.5,0.1h-0.3h-1.4h-6h-0.8h-1.6v-3.1
					c0-1.1-0.3-2-0.8-2.6c-0.6-0.7-1.4-1.1-2.6-1.1c-1.2,0-2.2,0.5-3,1.5c-0.7,1-1.1,2.1-1.1,3.3c0,1,0.3,2,1,2.7
					c0.7,0.8,1.6,1.1,2.8,1.1h1.5v0.3c0,0.4-0.2,0.8-0.5,1.2c-0.5,0.5-1,0.6-1.7,0.5c-0.1,0-0.3-0.1-0.6-0.3
					c-0.3-0.1-0.4-0.3-0.6-0.5l-0.1-0.2l-0.3,0c-0.3,0-0.6,0.3-0.8,0.6c-0.2,0.3-0.3,0.6-0.3,0.9v0.2l0.2,0.1
					c0.8,0.4,1.8,0.7,3.1,0.7c1,0,1.9-0.3,2.6-1c0.7-0.6,1.1-1.4,1.2-2.5h1.7h0.8h6h1.4h0.6c1.3,0,2-0.6,2.3-1.2
					c0.2,0.2,0.5,0.5,0.8,0.7c0.5,0.3,1.1,0.5,1.7,0.5l0,0h0h0.8h7.4l0,0h1.4c0.8,0,1.4-0.3,1.8-0.9c0.4-0.5,0.6-1.2,0.6-2.1v-6
					H270.9z M241.7,132.9h-1.2c-0.7,0-1.1-0.2-1.4-0.6c-0.3-0.4-0.4-1.1-0.4-2c0-0.4,0-0.7,0.1-1.1c0.1-0.3,0.2-0.7,0.3-1
					c0.1-0.3,0.3-0.5,0.5-0.7c0.2-0.2,0.5-0.2,0.8-0.2c0.4,0,0.7,0.1,0.9,0.4c0.2,0.3,0.3,0.7,0.3,1.1L241.7,132.9L241.7,132.9
					L241.7,132.9z"/>
			</g>
			<g>
				<path class="st0" d="M7.2,158.9L7.2,158.9c1.6-0.6,2.4-1.9,2.4-3.2c0-1.2-0.6-2.2-1.5-2.7c-1-0.7-2.2-0.9-4.2-0.9
					c-1.5,0-3,0.1-3.9,0.3v14.5c0.7,0.1,1.8,0.2,3.3,0.2c2.7,0,4.4-0.5,5.5-1.4c0.9-0.7,1.4-1.7,1.4-3
					C10.2,160.5,8.7,159.3,7.2,158.9 M2.7,154.1c0.3-0.1,0.7-0.1,1.5-0.1c1.7,0,2.7,0.6,2.7,2c0,1.2-1,2.1-2.9,2.1H2.7V154.1z
					 M4.1,165c-0.6,0-1.1,0-1.4-0.1v-4.8H4c1.9,0,3.3,0.7,3.3,2.4C7.3,164.3,5.8,165,4.1,165"/>
				<rect x="12.4" y="151.3" class="st0" width="2.7" height="15.5"/>
				<path class="st0" d="M27.6,156.2h-2.7v6.4c0,0.3-0.1,0.6-0.2,0.8c-0.3,0.7-1,1.4-2,1.4c-1.4,0-2-1.1-2-2.9v-5.8H18v6.2
					c0,3.5,1.8,4.6,3.7,4.6c1.9,0,2.9-1.1,3.4-1.9h0l0.1,1.6h2.4c0-0.9-0.1-1.9-0.1-3.2V156.2L27.6,156.2z"/>
				<path class="st0" d="M35,156c-3.4,0-5.2,2.8-5.2,5.7c0,3.3,2,5.4,5.5,5.4c1.5,0,2.8-0.3,3.7-0.7l-0.4-1.9
					c-0.8,0.3-1.7,0.5-2.9,0.5c-1.7,0-3.2-0.8-3.3-2.7h7.1c0-0.2,0.1-0.6,0.1-1.1C39.5,158.8,38.4,156,35,156 M32.3,160.4
					c0.1-1.1,0.8-2.6,2.5-2.6c1.8,0,2.2,1.6,2.2,2.6H32.3z"/>
				<polygon class="st0" points="44.1,154.4 48.3,154.4 48.3,166.8 50.9,166.8 50.9,154.4 55.2,154.4 55.2,152.1 44.1,152.1 				"/>
				<path class="st0" d="M58.1,158.2L58.1,158.2l-0.2-2h-2.3c0.1,1,0.1,2,0.1,3.4v7.2h2.7v-5.5c0-0.3,0-0.6,0.1-0.8
					c0.2-1.2,1.1-2,2.4-2c0.3,0,0.6,0,0.8,0.1V156c-0.2,0-0.4-0.1-0.6-0.1C59.9,156,58.6,156.7,58.1,158.2"/>
				<rect x="63.4" y="156.2" class="st0" width="2.7" height="10.6"/>
				<path class="st0" d="M64.8,151.8c-0.9,0-1.5,0.6-1.5,1.5c0,0.8,0.6,1.4,1.5,1.4c0.9,0,1.5-0.6,1.5-1.4
					C66.3,152.4,65.7,151.8,64.8,151.8"/>
				<path class="st0" d="M77.3,160.4c0-2.3-1-4.5-4.4-4.5c-1.7,0-3.1,0.5-3.8,0.9l0.5,1.7c0.7-0.5,1.8-0.8,2.9-0.8
					c1.9,0,2.2,1.2,2.2,1.9v0.2c-3.9,0-6.3,1.3-6.3,4c0,1.6,1.2,3.2,3.3,3.2c1.4,0,2.5-0.6,3.1-1.4h0.1l0.2,1.2h2.4
					c-0.1-0.7-0.2-1.6-0.2-2.6V160.4L77.3,160.4z M74.6,163.1c0,0.2,0,0.4-0.1,0.6c-0.2,0.8-1,1.5-2.1,1.5c-0.9,0-1.5-0.5-1.5-1.5
					c0-1.6,1.8-2,3.7-2L74.6,163.1L74.6,163.1L74.6,163.1z"/>
				<path class="st0" d="M85.9,156c-1.8,0-2.9,1-3.4,1.8h-0.1l-0.1-1.6H80c0.1,0.9,0.1,1.9,0.1,3.2v7.5h2.7v-6.2
					c0-0.3,0-0.6,0.1-0.9c0.3-0.8,1-1.6,2.1-1.6c1.5,0,2,1.2,2,2.7v6h2.7v-6.3C89.7,157.2,87.8,156,85.9,156"/>
				<path class="st0" d="M99.8,157.6L99.8,157.6c-0.5-0.9-1.5-1.7-3.1-1.7c-2.6,0-4.8,2.1-4.8,5.6c0,3,1.9,5.2,4.5,5.2
					c1.4,0,2.5-0.6,3.1-1.6h0v0.9c0,2.3-1.3,3.2-3.1,3.2c-1.3,0-2.4-0.4-3.1-0.8l-0.6,2c0.9,0.6,2.4,0.9,3.7,0.9
					c1.5,0,3-0.3,4.1-1.3c1.1-1,1.6-2.6,1.6-4.8v-6c0-1.5,0-2.3,0.1-3h-2.3L99.8,157.6z M99.5,162.2c0,0.3,0,0.7-0.1,1
					c-0.3,1-1.2,1.6-2.2,1.6c-1.7,0-2.6-1.5-2.6-3.3c0-2.2,1.1-3.5,2.6-3.5c1.1,0,1.9,0.7,2.2,1.7c0.1,0.2,0.1,0.5,0.1,0.7
					L99.5,162.2L99.5,162.2z"/>
				<rect x="105.1" y="151.3" class="st0" width="2.7" height="15.5"/>
				<path class="st0" d="M115.2,156c-3.4,0-5.2,2.8-5.2,5.7c0,3.3,2,5.4,5.5,5.4c1.5,0,2.8-0.3,3.7-0.7l-0.4-1.9
					c-0.8,0.3-1.7,0.5-2.9,0.5c-1.7,0-3.2-0.8-3.3-2.7h7.1c0-0.2,0.1-0.6,0.1-1.1C119.7,158.8,118.6,156,115.2,156 M112.5,160.4
					c0.1-1.1,0.8-2.6,2.5-2.6c1.8,0,2.2,1.6,2.2,2.6H112.5z"/>
				<polygon class="st0" points="124.3,154.4 128.5,154.4 128.5,166.8 131.1,166.8 131.1,154.4 135.4,154.4 135.4,152.1 
					124.3,152.1 				"/>
				<path class="st0" d="M138.3,158.2L138.3,158.2l-0.2-2h-2.3c0.1,1,0.1,2,0.1,3.4v7.2h2.7v-5.5c0-0.3,0-0.6,0.1-0.8
					c0.2-1.2,1.1-2,2.4-2c0.3,0,0.6,0,0.8,0.1V156c-0.2,0-0.4-0.1-0.6-0.1C140.1,156,138.8,156.7,138.3,158.2"/>
				<path class="st0" d="M151.7,160.4c0-2.3-1-4.5-4.4-4.5c-1.7,0-3.1,0.5-3.8,0.9l0.5,1.7c0.7-0.5,1.8-0.8,2.9-0.8
					c1.9,0,2.2,1.2,2.2,1.9v0.2c-3.9,0-6.3,1.3-6.3,4c0,1.6,1.2,3.2,3.3,3.2c1.4,0,2.5-0.6,3.1-1.4h0.1l0.2,1.2h2.4
					c-0.1-0.7-0.2-1.6-0.2-2.6L151.7,160.4L151.7,160.4z M149.1,163.1c0,0.2,0,0.4-0.1,0.6c-0.2,0.8-1,1.5-2.1,1.5
					c-0.9,0-1.5-0.5-1.5-1.5c0-1.6,1.8-2,3.7-2L149.1,163.1L149.1,163.1L149.1,163.1z"/>
				<path class="st0" d="M164.3,151.3h-2.7v6h0c-0.5-0.8-1.5-1.4-3-1.4c-2.6,0-4.8,2.1-4.8,5.7c0,3.3,2,5.4,4.5,5.4
					c1.5,0,2.8-0.7,3.5-1.9h0l0.1,1.7h2.4c0-0.7-0.1-1.9-0.1-3L164.3,151.3L164.3,151.3z M161.6,162.2c0,0.3,0,0.5-0.1,0.8
					c-0.3,1.2-1.2,1.9-2.3,1.9c-1.7,0-2.7-1.4-2.7-3.4c0-2,1-3.5,2.7-3.5c1.2,0,2.1,0.9,2.3,1.9c0,0.2,0.1,0.5,0.1,0.7L161.6,162.2
					L161.6,162.2z"/>
				<path class="st0" d="M168.5,151.8c-0.9,0-1.5,0.6-1.5,1.5c0,0.8,0.6,1.4,1.5,1.4c0.9,0,1.5-0.6,1.5-1.4
					C170,152.4,169.5,151.8,168.5,151.8"/>
				<rect x="167.2" y="156.2" class="st0" width="2.7" height="10.6"/>
				<path class="st0" d="M178.6,156c-1.8,0-2.9,1-3.4,1.8h-0.1l-0.1-1.6h-2.4c0.1,0.9,0.1,1.9,0.1,3.2v7.5h2.7v-6.2
					c0-0.3,0-0.6,0.1-0.9c0.3-0.8,1-1.6,2.1-1.6c1.5,0,2,1.2,2,2.7v6h2.7v-6.3C182.4,157.2,180.5,156,178.6,156"/>
				<path class="st0" d="M192.5,157.6L192.5,157.6c-0.5-0.9-1.5-1.7-3.1-1.7c-2.6,0-4.8,2.1-4.8,5.6c0,3,1.9,5.2,4.5,5.2
					c1.4,0,2.5-0.6,3.1-1.6h0v0.9c0,2.3-1.3,3.2-3.1,3.2c-1.3,0-2.4-0.4-3.1-0.8l-0.6,2c0.9,0.6,2.4,0.9,3.7,0.9
					c1.5,0,3-0.3,4.1-1.3c1.1-1,1.6-2.6,1.6-4.8v-6c0-1.5,0-2.3,0.1-3h-2.3L192.5,157.6z M192.2,162.2c0,0.3,0,0.7-0.1,1
					c-0.3,1-1.2,1.6-2.2,1.6c-1.7,0-2.6-1.5-2.6-3.3c0-2.2,1.1-3.5,2.6-3.5c1.1,0,1.9,0.7,2.2,1.7c0.1,0.2,0.1,0.5,0.1,0.7
					L192.2,162.2L192.2,162.2z"/>
				<polygon class="st0" points="205,152.1 202.3,152.1 202.3,166.8 211.1,166.8 211.1,164.6 205,164.6 				"/>
				<path class="st0" d="M214.3,151.8c-0.9,0-1.5,0.6-1.5,1.5c0,0.8,0.6,1.4,1.5,1.4c0.9,0,1.5-0.6,1.5-1.4
					C215.8,152.4,215.2,151.8,214.3,151.8"/>
				<rect x="213" y="156.2" class="st0" width="2.7" height="10.6"/>
				<path class="st0" d="M230.7,156c-0.9,0-1.6,0.2-2.1,0.6c-0.5,0.3-0.9,0.7-1.3,1.3h0c-0.5-1.2-1.6-2-2.9-2c-1.8,0-2.7,1-3.3,1.8
					h-0.1l-0.1-1.6h-2.3c0.1,0.9,0.1,1.9,0.1,3.2v7.5h2.6v-6.3c0-0.3,0-0.6,0.2-0.9c0.2-0.7,0.9-1.5,1.9-1.5c1.2,0,1.8,1,1.8,2.5
					v6.2h2.6v-6.4c0-0.3,0.1-0.6,0.1-0.9c0.3-0.8,1-1.4,1.9-1.4c1.3,0,1.9,1,1.9,2.8v5.9h2.6v-6.3C234.2,157.2,232.4,156,230.7,156"
					/>
				<path class="st0" d="M238.4,151.8c-0.9,0-1.5,0.6-1.5,1.5c0,0.8,0.6,1.4,1.5,1.4c0.9,0,1.5-0.6,1.5-1.4
					C239.9,152.4,239.3,151.8,238.4,151.8"/>
				<rect x="237" y="156.2" class="st0" width="2.7" height="10.6"/>
				<path class="st0" d="M245.7,153.2l-2.6,0.6v2.4h-1.5v2h1.5v5c0,1.4,0.3,2.4,0.8,3c0.5,0.5,1.3,0.9,2.3,0.9
					c0.9,0,1.5-0.1,1.9-0.3l0-2c-0.2,0.1-0.6,0.1-1,0.1c-1,0-1.4-0.7-1.4-2v-4.7h2.6v-2h-2.6V153.2L245.7,153.2z"/>
				<path class="st0" d="M254.6,156c-3.4,0-5.2,2.8-5.2,5.7c0,3.3,2,5.4,5.5,5.4c1.5,0,2.8-0.3,3.7-0.7l-0.4-1.9
					c-0.8,0.3-1.7,0.5-2.9,0.5c-1.7,0-3.2-0.8-3.3-2.7h7.1c0-0.2,0.1-0.6,0.1-1.1C259.2,158.8,258.1,156,254.6,156 M252,160.4
					c0.1-1.1,0.8-2.6,2.5-2.6c1.8,0,2.2,1.6,2.2,2.6H252z"/>
				<path class="st0" d="M271.2,163.8v-12.5h-2.7v6h0c-0.5-0.8-1.5-1.4-3-1.4c-2.6,0-4.8,2.1-4.8,5.7c0,3.3,2,5.4,4.5,5.4
					c1.6,0,2.8-0.7,3.5-1.9h0l0.1,1.7h2.4C271.2,166.1,271.2,164.9,271.2,163.8 M268.5,162.2c0,0.3,0,0.5-0.1,0.8
					c-0.3,1.2-1.2,1.9-2.3,1.9c-1.7,0-2.7-1.4-2.7-3.4c0-2,1-3.5,2.7-3.5c1.2,0,2.1,0.9,2.3,1.9c0,0.2,0.1,0.5,0.1,0.7V162.2z"/>
			</g>
		</g>
	</g>
	<g>
		<polygon class="st1" points="166.5,52.2 146.1,41.9 145.8,65.4 164.6,74.1 134.1,96.5 134.1,0 111.5,38.2 111.5,110.5 
			151.5,110.5 186.4,84.4 		"/>
		
			<linearGradient id="SVGID_1_" gradientUnits="userSpaceOnUse" x1="177.0707" y1="715.9723" x2="177.0707" y2="746.1882" gradientTransform="matrix(1 0 0 1 0 -631.62)">
			<stop  offset="0" style="stop-color:#DBD8D6"/>
			<stop  offset="0" style="stop-color:#E5E3E1"/>
			<stop  offset="0" style="stop-color:#FFFFFF"/>
			<stop  offset="5.320000e-02" style="stop-color:#EBEBEB"/>
			<stop  offset="0.1618" style="stop-color:#B6B6B6"/>
			<stop  offset="0.264" style="stop-color:#808080"/>
			<stop  offset="0.3585" style="stop-color:#C1C1C1"/>
			<stop  offset="0.4329" style="stop-color:#EEEEEE"/>
			<stop  offset="0.4703" style="stop-color:#FFFFFF"/>
			<stop  offset="0.5435" style="stop-color:#E9E9E9"/>
			<stop  offset="0.6959" style="stop-color:#B0B0B0"/>
			<stop  offset="0.8764" style="stop-color:#666666"/>
			<stop  offset="0.9064" style="stop-color:#7A7A7A"/>
			<stop  offset="0.9677" style="stop-color:#ACAEAD"/>
			<stop  offset="1" style="stop-color:#C9CCCB"/>
			<stop  offset="1" style="stop-color:#FFFFFF"/>
		</linearGradient>
		<polygon class="st2" points="202.6,110.5 186.4,84.4 151.5,110.5 202.6,110.5 		"/>
		
			<linearGradient id="SVGID_2_" gradientUnits="userSpaceOnUse" x1="90.0408" y1="669.8548" x2="90.0408" y2="753.5858" gradientTransform="matrix(1 0 0 1 0 -631.62)">
			<stop  offset="0" style="stop-color:#DBD8D6"/>
			<stop  offset="0" style="stop-color:#E5E3E1"/>
			<stop  offset="0" style="stop-color:#FFFFFF"/>
			<stop  offset="5.320000e-02" style="stop-color:#EBEBEB"/>
			<stop  offset="0.1618" style="stop-color:#B6B6B6"/>
			<stop  offset="0.264" style="stop-color:#808080"/>
			<stop  offset="0.3585" style="stop-color:#C1C1C1"/>
			<stop  offset="0.4329" style="stop-color:#EEEEEE"/>
			<stop  offset="0.4703" style="stop-color:#FFFFFF"/>
			<stop  offset="0.5435" style="stop-color:#E9E9E9"/>
			<stop  offset="0.6959" style="stop-color:#B0B0B0"/>
			<stop  offset="0.8764" style="stop-color:#666666"/>
			<stop  offset="0.9064" style="stop-color:#7A7A7A"/>
			<stop  offset="0.9677" style="stop-color:#ACAEAD"/>
			<stop  offset="1" style="stop-color:#C9CCCB"/>
			<stop  offset="1" style="stop-color:#FFFFFF"/>
		</linearGradient>
		<polygon class="st3" points="68.6,110.5 111.5,110.5 111.5,38.2 		"/>
		
			<linearGradient id="SVGID_3_" gradientUnits="userSpaceOnUse" x1="150.3022" y1="631.62" x2="150.3022" y2="728.1294" gradientTransform="matrix(1 0 0 1 0 -631.62)">
			<stop  offset="0" style="stop-color:#DBD8D6"/>
			<stop  offset="0" style="stop-color:#E5E3E1"/>
			<stop  offset="0" style="stop-color:#FFFFFF"/>
			<stop  offset="5.320000e-02" style="stop-color:#EBEBEB"/>
			<stop  offset="0.1618" style="stop-color:#B6B6B6"/>
			<stop  offset="0.264" style="stop-color:#808080"/>
			<stop  offset="0.3585" style="stop-color:#C1C1C1"/>
			<stop  offset="0.4329" style="stop-color:#EEEEEE"/>
			<stop  offset="0.4703" style="stop-color:#FFFFFF"/>
			<stop  offset="0.5435" style="stop-color:#E9E9E9"/>
			<stop  offset="0.6959" style="stop-color:#B0B0B0"/>
			<stop  offset="0.8764" style="stop-color:#666666"/>
			<stop  offset="0.9064" style="stop-color:#7A7A7A"/>
			<stop  offset="0.9677" style="stop-color:#ACAEAD"/>
			<stop  offset="1" style="stop-color:#C9CCCB"/>
			<stop  offset="1" style="stop-color:#FFFFFF"/>
		</linearGradient>
		<polygon class="st4" points="164.6,74.1 145.8,65.4 146.1,41.9 166.5,52.2 134.1,0 134.1,0 134.1,96.5 		"/>
	</g>
</g>
</svg>
