<?xml version="1.0" encoding="utf-8"?>
<!-- Generator: Adobe Illustrator 25.2.0, SVG Export Plug-In . SVG Version: 6.00 Build 0)  -->
<svg version="1.0" id="Layer_1" xmlns="http://www.w3.org/2000/svg" xmlns:xlink="http://www.w3.org/1999/xlink" x="0px" y="0px"
	 width="333.9px" height="60.6px" viewBox="0 0 333.9 60.6" style="enable-background:new 0 0 333.9 60.6;" xml:space="preserve">
<style type="text/css">
	.st0{fill:#FFFFFF;}
	.st1{fill:#009BDF;}
	.st2{fill:url(#SVGID_1_);}
	.st3{fill:url(#SVGID_2_);}
	.st4{fill:url(#SVGID_3_);}
</style>
<g>
	<g>
		<g>
			<g>
				<path class="st0" d="M4.6,5.1C3.8,5.3,3.1,5.7,2.4,6.2S1.1,7.3,0.7,8.1S0,9.8,0,10.8c0,1.4,0.4,2.5,1.2,3.4s2,1.4,3.5,1.4
					c1.4,0,2.6-0.4,3.4-1.2c0.8-0.8,1.2-1.8,1.2-2.9V5.2L9,5.1C7.8,4.7,6.2,4.6,4.6,5.1 M6.6,12.2c0,0.5-0.1,0.8-0.4,1.1
					S5.5,13.7,5,13.7c-0.6,0-1.1-0.3-1.5-0.8c-0.4-0.6-0.6-1.4-0.6-2.4c0-0.6,0.1-1.2,0.3-1.7s0.4-0.9,0.7-1.2
					c0.3-0.3,0.6-0.5,1-0.7s0.7-0.3,1-0.4s0.6-0.1,0.8-0.1l0,0L6.6,12.2z"/>
				<path class="st0" d="M7.1,3.3c0.4,0,0.8-0.2,1.1-0.5l0,0c0.3-0.3,0.4-0.7,0.4-1.1S8.4,0.9,8.2,0.6C7.6,0,6.6,0,6,0.6
					C5.7,0.9,5.5,1.3,5.5,1.7S5.7,2.5,6,2.8C6.3,3.1,6.7,3.3,7.1,3.3"/>
				<path class="st0" d="M3.8,3.3c0.4,0,0.8-0.1,1.1-0.5c0.3-0.3,0.5-0.7,0.5-1.1S5.2,0.9,4.9,0.6C4.3,0,3.3,0,2.7,0.6
					C2.4,0.9,2.2,1.3,2.2,1.7s0.2,0.8,0.5,1.1C3,3.2,3.3,3.3,3.8,3.3"/>
				<path class="st0" d="M14.9,5c-0.9,0-1.7,0.2-2.3,0.5c-0.7,0.4-1.1,0.8-1.2,1.2v0.1l0.1,0.1c0.1,0.3,0.4,0.7,1.3,0.7
					c0.2,0,0.4,0,0.6-0.1l0.2-0.1l0.1-0.2c0.3-0.6,0.7-0.8,1.4-0.8c0.6,0,0.8,0.3,0.9,0.5c0.2,0.5,0.3,1.3,0.3,2.4v3
					c0,0.5-0.2,0.8-0.9,0.8H11v2.3h5c2.7,0,3.1-1.6,3.1-2.6V9.2c0-1.4-0.3-2.5-1-3.2C17.2,5.3,16.2,5,14.9,5"/>
				<path class="st0" d="M25.7,4.7c-1.5,0-2.8,0.6-3.8,1.7s-1.5,2.4-1.5,4c0,0.6,0.1,1.2,0.2,1.8c0.1,0.6,0.4,1.1,0.7,1.6
					c0.3,0.5,0.8,1,1.4,1.3s1.2,0.5,2,0.5c0.9,0,1.7-0.3,2.5-0.9V16c0,0.5-0.2,1-0.6,1.4c-0.6,0.6-1.2,0.7-2,0.6
					c-0.1,0-0.4-0.1-0.8-0.3c-0.3-0.2-0.5-0.4-0.7-0.7l-0.2-0.3h-0.3c-0.4,0.1-0.7,0.3-1,0.8c-0.3,0.4-0.4,0.8-0.4,1.1v0.3l0.2,0.1
					c0.9,0.5,2.2,0.8,3.8,0.8c1.3,0,2.4-0.5,3.4-1.4s1.4-2.2,1.4-3.9V9.3C30,8,29.7,6.9,29,6C28.2,5.1,27.1,4.7,25.7,4.7 M27.2,11.5
					c0,0.6-0.1,1.1-0.5,1.4c-0.3,0.3-0.8,0.4-1.3,0.4c-0.7,0-1.2-0.3-1.5-0.9c-0.4-0.7-0.6-1.6-0.6-2.7c0-0.9,0.2-1.8,0.6-2.5
					c0.4-0.6,1-1,1.8-1c0.5,0,0.9,0.2,1.1,0.6c0.3,0.4,0.4,0.9,0.4,1.4V11.5L27.2,11.5z"/>
				<path class="st0" d="M84.1,0.7c-0.6,0.4-0.9,0.9-0.9,1.4v9.8c0,1.2-0.6,1.4-1.1,1.4h-1.4l0,0h-1.2c-0.4,0-0.8-0.1-1.2-0.4
					c-0.3-0.2-0.6-0.5-0.8-0.7v-0.9c0-1.5-0.5-2.8-1.3-3.9c-0.9-1.1-2.1-1.6-3.6-1.6c-1.2,0-2.2,0.5-3,1.3c-0.7,0.9-1.1,2.1-1.1,3.6
					v1.4c0,0.7-0.1,0.9-0.2,1s-0.3,0.2-0.9,0.2h-0.5h-0.6c-0.5,0-1-0.1-1.4-0.3c-0.8-0.3-1.5-0.7-2.1-1.3c-0.7-0.6-1.2-1.2-1.7-1.9
					l-1.4-2c-0.5-0.7-1-1.2-1.6-1.6c-0.6-0.5-1.4-0.7-2.1-0.7c-1.1,0-2.1,0.4-2.8,1.2c-0.7,0.8-1.1,1.7-1.4,2.8
					c0,0.4,0.2,0.6,0.7,0.6c0.4,0,0.6-0.4,0.8-0.7l0.6-1c0.1-0.3,0.4-0.6,0.8-0.9c0.7-0.5,1.7-0.5,2.4,0c0.4,0.3,0.7,0.7,1,1.2
					l1,1.7c0.3,0.6,0.8,1.2,1.3,1.9c0.2,0.3,0.5,0.6,0.7,0.8H50.5l0,0h-7.4h-1h-0.5c-0.5,0-0.9-0.1-1.3-0.3
					c-0.4-0.2-0.6-0.4-0.8-0.7V9.2c0-1.4-0.3-2.5-1-3.2s-1.7-1.1-3-1.1c-0.9,0-1.7,0.2-2.3,0.5c-0.7,0.4-1.1,0.8-1.2,1.2v0.1v0.1
					c0.1,0.3,0.4,0.8,1.3,0.8c0.2,0,0.4,0,0.6-0.1l0.2-0.1l0.1-0.2c0.3-0.6,0.7-0.8,1.4-0.8c0.6,0,0.8,0.3,0.9,0.5
					c0.2,0.5,0.3,1.3,0.3,2.4v3c0,0.5-0.2,0.8-0.9,0.8h-4.4v2.3h5c1.6,0,2.4-0.6,2.8-1.3c0.3,0.3,0.6,0.5,1,0.7
					c0.6,0.4,1.2,0.5,1.9,0.5l0,0h0.1h1h9.1l0,0H66l0,0h2c0.5,0,1-0.1,1.5-0.3c0.3-0.1,0.5-0.3,0.7-0.5c0.3,0.3,0.6,0.6,1,0.8
					c0.5,0.3,1,0.5,1.4,0.5c0.4,0.1,0.7,0.1,1,0.1c1,0,1.8-0.3,2.5-0.9c0.5-0.4,0.9-0.8,1.1-1.3c0.3,0.3,0.7,0.6,1,0.9
					c0.5,0.3,1,0.5,1.5,0.6l0,0h0.5h0.6h2.3c1,0,1.7-0.4,2.2-1s0.7-1.5,0.7-2.5V0h-0.5C85.1,0.2,84.6,0.3,84.1,0.7 M72.8,14.2
					c-0.4,0-0.8-0.1-1.1-0.4c-0.3-0.2-0.5-0.5-0.5-1V9.9c0-2.7,1.1-2.7,1.5-2.7c0.5,0,2,0,2,3.4C74.7,14.2,73.3,14.2,72.8,14.2"/>
				<path class="st0" d="M88.9,0.7C88.3,1.1,88,1.6,88,2.1v13.5l0.5-0.1c0.7-0.1,1.3-0.4,1.7-1c0.4-0.6,0.6-1.3,0.6-2.3v-12h-0.5
					C89.9,0.2,89.4,0.4,88.9,0.7"/>
				<path class="st0" d="M104.8,5.1L104.5,5c-1.2-0.3-2.8-0.4-4.3,0.1c-0.8,0.2-1.5,0.6-2.2,1.1s-1.3,1.1-1.7,1.9
					c-0.5,0.8-0.7,1.7-0.7,2.7c0,1.4,0.4,2.5,1.2,3.4c0.8,0.9,2,1.4,3.5,1.4c1.4,0,2.6-0.4,3.4-1.2c0.8-0.8,1.2-1.8,1.2-2.9
					L104.8,5.1L104.8,5.1z M102.1,12.2c0,0.5-0.1,0.8-0.4,1.1s-0.7,0.4-1.2,0.4c-0.6,0-1.2-0.3-1.5-0.8c-0.4-0.6-0.6-1.4-0.6-2.4
					c0-0.6,0.1-1.2,0.3-1.7s0.4-0.9,0.7-1.2c0.3-0.3,0.6-0.5,1-0.7s0.7-0.3,1-0.4s0.6-0.1,0.8-0.1l0,0L102.1,12.2z"/>
				<path class="st0" d="M99.3,3.3c0.4,0,0.8-0.1,1.1-0.5c0.3-0.3,0.5-0.7,0.5-1.1s-0.2-0.8-0.5-1.1c-0.6-0.6-1.6-0.6-2.2,0
					c-0.3,0.3-0.5,0.7-0.5,1.1s0.2,0.8,0.5,1.1C98.5,3.2,98.9,3.3,99.3,3.3"/>
				<path class="st0" d="M102.6,3.3c0.4,0,0.8-0.1,1.1-0.5c0.3-0.3,0.5-0.7,0.5-1.1s-0.2-0.8-0.5-1.1c-0.6-0.6-1.6-0.6-2.2,0
					c-0.3,0.3-0.5,0.7-0.5,1.1s0.2,0.8,0.5,1.1C101.8,3.1,102.2,3.3,102.6,3.3"/>
				<path class="st0" d="M109.4,5.1c-0.6,0.4-0.9,0.9-0.9,1.4v10c0,0.4-0.1,0.7-0.3,1c-0.2,0.2-0.5,0.3-0.9,0.3
					c-0.5,0-0.9-0.2-1.1-0.6L106,17h-0.3c-0.4,0-0.7,0.2-1.1,0.5c-0.5,0.3-0.7,0.7-0.7,1v0.2l0.1,0.1c0.2,0.3,0.6,0.6,1,0.7
					s0.8,0.2,1.1,0.2c1.5,0,2.7-0.5,3.6-1.3c0.9-0.9,1.4-2.2,1.4-3.9V4.6h-0.5C110.4,4.6,109.9,4.7,109.4,5.1"/>
				<path class="st0" d="M123.5,17.1c-0.3,0.3-0.5,0.7-0.5,1.1s0.2,0.8,0.5,1.1s0.7,0.5,1.1,0.5s0.8-0.2,1.1-0.5l0,0
					c0.3-0.3,0.5-0.7,0.5-1.1s-0.2-0.8-0.5-1.1C125.1,16.5,124.1,16.5,123.5,17.1"/>
				<path class="st0" d="M134.5,3.8c0.4,0,0.8-0.1,1.1-0.5c0.3-0.3,0.5-0.7,0.5-1.1s-0.2-0.8-0.5-1.1c-0.6-0.6-1.6-0.6-2.2,0
					c-0.3,0.3-0.5,0.7-0.5,1.1s0.2,0.8,0.5,1.1C133.8,3.7,134.1,3.8,134.5,3.8"/>
				<path class="st0" d="M137.9,3.8c0.4,0,0.8-0.1,1.1-0.5l0,0c0.3-0.3,0.5-0.7,0.5-1.1s-0.2-0.8-0.5-1.1c-0.6-0.6-1.6-0.6-2.2,0
					c-0.3,0.3-0.5,0.7-0.5,1.1s0.2,0.8,0.5,1.1C137.1,3.7,137.5,3.8,137.9,3.8"/>
				<path class="st0" d="M163.7,0.7c-0.6,0.4-0.9,0.9-0.9,1.4v9.8c0,1.2-0.5,1.4-1.1,1.4h-1.4h-1.1h-0.4c-0.5,0-0.9-0.1-1.3-0.3
					c-0.3-0.2-0.6-0.4-0.8-0.6V0.3h-0.5c-0.4,0-0.9,0.2-1.4,0.5c-0.6,0.4-0.9,0.9-0.9,1.4v9.2c0,0.3,0,0.6,0,0.8
					c0,0.2-0.1,0.4-0.2,0.6s-0.1,0.3-0.3,0.4c-0.1,0.1-0.3,0.1-0.6,0.1h-0.4h-1.8h-7.4l0,0h-1.5c-0.5,0-0.9-0.1-1.3-0.3
					c-0.3-0.2-0.6-0.4-0.8-0.6V5.3h-0.5c-0.4,0-0.9,0.2-1.4,0.5c-0.7,0.5-0.9,1-0.9,1.4v4.2c0,0.3,0,0.6,0,0.8
					c0,0.2-0.1,0.4-0.1,0.6c-0.1,0.2-0.2,0.3-0.3,0.4c-0.1,0.1-0.3,0.1-0.6,0.1h-1.6c-0.5,0-1-0.1-1.4-0.3c-0.8-0.3-1.5-0.7-2.1-1.3
					c-0.7-0.6-1.2-1.2-1.7-1.9l-1.4-2c-0.5-0.7-1-1.2-1.6-1.6c-0.7-0.5-1.4-0.7-2.1-0.7c-1.1,0-2.1,0.4-2.8,1.2
					c-0.7,0.8-1.1,1.7-1.4,2.8c0,0.4,0.3,0.6,0.7,0.6l0,0c0.4,0,0.6-0.4,0.8-0.7l0.6-1c0.2-0.3,0.4-0.6,0.8-0.9
					c0.7-0.5,1.7-0.5,2.3,0c0.4,0.3,0.7,0.7,1,1.2l1,1.7c0.3,0.6,0.8,1.2,1.3,1.9c0.2,0.3,0.5,0.6,0.7,0.8h-9.4H117
					c-0.6,0-1.1-0.2-1.1-1.4V0.1h-0.5c-0.4,0-0.9,0.2-1.4,0.5c-0.8,0.5-0.9,1-0.9,1.4v9.8c0,1,0.2,1.9,0.7,2.6s1.3,1,2.2,1h3.5l0,0
					h14.2h2.5c1.6,0,2.5-0.7,2.9-1.5c0.3,0.3,0.7,0.6,1,0.8c0.7,0.4,1.3,0.6,2,0.6l0,0h8.4h1.8h0.7c1.6,0,2.5-0.7,2.9-1.5
					c0.3,0.3,0.7,0.6,1,0.8c0.6,0.4,1.3,0.6,1.9,0.6l0,0h0.2l0,0h1l0,0h2.3c1,0,1.7-0.4,2.2-1s0.7-1.5,0.7-2.5V0h-0.5
					C164.7,0.2,164.2,0.4,163.7,0.7"/>
				<path class="st0" d="M197.5,17.1c-0.3,0.3-0.5,0.7-0.5,1.1s0.2,0.8,0.5,1.1c0.3,0.3,0.7,0.5,1.1,0.5s0.8-0.2,1.1-0.5l0,0
					c0.3-0.3,0.5-0.7,0.5-1.1s-0.2-0.8-0.5-1.1C199,16.5,198.1,16.5,197.5,17.1"/>
				<path class="st0" d="M235.9,3.3c0.4,0,0.8-0.2,1.1-0.5c0.3-0.3,0.5-0.7,0.5-1.1s-0.2-0.8-0.5-1.1c-0.6-0.6-1.6-0.6-2.2,0
					c-0.3,0.3-0.5,0.7-0.5,1.1s0.2,0.8,0.5,1.1C235.1,3.1,235.4,3.3,235.9,3.3"/>
				<path class="st0" d="M237.9,5.1C237.3,5.5,237,6,237,6.5v5.4c0,1.2-0.6,1.4-1.1,1.4h-0.8l0,0h-8.5h-1.7h-6.8h-1.7h-8
					c-0.5,0-1-0.1-1.4-0.3c-0.8-0.3-1.5-0.7-2.1-1.3c-0.7-0.6-1.2-1.2-1.7-1.9l-1.4-2c-0.5-0.7-1-1.2-1.6-1.6
					c-0.7-0.5-1.4-0.7-2.1-0.7c-1.1,0-2.1,0.4-2.8,1.2c-0.7,0.8-1.1,1.7-1.4,2.8c0,0.4,0.3,0.6,0.7,0.6l0,0c0.4,0,0.6-0.4,0.8-0.7
					l0.6-1c0.2-0.3,0.4-0.6,0.8-0.9c0.7-0.5,1.7-0.5,2.3,0c0.4,0.3,0.7,0.7,1,1.2l1,1.7c0.3,0.6,0.8,1.2,1.3,1.9
					c0.2,0.3,0.5,0.6,0.8,0.8h-8.8l0,0h-9.1h-1h-0.5c-0.5,0-0.9-0.1-1.3-0.3c-0.3-0.2-0.6-0.4-0.8-0.6V0.7V0.2h-0.5
					c-0.4,0-0.9,0.2-1.4,0.5c-0.6,0.4-0.9,0.9-0.9,1.4v11.3c0,2.5-1.2,3.7-3.7,3.7c-0.8,0-1.5-0.2-2.1-0.7s-0.8-1.1-0.8-2
					c0-0.7,0.2-1.3,0.4-1.9c0.3-0.6,0.7-0.7,1-0.7h0.3l0.1-0.3c0.1-0.2,0.2-0.5,0.2-0.9c0-0.8-0.4-1-0.6-1h-0.1h-0.1
					c-0.9,0.1-1.6,0.8-2.2,2c-0.6,1.1-0.9,2.2-0.9,3.3c0,1.6,0.4,2.8,1.3,3.7c0.9,0.9,2,1.3,3.5,1.3c1.6,0,3-0.6,4.3-1.9
					c1-1,1.7-2.2,2-3.5c0.3,0.2,0.6,0.5,0.9,0.6c0.6,0.4,1.2,0.5,1.9,0.5l0,0h0.1h1h9.1l0,0h13.7l0,0h8.5h1.7h6.8h1.7h8.5l0,0h1.7
					c1,0,1.7-0.4,2.2-1s0.7-1.5,0.7-2.5V4.8h-0.5C238.9,4.6,238.5,4.7,237.9,5.1"/>
				<path class="st0" d="M244.6,12.2v-12h-0.5c-0.4,0-0.9,0.2-1.4,0.5c-0.6,0.4-0.9,0.9-0.9,1.4v13.5l0.5-0.1c0.7-0.1,1.3-0.4,1.7-1
					C244.4,13.9,244.6,13.2,244.6,12.2"/>
				<path class="st0" d="M279.3,3.3c0.4,0,0.8-0.2,1.1-0.5s0.5-0.7,0.5-1.1s-0.2-0.8-0.5-1.1c-0.6-0.6-1.6-0.6-2.2,0
					c-0.3,0.3-0.5,0.7-0.5,1.1s0.2,0.8,0.5,1.1C278.5,3.1,278.9,3.3,279.3,3.3"/>
				<path class="st0" d="M282.6,3.3c0.4,0,0.8-0.1,1.1-0.5l0,0c0.3-0.3,0.5-0.7,0.5-1.1s-0.2-0.8-0.5-1.1c-0.6-0.6-1.6-0.6-2.2,0
					c-0.3,0.3-0.5,0.7-0.5,1.1s0.2,0.8,0.5,1.1C281.8,3.1,282.2,3.3,282.6,3.3"/>
				<path class="st0" d="M283.5,5.1c-0.6,0.4-0.9,0.9-0.9,1.4v5.4c0,1.2-0.5,1.4-1.1,1.4h-0.8h-1.8h-6.7h-1.7h-6.8H262h-7.5h-1H253
					c-0.5,0-0.9-0.1-1.3-0.3c-0.3-0.2-0.6-0.4-0.8-0.6V5.3h-0.5c-0.4,0-0.9,0.2-1.4,0.5c-0.6,0.4-0.9,0.9-0.9,1.4v9.4
					c0,0.4-0.1,0.7-0.3,1c-0.2,0.2-0.5,0.3-0.9,0.3c-0.5,0-0.9-0.2-1.1-0.6l-0.2-0.2h-0.3c-0.4,0-0.8,0.2-1.1,0.5
					c-0.5,0.3-0.7,0.7-0.7,1c0,0.2,0.1,0.4,0.2,0.5c0.4,0.5,1.1,0.7,2.1,0.7c1.5,0,2.7-0.5,3.6-1.3c0.9-0.9,1.4-2.2,1.4-3.8
					c0.2,0.2,0.5,0.3,0.7,0.5c0.6,0.3,1.2,0.5,1.8,0.5l0,0h0.1h1h7.5h1.7h6.8h1.7h6.7h1.8h1.7c1,0,1.7-0.4,2.2-1s0.7-1.5,0.7-2.5
					V4.9h-0.5C284.5,4.6,284,4.7,283.5,5.1"/>
				<path class="st0" d="M329.9,17.1c-0.3,0.3-0.5,0.7-0.5,1.1s0.2,0.8,0.5,1.1c0.3,0.3,0.7,0.5,1.1,0.5c0.4,0,0.8-0.1,1.1-0.5l0,0
					c0.3-0.3,0.5-0.7,0.5-1.1s-0.2-0.8-0.5-1.1C331.4,16.5,330.5,16.5,329.9,17.1"/>
				<path class="st0" d="M333.4,4.6c-0.4,0-0.9,0.2-1.4,0.5c-0.6,0.4-0.9,0.9-0.9,1.4v5.4c0,1.2-0.6,1.4-1.1,1.4h-0.8h-9.1h-1h-0.5
					c-0.5,0-0.9-0.1-1.3-0.3c-0.3-0.2-0.6-0.4-0.8-0.6V0.3H316c-0.4,0-0.9,0.2-1.4,0.5c-0.6,0.4-0.9,0.9-0.9,1.4v9.2
					c0,0.3,0,0.6,0,0.8c0,0.2-0.1,0.4-0.2,0.6c-0.1,0.2-0.1,0.3-0.3,0.4c-0.1,0.1-0.3,0.1-0.6,0.1h-0.4h-1.8H303h-1h-2V9.5
					c0-1.3-0.3-2.4-1-3.2c-0.7-0.9-1.8-1.3-3.2-1.3c-1.5,0-2.8,0.6-3.7,1.8c-0.9,1.2-1.3,2.6-1.3,4.1c0,1.3,0.4,2.4,1.2,3.3
					s2,1.4,3.4,1.4h1.8V16c0,0.5-0.2,1-0.6,1.4c-0.6,0.6-1.2,0.7-2,0.6c-0.1,0-0.4-0.1-0.8-0.3c-0.3-0.2-0.5-0.4-0.7-0.7l-0.2-0.3
					h-0.3c-0.4,0.1-0.7,0.3-1,0.8c-0.3,0.4-0.4,0.8-0.4,1.1v0.3l0.2,0.1c0.9,0.5,2.2,0.8,3.8,0.8c1.2,0,2.3-0.4,3.2-1.3
					c0.8-0.8,1.3-1.8,1.5-3h2.1h1h7.4h1.8h0.7c1.6,0,2.5-0.7,2.9-1.5c0.3,0.3,0.7,0.6,1,0.8c0.7,0.4,1.3,0.6,2,0.6l0,0h0.1h1h9.1
					l0,0h1.7c1,0,1.7-0.4,2.2-1s0.7-1.5,0.7-2.5V4.6L333.4,4.6L333.4,4.6z M297.5,13.2H296c-0.8,0-1.3-0.2-1.7-0.7s-0.5-1.3-0.5-2.4
					c0-0.5,0-0.9,0.1-1.3s0.2-0.9,0.4-1.2c0.2-0.4,0.4-0.6,0.7-0.9c0.3-0.2,0.6-0.3,1-0.3c0.5,0,0.9,0.2,1.1,0.5
					c0.3,0.4,0.4,0.9,0.4,1.4V13.2L297.5,13.2z"/>
			</g>
			<g>
				<path class="st0" d="M8.9,45.3L8.9,45.3c2-0.8,3-2.3,3-4c0-1.5-0.8-2.7-1.9-3.4c-1.2-0.9-2.7-1.1-5.2-1.1C2.9,36.8,1,37,0,37.2
					V55c0.8,0.1,2.2,0.2,4,0.2c3.3,0,5.4-0.6,6.7-1.7c1-0.9,1.7-2.1,1.7-3.7C12.6,47.3,10.8,45.8,8.9,45.3 M3.3,39.3
					c0.4-0.1,0.9-0.1,1.9-0.1c2.1,0,3.4,0.8,3.4,2.5c0,1.5-1.3,2.6-3.6,2.6H3.3L3.3,39.3L3.3,39.3z M5.1,52.7c-0.8,0-1.3,0-1.7-0.1
					v-5.9H5c2.3,0,4.1,0.9,4.1,3C9.1,51.9,7.2,52.7,5.1,52.7"/>
				<rect x="15.4" y="35.9" class="st0" width="3.3" height="19"/>
				<path class="st0" d="M34,41.9h-3.3v7.9c0,0.4-0.1,0.7-0.2,1c-0.4,0.8-1.2,1.8-2.5,1.8c-1.7,0-2.4-1.4-2.4-3.6v-7.1h-3.3v7.7
					c0,4.3,2.2,5.7,4.6,5.7c2.3,0,3.6-1.3,4.2-2.3l0,0l0.2,2h2.9c0-1.1-0.1-2.4-0.1-3.9L34,41.9L34,41.9z"/>
				<path class="st0" d="M43.1,41.6c-4.2,0-6.4,3.4-6.4,7c0,4,2.5,6.6,6.7,6.6c1.9,0,3.4-0.3,4.6-0.8l-0.5-2.3
					c-1,0.4-2.1,0.6-3.6,0.6c-2.1,0-3.9-1-4-3.4h8.8c0-0.3,0.1-0.8,0.1-1.4C48.7,45.1,47.3,41.6,43.1,41.6 M39.9,47.1
					c0.1-1.3,1-3.2,3-3.2c2.2,0,2.7,2,2.7,3.2H39.9z"/>
				<polygon class="st0" points="54.3,39.7 59.4,39.7 59.4,55 62.7,55 62.7,39.7 67.9,39.7 67.9,36.9 54.3,36.9 				"/>
				<path class="st0" d="M71.6,44.4h-0.1l-0.1-2.5h-2.9c0.1,1.2,0.1,2.4,0.1,4.2v8.8h3.3v-6.8c0-0.4,0-0.7,0.1-1
					c0.3-1.5,1.4-2.5,3-2.5c0.4,0,0.7,0,1,0.1v-3c-0.3,0-0.5-0.1-0.8-0.1C73.7,41.6,72.2,42.6,71.6,44.4"/>
				<rect x="78.1" y="41.9" class="st0" width="3.3" height="13.1"/>
				<path class="st0" d="M79.8,36.5c-1.1,0-1.9,0.8-1.9,1.8s0.7,1.8,1.8,1.8c1.1,0,1.9-0.8,1.9-1.8C81.6,37.3,80.9,36.5,79.8,36.5"
					/>
				<path class="st0" d="M95.1,47.1c0-2.8-1.2-5.5-5.4-5.5c-2.1,0-3.8,0.6-4.7,1.1l0.6,2.1c0.9-0.6,2.2-1,3.5-1
					c2.3,0,2.7,1.4,2.7,2.3v0.2c-4.8,0-7.8,1.6-7.8,4.9c0,2,1.5,3.9,4.1,3.9c1.7,0,3.1-0.7,3.9-1.7h0.1l0.2,1.5h3
					c-0.1-0.8-0.2-2-0.2-3.1L95.1,47.1L95.1,47.1z M91.9,50.4c0,0.2,0,0.5-0.1,0.7c-0.3,0.9-1.3,1.8-2.6,1.8c-1,0-1.9-0.6-1.9-1.9
					c0-2,2.2-2.5,4.6-2.4V50.4L91.9,50.4z"/>
				<path class="st0" d="M105.8,41.6c-2.2,0-3.6,1.2-4.2,2.2h-0.1l-0.2-2h-2.9c0.1,1.1,0.1,2.4,0.1,3.9v9.2h3.3v-7.7
					c0-0.4,0-0.8,0.1-1.1c0.3-1,1.3-1.9,2.6-1.9c1.8,0,2.5,1.4,2.5,3.3v7.4h3.3v-7.8C110.4,43.1,108.1,41.6,105.8,41.6"/>
				<path class="st0" d="M122.9,43.7L122.9,43.7c-0.7-1.1-1.8-2-3.8-2c-3.1,0-5.9,2.6-5.9,6.9c0,3.7,2.3,6.4,5.5,6.4
					c1.7,0,3.1-0.8,3.8-1.9l0,0v1.1c0,2.8-1.6,3.9-3.8,3.9c-1.6,0-3-0.5-3.8-1l-0.7,2.5c1.1,0.7,2.9,1,4.6,1c1.8,0,3.7-0.4,5-1.6
					c1.4-1.2,1.9-3.2,1.9-5.9v-7.4c0-1.8,0-2.9,0.1-3.8h-2.9L122.9,43.7z M122.5,49.3c0,0.4,0,0.8-0.1,1.2c-0.4,1.2-1.5,2-2.7,2
					c-2.1,0-3.2-1.8-3.2-4c0-2.7,1.4-4.3,3.2-4.3c1.4,0,2.3,0.9,2.7,2.1c0.1,0.3,0.1,0.6,0.1,0.9V49.3L122.5,49.3z"/>
				<rect x="129.3" y="35.9" class="st0" width="3.3" height="19"/>
				<path class="st0" d="M141.8,41.6c-4.2,0-6.4,3.4-6.4,7c0,4,2.5,6.6,6.7,6.6c1.9,0,3.4-0.3,4.6-0.8l-0.5-2.3
					c-1,0.4-2.1,0.6-3.6,0.6c-2.1,0-3.9-1-4-3.4h8.8c0-0.3,0.1-0.8,0.1-1.4C147.4,45.1,146,41.6,141.8,41.6 M138.5,47.1
					c0.1-1.3,1-3.2,3-3.2c2.2,0,2.7,2,2.7,3.2H138.5z"/>
				<polygon class="st0" points="153,39.7 158.1,39.7 158.1,55 161.4,55 161.4,39.7 166.6,39.7 166.6,36.9 153,36.9 				"/>
				<path class="st0" d="M170.2,44.4h-0.1l-0.1-2.5h-2.9c0.1,1.2,0.1,2.4,0.1,4.2v8.8h3.3v-6.8c0-0.4,0-0.7,0.1-1
					c0.3-1.5,1.4-2.5,3-2.5c0.4,0,0.7,0,1,0.1v-3c-0.3,0-0.5-0.1-0.8-0.1C172.4,41.6,170.9,42.6,170.2,44.4"/>
				<path class="st0" d="M186.7,47.1c0-2.8-1.2-5.5-5.4-5.5c-2.1,0-3.8,0.6-4.7,1.1l0.6,2.1c0.9-0.6,2.2-1,3.5-1
					c2.3,0,2.7,1.4,2.7,2.3v0.2c-4.8,0-7.8,1.6-7.8,4.9c0,2,1.5,3.9,4.1,3.9c1.7,0,3.1-0.7,3.9-1.7h0.1l0.2,1.5h3
					c-0.1-0.8-0.2-2-0.2-3.1L186.7,47.1L186.7,47.1z M183.5,50.4c0,0.2,0,0.5-0.1,0.7c-0.3,0.9-1.3,1.8-2.6,1.8
					c-1,0-1.9-0.6-1.9-1.9c0-2,2.2-2.5,4.6-2.4V50.4L183.5,50.4z"/>
				<path class="st0" d="M202.2,35.9h-3.3v7.4l0,0c-0.6-1-1.9-1.7-3.7-1.7c-3.1,0-5.9,2.6-5.8,7c0,4,2.5,6.7,5.6,6.7
					c1.9,0,3.5-0.9,4.3-2.4l0,0l0.1,2.1h3c0-0.9-0.1-2.3-0.1-3.7L202.2,35.9L202.2,35.9z M198.9,49.3c0,0.3,0,0.7-0.1,1
					c-0.3,1.4-1.5,2.3-2.8,2.3c-2.1,0-3.3-1.7-3.3-4.1s1.2-4.3,3.3-4.3c1.5,0,2.5,1,2.8,2.3c0,0.3,0.1,0.6,0.1,0.9V49.3L198.9,49.3z
					"/>
				<path class="st0" d="M207.4,36.5c-1.1,0-1.8,0.8-1.8,1.8s0.7,1.8,1.8,1.8c1.2,0,1.9-0.8,1.9-1.8
					C209.3,37.3,208.6,36.5,207.4,36.5"/>
				<rect x="205.8" y="41.9" class="st0" width="3.3" height="13.1"/>
				<path class="st0" d="M219.8,41.6c-2.2,0-3.6,1.2-4.2,2.2h-0.1l-0.2-2h-2.9c0.1,1.1,0.1,2.4,0.1,3.9v9.2h3.3v-7.7
					c0-0.4,0-0.8,0.1-1.1c0.3-1,1.3-1.9,2.6-1.9c1.8,0,2.5,1.4,2.5,3.3v7.4h3.3v-7.8C224.5,43.1,222.1,41.6,219.8,41.6"/>
				<path class="st0" d="M236.9,43.7L236.9,43.7c-0.7-1.1-1.8-2-3.8-2c-3.1,0-5.9,2.6-5.9,6.9c0,3.7,2.3,6.4,5.5,6.4
					c1.7,0,3.1-0.8,3.8-1.9l0,0v1.1c0,2.8-1.6,3.9-3.8,3.9c-1.6,0-3-0.5-3.8-1l-0.7,2.5c1.1,0.7,2.9,1,4.6,1c1.8,0,3.7-0.4,5-1.6
					c1.4-1.2,1.9-3.2,1.9-5.9v-7.4c0-1.8,0-2.9,0.1-3.8h-2.9L236.9,43.7z M236.5,49.3c0,0.4,0,0.8-0.1,1.2c-0.4,1.2-1.5,2-2.7,2
					c-2.1,0-3.2-1.8-3.2-4c0-2.7,1.4-4.3,3.2-4.3c1.4,0,2.3,0.9,2.7,2.1c0.1,0.3,0.1,0.6,0.1,0.9V49.3L236.5,49.3z"/>
				<polygon class="st0" points="252.3,36.9 249,36.9 249,55 259.8,55 259.8,52.2 252.3,52.2 				"/>
				<path class="st0" d="M263.8,36.5c-1.1,0-1.8,0.8-1.8,1.8s0.7,1.8,1.8,1.8c1.2,0,1.9-0.8,1.9-1.8
					C265.6,37.3,264.9,36.5,263.8,36.5"/>
				<rect x="262.1" y="41.9" class="st0" width="3.3" height="13.1"/>
				<path class="st0" d="M283.9,41.6c-1.1,0-1.9,0.3-2.6,0.8c-0.6,0.4-1.2,0.9-1.6,1.6l0,0c-0.6-1.5-1.9-2.4-3.6-2.4
					c-2.2,0-3.4,1.2-4,2.2H272l-0.1-1.9h-2.8c0.1,1.1,0.1,2.4,0.1,3.9V55h3.2v-7.7c0-0.4,0-0.8,0.2-1.1c0.3-0.9,1.1-1.9,2.4-1.9
					c1.5,0,2.2,1.3,2.2,3.1V55h3.2v-7.8c0-0.4,0.1-0.8,0.2-1.1c0.3-0.9,1.2-1.7,2.3-1.7c1.6,0,2.3,1.3,2.3,3.5v7.2h3.2v-7.7
					C288.3,43.1,286.1,41.6,283.9,41.6"/>
				<path class="st0" d="M293.4,36.5c-1.1,0-1.8,0.8-1.8,1.8s0.7,1.8,1.8,1.8c1.2,0,1.9-0.8,1.9-1.8
					C295.2,37.3,294.5,36.5,293.4,36.5"/>
				<rect x="291.7" y="41.9" class="st0" width="3.3" height="13.1"/>
				<path class="st0" d="M302.4,38.2l-3.2,0.8v3h-1.9v2.5h1.9v6.2c0,1.7,0.3,2.9,1,3.7c0.6,0.7,1.6,1.1,2.8,1.1c1,0,1.9-0.1,2.4-0.3
					v-2.5c-0.3,0.1-0.7,0.2-1.3,0.2c-1.3,0-1.7-0.8-1.7-2.4v-5.8h3.1v-2.5h-3.1V38.2L302.4,38.2z"/>
				<path class="st0" d="M313.4,41.6c-4.2,0-6.4,3.4-6.4,7c0,4,2.5,6.6,6.7,6.6c1.9,0,3.4-0.3,4.6-0.8l-0.5-2.3
					c-1,0.4-2.1,0.6-3.6,0.6c-2.1,0-3.9-1-4-3.4h8.8c0-0.3,0.1-0.8,0.1-1.4C319,45.1,317.6,41.6,313.4,41.6 M310.2,47.1
					c0.1-1.3,1-3.2,3-3.2c2.2,0,2.7,2,2.7,3.2H310.2z"/>
				<path class="st0" d="M333.7,51.3V35.9h-3.3v7.4l0,0c-0.6-1-1.9-1.7-3.7-1.7c-3.1,0-5.9,2.6-5.8,7c0,4,2.5,6.7,5.6,6.7
					c1.9,0,3.5-0.9,4.3-2.4l0,0l0.1,2.1h3C333.8,54.1,333.7,52.7,333.7,51.3 M330.4,49.3c0,0.3,0,0.7-0.1,1
					c-0.3,1.4-1.5,2.3-2.8,2.3c-2.1,0-3.3-1.7-3.3-4.1s1.2-4.3,3.3-4.3c1.5,0,2.5,1,2.8,2.3c0,0.3,0.1,0.6,0.1,0.9V49.3z"/>
			</g>
		</g>
	</g>
</g>
<g>
	<polygon class="st1" points="473.98,-11.1 448.78,-23.7 448.48,5.1 471.58,15.8 434.08,43.4 434.08,-75.3 406.18,-28.3 
		406.18,60.6 455.48,60.6 498.48,28.5 	"/>
	<linearGradient id="SVGID_1_" gradientUnits="userSpaceOnUse" x1="486.9316" y1="28.5001" x2="486.9316" y2="65.6823">
		<stop  offset="0" style="stop-color:#DBD8D6"/>
		<stop  offset="0" style="stop-color:#E5E3E1"/>
		<stop  offset="0" style="stop-color:#FFFFFF"/>
		<stop  offset="0.0532" style="stop-color:#EBEBEB"/>
		<stop  offset="0.1618" style="stop-color:#B6B6B6"/>
		<stop  offset="0.264" style="stop-color:#808080"/>
		<stop  offset="0.3585" style="stop-color:#C1C1C1"/>
		<stop  offset="0.4329" style="stop-color:#EEEEEE"/>
		<stop  offset="0.4703" style="stop-color:#FFFFFF"/>
		<stop  offset="0.5435" style="stop-color:#E9E9E9"/>
		<stop  offset="0.6959" style="stop-color:#B0B0B0"/>
		<stop  offset="0.8764" style="stop-color:#666666"/>
		<stop  offset="0.9064" style="stop-color:#7A7A7A"/>
		<stop  offset="0.9677" style="stop-color:#ACAEAD"/>
		<stop  offset="1" style="stop-color:#C9CCCB"/>
		<stop  offset="1" style="stop-color:#FFFFFF"/>
	</linearGradient>
	<polygon class="st2" points="518.38,60.6 498.48,28.5 455.48,60.6 	"/>
	<linearGradient id="SVGID_2_" gradientUnits="userSpaceOnUse" x1="379.8316" y1="-28.3" x2="379.8316" y2="74.7355">
		<stop  offset="0" style="stop-color:#DBD8D6"/>
		<stop  offset="0" style="stop-color:#E5E3E1"/>
		<stop  offset="0" style="stop-color:#FFFFFF"/>
		<stop  offset="0.0532" style="stop-color:#EBEBEB"/>
		<stop  offset="0.1618" style="stop-color:#B6B6B6"/>
		<stop  offset="0.264" style="stop-color:#808080"/>
		<stop  offset="0.3585" style="stop-color:#C1C1C1"/>
		<stop  offset="0.4329" style="stop-color:#EEEEEE"/>
		<stop  offset="0.4703" style="stop-color:#FFFFFF"/>
		<stop  offset="0.5435" style="stop-color:#E9E9E9"/>
		<stop  offset="0.6959" style="stop-color:#B0B0B0"/>
		<stop  offset="0.8764" style="stop-color:#666666"/>
		<stop  offset="0.9064" style="stop-color:#7A7A7A"/>
		<stop  offset="0.9677" style="stop-color:#ACAEAD"/>
		<stop  offset="1" style="stop-color:#C9CCCB"/>
		<stop  offset="1" style="stop-color:#FFFFFF"/>
	</linearGradient>
	<polygon class="st3" points="353.48,60.6 406.18,60.6 406.18,-28.3 	"/>
	<linearGradient id="SVGID_3_" gradientUnits="userSpaceOnUse" x1="454.0316" y1="-75.3" x2="454.0316" y2="43.4001">
		<stop  offset="0" style="stop-color:#DBD8D6"/>
		<stop  offset="0" style="stop-color:#E5E3E1"/>
		<stop  offset="0" style="stop-color:#FFFFFF"/>
		<stop  offset="0.0532" style="stop-color:#EBEBEB"/>
		<stop  offset="0.1618" style="stop-color:#B6B6B6"/>
		<stop  offset="0.264" style="stop-color:#808080"/>
		<stop  offset="0.3585" style="stop-color:#C1C1C1"/>
		<stop  offset="0.4329" style="stop-color:#EEEEEE"/>
		<stop  offset="0.4703" style="stop-color:#FFFFFF"/>
		<stop  offset="0.5435" style="stop-color:#E9E9E9"/>
		<stop  offset="0.6959" style="stop-color:#B0B0B0"/>
		<stop  offset="0.8764" style="stop-color:#666666"/>
		<stop  offset="0.9064" style="stop-color:#7A7A7A"/>
		<stop  offset="0.9677" style="stop-color:#ACAEAD"/>
		<stop  offset="1" style="stop-color:#C9CCCB"/>
		<stop  offset="1" style="stop-color:#FFFFFF"/>
	</linearGradient>
	<polygon class="st4" points="471.58,15.8 448.48,5.1 448.78,-23.7 473.98,-11.1 434.08,-75.3 434.08,-75.3 434.08,43.4 	"/>
</g>
</svg>
