<?xml version="1.0" encoding="utf-8"?>
<!-- Generator: Adobe Illustrator 25.2.0, SVG Export Plug-In . SVG Version: 6.00 Build 0)  -->
<svg version="1.0" id="Layer_1" xmlns="http://www.w3.org/2000/svg" xmlns:xlink="http://www.w3.org/1999/xlink" x="0px" y="0px"
	 width="250.59px" height="259.35px" viewBox="0 0 250.59 259.35" style="enable-background:new 0 0 250.59 259.35;"
	 xml:space="preserve">
<style type="text/css">
	.st0{display:none;}
	.st1{display:inline;fill:#EF4123;}
	.st2{fill:#FFFFFF;}
	.st3{display:inline;fill:none;stroke:#0B0100;stroke-width:0.0375;}
	.st4{display:inline;}
	.st5{fill:none;stroke:#0B0100;stroke-width:0.0144;stroke-dasharray:1.4403,1.4403,1.4403,1.4403,1.4403,1.4403;}
	.st6{fill:none;stroke:#0B0100;stroke-width:0.0282;}
</style>
<g id="Layer_3" class="st0">
	<rect x="-81.65" y="-83.34" class="st1" width="413.42" height="423.35"/>
</g>
<g id="Layer_1_1_">
	<g>
		<g>
			<g>
				<path class="st2" d="M11.29,0.01C20.64,18.46,25.2,30.03,45.74,41.9c20.55,11.89,23.6,10.11,25.77,10.97
					c2.18,0.86,3.28,3.47,3.29,5c4.58-0.03,21.79-2.5,29.83-1.93c8.28,0.61,26.93,3.24,39.91,7.18c9.17,2.78,20.95,7.08,22.7,7.72
					s5.02,1.93,7.18-0.69c2.16-2.64-0.46-3.49,11.71-8.38c12.17-4.87,24.11-11.04,28.02-13.03c3.91-1.99,18.46-9.92,32.97-23.98
					c1.74-1.76,2.16-2.42,3.04-1.55c0.88,0.87,0.23,1.96-0.2,2.83c-3.64,10.28-13.11,28.66-15.91,33.26
					c-2.81,4.6-17.73,21.27-19.9,23.24c-2.16,1.98-10.4,9.01-10.4,9.01s-7.37,5.94-0.59,10.69c6.78,4.76,3.98,9.79-1.01,13.31
					c-4.98,3.52-17.35,11.89-28.25,10.64c-10.9-1.24-7.63,0.05-14.18-3.19c-2.18-1.08-5.45-1.06-4.13,0.9
					c1.32,1.95,0.68,2.6,0.68,2.6c-1.92,7.65-2.08,19.21-0.96,23.36c1.12,4.14,2.44,7.41,4.64,10.01c0.88,1.09,2.26,1.96-0.86,1.97
					c-2.61,0.02-3.48-0.85-5.24-2.15c-3.05-0.4-10.9-1.68-14.36,0.96c-3.47,2.64-1.08,1.97-8.05,3.33c-2.17,1.1-3.68,2.85-0.4,6.55
					c3.34,3.74,5.99,5.95,7.24,6.94c1.09,0.87,5.89,1.7-0.4,5.67c-6.3,3.96-13.02,9.02-28.49,7.81
					c-15.48-1.22-21.84-9.25-24.92-15.12c-3.09-5.87-2.01-8.28-12.9-8.21c-10.89,0.06-29.58,3.6-35.26,4.36
					c-10.23,1.36-8.52,3.33-15.7-2.75c-10.51-8.88-16.43-14.51-17.74-15.82c-1.31-1.3-4.16-2.38-1.79-8.07
					c2.36-5.68,6.44-15.73,17.26-29.12c10.8-13.37,13.04-15.99,16.44-18.64c8.46-6.6,4.75-7.01,13.29-0.3
					c7.06,5.55,14,11.26,19.03,13.64c5.03,2.37,5.9,3.01,9.21,10.84c3.32,7.84,7.05,13.71,8.16,15.88c1.09,2.17,8.77,9.07,15.08,9.3
					c10.46,0.37,19.17,0.97,25.44-6.92c2.8-7.22,4.28-12.47,8.18-16.63c1.51-1.32,2.59-3.07,0.2-3.06
					c-2.4,0.02-15.69-0.78-20.04-1.84c-4.37-1.07-39.28-11.55-43.87-13.7c-4.59-2.16-25.55-10.1-36.52-24.43
					C21.96,66.03,20.63,61.24,15.28,42.07C11.23,26.63,11.07-0.42,11.29,0.01z"/>
				<path class="st2" d="M208.5,120.34c-0.1,3.79,0.03,33.43,7,42.06c1.97,1.52,2.85,3.47,1.11,3.7c-1.75,0.24-14.59-0.12-15.9-0.12
					c-1.3,0.01-3.56-0.4-3.26,3.51c0.39,4.75-0.71,14.12-8.6,17.29c-7.45,2.98-14.79,6.23-28.97-1.58
					c-4.82-3.46-5.69-4.55-6.14-5.19c-0.45-0.65-0.87-1.31-0.01-2.4c0.87-1.1,9.31-9.65,10.81-13.16c1.5-3.49,0.85-3.93-0.25-6.11
					c0.75,1.5-5.67-8.22-0.04-7.41c4.36,0.62,13.73,3.19,20.91,0.09c7.17-3.09,14.34-6.41,17.07-22.36c0.19-5.89,0.18-7.2,3-9.61
					C206.95,116.86,208.68,113.57,208.5,120.34z"/>
				<path class="st2" d="M221.89,174.15c7.43,3.66,19.66,10.8,22.54,17.32c1.1,1.96,1.78,5.44-1.96,1.54
					c-3.73-3.91-10.53-12.81-29.06-16.2c-5.08-0.16-11.76,0.29-10.93-4.29c0.49-2.1-0.35-4.34,7.18-2.44
					C216.42,171.78,221.89,174.15,221.89,174.15z"/>
				<path class="st2" d="M215.85,183.56c8.85,4.37,15.09,10.82,16.2,12.56c1.09,1.73,1.98,2.6,0.66,3.48
					c-1.3,0.88-1.95,0.23-3.49-1.29c-1.53-1.51-10.94-9.32-27.08-13.36c-2.85-0.86-4.15-1.94-1.56-4.13
					c2.61-2.21,2.82-1.55,5.45-0.69C208.64,180.98,215.41,183.36,215.85,183.56z"/>
				<path class="st2" d="M208.95,195.82c5.47,3.9,11.61,10.84,12.93,12.36s1.09,1.52-1.09,1.32c-2.18-0.2-5.26-4.54-8.32-6.27
					c-3.06-1.73-14-8.65-16.61-9.51c-2.61-0.85-3.71-1.28-1.99-3.47c1.73-2.18,1.73-1.97,3.7-1.11
					C199.55,189.99,208.95,195.82,208.95,195.82z"/>
				<path class="st2" d="M164.27,192.38c1.32,0.87,4.15,1.73,2.22,6.75c-1.93,5.04-3.22,8.1-9.08,12.27
					c-2.16,1.54-8.46,5.73-2.85-2.16c2.59-5.47,3.87-8.3,3.84-15.29c-0.02-2.4-0.25-3.49,3.25-3.08
					C162.75,191.53,164.27,192.38,164.27,192.38z"/>
				<path class="st2" d="M116.96,221.46c3.12,6.31,7.46,11.52,13.58,11.48c7.98-0.04,14.22-4.53,16.51-8.18
					c0.23,4.37-1.06,6.34-1.91,8.09c-0.87,1.75-2.15,4.16-0.4,7.2c1.76,3.05,0.91,7.42,0.06,10.04c-0.85,2.63-3.21,9.18-13.45,9.25
					c-10.24,0.06-23.75,0.13-29.64-2.23c-3.55-1.42-5.04-0.49-4.84-8.69c0.17-7.43,1.23-11.8,1.86-14.64
					c0.64-2.85,1.29-4.15,5.65-4.17c4.36-0.02,3.91,0.19,5.65-0.05c1.75-0.22,2.18-0.88,2.16-3.06c-0.01-2.19,0.4-6.33,1.91-8.74
					c1.51-2.4,1.95-1.54,2.18-0.23C116.51,218.85,116.96,221.46,116.96,221.46z"/>
				<path class="st2" d="M131.39,194.33c-1.05,4.58-3.83,14.85-7.5,19.46c-1.34-5.66-2.69-11.76-2.71-13.95
					c0-2.18-2.19-3.26,5.84-6.8C133.55,190.17,131.39,194.33,131.39,194.33z"/>
				<path class="st2" d="M46.15,218.4c3.56-5.47,25.56-23.06,28.17-24.16c0,0,3.69-2.21,6.95-3.1c6.52-1.79,6.55,2.14,4.17,4.55
					c-7.61,3.1-19.04,10.66-27.13,16.52c-6.07,4.41-15.16,14.05-18.19,17.57c-1.63,0.44-4.47,0.1-2.09-2.61
					C41.5,223.24,45.89,218.81,46.15,218.4z"/>
				<path class="st2" d="M22.61,207.8c17.55-15.15,30.98-19.33,44.24-23.55c6.75-1.36,12.52-2.7,13.95,0.79
					c0.88,2.18,0.45,3.27-1.72,3.5c-9.37,0.5-25.46,4.13-41.31,13.56c-6.29,3.74-14.1,9.9-16.75,12.54
					c-1.72,1.71-6.74,0.28-2.96-2.82C21.92,208.65,22.61,207.8,22.61,207.8z"/>
				<path class="st2" d="M18.52,187.15c14.76-7.72,25.86-10.19,36.52-12.65c0,0,14.14-2.49,20.25-0.78c5.05,6.3,1.99,5.66-1.93,5.9
					c-13.28-0.14-26.77,2.56-38.94,6.56c-12.18,4-26.72,11.3-31.51,13.5c-1.69,0.77-3.37,0.67-2.79-1.13
					c0.54-1.67,3.74-3.52,5.04-4.17C6.47,193.71,18.52,187.15,18.52,187.15z"/>
			</g>
			<path class="st2" d="M192.73,258.01c-4.05,0.01-7-3.13-7.02-7.2c0-4.02,2.93-7.18,6.98-7.19c4.02-0.01,6.96,3.14,6.96,7.15
				C199.67,254.84,196.75,258,192.73,258.01z M192.74,259.11c4.57-0.01,8.24-3.76,8.23-8.35c-0.01-4.55-3.71-8.26-8.27-8.25
				c-4.59,0.01-8.29,3.74-8.28,8.29C184.43,255.4,188.15,259.12,192.74,259.11z M194.04,251.15c1.64-0.04,2.91-0.72,2.9-2.54
				c0-1.53-0.84-2.45-3.29-2.45l-4.04,0.01l0.02,9.26h1.13l-0.01-4.27l2.09-0.01l2.65,4.26l1.36-0.01L194.04,251.15z M190.76,250.28
				l-0.01-3.29l2.66-0.01c1.12,0,2.31,0.18,2.31,1.63c0.01,1.88-1.92,1.66-3.23,1.67H190.76z"/>
		</g>
	</g>
</g>
<g id="Layer_2_1_" class="st0">
	<rect x="-65.86" y="-62.33" class="st3" width="384.21" height="384.03"/>
	<g class="st4">
		<rect x="-0.09" y="-0.5" class="st5" width="251.7" height="260.36"/>
		<g>
			<polygon class="st6" points="272.3,83.55 251.55,83.55 251.67,62.8 272.42,62.8 			"/>
			<polygon class="st6" points="313.76,83.58 293.01,83.58 293.14,62.83 313.88,62.83 			"/>
			<polygon class="st6" points="293.03,83.59 272.28,83.59 272.4,62.84 293.16,62.84 			"/>
		</g>
		<g>
			<polygon class="st6" points="36.95,-20.56 36.95,0.19 16.2,0.07 16.2,-20.68 			"/>
			<polygon class="st6" points="36.98,-62.02 36.98,-41.27 16.22,-41.41 16.22,-62.15 			"/>
			<polygon class="st6" points="36.98,-41.3 36.98,-20.55 16.24,-20.67 16.24,-41.42 			"/>
		</g>
		<g>
			<polygon class="st6" points="-21.02,176.72 -0.27,176.72 -0.4,197.47 -21.15,197.47 			"/>
			<polygon class="st6" points="-62.49,176.7 -41.74,176.7 -41.87,197.45 -62.61,197.45 			"/>
			<polygon class="st6" points="-41.76,176.69 -21.01,176.69 -21.13,197.43 -41.89,197.43 			"/>
		</g>
		<g>
			<polygon class="st6" points="138.91,301.46 138.91,322.21 118.16,322.09 118.16,301.33 			"/>
			<polygon class="st6" points="138.94,260 138.94,280.75 118.19,280.61 118.19,259.87 			"/>
			<polygon class="st6" points="138.95,280.72 138.95,301.47 118.2,301.35 118.2,280.6 			"/>
		</g>
	</g>
</g>
</svg>
