<?xml version="1.0" encoding="utf-8"?>
<!-- Generator: Adobe Illustrator 25.2.0, SVG Export Plug-In . SVG Version: 6.00 Build 0)  -->
<svg version="1.0" id="Layer_1" xmlns="http://www.w3.org/2000/svg" xmlns:xlink="http://www.w3.org/1999/xlink" x="0px" y="0px"
	 width="413.42px" height="423.35px" viewBox="0 0 413.42 423.35" style="enable-background:new 0 0 413.42 423.35;"
	 xml:space="preserve">
<style type="text/css">
	.st0{fill:#EF4123;}
	.st1{fill:#FFFFFF;}
	.st2{display:none;}
	.st3{display:inline;fill:none;stroke:#0B0100;stroke-width:0.0375;}
	.st4{display:inline;}
	.st5{fill:none;stroke:#0B0100;stroke-width:0.0144;stroke-dasharray:1.4403,1.4403,1.4403,1.4403,1.4403,1.4403;}
	.st6{fill:none;stroke:#0B0100;stroke-width:0.0282;}
</style>
<g id="Layer_3">
	<rect class="st0" width="413.42" height="423.35"/>
</g>
<g id="Layer_1_1_">
	<g>
		<g>
			<g>
				<path class="st1" d="M92.94,83.35c9.35,18.45,13.91,30.02,34.45,41.89c20.55,11.89,23.6,10.11,25.77,10.97
					c2.18,0.86,3.28,3.47,3.29,5c4.58-0.03,21.79-2.5,29.83-1.93c8.28,0.61,26.93,3.24,39.91,7.18c9.17,2.78,20.95,7.08,22.7,7.72
					s5.02,1.93,7.18-0.69c2.16-2.64-0.46-3.49,11.71-8.38c12.17-4.87,24.11-11.04,28.02-13.03c3.91-1.99,18.46-9.92,32.97-23.98
					c1.74-1.76,2.16-2.42,3.04-1.55c0.88,0.87,0.23,1.96-0.2,2.83c-3.64,10.28-13.11,28.66-15.91,33.26
					c-2.81,4.6-17.73,21.27-19.9,23.24c-2.16,1.98-10.4,9.01-10.4,9.01s-7.37,5.94-0.59,10.69c6.78,4.76,3.98,9.79-1.01,13.31
					c-4.98,3.52-17.35,11.89-28.25,10.64c-10.9-1.24-7.63,0.05-14.18-3.19c-2.18-1.08-5.45-1.06-4.13,0.9
					c1.32,1.95,0.68,2.6,0.68,2.6c-1.92,7.65-2.08,19.21-0.96,23.36c1.12,4.14,2.44,7.41,4.64,10.01c0.88,1.09,2.26,1.96-0.86,1.97
					c-2.61,0.02-3.48-0.85-5.24-2.15c-3.05-0.4-10.9-1.68-14.36,0.96c-3.47,2.64-1.08,1.97-8.05,3.33c-2.17,1.1-3.68,2.85-0.4,6.55
					c3.34,3.74,5.99,5.95,7.24,6.94c1.09,0.87,5.89,1.7-0.4,5.67c-6.3,3.96-13.02,9.02-28.49,7.81
					c-15.48-1.22-21.84-9.25-24.92-15.12c-3.09-5.87-2.01-8.28-12.9-8.21c-10.89,0.06-29.58,3.6-35.26,4.36
					c-10.23,1.36-8.52,3.33-15.7-2.75c-10.51-8.88-16.43-14.51-17.74-15.82c-1.31-1.3-4.16-2.38-1.79-8.07
					c2.36-5.68,6.44-15.73,17.26-29.12c10.8-13.37,13.04-15.99,16.44-18.64c8.46-6.6,4.75-7.01,13.29-0.3
					c7.06,5.55,14,11.26,19.03,13.64c5.03,2.37,5.9,3.01,9.21,10.84c3.32,7.84,7.05,13.71,8.16,15.88c1.09,2.17,8.77,9.07,15.08,9.3
					c10.46,0.37,19.17,0.97,25.44-6.92c2.8-7.22,4.28-12.47,8.18-16.63c1.51-1.32,2.59-3.07,0.2-3.06
					c-2.4,0.02-15.69-0.78-20.04-1.84c-4.37-1.07-39.28-11.55-43.87-13.7c-4.59-2.16-25.55-10.1-36.52-24.43
					c-10.98-14.33-12.31-19.12-17.66-38.29C92.88,109.97,92.72,82.92,92.94,83.35z"/>
				<path class="st1" d="M290.15,203.68c-0.1,3.79,0.03,33.43,7,42.06c1.97,1.52,2.85,3.47,1.11,3.7
					c-1.75,0.24-14.59-0.12-15.9-0.12c-1.3,0.01-3.56-0.4-3.26,3.51c0.39,4.75-0.71,14.12-8.6,17.29
					c-7.45,2.98-14.79,6.23-28.97-1.58c-4.82-3.46-5.69-4.55-6.14-5.19c-0.45-0.65-0.87-1.31-0.01-2.4
					c0.87-1.1,9.31-9.65,10.81-13.16c1.5-3.49,0.85-3.93-0.25-6.11c0.75,1.5-5.67-8.22-0.04-7.41c4.36,0.62,13.73,3.19,20.91,0.09
					c7.17-3.09,14.34-6.41,17.07-22.36c0.19-5.89,0.18-7.2,3-9.61C288.6,200.2,290.33,196.91,290.15,203.68z"/>
				<path class="st1" d="M303.54,257.49c7.43,3.66,19.66,10.8,22.54,17.32c1.1,1.96,1.78,5.44-1.96,1.54
					c-3.73-3.91-10.53-12.81-29.06-16.2c-5.08-0.16-11.76,0.29-10.93-4.29c0.49-2.1-0.35-4.34,7.18-2.44
					C298.07,255.12,303.54,257.49,303.54,257.49z"/>
				<path class="st1" d="M297.5,266.9c8.85,4.37,15.09,10.82,16.2,12.56c1.09,1.73,1.98,2.6,0.66,3.48
					c-1.3,0.88-1.95,0.23-3.49-1.29c-1.53-1.51-10.94-9.32-27.08-13.36c-2.85-0.86-4.15-1.94-1.56-4.13
					c2.61-2.21,2.82-1.55,5.45-0.69C290.29,264.32,297.06,266.7,297.5,266.9z"/>
				<path class="st1" d="M290.6,279.16c5.47,3.9,11.61,10.84,12.93,12.36s1.09,1.52-1.09,1.32c-2.18-0.2-5.26-4.54-8.32-6.27
					c-3.06-1.73-14-8.65-16.61-9.51c-2.61-0.85-3.71-1.28-1.99-3.47c1.73-2.18,1.73-1.97,3.7-1.11
					C281.2,273.33,290.6,279.16,290.6,279.16z"/>
				<path class="st1" d="M245.92,275.72c1.32,0.87,4.15,1.73,2.22,6.75c-1.93,5.04-3.22,8.1-9.08,12.27
					c-2.16,1.54-8.46,5.73-2.85-2.16c2.59-5.47,3.87-8.3,3.84-15.29c-0.02-2.4-0.25-3.49,3.25-3.08
					C244.4,274.87,245.92,275.72,245.92,275.72z"/>
				<path class="st1" d="M198.61,304.8c3.12,6.31,7.46,11.52,13.58,11.48c7.98-0.04,14.22-4.53,16.51-8.18
					c0.23,4.37-1.06,6.34-1.91,8.09c-0.87,1.75-2.15,4.16-0.4,7.2c1.76,3.05,0.91,7.42,0.06,10.04c-0.85,2.63-3.21,9.18-13.45,9.25
					c-10.24,0.06-23.75,0.13-29.64-2.23c-3.55-1.42-5.04-0.49-4.84-8.69c0.17-7.43,1.23-11.8,1.86-14.64
					c0.64-2.85,1.29-4.15,5.65-4.17c4.36-0.02,3.91,0.19,5.65-0.05c1.75-0.22,2.18-0.88,2.16-3.06c-0.01-2.19,0.4-6.33,1.91-8.74
					c1.51-2.4,1.95-1.54,2.18-0.23C198.16,302.19,198.61,304.8,198.61,304.8z"/>
				<path class="st1" d="M213.04,277.67c-1.05,4.58-3.83,14.85-7.5,19.46c-1.34-5.66-2.69-11.76-2.71-13.95
					c0-2.18-2.19-3.26,5.84-6.8C215.2,273.51,213.04,277.67,213.04,277.67z"/>
				<path class="st1" d="M127.8,301.74c3.56-5.47,25.56-23.06,28.17-24.16c0,0,3.69-2.21,6.95-3.1c6.52-1.79,6.55,2.14,4.17,4.55
					c-7.61,3.1-19.04,10.66-27.13,16.52c-6.07,4.41-15.16,14.05-18.19,17.57c-1.63,0.44-4.47,0.1-2.09-2.61
					C123.15,306.58,127.54,302.15,127.8,301.74z"/>
				<path class="st1" d="M104.26,291.14c17.55-15.15,30.98-19.33,44.24-23.55c6.75-1.36,12.52-2.7,13.95,0.79
					c0.88,2.18,0.45,3.27-1.72,3.5c-9.37,0.5-25.46,4.13-41.31,13.56c-6.29,3.74-14.1,9.9-16.75,12.54
					c-1.72,1.71-6.74,0.28-2.96-2.82C103.57,291.99,104.26,291.14,104.26,291.14z"/>
				<path class="st1" d="M100.17,270.49c14.76-7.72,25.86-10.19,36.52-12.65c0,0,14.14-2.49,20.25-0.78c5.05,6.3,1.99,5.66-1.93,5.9
					c-13.28-0.14-26.77,2.56-38.94,6.56c-12.18,4-26.72,11.3-31.51,13.5c-1.69,0.77-3.37,0.67-2.79-1.13
					c0.54-1.67,3.74-3.52,5.04-4.17C88.12,277.05,100.17,270.49,100.17,270.49z"/>
			</g>
			<path class="st1" d="M274.38,341.35c-4.05,0.01-7-3.13-7.02-7.2c0-4.02,2.93-7.18,6.98-7.19c4.02-0.01,6.96,3.14,6.96,7.15
				C281.32,338.18,278.4,341.34,274.38,341.35z M274.39,342.45c4.57-0.01,8.24-3.76,8.23-8.35c-0.01-4.55-3.71-8.26-8.27-8.25
				c-4.59,0.01-8.29,3.74-8.28,8.29C266.08,338.74,269.8,342.46,274.39,342.45z M275.69,334.49c1.64-0.04,2.91-0.72,2.9-2.54
				c0-1.53-0.84-2.45-3.29-2.45l-4.04,0.01l0.02,9.26h1.13l-0.01-4.27l2.09-0.01l2.65,4.26l1.36-0.01L275.69,334.49z M272.41,333.62
				l-0.01-3.29l2.66-0.01c1.12,0,2.31,0.18,2.31,1.63c0.01,1.88-1.92,1.66-3.23,1.67H272.41z"/>
		</g>
	</g>
</g>
<g id="Layer_2_1_" class="st2">
	<rect x="15.79" y="21.01" class="st3" width="384.21" height="384.03"/>
	<g class="st4">
		<rect x="81.56" y="82.84" class="st5" width="251.7" height="260.36"/>
		<g>
			<polygon class="st6" points="353.95,166.89 333.2,166.89 333.32,146.14 354.07,146.14 			"/>
			<polygon class="st6" points="395.41,166.92 374.66,166.92 374.79,146.17 395.53,146.17 			"/>
			<polygon class="st6" points="374.68,166.93 353.93,166.93 354.05,146.18 374.81,146.18 			"/>
		</g>
		<g>
			<polygon class="st6" points="118.6,62.78 118.6,83.53 97.85,83.41 97.85,62.66 			"/>
			<polygon class="st6" points="118.63,21.32 118.63,42.07 97.87,41.93 97.87,21.19 			"/>
			<polygon class="st6" points="118.63,42.04 118.63,62.79 97.89,62.67 97.89,41.92 			"/>
		</g>
		<g>
			<polygon class="st6" points="60.63,260.06 81.38,260.06 81.25,280.81 60.5,280.81 			"/>
			<polygon class="st6" points="19.16,260.04 39.91,260.04 39.78,280.79 19.04,280.79 			"/>
			<polygon class="st6" points="39.89,260.03 60.64,260.03 60.52,280.77 39.76,280.77 			"/>
		</g>
		<g>
			<polygon class="st6" points="220.56,384.8 220.56,405.55 199.81,405.43 199.81,384.67 			"/>
			<polygon class="st6" points="220.59,343.34 220.59,364.09 199.84,363.95 199.84,343.21 			"/>
			<polygon class="st6" points="220.6,364.06 220.6,384.81 199.85,384.69 199.85,363.94 			"/>
		</g>
	</g>
</g>
</svg>
