<?xml version="1.0" encoding="utf-8"?>
<!-- Generator: Adobe Illustrator 25.2.0, SVG Export Plug-In . SVG Version: 6.00 Build 0)  -->
<svg version="1.0" id="Layer_1" xmlns="http://www.w3.org/2000/svg" xmlns:xlink="http://www.w3.org/1999/xlink" x="0px" y="0px"
	 width="715.55px" height="245.62px" viewBox="0 0 715.55 245.62" style="enable-background:new 0 0 715.55 245.62;"
	 xml:space="preserve">
<style type="text/css">
	.st0{display:none;}
	.st1{display:inline;fill:#FFFFFF;}
	.st2{fill:#FFFFFF;}
</style>
<g id="Layer_1_1_" class="st0">
	<rect x="238.1" y="-410.12" class="st1" width="937.36" height="402"/>
</g>
<g id="Isolation_Mode">
	<g>
		<path class="st2" d="M347.48,228.82c-0.49,2.31-0.9,3.77-1.23,4.39c-0.33,0.62-0.85,0.93-1.55,0.93c-0.69,0-1.07-0.27-1.14-0.8
			c-0.08-0.54,0.14-1.95,0.62-4.23l3.91-18.36c0.43-2.03,0.83-3.24,1.21-3.65c0.37-0.42,0.83-0.62,1.37-0.62
			c0.64,0,1,0.25,1.09,0.76c0.1,0.51-0.04,1.68-0.44,3.51L347.48,228.82 M360.31,216.93c0.87-4.05,1.37-6.9,1.52-8.52
			c0.14-1.62-0.15-3.12-0.88-4.49c-0.74-1.38-1.87-2.41-3.41-3.1c-1.54-0.7-3.38-1.04-5.5-1.04c-2.23,0-4.26,0.37-6.1,1.1
			c-1.83,0.73-3.39,1.77-4.67,3.14c-1.28,1.36-2.19,2.86-2.72,4.51c-0.54,1.65-1.23,4.45-2.07,8.41l-1.43,6.74
			c-0.87,4.06-1.37,6.9-1.53,8.52c-0.14,1.62,0.15,3.12,0.88,4.5c0.74,1.38,1.88,2.41,3.42,3.09c1.54,0.7,3.37,1.04,5.49,1.04
			c2.24,0,4.27-0.37,6.1-1.1c1.84-0.72,3.4-1.78,4.67-3.14c1.27-1.36,2.18-2.86,2.72-4.51c0.54-1.64,1.23-4.45,2.07-8.41
			L360.31,216.93z"/>
		<path class="st2" d="M375.81,207.68L375,210.7c0.97-1.2,2.03-2.1,3.2-2.7c1.16-0.6,2.42-0.89,3.77-0.89
			c1.69,0,2.99,0.39,3.89,1.19c0.91,0.8,1.38,1.8,1.44,3.01c0.05,1.21-0.22,3.22-0.83,6.05l-4.82,22.66h-9.9l4.76-22.35
			c0.47-2.22,0.69-3.58,0.64-4.07c-0.04-0.48-0.39-0.73-1.05-0.73c-0.7,0-1.19,0.28-1.49,0.85c-0.29,0.56-0.71,2.05-1.22,4.48
			l-4.65,21.82h-9.88l6.88-32.34L375.81,207.68"/>
		<path class="st2" d="M398.98,219.12l0.5-2.33c0.38-1.79,0.7-2.89,0.95-3.3c0.25-0.41,0.71-0.62,1.4-0.62
			c0.55,0,0.87,0.25,0.95,0.72c0.08,0.48-0.06,1.54-0.41,3.19l-0.5,2.33L398.98,219.12 M411.54,220.14
			c0.67-3.13,0.82-5.56,0.46-7.29s-1.32-3.12-2.9-4.17c-1.57-1.05-3.75-1.57-6.52-1.57c-2.26,0-4.36,0.43-6.29,1.29
			c-1.94,0.87-3.45,2.12-4.57,3.76c-1.11,1.63-1.97,3.86-2.57,6.69l-2.01,9.43c-0.51,2.4-0.73,4.23-0.65,5.49
			c0.08,1.27,0.44,2.41,1.11,3.47c0.66,1.04,1.73,1.87,3.2,2.47s3.25,0.89,5.33,0.89c2.15,0,4.01-0.3,5.56-0.91
			c1.56-0.62,2.93-1.53,4.12-2.74c1.18-1.22,2.02-2.36,2.5-3.44c0.48-1.07,0.93-2.61,1.36-4.61l0.51-2.39h-9.37l-0.9,4.24
			c-0.34,1.6-0.7,2.67-1.06,3.23c-0.38,0.56-0.93,0.83-1.68,0.83c-0.61,0-0.97-0.2-1.09-0.62c-0.12-0.42-0.03-1.35,0.28-2.81
			l1.48-6.96h12.78L411.54,220.14z"/>
		<polygon class="st2" points="448.67,200.58 446.99,208.49 440.92,208.49 434.2,240.02 423.91,240.02 430.62,208.49 424.55,208.49 
			426.23,200.58 		"/>
		<path class="st2" d="M455.63,231.48c-0.3,1.39-0.59,2.3-0.87,2.71c-0.28,0.42-0.71,0.63-1.3,0.63c-0.57,0-0.9-0.24-1-0.69
			c-0.09-0.47,0.02-1.46,0.34-2.98l3.09-14.52c0.35-1.66,0.67-2.69,0.96-3.12c0.29-0.44,0.73-0.65,1.32-0.65s0.92,0.21,1.01,0.65
			c0.09,0.43-0.04,1.46-0.4,3.12L455.63,231.48 M468.78,213.93c-0.08-1.12-0.44-2.21-1.08-3.26c-0.64-1.06-1.68-1.91-3.14-2.57
			c-1.45-0.66-3.29-0.99-5.5-0.99c-2.65,0-4.92,0.52-6.84,1.54c-1.91,1.02-3.38,2.38-4.39,4.06c-1.01,1.69-1.84,4.04-2.48,7.04
			l-1.76,8.28c-0.59,2.75-0.84,4.81-0.78,6.18c0.07,1.37,0.42,2.54,1.05,3.51c0.64,0.97,1.66,1.69,3.08,2.16
			c1.41,0.48,3.21,0.72,5.4,0.72c1.96,0,3.75-0.29,5.38-0.84c1.63-0.56,3.06-1.43,4.27-2.6c1.21-1.18,2.11-2.45,2.69-3.8
			c0.59-1.36,1.19-3.49,1.8-6.39l1.69-7.92C468.65,216.75,468.85,215.05,468.78,213.93"/>
		<path class="st2" d="M496.36,207.68l-6.89,32.34h-10.06l0.75-2.72c-0.91,1.1-1.94,1.93-3.06,2.48c-1.12,0.55-2.34,0.82-3.64,0.82
			c-1.49,0-2.67-0.26-3.53-0.77c-0.87-0.53-1.45-1.21-1.72-2.07c-0.29-0.86-0.38-1.76-0.3-2.69s0.43-2.79,1.01-5.57l4.65-21.81h9.89
			l-4.68,21.96c-0.53,2.51-0.77,4-0.72,4.47c0.05,0.48,0.43,0.71,1.12,0.71c0.73,0,1.21-0.24,1.46-0.72
			c0.24-0.48,0.65-2.05,1.21-4.7l4.62-21.71h9.89"/>
		<path class="st2" d="M508.45,226.26c-0.39,1.82-0.73,3-1.04,3.51c-0.31,0.52-0.79,0.78-1.43,0.78c-0.57,0-0.9-0.21-0.99-0.65
			c-0.09-0.43,0.02-1.36,0.33-2.8l2.3-10.81c0.29-1.35,0.6-2.26,0.93-2.72c0.34-0.46,0.79-0.7,1.35-0.7c0.59,0,0.93,0.21,1.01,0.62
			c0.08,0.4-0.03,1.34-0.34,2.8L508.45,226.26 M513.09,207.68l-1.22,2.48c-0.58-1.02-1.33-1.79-2.24-2.3
			c-0.92-0.5-1.99-0.75-3.23-0.75c-2.26,0-4.09,0.67-5.49,2.02c-1.4,1.35-2.42,3.56-3.07,6.62l-2.5,11.74
			c-0.46,2.14-0.6,3.8-0.42,4.95c0.18,1.16,0.76,2.1,1.76,2.81c0.99,0.71,2.39,1.07,4.17,1.07c1.02,0,2.05-0.2,3.07-0.59
			c1.02-0.39,2.04-0.98,3.05-1.75l-0.52,2.43c-0.3,1.4-0.62,2.32-0.95,2.76c-0.34,0.44-0.88,0.67-1.63,0.67
			c-1.04,0-1.4-0.71-1.11-2.13h-9.59c-0.61,3.13-0.07,5.23,1.61,6.3c1.68,1.07,4.09,1.61,7.24,1.61c2.56,0,4.74-0.29,6.55-0.86
			c1.81-0.58,3.3-1.42,4.47-2.52c1.19-1.09,1.95-2.13,2.32-3.12c0.36-0.98,0.91-3.16,1.62-6.52l5.3-24.92L513.09,207.68
			L513.09,207.68z"/>
		<path class="st2" d="M537.17,200.58l-1.89,8.9c1.01-0.8,2.06-1.39,3.13-1.78c1.07-0.4,2.17-0.6,3.29-0.6
			c1.72,0,3.11,0.44,4.13,1.32c1.03,0.88,1.56,1.89,1.58,3.04c0.03,1.14-0.28,3.23-0.93,6.27l-4.74,22.3h-9.89l4.84-22.71
			c0.4-1.88,0.56-3.09,0.49-3.62c-0.07-0.54-0.43-0.81-1.08-0.81c-0.6,0-1.06,0.28-1.39,0.83s-0.67,1.65-1.02,3.28l-4.9,23.04h-9.9
			l8.4-39.44h9.88"/>
		<path class="st2" d="M567.45,225.87c1.01-3.44,2.82-8.95,5.42-16.53c-0.87,6.6-1.53,12.11-1.97,16.53H567.45 M566.85,200.58
			l-13.61,39.44h10.68l2.07-7.11h3.71l-0.95,7.11h10.48l2.51-39.44H566.85z"/>
		<path class="st2" d="M599.5,207.68l-0.82,3.02c0.97-1.2,2.04-2.1,3.21-2.7c1.15-0.6,2.41-0.89,3.76-0.89c1.7,0,2.99,0.39,3.9,1.19
			c0.91,0.8,1.38,1.8,1.44,3.01c0.05,1.21-0.23,3.22-0.83,6.05l-4.82,22.66h-9.89l4.75-22.35c0.48-2.22,0.69-3.58,0.65-4.07
			c-0.04-0.48-0.39-0.73-1.05-0.73c-0.7,0-1.2,0.28-1.49,0.85c-0.29,0.56-0.71,2.05-1.22,4.48l-4.64,21.82h-9.89l6.89-32.34
			L599.5,207.68"/>
		<path class="st2" d="M627.32,200.58l-1.1,5.13h-10.17l1.09-5.13H627.32z M625.81,207.68l-6.88,32.34h-10.18l6.88-32.34H625.81z"/>
		<path class="st2" d="M639.96,207.68l-0.84,3.12c1.03-1.23,2.14-2.15,3.33-2.77s2.46-0.92,3.81-0.92c2.64,0,4.45,1.22,5.44,3.69
			c1.08-1.23,2.21-2.15,3.39-2.77c1.17-0.62,2.39-0.92,3.65-0.92c1.67,0,2.97,0.4,3.89,1.21c0.92,0.81,1.41,1.8,1.48,2.98
			c0.05,1.17-0.2,3.09-0.76,5.73l-4.89,22.98h-9.6l4.48-21.04c0.58-2.76,0.85-4.46,0.81-5.11c-0.04-0.66-0.4-0.99-1.07-0.99
			c-0.69,0-1.2,0.33-1.53,0.98c-0.34,0.65-0.8,2.35-1.4,5.12l-4.48,21.04h-9.6l4.36-20.5c0.67-3.17,1-5.06,0.98-5.69
			s-0.37-0.95-1.07-0.95c-0.44,0-0.85,0.17-1.23,0.5c-0.37,0.33-0.64,0.74-0.77,1.22c-0.13,0.47-0.37,1.48-0.7,3.05l-4.76,22.37
			h-9.6l6.89-32.34L639.96,207.68"/>
		<path class="st2" d="M676.59,231.27c-0.34,1.61-0.64,2.61-0.91,2.99c-0.27,0.38-0.71,0.57-1.33,0.57c-0.65,0-1.03-0.25-1.15-0.73
			s0.01-1.56,0.36-3.22c0.31-1.45,0.67-2.57,1.09-3.34c0.42-0.78,1.54-1.74,3.36-2.89L676.59,231.27 M676.54,216.85
			c0.38-1.79,0.69-2.89,0.95-3.33c0.25-0.42,0.72-0.64,1.38-0.64c0.59,0,0.95,0.25,1.1,0.77c0.14,0.51,0.04,1.6-0.32,3.28
			c-0.29,1.34-0.59,2.22-0.91,2.66c-0.32,0.44-2.23,1.29-5.74,2.56c-3.28,1.17-5.39,2.19-6.34,3.07s-1.68,2.53-2.2,4.95l-0.56,2.65
			c-0.7,3.28-0.43,5.38,0.81,6.35c1.24,0.96,2.73,1.45,4.45,1.45c1.32,0,2.52-0.29,3.6-0.88c1.08-0.58,2.04-1.45,2.9-2.62
			l-0.63,2.93h9.6l3.46-16.23c1.13-5.35,1.71-8.88,1.74-10.59c0.02-1.71-0.69-3.16-2.13-4.33c-1.44-1.18-3.84-1.77-7.17-1.77
			c-2.79,0-5.17,0.52-7.13,1.56s-3.38,2.24-4.25,3.6c-0.86,1.35-1.56,3.28-2.1,5.78l-0.46,2.17h9.25L676.54,216.85z"/>
		<polygon class="st2" points="707.49,200.58 699.1,240.02 688.92,240.02 697.31,200.58 		"/>
		<polygon class="st2" points="702.36,232.67 707.69,232.67 707.69,233.25 705.37,233.25 705.37,240 704.68,240 704.68,233.25 
			702.36,233.25 		"/>
		<polygon class="st2" points="708.65,240 708.65,232.67 709.71,232.67 712.12,239.14 712.14,239.14 714.5,232.67 715.55,232.67 
			715.55,240 714.86,240 714.86,233.46 714.84,233.46 712.43,240 711.78,240 709.37,233.46 709.35,233.46 709.35,240 		"/>
		<path class="st2" d="M226.28,83.43h-6.3V59.26c7.42,0,13.71-0.28,13.71,8.52C233.69,75.05,234.25,83.43,226.28,83.43
			 M193.86,150.77h39.69c28.08,0,28.08-26.55,28.08-35.77c0-1.4,0-18.44-14.24-22.91c12.57-7.26,11.45-22.22,11.45-29.34
			c0-0.84,0-23.2-24.88-23.2h-40.11v111.22 M219.98,130.93v-28.5c10.35,0.41,14.97,0.14,14.97,13.26
			C234.94,131.34,231.3,130.93,219.98,130.93"/>
		<path class="st2" d="M296.71,77.28c4.61,0,4.61,6.15,4.61,8.25v41.2c0,2.38,0.28,8.24-4.61,8.24c-5.17,0-5.17-5.86-5.17-7.96
			V85.24C291.54,83.43,291.54,77.28,296.71,77.28 M297.14,153c28.91,0,28.91-23.48,28.91-25.98v-36.6c0-8.94,0-29.76-28.91-29.76
			c-29.91,0-29.91,20.82-29.91,26.13v40.23C267.23,131.34,267.23,153,297.14,153"/>
		<path class="st2" d="M534.07,62.89h5.03V44.58h24.3v18.31h6.43v18.02h-6.43v44.28c0,8.81,1.26,8.26,6.71,8.66l0.14,17.2
			c-2.66,1.4-9.37,1.4-12.58,1.4c-6.85,0-18.58-1.68-18.58-18.18V80.91h-5.03V62.89H534.07z"/>
		<path class="st2" d="M364.82,79.65c3.91,0,3.91,5.03,3.91,7.28v39.94c0,5.31-1.25,7.55-3.64,7.55c-3.2,0-6.13-3.35-6.13-11.88
			V90.28C358.96,86.65,360.49,79.65,364.82,79.65 M334.51,150.77h24.04v-8.1c1.53,3.21,6.97,10.2,17.17,10.34
			c17.88-0.14,18.03-18.03,18.03-28.65V83.57c0-4.75,0-22.92-17.89-22.92c-8.66,0-14.39,7.27-17.04,11.6v-32.7h-24.3v111.22H334.51z
			"/>
		<path class="st2" d="M460.59,96h-24.03V84.54c0,0,0-6.85-5.04-6.85c-4.88,0-4.88,6.57-4.88,11.59v35.2c0,5.59,0,11.46,4.88,11.46
			c5.04,0,5.04-5.03,5.04-11.46v-11.59h24.03c-0.27,18.86,2.52,40.1-29.2,40.1c-29.35,0-29.62-22.92-29.62-32.14V91.11
			c0-8.66,0-30.45,29.76-30.45C458.5,60.65,460.87,75.46,460.59,96"/>
		<path class="st2" d="M492.68,118.62c0-6.91,5.38-8.91,10.14-12.29v15.21c0,7.83-0.61,11.22-5.68,11.22c-2.31,0-4.46-1.53-4.46-4.6
			V118.62 M502.82,150.77h24.31V85.74c0-17.69-14.77-23.99-29.37-23.99c-14.62,0-29.37,6.3-29.37,23.99v6.17h24.29V84.2
			c0-3.54,1.07-6.46,5.08-6.46c3.99,0,5.06,2.93,5.06,6.46c0,16.29-34.43,13.53-34.43,36.58v13.07c0,11.53,6.45,17.99,17.05,17.99
			c9.7,0,14.16-5.07,17.08-11.38h0.3V150.77z"/>
		<path class="st2" d="M7.42,0C13.27,11.59,16.11,18.86,29,26.35s14.81,6.38,16.18,6.92s2.06,2.19,2.07,3.14
			c2.87-0.01,13.7-1.54,18.75-1.16c5.2,0.39,16.91,2.07,25.07,4.57c5.76,1.76,13.16,4.47,14.26,4.88c1.09,0.41,3.15,1.22,4.52-0.43
			c1.36-1.65-0.28-2.19,7.37-5.23c7.66-3.04,15.17-6.9,17.63-8.14c2.46-1.24,11.62-6.2,20.75-15c1.09-1.1,1.37-1.51,1.92-0.96
			c0.55,0.55,0.14,1.23-0.13,1.78c-2.31,6.44-8.29,17.96-10.06,20.84s-11.18,13.32-12.55,14.56c-1.36,1.24-6.55,5.63-6.55,5.63
			s-4.64,3.71-0.39,6.71c4.25,3,2.48,6.15-0.66,8.35c-3.14,2.2-10.92,7.43-17.77,6.63c-6.85-0.8-4.79,0.02-8.9-2.02
			c-1.37-0.68-3.43-0.67-2.6,0.56c0.83,1.23,0.42,1.64,0.42,1.64c-1.22,4.8-1.33,12.05-0.64,14.65c0.69,2.6,1.52,4.65,2.89,6.28
			c0.55,0.68,1.42,1.23-0.54,1.24c-1.64,0-2.19-0.54-3.29-1.36c-1.92-0.26-6.85-1.07-9.03,0.58c-2.19,1.65-0.68,1.23-5.06,2.07
			c-1.37,0.69-2.32,1.79-0.26,4.1c2.09,2.36,3.75,3.74,4.53,4.36c0.69,0.55,3.7,1.08-0.26,3.56c-3.96,2.48-8.19,5.64-17.92,4.85
			c-9.72-0.79-13.71-5.83-15.64-9.52s-1.25-5.19-8.09-5.17s-18.6,2.21-22.17,2.68c-6.43,0.84-5.36,2.07-9.86-1.75
			c-6.59-5.58-10.3-9.13-11.12-9.95c-0.83-0.82-2.61-1.5-1.11-5.06c1.49-3.56,4.07-9.87,10.89-18.24
			c6.82-8.37,8.22-10.01,10.37-11.67c5.32-4.13,2.99-4.39,8.35-0.17c4.43,3.5,8.79,7.09,11.94,8.59c3.15,1.49,3.7,1.9,5.77,6.82
			c2.07,4.92,4.41,8.61,5.1,9.98s5.5,5.7,9.46,5.85c6.57,0.25,12.05,0.65,16-4.29c1.77-4.53,2.71-7.81,5.17-10.42
			c0.96-0.83,1.64-1.92,0.13-1.92s-9.86-0.51-12.6-1.19c-2.74-0.67-24.67-7.31-27.54-8.67c-2.88-1.36-16.04-6.38-22.91-15.39
			c-6.88-9.01-7.71-12.02-11.03-24.06C7.35,16.7,7.29-0.27,7.42,0"/>
		<path class="st2" d="M131.16,75.82c-0.07,2.38-0.03,20.98,4.34,26.4c1.23,0.95,1.79,2.18,0.69,2.32c-1.09,0.14-9.17-0.11-9.99-0.1
			c-0.82,0-2.24-0.27-2.05,2.19c0.23,2.98-0.47,8.86-5.44,10.83c-4.68,1.86-9.31,3.89-18.21-1.03c-3.02-2.18-3.57-2.86-3.84-3.27
			c-0.27-0.41-0.55-0.82,0-1.5c0.54-0.69,5.86-6.04,6.81-8.23s0.54-2.47-0.15-3.83c0.47,0.94-3.54-5.17-0.02-4.65
			c2.74,0.4,8.63,2.02,13.14,0.09c4.51-1.93,9.02-4,10.77-14c0.12-3.7,0.12-4.52,1.9-6.03C130.2,73.63,131.29,71.58,131.16,75.82"/>
		<path class="st2" d="M139.5,109.59c4.66,2.32,12.34,6.8,14.14,10.9c0.69,1.23,1.11,3.41-1.23,0.96c-2.33-2.46-6.6-8.05-18.24-10.2
			c-3.19-0.12-7.39,0.16-6.85-2.71c0.31-1.31-0.22-2.73,4.51-1.52C136.07,108.1,139.5,109.59,139.5,109.59"/>
		<path class="st2" d="M135.68,115.49c5.55,2.75,9.47,6.81,10.16,7.9s1.24,1.64,0.42,2.19c-0.82,0.55-1.23,0.14-2.19-0.81
			c-0.96-0.96-6.87-5.87-17.01-8.43c-1.78-0.54-2.6-1.22-0.97-2.59c1.64-1.37,1.78-0.96,3.42-0.42
			C131.16,113.87,135.41,115.36,135.68,115.49"/>
		<path class="st2" d="M131.33,123.17c3.43,2.45,7.28,6.82,8.1,7.77c0.82,0.96,0.69,0.96-0.68,0.83c-1.37-0.14-3.3-2.87-5.22-3.95
			c-1.92-1.09-8.78-5.45-10.43-5.99c-1.64-0.54-2.33-0.81-1.24-2.18s1.09-1.24,2.33-0.69C125.43,119.49,131.33,123.17,131.33,123.17
			"/>
		<path class="st2" d="M103.26,120.94c0.82,0.55,2.6,1.09,1.38,4.24c-1.22,3.15-2.04,5.07-5.72,7.68c-1.37,0.96-5.33,3.58-1.78-1.36
			c1.63-3.43,2.44-5.21,2.43-9.59c0-1.51-0.14-2.19,2.05-1.93C102.3,120.4,103.26,120.94,103.26,120.94"/>
		<path class="st2" d="M73.48,139.11c1.95,3.96,4.67,7.23,8.52,7.22c5.01-0.01,8.94-2.81,10.38-5.1c0.15,2.73-0.67,3.97-1.21,5.07
			c-0.54,1.09-1.36,2.61-0.26,4.51c1.1,1.91,0.56,4.66,0.02,6.3c-0.54,1.65-2.03,5.76-8.47,5.78c-6.43,0.02-14.92,0.05-18.62-1.44
			c-2.22-0.9-3.16-0.32-3.03-5.46c0.12-4.66,0.8-7.4,1.2-9.18s0.81-2.6,3.55-2.62c2.74-0.01,2.46,0.13,3.56-0.01
			c1.09-0.14,1.37-0.55,1.36-1.92c0-1.37,0.26-3.97,1.21-5.48c0.95-1.51,1.23-0.96,1.37-0.14C73.2,137.47,73.48,139.11,73.48,139.11
			"/>
		<path class="st2" d="M82.59,122.11c-0.67,2.88-2.43,9.32-4.75,12.2c-0.83-3.56-1.67-7.38-1.67-8.76c0-1.37-1.38-2.04,3.68-4.25
			C83.95,119.5,82.59,122.11,82.59,122.11"/>
		<path class="st2" d="M28.98,137.08c2.25-3.43,16.1-14.43,17.75-15.12c0,0,2.32-1.37,4.37-1.93c4.1-1.11,4.11,1.35,2.61,2.87
			c-4.79,1.93-11.98,6.66-17.08,10.32c-3.82,2.75-9.55,8.79-11.46,10.99c-1.03,0.28-2.8,0.06-1.31-1.64
			C26.05,140.1,28.81,137.33,28.98,137.08"/>
		<path class="st2" d="M14.21,130.39c11.06-9.49,19.5-12.08,27.84-14.71c4.24-0.83,7.88-1.67,8.76,0.52
			c0.55,1.37,0.28,2.05-1.09,2.19c-5.89,0.29-16.01,2.55-25.98,8.44c-3.96,2.34-8.88,6.19-10.55,7.84
			c-1.09,1.07-4.24,0.16-1.85-1.78C13.77,130.92,14.21,130.39,14.21,130.39"/>
		<path class="st2" d="M11.66,117.43c9.29-4.82,16.27-6.35,22.97-7.88c0,0,8.89-1.54,12.73-0.45c3.16,3.96,1.25,3.56-1.22,3.7
			c-8.35-0.11-16.83,1.57-24.49,4.06c-7.66,2.49-16.81,7.04-19.82,8.42c-1.06,0.48-2.12,0.42-1.75-0.72
			c0.35-1.04,2.35-2.2,3.17-2.61C4.08,121.52,11.66,117.43,11.66,117.43"/>
		<path class="st2" d="M592.62,149.88c-4.93,0-8.53-3.84-8.53-8.79c0-4.91,3.6-8.75,8.53-8.75c4.9,0,8.47,3.84,8.47,8.75
			C601.09,146.04,597.52,149.88,592.62,149.88 M592.62,151.21c5.57,0,10.07-4.53,10.07-10.12c0-5.54-4.5-10.07-10.07-10.07
			c-5.6,0-10.12,4.53-10.12,10.07C582.49,146.68,587.02,151.21,592.62,151.21 M594.24,141.53c2-0.05,3.54-0.88,3.54-3.09
			c0-1.86-1.01-2.98-4-2.98h-4.93v11.27h1.39v-5.2h2.53l3.23,5.2h1.65L594.24,141.53z M590.24,140.45v-4h3.22
			c1.39,0,2.83,0.21,2.83,1.97c0,2.29-2.34,2.03-3.94,2.03H590.24z"/>
	</g>
</g>
</svg>
