<?xml version="1.0" encoding="utf-8"?>
<!-- Generator: Adobe Illustrator 27.9.0, SVG Export Plug-In . SVG Version: 6.00 Build 0)  -->
<svg version="1.1" xmlns="http://www.w3.org/2000/svg" xmlns:xlink="http://www.w3.org/1999/xlink" x="0px" y="0px"
	 viewBox="0 0 938 402" style="enable-background:new 0 0 938 402;" xml:space="preserve">
<style type="text/css">
	.st0{fill:#EF4123;}
	.st1{fill:#FFFFFF;}
</style>
<g id="Layer_2">
	<rect x="0.64" y="0" class="st0" width="937.36" height="402"/>
</g>
<g id="Layer_1">
	<g>
		<g>
			<g>
				<path class="st1" d="M458.61,311.43c-0.55,2.57-1,4.19-1.37,4.88c-0.36,0.69-0.94,1.03-1.72,1.03c-0.77,0-1.18-0.3-1.27-0.88
					c-0.09-0.6,0.15-2.17,0.68-4.71l4.35-20.4c0.47-2.25,0.92-3.6,1.34-4.06c0.41-0.47,0.92-0.69,1.53-0.69
					c0.71,0,1.11,0.28,1.22,0.85c0.11,0.56-0.05,1.87-0.49,3.9L458.61,311.43 M472.87,298.22c0.96-4.5,1.52-7.67,1.69-9.47
					c0.16-1.8-0.16-3.46-0.97-4.99c-0.82-1.53-2.08-2.68-3.79-3.45c-1.71-0.78-3.75-1.16-6.11-1.16c-2.48,0-4.74,0.41-6.78,1.22
					c-2.04,0.81-3.77,1.97-5.19,3.49c-1.42,1.51-2.43,3.18-3.03,5.01c-0.6,1.83-1.36,4.94-2.3,9.35l-1.59,7.49
					c-0.96,4.51-1.53,7.66-1.7,9.47c-0.16,1.8,0.16,3.46,0.98,5c0.82,1.53,2.08,2.68,3.8,3.44c1.71,0.78,3.75,1.16,6.1,1.16
					c2.48,0,4.75-0.41,6.78-1.22c2.04-0.8,3.77-1.98,5.19-3.49c1.42-1.51,2.42-3.18,3.03-5.01c0.6-1.82,1.37-4.94,2.3-9.34
					L472.87,298.22z"/>
			</g>
			<g>
				<path class="st1" d="M490.09,287.95l-0.9,3.36c1.07-1.33,2.26-2.33,3.55-3c1.29-0.67,2.69-0.99,4.19-0.99
					c1.88,0,3.32,0.44,4.33,1.32c1.01,0.88,1.54,2,1.6,3.35c0.05,1.35-0.25,3.58-0.92,6.73l-5.35,25.17h-11l5.29-24.83
					c0.53-2.47,0.76-3.98,0.71-4.52c-0.04-0.54-0.43-0.81-1.17-0.81c-0.78,0-1.33,0.31-1.66,0.94c-0.33,0.62-0.79,2.28-1.36,4.98
					l-5.16,24.25h-10.98l7.65-35.93H490.09"/>
				<path class="st1" d="M515.83,300.66l0.55-2.59c0.42-1.99,0.78-3.21,1.05-3.67c0.28-0.46,0.79-0.68,1.56-0.68
					c0.62,0,0.97,0.27,1.06,0.8c0.09,0.54-0.07,1.71-0.46,3.55l-0.55,2.59H515.83 M529.79,301.79c0.74-3.48,0.91-6.18,0.51-8.1
					c-0.4-1.92-1.47-3.46-3.23-4.63c-1.75-1.17-4.17-1.74-7.25-1.74c-2.51,0-4.85,0.48-6.99,1.44c-2.15,0.97-3.84,2.36-5.08,4.18
					c-1.24,1.81-2.19,4.29-2.85,7.43l-2.23,10.47c-0.57,2.67-0.81,4.71-0.72,6.1c0.08,1.4,0.49,2.68,1.24,3.86
					c0.74,1.15,1.92,2.08,3.56,2.74c1.64,0.67,3.61,1,5.93,1c2.39,0,4.45-0.34,6.18-1.01c1.73-0.69,3.25-1.7,4.58-3.05
					c1.32-1.36,2.25-2.62,2.78-3.82c0.53-1.19,1.04-2.9,1.51-5.12l0.57-2.65h-10.41l-1,4.71c-0.38,1.78-0.78,2.97-1.18,3.59
					c-0.42,0.63-1.03,0.93-1.86,0.93c-0.67,0-1.07-0.23-1.21-0.69c-0.13-0.47-0.03-1.5,0.31-3.12l1.65-7.73h14.2L529.79,301.79z"/>
				<polygon class="st1" points="571.04,280.06 569.17,288.84 562.43,288.84 554.97,323.88 543.53,323.88 550.99,288.84 
					544.24,288.84 546.11,280.06 				"/>
				<path class="st1" d="M578.77,314.39c-0.33,1.54-0.65,2.55-0.97,3.02c-0.3,0.46-0.78,0.7-1.44,0.7c-0.63,0-1-0.26-1.12-0.77
					c-0.11-0.52,0.02-1.62,0.38-3.31l3.44-16.13c0.39-1.84,0.75-2.99,1.06-3.46c0.32-0.48,0.81-0.72,1.46-0.72
					c0.65,0,1.02,0.24,1.13,0.72c0.09,0.47-0.05,1.62-0.44,3.46L578.77,314.39 M593.38,294.89c-0.09-1.25-0.49-2.45-1.2-3.63
					c-0.71-1.18-1.87-2.12-3.49-2.85c-1.61-0.73-3.65-1.1-6.12-1.1c-2.94,0-5.47,0.57-7.6,1.71c-2.12,1.13-3.75,2.64-4.88,4.51
					c-1.13,1.88-2.05,4.48-2.75,7.82l-1.96,9.2c-0.65,3.05-0.94,5.34-0.87,6.86c0.08,1.52,0.46,2.83,1.17,3.9
					c0.71,1.08,1.85,1.88,3.42,2.4c1.57,0.53,3.57,0.8,6,0.8c2.18,0,4.17-0.32,5.97-0.94c1.81-0.62,3.4-1.59,4.74-2.89
					c1.35-1.31,2.35-2.72,2.99-4.23c0.65-1.51,1.32-3.88,2-7.1l1.87-8.8C593.25,298.02,593.47,296.14,593.38,294.89"/>
				<path class="st1" d="M624.03,287.95l-7.65,35.93H605.2l0.83-3.03c-1.01,1.22-2.16,2.14-3.4,2.75c-1.25,0.61-2.6,0.91-4.04,0.91
					c-1.66,0-2.96-0.29-3.92-0.86c-0.96-0.58-1.6-1.35-1.92-2.3c-0.32-0.96-0.43-1.95-0.33-2.99c0.09-1.04,0.47-3.1,1.12-6.19
					l5.16-24.23h10.99l-5.2,24.4c-0.59,2.79-0.86,4.45-0.8,4.97c0.06,0.53,0.47,0.78,1.24,0.78c0.81,0,1.35-0.26,1.62-0.8
					c0.27-0.54,0.72-2.28,1.35-5.22l5.13-24.13H624.03"/>
				<path class="st1" d="M637.46,308.6c-0.43,2.03-0.82,3.33-1.16,3.9c-0.34,0.57-0.87,0.87-1.59,0.87c-0.63,0-0.99-0.24-1.09-0.72
					c-0.1-0.47,0.02-1.51,0.36-3.11l2.56-12.01c0.32-1.5,0.67-2.51,1.03-3.03c0.37-0.51,0.88-0.78,1.5-0.78
					c0.66,0,1.03,0.23,1.12,0.68c0.09,0.45-0.03,1.49-0.38,3.12L637.46,308.6 M642.62,287.95l-1.36,2.75
					c-0.64-1.13-1.47-1.99-2.48-2.55c-1.02-0.55-2.21-0.84-3.59-0.84c-2.51,0-4.55,0.75-6.1,2.24c-1.55,1.5-2.69,3.96-3.42,7.36
					l-2.77,13.04c-0.51,2.38-0.67,4.22-0.47,5.5c0.2,1.29,0.85,2.33,1.96,3.13c1.1,0.79,2.65,1.19,4.63,1.19
					c1.13,0,2.28-0.22,3.41-0.66c1.13-0.44,2.27-1.08,3.39-1.94l-0.57,2.71c-0.33,1.56-0.69,2.58-1.06,3.06
					c-0.38,0.49-0.98,0.74-1.82,0.74c-1.15,0-1.56-0.79-1.23-2.37h-10.66c-0.68,3.48-0.08,5.81,1.79,7
					c1.87,1.19,4.54,1.79,8.04,1.79c2.84,0,5.27-0.32,7.28-0.96c2.01-0.65,3.67-1.58,4.97-2.8c1.32-1.21,2.17-2.37,2.57-3.46
					c0.4-1.09,1.01-3.51,1.81-7.25l5.89-27.69H642.62z"/>
				<path class="st1" d="M669.37,280.06l-2.1,9.89c1.12-0.88,2.29-1.54,3.48-1.98c1.19-0.45,2.41-0.66,3.66-0.66
					c1.92,0,3.45,0.49,4.59,1.47c1.14,0.97,1.73,2.1,1.76,3.37c0.03,1.27-0.32,3.59-1.04,6.96l-5.27,24.77h-10.99l5.37-25.24
					c0.44-2.09,0.62-3.44,0.55-4.03c-0.08-0.59-0.48-0.89-1.2-0.89c-0.67,0-1.18,0.31-1.54,0.92c-0.37,0.61-0.74,1.83-1.13,3.64
					l-5.44,25.59h-11l9.33-43.82H669.37"/>
				<path class="st1" d="M703.02,308.16c1.12-3.82,3.13-9.95,6.02-18.37c-0.96,7.33-1.7,13.45-2.19,18.37H703.02 M702.35,280.06
					l-15.13,43.82h11.87l2.3-7.89h4.12l-1.06,7.89h11.65l2.79-43.82H702.35z"/>
				<path class="st1" d="M738.63,287.95l-0.91,3.36c1.08-1.33,2.26-2.33,3.56-3c1.28-0.67,2.68-0.99,4.18-0.99
					c1.89,0,3.32,0.44,4.33,1.32c1.01,0.88,1.54,2,1.6,3.35c0.05,1.35-0.25,3.58-0.92,6.73l-5.35,25.17h-10.99l5.28-24.83
					c0.53-2.47,0.77-3.98,0.72-4.52c-0.05-0.54-0.43-0.81-1.17-0.81c-0.78,0-1.33,0.31-1.66,0.94c-0.33,0.62-0.78,2.28-1.36,4.98
					l-5.16,24.25H719.8l7.65-35.93H738.63"/>
				<path class="st1" d="M769.54,280.06l-1.22,5.71h-11.31l1.21-5.71H769.54z M767.86,287.95l-7.65,35.93H748.9l7.65-35.93H767.86z"
					/>
				<path class="st1" d="M783.59,287.95l-0.93,3.46c1.15-1.37,2.38-2.39,3.7-3.08c1.32-0.68,2.73-1.02,4.24-1.02
					c2.93,0,4.95,1.36,6.05,4.1c1.21-1.37,2.46-2.39,3.76-3.08c1.3-0.68,2.66-1.02,4.06-1.02c1.85,0,3.3,0.45,4.32,1.35
					c1.03,0.9,1.57,2.01,1.64,3.32c0.06,1.3-0.22,3.44-0.85,6.37l-5.43,25.53h-10.67l4.98-23.38c0.65-3.06,0.95-4.96,0.9-5.68
					c-0.05-0.74-0.45-1.1-1.19-1.1c-0.76,0-1.33,0.37-1.7,1.09c-0.38,0.72-0.89,2.62-1.55,5.7l-4.98,23.38h-10.67l4.85-22.78
					c0.75-3.52,1.11-5.62,1.09-6.33c-0.02-0.7-0.42-1.06-1.19-1.06c-0.49,0-0.94,0.19-1.36,0.56c-0.41,0.37-0.71,0.82-0.85,1.36
					c-0.14,0.53-0.41,1.65-0.78,3.39l-5.29,24.85h-10.67l7.66-35.93H783.59"/>
				<path class="st1" d="M824.28,314.16c-0.38,1.79-0.72,2.9-1.02,3.32c-0.3,0.42-0.79,0.64-1.48,0.64c-0.72,0-1.14-0.28-1.28-0.81
					c-0.13-0.54,0.01-1.73,0.4-3.58c0.34-1.61,0.75-2.85,1.21-3.71c0.47-0.87,1.71-1.93,3.73-3.21L824.28,314.16 M824.23,298.13
					c0.42-1.99,0.77-3.22,1.06-3.7c0.28-0.46,0.8-0.71,1.53-0.71c0.65,0,1.06,0.28,1.22,0.85c0.16,0.56,0.04,1.78-0.35,3.64
					c-0.32,1.49-0.66,2.47-1.01,2.96c-0.35,0.49-2.48,1.44-6.38,2.84c-3.64,1.3-5.99,2.43-7.05,3.41c-1.06,0.97-1.87,2.81-2.45,5.5
					l-0.62,2.95c-0.78,3.64-0.47,5.98,0.9,7.05c1.37,1.07,3.03,1.61,4.95,1.61c1.47,0,2.8-0.33,4-0.97c1.2-0.65,2.27-1.62,3.22-2.91
					l-0.7,3.25h10.67l3.84-18.04c1.26-5.94,1.91-9.86,1.93-11.77c0.02-1.9-0.77-3.51-2.37-4.81c-1.6-1.31-4.26-1.97-7.97-1.97
					c-3.1,0-5.74,0.58-7.92,1.73c-2.18,1.15-3.75,2.49-4.72,4c-0.96,1.5-1.73,3.65-2.33,6.42l-0.51,2.41h10.28L824.23,298.13z"/>
				<polygon class="st1" points="858.62,280.06 849.29,323.88 837.98,323.88 847.31,280.06 				"/>
				<polygon class="st1" points="852.92,315.71 858.85,315.71 858.85,316.36 856.27,316.36 856.27,323.85 855.5,323.85 
					855.5,316.36 852.92,316.36 				"/>
				<polygon class="st1" points="859.91,323.85 859.91,315.71 861.09,315.71 863.76,322.9 863.78,322.9 866.41,315.71 
					867.58,315.71 867.58,323.85 866.81,323.85 866.81,316.59 866.79,316.59 864.11,323.85 863.39,323.85 860.71,316.59 
					860.68,316.59 860.68,323.85 				"/>
			</g>
		</g>
		<g>
			<g>
				<g>
					<path class="st1" d="M323.94,149.87c-3.57,0-7,0-7,0v-26.85c8.24,0,15.23-0.31,15.23,9.47
						C332.17,140.56,332.79,149.87,323.94,149.87 M287.92,224.71h44.09c31.21,0,31.21-29.5,31.21-39.75c0-1.55,0-20.5-15.83-25.46
						c13.96-8.07,12.73-24.69,12.73-32.6c0-0.93,0-25.78-27.64-25.78h-44.56V224.71 M316.94,202.66v-31.68
						c11.5,0.46,16.63,0.16,16.63,14.74C333.57,203.12,329.52,202.66,316.94,202.66z"/>
					<path class="st1" d="M402.2,143.04c5.12,0,5.12,6.83,5.12,9.16V198c0,2.65,0.31,9.16-5.12,9.16c-5.75,0-5.75-6.51-5.75-8.84
						v-46.43C396.45,149.87,396.45,143.04,402.2,143.04 M402.67,227.19c32.12,0,32.12-26.09,32.12-28.87v-40.68
						c0-9.94,0-33.07-32.12-33.07c-33.23,0-33.23,23.13-33.23,29.03v44.72C369.44,203.12,369.44,227.19,402.67,227.19z"/>
					<path class="st1" d="M665.93,127.05h5.59v-20.35h27.01v20.35h7.14v20.02h-7.14v49.21c0,9.79,1.4,9.17,7.46,9.62l0.15,19.11
						c-2.96,1.55-10.41,1.55-13.98,1.55c-7.61,0-20.64-1.86-20.64-20.19v-59.3h-5.59V127.05z"/>
					<path class="st1" d="M477.87,145.68c4.34,0,4.34,5.58,4.34,8.09v44.39c0,5.9-1.39,8.39-4.04,8.39c-3.55,0-6.82-3.73-6.82-13.2
						v-35.86C471.36,153.45,473.07,145.68,477.87,145.68 M444.19,224.71h26.71v-9c1.7,3.56,7.75,11.33,19.08,11.49
						c19.87-0.15,20.03-20.03,20.03-31.83v-45.33c0-5.28,0-25.46-19.88-25.46c-9.62,0-16,8.08-18.94,12.89v-36.33h-27.01V224.71z"/>
					<path class="st1" d="M584.29,163.85h-26.7v-12.73c0,0,0-7.61-5.6-7.61c-5.42,0-5.42,7.3-5.42,12.88v39.12
						c0,6.22,0,12.74,5.42,12.74c5.6,0,5.6-5.59,5.6-12.74v-12.88h26.7c-0.3,20.96,2.79,44.56-32.45,44.56
						c-32.61,0-32.91-25.46-32.91-35.71V158.4c0-9.62,0-33.84,33.06-33.84C581.97,124.56,584.59,141.02,584.29,163.85z"/>
					<path class="st1" d="M619.94,188.99c0-7.68,5.98-9.91,11.26-13.66v16.91c0,8.71-0.67,12.47-6.31,12.47
						c-2.57,0-4.96-1.7-4.96-5.12V188.99 M631.21,224.71h27.01v-72.27c0-19.65-16.41-26.65-32.63-26.65
						c-16.24,0-32.64,7-32.64,26.65v6.86h27v-8.57c0-3.93,1.19-7.18,5.64-7.18c4.43,0,5.62,3.25,5.62,7.18
						c0,18.11-38.26,15.03-38.26,40.66v14.52c0,12.81,7.17,19.99,18.95,19.99c10.78,0,15.73-5.63,18.97-12.64h0.33V224.71z"/>
				</g>
				<g>
					<path class="st1" d="M80.77,57.17c6.5,12.88,9.66,20.96,23.98,29.27c14.33,8.32,16.45,7.09,17.97,7.69
						c1.52,0.6,2.29,2.43,2.29,3.49c3.19-0.01,15.22-1.71,20.83-1.29c5.78,0.44,18.79,2.31,27.85,5.08
						c6.4,1.96,14.62,4.97,15.84,5.42c1.22,0.45,3.5,1.36,5.02-0.47c1.51-1.83-0.31-2.43,8.19-5.81c8.51-3.38,16.86-7.66,19.59-9.04
						c2.73-1.38,12.91-6.89,23.06-16.66c1.21-1.22,1.52-1.68,2.13-1.07c0.61,0.61,0.16,1.37-0.15,1.98
						c-2.56,7.16-9.21,19.96-11.18,23.16c-1.97,3.2-12.42,14.8-13.94,16.17c-1.51,1.37-7.28,6.26-7.28,6.26s-5.16,4.12-0.43,7.46
						c4.73,3.33,2.76,6.83-0.73,9.28c-3.49,2.45-12.14,8.25-19.75,7.37c-7.61-0.89-5.32,0.02-9.89-2.25
						c-1.52-0.75-3.81-0.74-2.89,0.62c0.92,1.37,0.46,1.82,0.46,1.82c-1.35,5.33-1.48,13.39-0.71,16.28
						c0.77,2.89,1.69,5.17,3.22,6.99c0.61,0.76,1.58,1.37-0.6,1.37c-1.82,0-2.44-0.6-3.66-1.51c-2.13-0.29-7.61-1.19-10.04,0.64
						c-2.43,1.84-0.76,1.37-5.62,2.3c-1.52,0.77-2.58,1.99-0.29,4.56c2.33,2.62,4.17,4.16,5.04,4.85c0.76,0.61,4.11,1.2-0.29,3.96
						c-4.4,2.75-9.1,6.27-19.91,5.39c-10.8-0.87-15.23-6.49-17.38-10.59c-2.14-4.1-1.39-5.77-8.99-5.75
						c-7.61,0.03-20.67,2.45-24.63,2.98c-7.15,0.93-5.96,2.3-10.96-1.94c-7.32-6.21-11.44-10.15-12.36-11.06
						c-0.92-0.91-2.9-1.66-1.24-5.62c1.66-3.96,4.53-10.97,12.1-20.27c7.57-9.3,9.13-11.12,11.52-12.97
						c5.92-4.59,3.33-4.88,9.28-0.19c4.92,3.89,9.76,7.88,13.27,9.54c3.5,1.66,4.11,2.11,6.42,7.58c2.3,5.47,4.9,9.57,5.67,11.09
						c0.76,1.52,6.11,6.34,10.51,6.5c7.31,0.28,13.39,0.72,17.78-4.77c1.96-5.03,3.01-8.68,5.74-11.58
						c1.06-0.92,1.82-2.14,0.15-2.13c-1.67,0-10.96-0.57-14-1.32c-3.04-0.75-27.41-8.12-30.61-9.63c-3.2-1.51-17.82-7.09-25.46-17.1
						c-7.64-10.01-8.57-13.35-12.26-26.73C80.68,75.73,80.61,56.87,80.77,57.17z"/>
					<path class="st1" d="M218.26,141.42c-0.08,2.64-0.04,23.31,4.82,29.34c1.37,1.06,1.99,2.42,0.77,2.58
						c-1.22,0.16-10.19-0.12-11.1-0.11c-0.91,0-2.49-0.3-2.27,2.44c0.26,3.31-0.52,9.84-6.04,12.04c-5.2,2.07-10.34,4.32-20.24-1.14
						c-3.35-2.42-3.96-3.18-4.27-3.64c-0.3-0.46-0.61-0.91,0-1.67c0.6-0.77,6.52-6.72,7.57-9.15c1.05-2.44,0.6-2.74-0.17-4.26
						c0.53,1.04-3.94-5.74-0.02-5.17c3.04,0.45,9.59,2.25,14.6,0.1c5.01-2.15,10.02-4.44,11.96-15.56c0.14-4.11,0.14-5.02,2.11-6.7
						C217.18,138.99,218.39,136.7,218.26,141.42z"/>
					<path class="st1" d="M227.52,178.95c5.18,2.58,13.71,7.56,15.71,12.12c0.76,1.37,1.23,3.79-1.37,1.07
						c-2.59-2.73-7.33-8.95-20.27-11.34c-3.55-0.13-8.21,0.18-7.62-3.02c0.34-1.46-0.24-3.03,5.01-1.69
						C223.71,177.29,227.52,178.95,227.52,178.95z"/>
					<path class="st1" d="M223.28,185.51c6.17,3.06,10.52,7.57,11.28,8.78c0.77,1.21,1.38,1.82,0.47,2.43
						c-0.91,0.61-1.37,0.16-2.44-0.9c-1.07-1.06-7.63-6.52-18.9-9.37c-1.98-0.6-2.89-1.36-1.07-2.88c1.82-1.53,1.97-1.07,3.8-0.47
						C218.25,183.7,222.97,185.36,223.28,185.51z"/>
					<path class="st1" d="M218.44,194.05c3.81,2.72,8.09,7.57,9,8.64c0.91,1.06,0.76,1.06-0.76,0.92c-1.52-0.15-3.66-3.18-5.8-4.39
						c-2.13-1.21-9.75-6.05-11.58-6.66c-1.83-0.6-2.59-0.9-1.38-2.43c1.21-1.52,1.21-1.38,2.58-0.77
						C211.88,189.96,218.44,194.05,218.44,194.05z"/>
					<path class="st1" d="M187.25,191.56c0.91,0.61,2.89,1.21,1.53,4.71c-1.36,3.5-2.26,5.64-6.36,8.54
						c-1.52,1.07-5.92,3.98-1.98-1.51c1.81-3.81,2.72-5.79,2.7-10.66c0-1.68-0.16-2.43,2.28-2.14
						C186.18,190.97,187.25,191.56,187.25,191.56z"/>
					<path class="st1" d="M154.16,211.76c2.16,4.4,5.18,8.04,9.46,8.03c5.57-0.02,9.93-3.12,11.54-5.67
						c0.16,3.04-0.74,4.41-1.35,5.63c-0.6,1.22-1.51,2.9-0.29,5.02c1.22,2.13,0.62,5.17,0.02,7c-0.6,1.83-2.26,6.4-9.41,6.42
						c-7.15,0.03-16.58,0.06-20.69-1.6c-2.47-1-3.51-0.35-3.37-6.07c0.14-5.17,0.88-8.22,1.34-10.19c0.45-1.98,0.9-2.89,3.95-2.91
						c3.04-0.01,2.74,0.15,3.95-0.01c1.21-0.16,1.52-0.61,1.52-2.14c-0.01-1.52,0.29-4.41,1.35-6.09c1.06-1.68,1.37-1.07,1.52-0.16
						C153.85,209.94,154.16,211.76,154.16,211.76z"/>
					<path class="st1" d="M164.29,192.86c-0.75,3.19-2.7,10.35-5.28,13.56c-0.93-3.95-1.85-8.2-1.86-9.73
						c0-1.52-1.53-2.27,4.09-4.72C165.8,189.97,164.29,192.86,164.29,192.86z"/>
					<path class="st1" d="M104.72,209.5c2.5-3.81,17.89-16.03,19.72-16.8c0,0,2.58-1.53,4.86-2.14c4.55-1.23,4.57,1.5,2.9,3.19
						c-5.32,2.14-13.31,7.4-18.97,11.47c-4.25,3.06-10.61,9.77-12.73,12.21c-1.14,0.31-3.12,0.07-1.45-1.82
						C101.46,212.85,104.54,209.78,104.72,209.5z"/>
					<path class="st1" d="M88.3,202.06c12.29-10.54,21.67-13.43,30.94-16.35c4.71-0.93,8.75-1.86,9.74,0.58
						c0.61,1.52,0.31,2.28-1.21,2.44c-6.54,0.33-17.79,2.83-28.87,9.38c-4.4,2.6-9.86,6.88-11.72,8.71
						c-1.21,1.19-4.71,0.18-2.06-1.97C87.82,202.66,88.3,202.06,88.3,202.06z"/>
					<path class="st1" d="M85.48,187.66c10.33-5.36,18.08-7.06,25.52-8.76c0,0,9.88-1.71,14.14-0.51c3.52,4.4,1.38,3.95-1.35,4.11
						c-9.28-0.12-18.7,1.74-27.21,4.51c-8.51,2.76-18.68,7.82-22.03,9.35c-1.17,0.53-2.35,0.46-1.94-0.79
						c0.38-1.16,2.62-2.44,3.53-2.9C77.05,192.21,85.48,187.66,85.48,187.66z"/>
				</g>
			</g>
			<path class="st1" d="M730.98,223.72c-5.48,0-9.48-4.27-9.48-9.77c0-5.45,4-9.72,9.48-9.72c5.44,0,9.41,4.26,9.41,9.72
				C740.39,219.45,736.43,223.72,730.98,223.72z M730.98,225.2c6.18,0,11.19-5.03,11.19-11.25c0-6.16-5-11.19-11.19-11.19
				c-6.22,0-11.25,5.03-11.25,11.19C719.73,220.17,724.76,225.2,730.98,225.2z M732.79,214.45c2.22-0.05,3.94-0.97,3.94-3.44
				c0-2.07-1.13-3.31-4.44-3.31h-5.48v12.52h1.54v-5.78h2.81l3.58,5.78h1.83L732.79,214.45z M728.35,213.24v-4.44h3.58
				c1.54,0,3.14,0.24,3.14,2.19c0,2.54-2.6,2.25-4.38,2.25H728.35z"/>
		</g>
	</g>
</g>
</svg>
