<?xml version="1.0" encoding="utf-8"?>
<!-- Generator: Adobe Illustrator 25.2.0, SVG Export Plug-In . SVG Version: 6.00 Build 0)  -->
<svg version="1.0" id="Layer_1" xmlns="http://www.w3.org/2000/svg" xmlns:xlink="http://www.w3.org/1999/xlink" x="0px" y="0px"
	 width="835.12px" height="230.52px" viewBox="0 0 835.12 230.52" style="enable-background:new 0 0 835.12 230.52;"
	 xml:space="preserve">
<style type="text/css">
	.st0{fill:#FFDE40;}
</style>
<g>
	<path class="st0" d="M495.87,198.79h7.38c2.92,0,5.43,1.95,5.43,4.45c0,2.51-2.37,4.45-5.43,4.45h-7.38V198.79z M497.82,191.27
		h-11.14v38h9.05v-13.92h3.76l10.72,13.92h11.42l-12.95-15.31l0,0c5.15-1.81,8.63-5.85,8.63-11c0-6.4-6.13-11.69-13.64-11.69h-4.73
		H497.82z"/>
	<path class="st0" d="M310.86,202.13l5.15,11h-10.44L310.86,202.13z M315.45,191.55h-8.35l-18.93,38h9.74l3.76-7.8h18.65l3.76,7.8
		h10.72L315.45,191.55z"/>
	<path class="st0" d="M373.92,212.99l5.29-11l5.15,11H373.92z M375.32,191.55l-18.93,38h9.74l3.76-7.8h18.52l3.76,7.8h10.72
		l-19.21-38L375.32,191.55L375.32,191.55z"/>
	<polygon class="st0" points="480.7,163.71 510.63,163.71 512.02,80.32 531.93,163.71 558.52,163.71 578.01,78.65 578.98,163.71 
		615.18,163.71 609.05,45.8 562.28,45.8 548.77,108.86 533.46,45.8 485.71,45.8 	"/>
	<path class="st0" d="M828.73,78.51c-3.34-3.34-10.16-6.82-14.9-7.66c-4.18-1.11-11.55-1.39-15.73-0.42
		c-9.47,1.39-18.38,10.02-20.19,19.35c-2.37,8.07-2.78,22.55-0.97,30.77c0.42,3.34,2.51,8.77,4.73,11.55
		c3.9,6.13,12.39,8.35,18.79,5.71l-0.84-33.69l35.5-0.56l-0.14,55.96c-13.92,5.43-38.7,7.8-53.46,4.73
		c-10.58-0.97-24.64-9.05-30.91-17.68c-4.87-5.43-10.16-16.84-11.14-24.22c-3.34-13.64-0.84-36.06,5.29-48.72
		c4.45-12.67,19.21-25.2,32.3-27.84c10.44-3.2,28.82-3.48,39.12-0.84c3.9,0.84,10.72,2.92,14.48,4.73L828.73,78.51z"/>
	<polygon class="st0" points="264.92,229.28 274.25,229.28 274.25,215.77 287.61,215.77 287.61,207.14 274.25,207.14 274.25,199.77 
		297.91,199.77 297.91,191.55 264.92,191.55 	"/>
	<polygon class="st0" points="406.22,199.9 406.22,229.28 415.69,229.28 415.69,199.9 426.41,199.9 426.41,191.55 394.67,191.55 
		394.67,199.9 	"/>
	<path class="st0" d="M466.5,207v8.35h8.07v6.13c-2.51,1.11-7.1,1.53-9.61,0.56c-3.2-0.56-6.4-3.48-7.38-6.4
		c-1.11-2.51-1.39-6.82-0.56-9.47c0.42-2.09,2.51-4.73,4.45-5.71c1.39-0.84,4.18-1.39,5.85-1.39h15.03V191h-14.34
		c-1.53,0-4.73,0.14-6.26,0.56c-10.44,2.09-16.98,12.39-14.9,22.69c0.84,5.15,5.29,11.14,10.02,13.09
		c7.38,4.32,18.79,3.48,25.62-1.81v-19.21h-16.01L466.5,207L466.5,207z"/>
	<path class="st0" d="M575.36,217.72c0.42,1.95,1.95,3.9,3.9,4.45c1.81,0.97,4.87,0.97,6.82,0c1.81-0.56,3.48-2.51,3.9-4.45
		c0.14-1.11,0.56-3.34,0.42-4.45v-22h9.05v23.25c0.14,6.4-4.45,13.09-10.72,14.9c-3.48,1.39-9.47,1.11-12.67-0.42
		c-5.71-1.95-10.16-8.35-9.74-14.34v-23.67h9.05v22C574.81,214.38,575.08,216.61,575.36,217.72z"/>
	<polygon class="st0" points="132.53,104.54 104.55,132.53 76.57,104.54 104.55,76.56 	"/>
	<polygon class="st0" points="160.37,104.54 80.18,24.22 104.55,0 208.82,104.54 142.69,170.95 118.47,146.45 	"/>
	<polygon class="st0" points="48.58,104.54 90.35,62.64 66.12,38.42 0,104.54 104.55,209.09 128.77,184.87 	"/>
	<polygon class="st0" points="350.26,212.57 350.26,229.28 340.65,229.28 340.65,212.57 320.47,191.55 332.44,191.55 345.52,204.64 
		358.61,191.55 370.58,191.55 	"/>
	<path class="st0" d="M614.62,220.09h5.29c8.77,0,16.01-6.4,16.01-14.48c0-8.07-7.24-14.48-16.01-14.48h-16.29v38h9.05v-9.19h0.56
		L614.62,220.09z M612.81,198.79h6.26c4.32,0,7.66,3.2,7.66,6.82c0,3.9-3.48,6.82-7.66,6.82h-6.26V198.79z"/>
	<g>
		<path class="st0" d="M556.15,196.01c-7.8-7.66-20.6-8.07-28.82-0.97c-8.35,7.1-9.61,19.35-2.51,27.84
			c0.56,0.84,1.95,2.09,2.78,2.78c8.21,6.82,21.02,6.4,28.54-0.84c8.07-7.38,8.35-19.77,0.97-27.84L556.15,196.01z M552.11,214.1
			c-0.84,3.9-4.32,7.38-8.07,8.21c-5.99,1.39-11.97-2.23-13.36-8.07c-0.56-1.95-0.56-5.71,0-7.8c0.7-3.76,4.32-7.38,8.07-8.21
			c5.99-1.39,11.83,2.23,13.36,8.07C552.67,208.54,552.67,212.29,552.11,214.1z"/>
		<path class="st0" d="M355.69,117.35c-1.39-5.29-6.4-11.55-11.14-13.92c-2.92-1.95-8.77-3.76-12.53-3.9l3.76-1.39
			c5.15-1.53,11.42-7.1,13.64-12.11c4.32-7.24,4.45-18.93,0.42-26.45c-2.09-4.87-8.21-10.16-13.5-11.55
			c-3.76-1.39-10.72-2.51-14.62-2.51c-4.73-0.14-13.92-0.42-18.79-0.14l-37.73,0.56v118.05h44.83c4.87,0.14,14.06-0.84,18.79-1.81
			c18.93-3.48,31.46-21.72,27.98-40.93C356.52,120.27,355.96,118.33,355.69,117.35z M300.56,66.12c2.37-0.42,6.68-0.42,9.05,0
			c3.76,0.28,7.24,3.2,8.07,6.68c0.97,3.2,0.97,8.63-0.28,11.83c-0.84,3.06-3.9,6.26-7.1,6.82c-2.51,0.84-7.24,1.25-9.74,0.84V66.12
			z M317.96,134.75c-0.84,2.65-3.48,5.57-6.26,6.4c-2.92,1.25-8.35,1.67-11.55,1.11V114.7c2.78-0.14,7.8,0,10.58,0.42
			c3.62,0.42,7.24,3.76,7.8,7.1C319.49,125.7,319.35,131.41,317.96,134.75z"/>
		<path class="st0" d="M437.13,46.21c-9.61-3.48-26.45-3.9-36.2-0.84c-12.11,2.37-25.2,13.92-29.23,25.89
			c-7.8,16.98-8.63,45.8-1.95,63.2c3.2,11.69,15.31,24.08,26.87,27.42c13.09,5.43,34.52,4.32,47.05-2.51
			c10.16-3.76,20.46-16.01,22.83-26.87c5.43-16.29,4.73-43.71-1.81-59.72C461.35,61.11,448.96,49.14,437.13,46.21z M431.56,125.43
			c-0.42,3.06-2.23,8.21-4.18,10.72c-0.56,1.11-2.37,2.92-3.48,3.48c-5.29,3.34-12.53,1.67-15.87-3.76
			c-2.09-2.78-4.04-8.07-4.18-11.42c-1.67-10.16-1.95-29.23-0.14-39.4c0.28-3.62,2.23-9.05,4.18-11.97
			c0.84-1.25,2.37-2.92,3.76-3.76c5.57-3.48,12.81-1.67,16.29,3.76c1.53,2.09,3.34,6.54,3.62,9.88
			C433.51,93.96,433.51,114.29,431.56,125.43z"/>
		<path class="st0" d="M705.39,46.07h-44.83l-35.08,117.77h33.69l6.68-29.37h28.54l5.99,29.37h37.31L705.39,46.07z M671.28,111.23
			l9.88-43.16l8.63,43.16H671.28z"/>
	</g>
</g>
</svg>
