<?xml version="1.0" encoding="utf-8"?>
<!-- Generator: Adobe Illustrator 25.2.0, SVG Export Plug-In . SVG Version: 6.00 Build 0)  -->
<svg version="1.0" id="Layer_1" xmlns="http://www.w3.org/2000/svg" xmlns:xlink="http://www.w3.org/1999/xlink" x="0px" y="0px"
	 width="279.32px" height="77.1px" viewBox="0 0 279.32 77.1" style="enable-background:new 0 0 279.32 77.1;" xml:space="preserve"
	>
<style type="text/css">
	.st0{fill:#FFFFFF;}
</style>
<g>
	<path class="st0" d="M165.85,66.49h2.47c0.98,0,1.82,0.65,1.82,1.49c0,0.84-0.79,1.49-1.82,1.49h-2.47V66.49z M166.5,63.98h-3.72
		v12.71h3.03v-4.66h1.26l3.59,4.66h3.82l-4.33-5.12l0,0c1.72-0.61,2.89-1.96,2.89-3.68c0-2.14-2.05-3.91-4.56-3.91h-1.58
		L166.5,63.98L166.5,63.98z"/>
	<path class="st0" d="M103.97,67.61l1.72,3.68h-3.49L103.97,67.61z M105.51,64.07h-2.79l-6.33,12.71h3.26l1.26-2.61h6.24l1.26,2.61
		H112L105.51,64.07z"/>
	<path class="st0" d="M125.06,71.24l1.77-3.68l1.72,3.68H125.06z M125.53,64.07l-6.33,12.71h3.26l1.26-2.61h6.19l1.26,2.61h3.59
		l-6.43-12.71H125.53z"/>
	<polygon class="st0" points="160.78,54.76 170.79,54.76 171.25,26.87 177.91,54.76 186.8,54.76 193.32,26.31 193.65,54.76 
		205.75,54.76 203.71,15.32 188.06,15.32 183.54,36.41 178.42,15.32 162.45,15.32 	"/>
	<path class="st0" d="M277.18,26.26c-1.12-1.12-3.4-2.28-4.98-2.56c-1.4-0.37-3.86-0.47-5.26-0.14c-3.17,0.47-6.15,3.35-6.75,6.47
		c-0.79,2.7-0.93,7.54-0.33,10.29c0.14,1.12,0.84,2.93,1.58,3.86c1.3,2.05,4.14,2.79,6.29,1.91l-0.28-11.27l11.87-0.19l-0.05,18.72
		c-4.66,1.82-12.94,2.61-17.88,1.58c-3.54-0.33-8.24-3.03-10.34-5.91c-1.63-1.82-3.4-5.63-3.72-8.1c-1.12-4.56-0.28-12.06,1.77-16.3
		c1.49-4.24,6.43-8.43,10.8-9.31c3.49-1.07,9.64-1.16,13.08-0.28c1.3,0.28,3.59,0.98,4.84,1.58L277.18,26.26z"/>
	<polygon class="st0" points="88.61,76.69 91.73,76.69 91.73,72.17 96.2,72.17 96.2,69.29 91.73,69.29 91.73,66.82 99.64,66.82 
		99.64,64.07 88.61,64.07 	"/>
	<polygon class="st0" points="135.87,66.87 135.87,76.69 139.03,76.69 139.03,66.87 142.62,66.87 142.62,64.07 132,64.07 132,66.87 
			"/>
	<path class="st0" d="M156.03,69.24v2.79h2.7v2.05c-0.84,0.37-2.37,0.51-3.21,0.19c-1.07-0.19-2.14-1.16-2.47-2.14
		c-0.37-0.84-0.47-2.28-0.19-3.17c0.14-0.7,0.84-1.58,1.49-1.91c0.47-0.28,1.4-0.47,1.96-0.47h5.03v-2.7h-4.8
		c-0.51,0-1.58,0.05-2.1,0.19c-3.49,0.7-5.68,4.14-4.98,7.59c0.28,1.72,1.77,3.72,3.35,4.38c2.47,1.44,6.29,1.16,8.57-0.61V69h-5.35
		V69.24L156.03,69.24z"/>
	<path class="st0" d="M192.44,72.83c0.14,0.65,0.65,1.3,1.3,1.49c0.61,0.33,1.63,0.33,2.28,0c0.61-0.19,1.16-0.84,1.3-1.49
		c0.05-0.37,0.19-1.12,0.14-1.49v-7.36h3.03v7.78c0.05,2.14-1.49,4.38-3.59,4.98c-1.16,0.47-3.17,0.37-4.24-0.14
		c-1.91-0.65-3.4-2.79-3.26-4.8v-7.92h3.03v7.36C192.25,71.71,192.34,72.45,192.44,72.83z"/>
	<polygon class="st0" points="44.33,34.97 34.97,44.33 25.61,34.97 34.97,25.61 	"/>
	<polygon class="st0" points="53.64,34.97 26.82,8.11 34.97,0 69.84,34.97 47.72,57.18 39.62,48.99 	"/>
	<polygon class="st0" points="16.25,34.97 30.22,20.96 22.12,12.85 0,34.97 34.97,69.94 43.07,61.84 	"/>
	<polygon class="st0" points="117.15,71.1 117.15,76.69 113.93,76.69 113.93,71.1 107.18,64.07 111.19,64.07 115.56,68.45 
		119.94,64.07 123.95,64.07 	"/>
	<path class="st0" d="M205.57,73.62h1.77c2.93,0,5.35-2.14,5.35-4.84s-2.42-4.84-5.35-4.84h-5.45v12.71h3.03v-3.07h0.19
		L205.57,73.62z M204.96,66.49h2.1c1.44,0,2.56,1.07,2.56,2.28c0,1.3-1.16,2.28-2.56,2.28h-2.1V66.49z"/>
	<g>
		<path class="st0" d="M186.01,65.56c-2.61-2.56-6.89-2.7-9.64-0.33c-2.79,2.37-3.21,6.47-0.84,9.31c0.19,0.28,0.65,0.7,0.93,0.93
			c2.75,2.28,7.03,2.14,9.55-0.28c2.7-2.47,2.79-6.61,0.33-9.31L186.01,65.56z M184.66,71.62c-0.28,1.3-1.44,2.47-2.7,2.75
			c-2,0.47-4-0.74-4.47-2.7c-0.19-0.65-0.19-1.91,0-2.61c0.23-1.26,1.44-2.47,2.7-2.75c2-0.47,3.96,0.74,4.47,2.7
			C184.85,69.75,184.85,71.01,184.66,71.62z"/>
		<path class="st0" d="M118.96,39.26c-0.47-1.77-2.14-3.86-3.72-4.66c-0.98-0.65-2.93-1.26-4.19-1.3l1.26-0.47
			c1.72-0.51,3.82-2.37,4.56-4.05c1.44-2.42,1.49-6.33,0.14-8.85c-0.7-1.63-2.75-3.4-4.52-3.86c-1.26-0.47-3.59-0.84-4.89-0.84
			c-1.58-0.05-4.66-0.14-6.29-0.05l-12.62,0.19v39.48h14.99c1.63,0.05,4.7-0.28,6.29-0.61c6.33-1.16,10.52-7.26,9.36-13.69
			C119.24,40.23,119.06,39.58,118.96,39.26z M100.53,22.12c0.79-0.14,2.23-0.14,3.03,0c1.26,0.09,2.42,1.07,2.7,2.23
			c0.33,1.07,0.33,2.89-0.09,3.96c-0.28,1.02-1.3,2.1-2.37,2.28c-0.84,0.28-2.42,0.42-3.26,0.28v-8.75H100.53z M106.35,45.08
			c-0.28,0.88-1.16,1.86-2.1,2.14c-0.98,0.42-2.79,0.56-3.86,0.37v-9.22c0.93-0.05,2.61,0,3.54,0.14c1.21,0.14,2.42,1.26,2.61,2.37
			C106.86,42.05,106.81,43.96,106.35,45.08z"/>
		<path class="st0" d="M146.2,15.46c-3.21-1.16-8.85-1.3-12.11-0.28c-4.05,0.79-8.43,4.66-9.78,8.66
			c-2.61,5.68-2.89,15.32-0.65,21.14c1.07,3.91,5.12,8.06,8.99,9.17c4.38,1.82,11.55,1.44,15.74-0.84c3.4-1.26,6.84-5.35,7.64-8.99
			c1.82-5.45,1.58-14.62-0.61-19.97C154.3,20.44,150.16,16.44,146.2,15.46z M144.34,41.96c-0.14,1.02-0.74,2.75-1.4,3.59
			c-0.19,0.37-0.79,0.98-1.16,1.16c-1.77,1.12-4.19,0.56-5.31-1.26c-0.7-0.93-1.35-2.7-1.4-3.82c-0.56-3.4-0.65-9.78-0.05-13.18
			c0.09-1.21,0.74-3.03,1.4-4c0.28-0.42,0.79-0.98,1.26-1.26c1.86-1.16,4.28-0.56,5.45,1.26c0.51,0.7,1.12,2.19,1.21,3.31
			C144.99,31.43,144.99,38.23,144.34,41.96z"/>
		<path class="st0" d="M235.93,15.42h-14.99l-11.73,39.39h11.27l2.23-9.82h9.55l2,9.82h12.48L235.93,15.42z M224.52,37.21
			l3.31-14.43l2.89,14.43H224.52z"/>
	</g>
</g>
</svg>
