<?xml version="1.0" encoding="utf-8"?>
<!-- Generator: Adobe Illustrator 25.2.0, SVG Export Plug-In . SVG Version: 6.00 Build 0)  -->
<svg version="1.0" id="Layer_1" xmlns="http://www.w3.org/2000/svg" xmlns:xlink="http://www.w3.org/1999/xlink" x="0px" y="0px"
	 width="144px" height="118.45px" viewBox="0 0 144 118.45" style="enable-background:new 0 0 144 118.45;" xml:space="preserve">
<style type="text/css">
	.st0{fill:#FFFFFF;}
</style>
<g>
	<g>
		<g>
			<path class="st0" d="M14.14,28.77c5.05,0,8.12,3.17,10.36,5.49c0.68,0.7,1.31,1.35,1.88,1.79h5.66c0.58-1.93,2.08-3.43,4.01-4.01
				v-5.69c-0.45-0.58-1.1-1.22-1.82-1.91c-2.31-2.23-5.46-5.28-5.46-10.3c0-4.38,3.14-8.04,7.28-8.87V0H0v36.05h5.27
				C6.1,31.91,9.76,28.77,14.14,28.77z"/>
			<path class="st0" d="M75.63,0H39.58v5.27c4.14,0.82,7.28,4.48,7.28,8.87c0,5.05-3.17,8.12-5.49,10.36
				c-0.7,0.68-1.35,1.31-1.79,1.88v5.66c1.93,0.58,3.43,2.08,4.01,4.01h5.69c0.58-0.45,1.22-1.1,1.91-1.82
				c2.23-2.31,5.28-5.46,10.3-5.46c4.38,0,8.04,3.14,8.87,7.28h5.27V0z"/>
			<path class="st0" d="M28.77,61.49c0-5.05,3.17-8.12,5.49-10.36c0.7-0.68,1.35-1.31,1.79-1.88v-5.66
				c-1.93-0.58-3.43-2.08-4.01-4.01h-5.69c-0.58,0.45-1.22,1.1-1.91,1.82c-2.23,2.31-5.28,5.46-10.3,5.46
				c-4.38,0-8.04-3.14-8.87-7.28H0v36.05h36.05v-5.27C31.91,69.53,28.77,65.87,28.77,61.49z"/>
			<path class="st0" d="M61.49,46.86c-5.05,0-8.12-3.17-10.36-5.49c-0.68-0.7-1.31-1.35-1.88-1.79h-5.66
				c-0.58,1.93-2.08,3.43-4.01,4.01v5.69c0.45,0.58,1.1,1.22,1.82,1.91c2.31,2.23,5.46,5.28,5.46,10.3c0,4.38-3.14,8.04-7.28,8.87
				v5.27h36.05V39.58h-5.27C69.53,43.72,65.87,46.86,61.49,46.86z"/>
		</g>
		<g>
			<path class="st0" d="M95.01,39.58H79.63c-1.38,0-2.51,1.12-2.51,2.51v31.04c0,1.38,1.12,2.51,2.51,2.51h15.38
				c1.38,0,2.51-1.12,2.51-2.51V42.09C97.51,40.7,96.39,39.58,95.01,39.58z M93.37,63.5l-6.05,9.24l-6.05-9.24v-8.72l4.13,5.78
				V42.47h3.84v18.09l4.13-5.78L93.37,63.5L93.37,63.5z"/>
		</g>
		<g>
			<path class="st0" d="M116.89,39.58h-15.38c-1.38,0-2.51,1.12-2.51,2.51v31.04c0,1.38,1.12,2.51,2.51,2.51h15.38
				c1.38,0,2.51-1.12,2.51-2.51V42.09C119.4,40.7,118.28,39.58,116.89,39.58z M115.26,63.5l-6.05,9.24l-6.05-9.24v-8.72l4.13,5.78
				V42.47h3.84v18.09l4.13-5.78L115.26,63.5L115.26,63.5z"/>
		</g>
		<polygon class="st0" points="39.58,0 75.63,0 75.63,36.05 		"/>
		<g>
			<path class="st0" d="M11.02,97.87l2.57-9.37H3.27L0.23,99.99c-0.05,0.21-0.09,0.41-0.12,0.63c-0.03,0.21-0.06,0.42-0.08,0.63
				c-0.15,1.63,0.23,3,1.14,4.11c0.9,1.1,2.14,1.65,3.74,1.65h18.21l2.32-7.32H12.4C11.46,99.68,10.77,98.78,11.02,97.87z"/>
			<path class="st0" d="M52.19,88.5l-2.28,8.43c-0.17,0.63-0.74,1.06-1.39,1.06h-6.46c-0.95,0-1.63-0.9-1.39-1.81l2.08-7.68h-8.96
				l-3.07,11.49c-0.05,0.21-0.09,0.41-0.12,0.6c-0.03,0.2-0.06,0.4-0.08,0.6c-0.16,1.66,0.24,3.04,1.21,4.15
				c0.96,1.1,2.29,1.65,3.99,1.65h13.41c1.92,0,3.75-0.68,5.49-2.04c1.77-1.39,2.91-3.05,3.41-4.97l3.11-11.49L52.19,88.5
				L52.19,88.5z"/>
			<polygon class="st0" points="129.19,88.5 113.59,100.05 110.59,88.5 102.59,88.5 100.65,88.5 66.02,88.5 61.14,107 70.54,107 
				73.5,95.57 101.99,95.57 104.15,107 104.2,107 115.4,107 136.45,107 138.78,98 128.04,98 141.42,88.5 			"/>
			<path class="st0" d="M12.61,78.46c-1.8,0-3.53,0.55-5.17,1.64c-1.63,1.09-2.68,2.41-3.16,3.96l-0.51,1.6h25.64l2.32-7.2H12.61z"
				/>
			<path class="st0" d="M61.53,83.7c0-2.9-2.35-5.24-5.24-5.24H42.88c-1.8,0-3.53,0.55-5.17,1.64c-1.63,1.09-2.68,2.41-3.16,3.96
				l-0.51,1.6h27.49L61.53,83.7L61.53,83.7z"/>
			<path class="st0" d="M95.33,85.66h15.06l-1.67-7.2h-7.28c-2.13,0-4.1,1.11-5.21,2.92l-0.22,0.36c-0.15-0.74-0.52-1.4-1.11-1.96
				c-0.92-0.88-2.18-1.32-3.78-1.32H68.83l-4.02,7.2H93.6L95.33,85.66L95.33,85.66z"/>
			<polygon class="st0" points="119.21,78.46 114.79,85.66 142.03,85.66 144,78.46 			"/>
		</g>
	</g>
	<g>
		<g>
			<path class="st0" d="M5.02,116.71l-0.3,1.74H0l0.99-5.78h1.7l-0.7,4.05L5.02,116.71L5.02,116.71z"/>
			<path class="st0" d="M7.89,112.67l-1,5.78H5.2l0.99-5.78H7.89z"/>
			<path class="st0" d="M13.56,112.67l-0.3,1.73h-3.5l-0.39,2.31h1.79l0.09-0.48h-0.76l0.23-1.35h2.46l-0.38,2.22
				c-0.06,0.37-0.25,0.69-0.56,0.96c-0.3,0.26-0.64,0.39-1,0.39H8.69c-0.32,0-0.59-0.11-0.79-0.32c-0.2-0.21-0.31-0.48-0.31-0.8
				c0-0.04,0-0.08,0-0.12s0.01-0.08,0.01-0.12l0.52-3.08c0.06-0.37,0.24-0.69,0.55-0.95s0.64-0.39,1.01-0.39H13.56z"/>
			<path class="st0" d="M19.22,112.67l-1,5.78h-1.7l0.39-2.22h-1.8l-0.39,2.22h-1.69l0.99-5.78h1.7l-0.39,2.22h1.79l0.39-2.22H19.22
				z"/>
			<path class="st0" d="M24.89,112.67l-0.3,1.73h-1.75l-0.7,4.05h-1.7l0.7-4.05h-1.75l0.3-1.73H24.89z"/>
			<path class="st0" d="M33.86,112.67l-0.3,1.73h-3.5l-0.39,2.31h3.5l-0.3,1.74H29c-0.32,0-0.59-0.11-0.79-0.32s-0.31-0.48-0.31-0.8
				c0-0.04,0-0.08,0-0.12s0.01-0.08,0.01-0.12l0.52-3.08c0.06-0.37,0.24-0.69,0.55-0.95s0.64-0.39,1.01-0.39L33.86,112.67
				L33.86,112.67z"/>
			<path class="st0" d="M39.31,113.78c0,0.04,0,0.08-0.01,0.11c0,0.04-0.01,0.07-0.01,0.11l-0.53,3.08
				c-0.06,0.37-0.25,0.69-0.56,0.96c-0.3,0.26-0.64,0.39-1,0.39h-2.55c-0.32,0-0.59-0.11-0.79-0.32s-0.31-0.48-0.31-0.8
				c0-0.04,0-0.08,0-0.12s0.01-0.08,0.01-0.12l0.52-3.08c0.06-0.37,0.24-0.69,0.55-0.95s0.64-0.39,1.01-0.39h2.55
				c0.32,0,0.59,0.11,0.8,0.32C39.21,113.2,39.31,113.46,39.31,113.78z M37.53,114.4h-1.8l-0.39,2.31h1.79L37.53,114.4z"/>
			<path class="st0" d="M44.98,113.78c0,0.04,0,0.08-0.01,0.11c0,0.04-0.01,0.07-0.01,0.11l-0.76,4.44h-1.7l0.7-4.05h-1.8l-0.7,4.05
				h-1.69l0.99-5.78h3.87c0.32,0,0.59,0.11,0.8,0.32C44.88,113.2,44.98,113.46,44.98,113.78z"/>
			<path class="st0" d="M50.86,112.67l-0.3,1.73h-3.5l-0.08,0.48h2.17c0.33,0,0.6,0.11,0.81,0.32s0.31,0.48,0.31,0.8
				c0,0.04,0,0.08-0.01,0.12c0,0.04-0.01,0.08-0.01,0.12l-0.15,0.86c-0.06,0.37-0.25,0.69-0.56,0.96c-0.3,0.26-0.64,0.39-1,0.39
				h-3.86l0.29-1.74h3.5l0.09-0.48h-2.18c-0.33,0-0.59-0.11-0.8-0.32s-0.31-0.48-0.31-0.79c0-0.04,0-0.08,0-0.12
				s0.01-0.08,0.01-0.12l0.15-0.87c0.06-0.37,0.24-0.69,0.55-0.95s0.64-0.39,1.01-0.39H50.86z"/>
			<path class="st0" d="M56.53,112.67l-0.3,1.73h-1.75l-0.7,4.05h-1.7l0.7-4.05h-1.75l0.3-1.73H56.53z"/>
			<path class="st0" d="M61.98,113.78c0,0.04,0,0.08-0.01,0.11c0,0.04-0.01,0.07-0.01,0.11l-0.15,0.87
				c-0.03,0.2-0.19,0.42-0.48,0.67c0.17,0.22,0.25,0.41,0.25,0.58v0.1l-0.39,2.22h-1.7l0.39-2.22h-1.8l-0.39,2.22H56l0.99-5.78h3.87
				c0.32,0,0.59,0.11,0.8,0.32C61.88,113.2,61.98,113.46,61.98,113.78z M60.2,114.4h-1.8l-0.08,0.48h1.79L60.2,114.4z"/>
			<path class="st0" d="M67.86,112.67l-0.76,4.43c-0.06,0.37-0.25,0.69-0.56,0.96c-0.3,0.26-0.64,0.39-1,0.39h-2.55
				c-0.32,0-0.59-0.11-0.79-0.32s-0.31-0.48-0.31-0.8c0-0.04,0-0.08,0-0.12s0.01-0.08,0.01-0.12l0.76-4.43h1.7l-0.7,4.05h1.79
				l0.7-4.05L67.86,112.67L67.86,112.67z"/>
			<path class="st0" d="M73.53,112.67l-0.3,1.73h-3.5l-0.39,2.31h3.5l-0.3,1.74h-3.87c-0.32,0-0.59-0.11-0.79-0.32
				s-0.31-0.48-0.31-0.8c0-0.04,0-0.08,0-0.12s0.01-0.08,0.01-0.12l0.52-3.08c0.06-0.37,0.24-0.69,0.55-0.95s0.64-0.39,1.01-0.39
				L73.53,112.67L73.53,112.67z"/>
			<path class="st0" d="M79.2,112.67l-0.3,1.73h-1.75l-0.7,4.05h-1.7l0.7-4.05H73.7l0.3-1.73H79.2z"/>
			<path class="st0" d="M81.37,112.67l-1,5.78h-1.69l0.99-5.78H81.37z"/>
			<path class="st0" d="M86.82,113.78c0,0.04,0,0.08-0.01,0.11c0,0.04-0.01,0.07-0.01,0.11l-0.53,3.08
				c-0.06,0.37-0.25,0.69-0.56,0.96c-0.3,0.26-0.64,0.39-1,0.39h-2.55c-0.32,0-0.59-0.11-0.79-0.32s-0.31-0.48-0.31-0.8
				c0-0.04,0-0.08,0-0.12s0.01-0.08,0.01-0.12l0.52-3.08c0.06-0.37,0.24-0.69,0.55-0.95s0.64-0.39,1.01-0.39h2.55
				c0.32,0,0.59,0.11,0.8,0.32C86.72,113.2,86.82,113.46,86.82,113.78z M85.04,114.4h-1.8l-0.39,2.31h1.79L85.04,114.4z"/>
			<path class="st0" d="M92.49,113.78c0,0.04,0,0.08-0.01,0.11c0,0.04-0.01,0.07-0.01,0.11l-0.76,4.44H90l0.7-4.05h-1.8l-0.7,4.05
				h-1.69l0.99-5.78h3.87c0.32,0,0.59,0.11,0.8,0.32C92.38,113.2,92.49,113.46,92.49,113.78z"/>
			<path class="st0" d="M101.2,112.67l-0.3,1.73h-3.02l-0.08,0.48h3.02l-0.23,1.35h-3.02l-0.08,0.48h3.02l-0.3,1.74H95.5l0.99-5.78
				L101.2,112.67L101.2,112.67z"/>
			<path class="st0" d="M106.66,113.78c0,0.04,0,0.08-0.01,0.11s-0.01,0.07-0.01,0.11l-0.46,2.7h0.47l-0.3,1.74H102
				c-0.32,0-0.59-0.11-0.79-0.32s-0.31-0.48-0.31-0.8c0-0.04,0-0.08,0-0.12s0.01-0.08,0.01-0.12l0.52-3.08
				c0.06-0.37,0.24-0.69,0.55-0.95s0.64-0.39,1.01-0.39h2.55c0.32,0,0.59,0.11,0.8,0.32C106.55,113.2,106.66,113.46,106.66,113.78z
				 M104.87,114.4h-1.8l-0.39,2.31h1.79L104.87,114.4z"/>
			<path class="st0" d="M113.01,112.67l-0.76,4.43c-0.06,0.37-0.25,0.69-0.56,0.96c-0.3,0.26-0.64,0.39-1,0.39h-2.55
				c-0.32,0-0.59-0.11-0.79-0.32s-0.31-0.48-0.31-0.8c0-0.04,0-0.08,0-0.12s0.01-0.08,0.01-0.12l0.76-4.43h1.7l-0.7,4.05h1.79
				l0.7-4.05L113.01,112.67L113.01,112.67z"/>
			<path class="st0" d="M115.19,112.67l-1,5.78h-1.69l0.99-5.78H115.19z"/>
			<path class="st0" d="M120.64,113.78c0,0.04,0,0.08-0.01,0.11c0,0.04-0.01,0.07-0.01,0.11l-0.15,0.87
				c-0.06,0.37-0.24,0.69-0.55,0.96c-0.3,0.26-0.64,0.39-1,0.39h-2.18l-0.39,2.22h-1.69l0.99-5.78h3.87c0.32,0,0.59,0.11,0.8,0.32
				C120.53,113.2,120.64,113.46,120.64,113.78z M118.85,114.4h-1.8l-0.08,0.48h1.79L118.85,114.4z"/>
			<path class="st0" d="M127.47,112.67l-1,5.78h-1.7l0.42-2.42l-1.79,2.42l-0.95-2.42l-0.42,2.42h-1.69l0.99-5.78h1.7l0.95,2.42
				l1.79-2.42H127.47z"/>
			<path class="st0" d="M132.66,112.67l-0.3,1.73h-3.02l-0.08,0.48h3.02l-0.23,1.35h-3.02l-0.08,0.48h3.02l-0.3,1.74h-4.71
				l0.99-5.78L132.66,112.67L132.66,112.67z"/>
			<path class="st0" d="M138.12,113.78c0,0.04,0,0.08-0.01,0.11s-0.01,0.07-0.01,0.11l-0.76,4.44h-1.7l0.7-4.05h-1.8l-0.7,4.05
				h-1.69l0.99-5.78h3.87c0.32,0,0.59,0.11,0.8,0.32C138.01,113.2,138.12,113.46,138.12,113.78z"/>
			<path class="st0" d="M144,112.67l-0.3,1.73h-1.75l-0.7,4.05h-1.7l0.7-4.05h-1.75l0.3-1.73H144z"/>
		</g>
	</g>
</g>
</svg>
