<?xml version="1.0" encoding="utf-8"?>
<!-- Generator: Adobe Illustrator 25.2.0, SVG Export Plug-In . SVG Version: 6.00 Build 0)  -->
<svg version="1.0" id="Layer_1" xmlns="http://www.w3.org/2000/svg" xmlns:xlink="http://www.w3.org/1999/xlink" x="0px" y="0px"
	 width="763.4px" height="627.94px" viewBox="0 0 763.4 627.94" style="enable-background:new 0 0 763.4 627.94;"
	 xml:space="preserve">
<style type="text/css">
	.st0{fill:#EC1C24;}
	.st1{fill:#4155A4;}
</style>
<g>
	<g>
		<g>
			<path d="M74.97,152.53c26.75,0,43.03,16.82,54.92,29.11c3.61,3.73,6.93,7.14,9.96,9.49h30.02c3.07-10.22,11.03-18.18,21.25-21.25
				v-30.15c-2.38-3.1-5.85-6.47-9.64-10.14c-12.22-11.8-28.96-27.97-28.96-54.62c0-23.24,16.62-42.65,38.6-47.01V0H0.01v191.12
				h27.96C32.32,169.15,51.74,152.53,74.97,152.53z"/>
			<path d="M400.93,0H209.81v27.96c21.97,4.36,38.6,23.77,38.6,47.01c0,26.75-16.82,43.03-29.11,54.92
				c-3.73,3.61-7.14,6.93-9.49,9.96v30.02c10.22,3.07,18.18,11.03,21.25,21.25h30.15c3.1-2.38,6.47-5.85,10.14-9.64
				c11.8-12.22,27.97-28.96,54.62-28.96c23.24,0,42.65,16.62,47.01,38.6h27.96V0H400.93z"/>
			<path d="M152.53,325.96c0-26.75,16.82-43.03,29.11-54.92c3.73-3.61,7.14-6.93,9.49-9.96v-30.02
				c-10.22-3.07-18.18-11.03-21.25-21.25h-30.15c-3.1,2.38-6.47,5.85-10.14,9.64c-11.8,12.22-27.97,28.96-54.62,28.96
				c-23.24,0-42.65-16.62-47.01-38.6H0v191.12h191.12v-27.96C169.15,368.61,152.53,349.2,152.53,325.96z"/>
			<path d="M325.97,248.4c-26.75,0-43.03-16.82-54.92-29.11c-3.61-3.73-6.93-7.14-9.96-9.49h-30.02
				c-3.07,10.22-11.03,18.18-21.25,21.25v30.15c2.38,3.1,5.85,6.47,9.64,10.14c12.22,11.8,28.96,27.97,28.96,54.62
				c0,23.24-16.62,42.65-38.6,47.01v27.96h191.12V209.8h-27.96C368.61,231.78,349.2,248.4,325.97,248.4z"/>
		</g>
		<g>
			<path d="M503.67,209.8h-81.55c-7.34,0-13.29,5.95-13.29,13.29v164.54c0,7.34,5.95,13.29,13.29,13.29h81.55
				c7.34,0,13.29-5.95,13.29-13.29V223.1C516.97,215.76,511.02,209.8,503.67,209.8z M494.99,336.62L462.9,385.6l-32.09-48.98V290.4
				l21.91,30.66v-95.92h20.36v95.92l21.91-30.66L494.99,336.62L494.99,336.62z"/>
		</g>
		<g>
			<path d="M619.71,209.8h-81.55c-7.34,0-13.29,5.95-13.29,13.29v164.54c0,7.34,5.95,13.29,13.29,13.29h81.55
				c7.34,0,13.29-5.95,13.29-13.29V223.1C633,215.76,627.05,209.8,619.71,209.8z M611.03,336.62l-32.09,48.98l-32.09-48.98V290.4
				l21.91,30.66v-95.92h20.36v95.92l21.91-30.66L611.03,336.62L611.03,336.62z"/>
		</g>
		<polygon class="st0" points="209.81,0 400.93,0 400.93,191.12 		"/>
		<path class="st1" d="M325.97,156.52c-40.83,0-55.21,41.77-71.73,41.77c-6.56,0-16.39,0-25.85,0c-1.06-13.73-12-24.68-25.73-25.73
			c0-9.53,0-19.4,0-25.85c0-16.17,41.77-30.9,41.77-71.73c0-24.27-19.68-43.95-43.95-43.95s-43.95,19.68-43.95,43.95
			c0,40.83,41.77,55.21,41.77,71.73c0,6.56,0,16.39,0,25.85c-13.73,1.06-24.68,12-25.73,25.73c-9.53,0-19.4,0-25.85,0
			c-16.17,0-30.9-41.77-71.73-41.77c-24.27,0-43.95,19.68-43.95,43.95c0,24.27,19.68,43.95,43.95,43.95
			c40.83,0,55.21-41.77,71.73-41.77c6.56,0,16.39,0,25.85,0c1.06,13.73,12,24.68,25.73,25.73c0,9.53,0,19.4,0,25.85
			c0,16.17-41.77,30.9-41.77,71.73c0,24.27,19.68,43.95,43.95,43.95s43.95-19.68,43.95-43.95c0-40.83-41.77-55.21-41.77-71.73
			c0-6.56,0-16.39,0-25.85c13.73-1.06,24.68-12,25.73-25.73c9.53,0,19.4,0,25.85,0c16.17,0,30.9,41.77,71.73,41.77
			c24.27,0,43.95-19.68,43.95-43.95C369.91,176.19,350.24,156.52,325.97,156.52z"/>
		<g>
			<path d="M58.43,518.85l13.62-49.67H17.34L1.23,530.1c-0.24,1.09-0.46,2.2-0.63,3.32c-0.17,1.13-0.31,2.23-0.41,3.32
				c-0.79,8.62,1.22,15.88,6.04,21.78c4.75,5.82,11.37,8.73,19.84,8.73h96.52l12.32-38.82H65.75
				C60.74,528.43,57.11,523.67,58.43,518.85z"/>
			<path d="M276.66,469.18l-12.09,44.67c-0.9,3.33-3.92,5.64-7.37,5.64h-34.23c-5.02,0-8.66-4.76-7.35-9.61l11.02-40.71h-47.48
				l-16.28,60.92c-0.26,1.09-0.48,2.16-0.66,3.2c-0.18,1.05-0.32,2.12-0.43,3.2c-0.86,8.77,1.28,16.11,6.41,22.02
				c5.07,5.82,12.12,8.73,21.15,8.73h71.1c10.19,0,19.89-3.61,29.09-10.83c9.37-7.38,15.4-16.15,18.1-26.33l16.51-60.92h-47.49
				V469.18z"/>
			<polygon points="684.91,469.18 602.22,530.39 586.31,469.18 543.9,469.18 533.61,469.18 350.03,469.18 324.14,567.26 
				373.95,567.26 389.66,506.62 540.69,506.62 552.16,567.26 552.4,567.26 611.8,567.26 723.39,567.26 735.71,519.5 678.78,519.5 
				749.75,469.18 			"/>
			<path d="M66.86,415.91c-9.56,0-18.7,2.89-27.4,8.68c-8.63,5.79-14.22,12.79-16.75,21l-2.71,8.5h135.93l12.31-38.18H66.86z"/>
			<path d="M326.2,443.71c0-15.35-12.45-27.8-27.8-27.8h-71.07c-9.56,0-18.7,2.89-27.4,8.68c-8.63,5.79-14.22,12.79-16.75,21
				l-2.71,8.5H326.2V443.71z"/>
			<path d="M505.37,454.09h79.82l-8.84-38.18h-38.61c-11.27,0-21.74,5.86-27.63,15.47l-1.17,1.91c-0.81-3.95-2.75-7.41-5.87-10.38
				c-4.9-4.67-11.58-7-20.06-7H364.86l-21.3,38.18H496.2L505.37,454.09L505.37,454.09z"/>
			<polygon points="631.97,415.91 608.57,454.09 752.98,454.09 763.4,415.91 			"/>
		</g>
	</g>
	<g>
		<g>
			<path d="M26.59,618.72l-1.61,9.21H0l5.24-30.66h9.02l-3.7,21.45L26.59,618.72L26.59,618.72z"/>
			<path d="M41.83,597.27l-5.3,30.66h-8.96l5.24-30.66H41.83z"/>
			<path d="M71.87,597.27l-1.61,9.19H51.73l-2.09,12.26h9.51l0.46-2.54h-4.03l1.21-7.16h13.03l-2,11.75
				c-0.32,1.96-1.31,3.65-2.95,5.08c-1.61,1.39-3.39,2.09-5.33,2.09H46.03c-1.72,0-3.11-0.56-4.18-1.68
				c-1.09-1.14-1.63-2.55-1.63-4.24c0-0.21,0.01-0.42,0.02-0.62c0.01-0.2,0.04-0.41,0.07-0.62l2.77-16.35
				c0.32-1.98,1.29-3.66,2.91-5.05c1.63-1.39,3.41-2.09,5.35-2.09h20.53V597.27z"/>
			<path d="M101.91,597.27l-5.3,30.66h-9.02l2.07-11.75h-9.53l-2.05,11.75h-8.96l5.24-30.66h9.02l-2.05,11.75h9.51l2.05-11.75
				H101.91z"/>
			<path d="M131.96,597.27l-1.61,9.19h-9.27l-3.7,21.47h-9.02l3.72-21.47h-9.27l1.58-9.19H131.96z"/>
			<path d="M179.52,597.27l-1.61,9.19h-18.53l-2.09,12.26h18.53l-1.61,9.21h-20.54c-1.72,0-3.11-0.56-4.18-1.68
				c-1.09-1.14-1.63-2.55-1.63-4.24c0-0.21,0.01-0.42,0.02-0.62c0.01-0.2,0.04-0.41,0.07-0.62l2.77-16.35
				c0.32-1.98,1.29-3.66,2.91-5.05c1.63-1.39,3.41-2.09,5.35-2.09h20.54V597.27z"/>
			<path d="M208.42,603.2c0,0.21-0.01,0.41-0.03,0.61c-0.02,0.19-0.05,0.4-0.08,0.61l-2.79,16.35c-0.32,1.96-1.31,3.65-2.95,5.08
				c-1.61,1.39-3.39,2.09-5.33,2.09h-13.51c-1.72,0-3.11-0.56-4.18-1.68c-1.09-1.14-1.63-2.55-1.63-4.24c0-0.21,0.01-0.42,0.02-0.62
				c0.01-0.2,0.04-0.41,0.07-0.62l2.77-16.35c0.32-1.98,1.29-3.66,2.91-5.05c1.63-1.39,3.41-2.09,5.35-2.09h13.51
				c1.72,0,3.13,0.56,4.23,1.68C207.87,600.08,208.42,601.5,208.42,603.2z M198.96,606.46h-9.53l-2.09,12.26h9.51L198.96,606.46z"/>
			<path d="M238.46,603.2c0,0.21-0.01,0.41-0.03,0.61c-0.02,0.19-0.05,0.4-0.08,0.61l-4.05,23.51h-9.02l3.72-21.47h-9.53l-3.7,21.47
				h-8.96l5.24-30.66h20.54c1.72,0,3.13,0.56,4.23,1.68C237.91,600.08,238.46,601.5,238.46,603.2z"/>
			<path d="M269.65,597.27l-1.61,9.19h-18.53l-0.44,2.56h11.51c1.75,0,3.17,0.56,4.27,1.68c1.1,1.12,1.65,2.54,1.65,4.24
				c0,0.21-0.01,0.42-0.03,0.62s-0.05,0.41-0.08,0.62l-0.79,4.58c-0.32,1.96-1.31,3.65-2.95,5.08c-1.61,1.39-3.39,2.09-5.33,2.09
				h-20.47l1.54-9.21h18.53l0.46-2.54h-11.53c-1.73,0-3.15-0.56-4.25-1.68c-1.1-1.14-1.65-2.54-1.65-4.2c0-0.22,0.01-0.44,0.02-0.65
				c0.01-0.21,0.04-0.42,0.07-0.63l0.81-4.6c0.32-1.98,1.29-3.66,2.91-5.05c1.63-1.39,3.41-2.09,5.35-2.09h20.54V597.27z"/>
			<path d="M299.7,597.27l-1.61,9.19h-9.27l-3.7,21.47h-9.02l3.72-21.47h-9.27l1.58-9.19H299.7z"/>
			<path d="M328.59,603.2c0,0.21-0.01,0.41-0.03,0.61c-0.02,0.19-0.05,0.4-0.08,0.61l-0.79,4.6c-0.18,1.05-1.03,2.24-2.55,3.57
				c0.89,1.15,1.34,2.18,1.34,3.08v0.52l-2.05,11.75h-9.02l2.07-11.75h-9.53l-2.05,11.75h-8.96l5.24-30.66h20.54
				c1.72,0,3.13,0.56,4.23,1.68C328.04,600.08,328.59,601.5,328.59,603.2z M319.13,606.46h-9.53l-0.44,2.56h9.51L319.13,606.46z"/>
			<path d="M359.78,597.27l-4.05,23.49c-0.32,1.96-1.31,3.65-2.95,5.08c-1.61,1.39-3.39,2.09-5.33,2.09h-13.51
				c-1.72,0-3.11-0.56-4.18-1.68c-1.09-1.14-1.63-2.55-1.63-4.24c0-0.21,0.01-0.42,0.02-0.62s0.04-0.41,0.07-0.62l4.01-23.49h9.02
				l-3.7,21.45h9.51l3.7-21.45h9.02V597.27z"/>
			<path d="M389.83,597.27l-1.61,9.19h-18.53l-2.09,12.26h18.53l-1.61,9.21h-20.54c-1.72,0-3.11-0.56-4.18-1.68
				c-1.09-1.14-1.63-2.55-1.63-4.24c0-0.21,0.01-0.42,0.02-0.62s0.04-0.41,0.07-0.62l2.77-16.35c0.32-1.98,1.29-3.66,2.91-5.05
				c1.63-1.39,3.41-2.09,5.35-2.09h20.54V597.27z"/>
			<path d="M419.87,597.27l-1.61,9.19h-9.27l-3.7,21.47h-9.02l3.72-21.47h-9.27l1.58-9.19H419.87z"/>
			<path d="M431.38,597.27l-5.3,30.66h-8.96l5.24-30.66H431.38z"/>
			<path d="M460.28,603.2c0,0.21-0.01,0.41-0.03,0.61c-0.02,0.19-0.05,0.4-0.08,0.61l-2.79,16.35c-0.32,1.96-1.31,3.65-2.95,5.08
				c-1.61,1.39-3.39,2.09-5.33,2.09h-13.51c-1.72,0-3.11-0.56-4.18-1.68c-1.09-1.14-1.63-2.55-1.63-4.24c0-0.21,0.01-0.42,0.02-0.62
				s0.04-0.41,0.07-0.62l2.77-16.35c0.32-1.98,1.29-3.66,2.91-5.05c1.63-1.39,3.41-2.09,5.35-2.09h13.51c1.72,0,3.13,0.56,4.23,1.68
				C459.73,600.08,460.28,601.5,460.28,603.2z M450.82,606.46h-9.53l-2.09,12.26h9.5L450.82,606.46z"/>
			<path d="M490.32,603.2c0,0.21-0.01,0.41-0.03,0.61c-0.02,0.19-0.05,0.4-0.08,0.61l-4.05,23.51h-9.02l3.72-21.47h-9.53l-3.7,21.47
				h-8.96l5.24-30.66h20.53c1.72,0,3.13,0.56,4.23,1.68C489.77,600.08,490.32,601.5,490.32,603.2z"/>
			<path d="M536.52,597.27l-1.61,9.19h-16.02l-0.44,2.56h16.02l-1.21,7.16h-16.02l-0.44,2.54h16.02l-1.61,9.21h-24.98l5.24-30.66
				H536.52z"/>
			<path d="M565.44,603.2c0,0.21-0.01,0.41-0.03,0.61c-0.02,0.19-0.05,0.4-0.08,0.61l-2.44,14.31h2.49l-1.58,9.21h-23.04
				c-1.72,0-3.11-0.56-4.18-1.68c-1.09-1.14-1.63-2.55-1.63-4.24c0-0.21,0.01-0.42,0.02-0.62s0.04-0.41,0.07-0.62l2.77-16.35
				c0.32-1.98,1.29-3.66,2.91-5.05c1.63-1.39,3.41-2.09,5.35-2.09h13.51c1.72,0,3.13,0.56,4.23,1.68
				C564.89,600.08,565.44,601.5,565.44,603.2z M555.98,606.46h-9.53l-2.09,12.26h9.51L555.98,606.46z"/>
			<path d="M599.14,597.27l-4.05,23.49c-0.32,1.96-1.31,3.65-2.95,5.08c-1.61,1.39-3.39,2.09-5.33,2.09H573.3
				c-1.72,0-3.11-0.56-4.18-1.68c-1.09-1.14-1.63-2.55-1.63-4.24c0-0.21,0.01-0.42,0.02-0.62s0.04-0.41,0.07-0.62l4.01-23.49h9.02
				l-3.7,21.45h9.51l3.7-21.45h9.02V597.27z"/>
			<path d="M610.65,597.27l-5.3,30.66h-8.96l5.24-30.66H610.65z"/>
			<path d="M639.55,603.2c0,0.21-0.01,0.41-0.03,0.61c-0.02,0.19-0.05,0.4-0.08,0.61l-0.79,4.6c-0.32,1.96-1.29,3.65-2.9,5.08
				c-1.61,1.39-3.38,2.09-5.3,2.09h-11.53l-2.05,11.75h-8.96l5.24-30.66h20.53c1.72,0,3.13,0.56,4.23,1.68
				C639,600.08,639.55,601.5,639.55,603.2z M630.09,606.46h-9.53l-0.44,2.56h9.51L630.09,606.46z"/>
			<path d="M675.76,597.27l-5.33,30.66h-9l2.2-12.82l-9.46,12.82l-5.06-12.82l-2.2,12.82h-8.96l5.24-30.66h9.02l5.06,12.82
				l9.46-12.82H675.76z"/>
			<path d="M703.29,597.27l-1.61,9.19h-16.02l-0.44,2.56h16.02l-1.21,7.16h-16.02l-0.44,2.54h16.02l-1.61,9.21H673l5.24-30.66
				H703.29z"/>
			<path d="M732.21,603.2c0,0.21-0.01,0.41-0.03,0.61c-0.02,0.19-0.05,0.4-0.08,0.61l-4.05,23.51h-9.02l3.72-21.47h-9.53l-3.7,21.47
				h-8.96l5.24-30.66h20.53c1.72,0,3.13,0.56,4.23,1.68C731.66,600.08,732.21,601.5,732.21,603.2z"/>
			<path d="M763.4,597.27l-1.61,9.19h-9.27l-3.7,21.47h-9.02l3.72-21.47h-9.27l1.58-9.19H763.4z"/>
		</g>
	</g>
</g>
</svg>
