<?xml version="1.0" encoding="utf-8"?>
<!-- Generator: Adobe Illustrator 25.2.0, SVG Export Plug-In . SVG Version: 6.00 Build 0)  -->
<svg version="1.0" id="Layer_1" xmlns="http://www.w3.org/2000/svg" xmlns:xlink="http://www.w3.org/1999/xlink" x="0px" y="0px"
	 width="450.69px" height="55.33px" viewBox="0 0 450.69 55.33" style="enable-background:new 0 0 450.69 55.33;"
	 xml:space="preserve">
<style type="text/css">
	.st0{fill:#FFFFFF;}
</style>
<g>
	<path class="st0" d="M450.65,3.77c0,0-0.01,32.07,0.04,48.1c0,1.81-0.39,2.5-2.38,2.45c-6.05-0.14-12.1-0.11-18.15-0.02
		c-2.41,0.03-3.92-0.91-5.07-3.04c-5.45-10.09-11-20.13-16.51-30.18c-0.21-0.38-0.43-0.74-0.64-1.11c-0.14,0.02-0.28,0.05-0.42,0.08
		c0,11.33,0,22.66,0,34.11c-5.4,0-10.61,0-15.97,0c0-17.61,0-35.17,0-52.83c0.52-0.05,1.01-0.13,1.49-0.13
		c6.24-0.01,12.48,0.03,18.71-0.02c2.38-0.02,3.91,0.89,5.06,3.05c5.48,10.29,11.08,20.51,16.65,30.75
		c0.32,0.59,0.69,1.15,1.37,1.67c0-11.73,0-23.47,0-35.32c5.27,0,10.55,0,15.83,0"/>
	<path class="st0" d="M450.65,1.32c0,0,0,1.61,0,2.44"/>
	<path class="st0" d="M0,54.27C0,36.5,0,18.96,0,1.2c0.84,0,1.57,0,2.3,0c14.9,0,29.81,0.03,44.71-0.02
		c4.12-0.01,7.29,1.55,9.38,5.06c2.55,4.28,5.09,8.58,7.36,13.01c2.85,5.56,2.88,11.33,0.05,16.91c-2.22,4.38-4.73,8.63-7.22,12.86
		c-2.14,3.62-5.33,5.31-9.63,5.28c-14.97-0.08-29.93-0.03-44.9-0.03C1.43,54.27,0.81,54.27,0,54.27z M18.79,46.82
		c0.18,0.02,0.32,0.09,0.41,0.06c7.5-2.67,15.01-5.33,22.49-8.06c1.97-0.72,2.84-2.32,2.84-4.4c0-4.37,0.01-8.73,0-13.1
		c-0.01-2.58-0.91-3.92-3.3-4.85c-2.91-1.12-5.82-2.22-8.75-3.26c-4.5-1.6-9.02-3.15-13.7-4.78C18.79,21.43,18.79,34.13,18.79,46.82
		z"/>
	<path class="st0" d="M124.57,41c0,4.5,0,8.77,0,13.27c-0.77,0-1.44,0-2.1,0c-15.23,0-30.45,0-45.67,0c-3.43,0-4.37-0.92-4.38-4.28
		c0-15.6,0-31.2,0-46.79c0-0.55,0-1.11,0-1.83c17.43,0,34.73,0,52.14,0c0,4.16,0,8.31,0,12.61c-11.15,0-22.23,0-33.45,0
		c0,2.49,0,4.83,0,7.43c10.95,0,21.95,0,33.05,0c0,4.16,0,8.06,0,12.16c-11.01,0-21.96,0-33.05,0c0,2.54,0,4.86,0,7.43
		C102.22,41,113.35,41,124.57,41z"/>
	<path class="st0" d="M207.39,1.3c17.55,0,34.81,0,52.19,0c0,4.25,0,8.4,0,12.74c-11.23,0-22.36,0-33.59,0c0,2.48,0,4.77,0,7.31
		c10.96,0,21.89,0,32.98,0c0,4.14,0,8.03,0,12.18c-10.9,0-21.84,0-32.93,0c0,2.58,0,4.9,0,7.45c11.16,0,22.29,0,33.53,0
		c0,4.48,0,8.75,0,13.3c-0.73,0-1.39,0-2.05,0c-15.22,0-30.44,0-45.66,0c-3.52,0-4.47-0.94-4.47-4.4c0-15.53,0-31.07,0-46.6
		C207.39,2.62,207.39,1.95,207.39,1.3z"/>
	<path class="st0" d="M130.1,1.2c0.77,0,1.37,0,1.97,0c5.3,0,10.6,0.06,15.9-0.06c1.6-0.04,2.26,0.56,2.81,1.95
		c4.74,11.93,9.54,23.82,14.32,35.73c0.29,0.72,0.61,1.43,1.1,2.57c1.47-3.58,2.78-6.72,4.04-9.87c3.82-9.54,7.66-19.08,11.42-28.64
		c0.52-1.33,1.21-1.75,2.61-1.72c5.3,0.08,10.6,0.03,15.9,0.04c0.54,0,1.09,0.05,1.88,0.09c-1.87,4.29-3.66,8.39-5.44,12.48
		c-5.42,12.45-10.86,24.89-16.24,37.37c-0.94,2.18-2.4,3.16-4.74,3.14c-6.49-0.04-12.97-0.05-19.46,0
		c-2.28,0.01-3.72-0.95-4.62-3.05c-6.96-16.19-13.96-32.37-20.95-48.56C130.43,2.28,130.32,1.87,130.1,1.2z"/>
	<path class="st0" d="M267.19,1.27c6.26,0,12.23,0,18.42,0c0,13.03,0,26.03,0,39.23c11.16,0,22.1,0,33.18,0c0,4.66,0,9.1,0,13.78
		c-0.75,0-1.42,0-2.09,0c-14.97,0-29.94,0-44.9,0c-3.86,0-4.61-0.74-4.61-4.56c0-15.4,0-30.8,0-46.21
		C267.19,2.83,267.19,2.16,267.19,1.27z"/>
	<path class="st0" d="M385.55,27.35c0-0.43,0-0.85,0-1.28c-0.08-6.34-1.69-11.64-4.68-15.73c0-0.01-0.01-0.01-0.02-0.02
		c-0.08-0.11-0.16-0.21-0.24-0.32c-0.11-0.15-0.23-0.3-0.35-0.45c-0.05-0.06-0.1-0.13-0.16-0.19c-0.14-0.17-0.29-0.34-0.43-0.51
		c-0.06-0.06-0.11-0.13-0.17-0.19c-0.11-0.13-0.23-0.25-0.35-0.38c-2.94-3.09-6.85-5.3-11.67-6.52c-4.45-1.13-8.93-1.71-13.41-1.76
		c-0.12,0-0.23,0-0.35,0c-4.62-0.01-9.24,0.55-13.83,1.71c-2.79,0.71-5.29,1.71-7.49,3.02c-5.14,2.95-8.56,7.64-9.96,14.08
		c-0.1,0.41-0.19,0.83-0.27,1.25c-0.5,2.63-0.72,5.27-0.69,7.92c0,0.43,0,0.85,0,1.28c0.08,6.34,1.69,11.64,4.68,15.73
		c0,0.01,0.01,0.01,0.02,0.02c0.08,0.11,0.16,0.21,0.24,0.32c0.11,0.15,0.23,0.3,0.35,0.45c0.05,0.06,0.1,0.13,0.16,0.19
		c0.14,0.17,0.29,0.34,0.43,0.51c0.06,0.06,0.11,0.13,0.17,0.19c0.11,0.13,0.23,0.25,0.35,0.38c2.94,3.09,6.85,5.3,11.67,6.52
		c4.45,1.13,8.93,1.71,13.41,1.76c0.12,0,0.23,0,0.35,0c4.62,0.01,9.24-0.55,13.83-1.71c2.79-0.71,5.29-1.71,7.49-3.02
		c5.14-2.95,8.56-7.64,9.96-14.08c0.1-0.41,0.19-0.83,0.27-1.25C385.36,32.63,385.58,29.99,385.55,27.35z M366.67,23.27
		c0.13,1.03,0.21,2.08,0.25,3.13c0,0.41-0.01,0.81-0.01,1.22c0.01,0,0.02,0,0.03,0c0,1.51-0.11,3.03-0.34,4.5
		c-0.38,2.13-1.12,3.9-2.18,5.31c-1.46,1.84-3.59,3.03-6.35,3.38c-3.23,0.4-6.61,0.42-9.81-0.08c-3.98-0.63-6.58-3.27-7.63-7.18
		c-0.12-0.48-0.21-0.98-0.28-1.5c-0.13-1.03-0.21-2.08-0.25-3.13c0-0.41,0.01-0.81,0.01-1.22c-0.01,0-0.02,0-0.03,0
		c0-1.51,0.11-3.03,0.34-4.5c0.38-2.13,1.12-3.9,2.18-5.31c1.46-1.84,3.59-3.03,6.35-3.38c3.23-0.4,6.61-0.42,9.81,0.08
		c3.98,0.63,6.58,3.27,7.63,7.18C366.5,22.25,366.6,22.75,366.67,23.27z"/>
</g>
</svg>
