<?xml version="1.0" encoding="utf-8"?>
<!-- Generator: Adobe Illustrator 25.2.0, SVG Export Plug-In . SVG Version: 6.00 Build 0)  -->
<svg version="1.0" id="Layer_1" xmlns="http://www.w3.org/2000/svg" xmlns:xlink="http://www.w3.org/1999/xlink" x="0px" y="0px"
	 width="207.35px" height="82.95px" viewBox="0 0 207.35 82.95" style="enable-background:new 0 0 207.35 82.95;"
	 xml:space="preserve">
<style type="text/css">
	.st0{fill:#FFFFFF;}
	.st1{fill-rule:evenodd;clip-rule:evenodd;fill:#FFFFFF;}
</style>
<g>
	<g>
		<path class="st0" d="M22.84,57.6h14.33v2.39h-10.2v1.92h9.7v2.34h-9.7v3.51h-4.13L22.84,57.6L22.84,57.6z M52.56,67.77l-1.24-1.72
			h-9.54l-1.24,1.72h-5.02l7.65-10.16H50l7.55,10.16H52.56L52.56,67.77z M49.78,63.82L47,59.97h-0.88l-2.78,3.85H49.78L49.78,63.82z
			 M59.32,67.77V57.61h9.98c2.34,0.01,3.74,0.02,4.21,0.06c0.46,0.03,0.91,0.15,1.34,0.35c0.52,0.23,0.87,0.55,1.06,0.97
			c0.19,0.41,0.29,1.05,0.29,1.93c0,0.74-0.06,1.28-0.18,1.63s-0.35,0.63-0.69,0.83c-0.36,0.22-0.91,0.38-1.65,0.46
			c0.87,0.05,1.49,0.24,1.87,0.56c0.22,0.19,0.36,0.43,0.42,0.7c0.06,0.28,0.09,0.85,0.09,1.73v0.95h-4.07v-0.54
			c0-0.57-0.03-0.97-0.08-1.21c-0.06-0.24-0.16-0.43-0.31-0.56c-0.15-0.12-0.36-0.19-0.63-0.23c-0.27-0.03-0.83-0.05-1.68-0.05
			h-5.82v2.58L59.32,67.77L59.32,67.77z M63.45,62.64h5.81c1.01-0.02,1.62-0.03,1.81-0.04c0.19-0.01,0.36-0.05,0.5-0.12
			c0.18-0.08,0.3-0.21,0.38-0.37c0.07-0.17,0.11-0.42,0.11-0.76c0-0.33-0.04-0.58-0.13-0.74c-0.08-0.16-0.22-0.28-0.43-0.36
			c-0.15-0.05-0.32-0.08-0.52-0.09c-0.2-0.01-0.78-0.02-1.73-0.02h-5.8V62.64L63.45,62.64z M78.86,57.6h8.12l4.37,6.6l4.37-6.6h8.07
			v10.16h-4.41l0.11-7.61h-0.73l-5.54,7.61H89.5l-5.54-7.61h-0.79l0.11,7.61h-4.41L78.86,57.6L78.86,57.6z M105.5,57.6h16.4v2.59
			h-6.03v7.57h-4.34v-7.57h-6.04V57.6H105.5z M123.29,67.77V57.61h9.98c2.34,0,3.74,0.02,4.21,0.06c0.46,0.03,0.91,0.15,1.34,0.35
			c0.52,0.23,0.87,0.55,1.06,0.97c0.19,0.41,0.29,1.05,0.29,1.93c0,0.74-0.06,1.28-0.18,1.63s-0.35,0.63-0.69,0.83
			c-0.36,0.22-0.91,0.38-1.65,0.46c0.87,0.05,1.49,0.24,1.87,0.56c0.22,0.19,0.36,0.43,0.42,0.7c0.06,0.28,0.09,0.85,0.09,1.73v0.95
			h-4.07v-0.54c0-0.57-0.03-0.97-0.08-1.21c-0.06-0.24-0.16-0.43-0.31-0.56c-0.15-0.12-0.36-0.19-0.63-0.23
			c-0.27-0.03-0.83-0.05-1.68-0.05h-5.82v2.58L123.29,67.77L123.29,67.77z M127.42,62.64h5.81c1.01-0.02,1.62-0.03,1.81-0.04
			c0.19-0.01,0.36-0.05,0.5-0.12c0.18-0.08,0.3-0.21,0.38-0.37c0.07-0.17,0.11-0.42,0.11-0.76c0-0.33-0.04-0.58-0.13-0.74
			c-0.08-0.16-0.22-0.28-0.43-0.36c-0.15-0.05-0.32-0.08-0.52-0.09c-0.2-0.01-0.78-0.02-1.73-0.02h-5.8V62.64L127.42,62.64z
			 M179,63.84h4.13c0.02,0.5,0.04,0.82,0.04,0.96c0,0.79-0.16,1.4-0.47,1.84c-0.34,0.5-1.01,0.83-2.01,1.01s-2.73,0.27-5.18,0.27
			c-2.58,0-4.42-0.04-5.51-0.11s-1.92-0.22-2.48-0.43c-0.49-0.19-0.87-0.45-1.11-0.78s-0.4-0.78-0.48-1.35
			c-0.06-0.46-0.09-1.3-0.09-2.5c0-1.18,0.03-2.03,0.09-2.55c0.06-0.52,0.18-0.93,0.35-1.21c0.38-0.65,1.14-1.06,2.29-1.26
			c1.15-0.19,3.47-0.29,6.97-0.29c1.75,0,3.02,0.03,3.81,0.09c0.8,0.06,1.43,0.17,1.9,0.34c0.62,0.22,1.05,0.54,1.3,0.97
			s0.38,1.06,0.38,1.9c0,0.04,0,0.21-0.01,0.51h-4.13c-0.02-0.34-0.05-0.56-0.08-0.68c-0.04-0.11-0.11-0.21-0.22-0.28
			c-0.16-0.1-0.56-0.18-1.2-0.23s-1.61-0.07-2.92-0.07c-1.29,0-2.19,0.02-2.68,0.06c-0.5,0.04-0.85,0.12-1.05,0.25
			c-0.24,0.15-0.41,0.4-0.51,0.75c-0.09,0.35-0.14,0.91-0.14,1.68s0.04,1.31,0.13,1.63c0.08,0.32,0.25,0.54,0.5,0.68
			c0.23,0.13,0.6,0.22,1.1,0.27c0.51,0.04,1.4,0.07,2.69,0.07c1.58,0,2.64-0.02,3.16-0.06c0.53-0.04,0.88-0.13,1.07-0.26
			C178.86,64.88,178.99,64.48,179,63.84L179,63.84z M159.45,67.77l-1.24-1.72h-9.54l-1.24,1.72h-5.02l7.65-10.16h6.83l7.55,10.16
			H159.45L159.45,67.77z M156.67,63.82l-2.78-3.85h-0.88l-2.78,3.85H156.67L156.67,63.82z"/>
		<path class="st1" d="M194.29,67.99c8.96-3.66,13.75-7.41,12.98-10.87c-2.24-10.04-50.45-13.81-107.66-8.42
			c-16.96,1.6-32.8,3.82-46.65,6.42l20.22,0.35c8.27-1.2,17.04-2.24,26.14-3.1c54.02-5.09,99.54-1.53,101.66,7.94
			C201.54,62.77,199.12,65.38,194.29,67.99L194.29,67.99z M19.03,63.55C6.29,67.88-0.85,72.47,0.08,76.63
			c0.56,2.52,4.02,4.64,9.78,6.32c-2.6-1.24-4.16-2.65-4.51-4.23c-0.77-3.43,4.27-7.17,13.56-10.78L19.03,63.55L19.03,63.55z"/>
	</g>
	<g>
		<g>
			<path class="st0" d="M65.01,13.82c-0.25,0.45-0.49,0.86-0.73,1.27c-1.13,1.97-2.27,3.95-3.4,5.92c-0.54,0.94-1.28,1.61-2.4,1.71
				c-0.66,0.06-1.32,0.07-1.98,0.06c-1.8-0.03-3.6,0.01-5.4-0.05c-0.89-0.03-1.78,0.06-2.67-0.03c-0.91-0.1-1.65-0.41-2.22-1.17
				c-0.67-0.9-1.13-1.9-1.68-2.86c-1.07-1.86-2.14-3.71-3.19-5.58c-0.42-0.75-0.68-1.54-0.45-2.43c0.17-0.67,0.51-1.25,0.85-1.83
				c1.21-2.07,2.4-4.16,3.61-6.23c0.32-0.55,0.67-1.09,1.07-1.58c0.54-0.65,1.28-0.98,2.09-0.99c3.08-0.03,6.17-0.06,9.25,0.01
				c1.44,0.03,2.6,0.72,3.33,2.06c1.22,2.24,2.48,4.45,3.73,6.67c0.04,0.07,0.08,0.14,0.14,0.24c-0.94,0-1.84,0-2.74,0
				c-1.13,0-2.25,0-3.38,0c-0.39,0-0.67-0.08-0.93-0.45C57.03,7.3,55.86,6.4,54.3,6.09c-1.17-0.23-2.27-0.04-3.31,0.5
				c-0.42,0.22-0.83,0.45-1.2,0.75c-0.39,0.31-0.5,0.6-0.37,0.98c0.12,0.38,0.34,0.49,0.85,0.53c0.59,0.06,1.17-0.01,1.76-0.01
				c0.65,0,1.25,0.42,1.32,0.95c0.06,0.46,0.07,0.92,0.07,1.38c0,0.45-0.04,0.9-0.05,1.35c-0.01,0.66-0.45,1.17-1.11,1.2
				c-0.72,0.04-1.45,0.04-2.18,0.02c-0.39-0.01-0.64,0.18-0.82,0.48c-0.18,0.29-0.01,0.55,0.15,0.78c0.68,0.94,1.66,1.41,2.76,1.64
				c1.84,0.39,3.46-0.08,4.84-1.34c0.42-0.38,0.76-0.83,1.06-1.32c0.06-0.11,0.12-0.17,0.26-0.17
				C60.55,13.82,62.75,13.82,65.01,13.82z"/>
			<path class="st0" d="M114.25,15.51c-0.81,0-1.58,0-2.36,0c-0.36,0-0.72-0.02-1.07,0.01c-0.27,0.02-0.3-0.09-0.3-0.32
				c0.01-1.61,0-3.22,0-4.82c0-2.87,0-5.74-0.01-8.61c0-0.26,0.06-0.34,0.32-0.33c0.97,0.02,1.94,0.02,2.9,0
				c0.27,0,0.33,0.08,0.32,0.34c-0.01,2-0.01,3.99-0.01,5.99c0,0.34,0,0.34,0.31,0.18c4.15-2.14,9.21,0.18,10.21,4.73
				c0.91,4.17-1.88,7.85-5.64,8.52c-0.77,0.14-1.54,0.14-2.32,0.05c-0.16-0.02-0.24-0.07-0.24-0.25c0.01-1.04,0.01-2.08,0-3.12
				c0-0.3,0.16-0.19,0.29-0.15c1.24,0.32,2.36,0.1,3.33-0.73c1.14-0.99,1.55-2.26,1.15-3.71s-1.4-2.36-2.89-2.61
				c-1.99-0.34-3.76,0.9-4.19,2.88C113.94,14.2,114.03,14.85,114.25,15.51z"/>
			<path class="st0" d="M163.25,19.66c-0.79,0.81-1.63,1.34-2.65,1.55c-0.72,0.15-1.44,0.12-2.16,0.02
				c-0.12-0.02-0.18-0.08-0.18-0.21c0-1.06,0-2.12,0-3.18c0-0.26,0.15-0.13,0.25-0.1c1.41,0.39,2.64,0.06,3.63-0.99
				c0.97-1.02,1.25-2.25,0.8-3.58c-0.44-1.31-1.36-2.13-2.72-2.39c-2.38-0.46-4.48,1.45-4.28,3.85c0.02,0.24,0.08,0.48,0.15,0.7
				c0.05,0.18,0.04,0.24-0.17,0.24c-1.03-0.01-2.06-0.01-3.09,0c-0.15,0-0.23-0.04-0.25-0.21c-0.27-2.03,0.19-3.87,1.49-5.48
				c1.09-1.35,2.51-2.2,4.22-2.49c3.83-0.65,7.19,1.73,8.07,5.22c0.15,0.58,0.2,1.17,0.2,1.78c0,2.19-0.01,4.37,0,6.56
				c0,0.24-0.05,0.33-0.31,0.32c-0.9-0.02-1.81-0.01-2.71,0c-0.22,0-0.29-0.07-0.28-0.29C163.26,20.57,163.25,20.16,163.25,19.66z"
				/>
			<path class="st0" d="M132.88,19.4c0-0.5,0-1.01,0-1.51c0-0.17-0.01-0.26,0.23-0.2c2.26,0.61,4.33-0.73,4.68-3.04
				c0.28-1.82-1.16-3.74-2.99-4.01c-2.11-0.31-3.92,1.02-4.24,3.12c-0.08,0.5-0.03,1.01,0.13,1.49c0.06,0.19,0.04,0.26-0.18,0.26
				c-1.03-0.01-2.06-0.01-3.09,0c-0.23,0-0.26-0.13-0.28-0.29c-0.21-1.56,0.03-3.04,0.8-4.4c1.16-2.07,2.95-3.32,5.3-3.63
				c3.88-0.51,7.3,2.15,7.91,5.82c0.63,3.8-1.72,7.29-5.48,8.14c-0.85,0.19-1.71,0.2-2.57,0.08c-0.17-0.02-0.23-0.09-0.23-0.26
				C132.89,20.45,132.88,19.93,132.88,19.4z"/>
			<path class="st0" d="M93.11,21.31c-1.5,0-2.93,0-4.36,0c-0.14,0-0.21-0.08-0.29-0.16c-1.63-1.8-3.26-3.59-4.89-5.39
				c-1.26-1.39-2.52-2.79-3.79-4.17c-0.17-0.18-0.14-0.27,0.01-0.43c2.19-2.41,4.38-4.82,6.56-7.23c0.71-0.78,1.42-1.55,2.13-2.32
				c0.08-0.08,0.15-0.17,0.29-0.17c1.43,0,2.86,0,4.36,0c-0.34,0.38-0.63,0.71-0.93,1.04c-2.3,2.54-4.6,5.07-6.9,7.61
				c-0.32,0.36-0.64,0.73-0.97,1.08c-0.14,0.15-0.16,0.25-0.01,0.42c1.13,1.24,2.26,2.49,3.38,3.74
				C89.49,17.3,91.27,19.28,93.11,21.31z"/>
			<path class="st0" d="M144.12,11.31c0-3.14,0-6.28,0-9.43c0-0.44,0-0.44,0.46-0.44c0.94,0,1.87,0.01,2.81-0.01
				c0.22,0,0.28,0.06,0.28,0.28c-0.01,1.7,0,3.4-0.01,5.11c0,0.25,0.07,0.32,0.32,0.31c0.96-0.01,1.92,0,2.87-0.01
				c0.23,0,0.31,0.06,0.3,0.3c-0.01,0.98-0.02,1.95,0,2.93c0,0.26-0.09,0.31-0.32,0.3c-0.95-0.01-1.89,0.01-2.84-0.01
				c-0.27,0-0.33,0.08-0.33,0.34c0.01,3.3,0,6.6,0.01,9.9c0,0.31-0.09,0.38-0.38,0.37c-0.95-0.02-1.89-0.02-2.84,0
				c-0.27,0-0.33-0.08-0.33-0.33C144.12,17.72,144.12,14.51,144.12,11.31z"/>
			<path class="st0" d="M106.81,11.14c0,1-0.01,2,0,2.99c0.02,2.09-0.73,3.86-2.25,5.27c-1.59,1.48-3.5,2.09-5.67,1.85
				c-0.44-0.05-0.44-0.06-0.44-0.5c0-0.93,0.01-1.87,0-2.8c0-0.22,0.01-0.31,0.28-0.24c2.11,0.56,4.08-0.64,4.56-2.77
				c0.06-0.27,0.08-0.56,0.08-0.84c0.01-2.21,0.01-4.41,0-6.62c0-0.28,0.08-0.35,0.35-0.34c0.93,0.02,1.85,0.02,2.78,0
				c0.26,0,0.31,0.08,0.31,0.32C106.8,8.68,106.81,9.91,106.81,11.14z"/>
			<path class="st0" d="M74.96,8.48c0-2.24,0-4.48-0.01-6.71c0-0.27,0.07-0.33,0.33-0.33c0.98,0.01,1.96,0.01,2.94,0
				c0.2,0,0.27,0.05,0.27,0.26c-0.01,4.53-0.01,9.06,0,13.58c0,0.24-0.1,0.27-0.3,0.27c-0.98-0.01-1.96-0.01-2.94,0
				c-0.24,0-0.3-0.06-0.3-0.3C74.97,13,74.96,10.74,74.96,8.48z"/>
			<path class="st0" d="M93.1,10.96c0-1.18,0.01-2.35-0.01-3.53c0-0.23,0.06-0.3,0.3-0.3c0.94,0.01,1.87,0.02,2.81,0
				c0.3-0.01,0.39,0.06,0.39,0.37c-0.02,2.15,0,4.3-0.01,6.46c0,0.46,0.02,0.92,0.18,1.36c0.05,0.14,0.03,0.2-0.14,0.2
				c-1.06-0.01-2.12-0.01-3.19,0c-0.15,0-0.19-0.05-0.22-0.19c-0.06-0.38-0.1-0.77-0.1-1.16C93.09,13.1,93.1,12.03,93.1,10.96z"/>
		</g>
		<g>
			<path class="st0" d="M94.82,34.53c-0.56,0-1.1-0.01-1.65,0c-0.17,0-0.24-0.08-0.32-0.2c-0.64-0.95-1.28-1.91-1.93-2.89
				c-0.26,0.27-0.5,0.53-0.76,0.78c-0.1,0.1-0.08,0.21-0.08,0.32c0,0.59-0.01,1.18,0,1.76c0,0.18-0.06,0.23-0.23,0.23
				c-0.36-0.01-0.72-0.01-1.07,0c-0.16,0-0.22-0.04-0.22-0.21c0.01-2.14,0.01-4.29,0-6.43c0-0.17,0.05-0.22,0.22-0.21
				c0.36,0.01,0.72,0.02,1.07,0c0.21-0.01,0.24,0.08,0.23,0.26c-0.01,0.83,0,1.66,0,2.56c0.49-0.51,0.93-0.98,1.37-1.44
				c0.35-0.37,0.71-0.74,1.06-1.13c0.16-0.18,0.32-0.26,0.57-0.25c0.49,0.02,0.98,0.01,1.48,0.01c0.02,0.14-0.09,0.18-0.15,0.24
				c-0.75,0.75-1.49,1.51-2.25,2.25c-0.16,0.15-0.18,0.25-0.04,0.44c0.88,1.21,1.74,2.44,2.6,3.66
				C94.75,34.34,94.82,34.4,94.82,34.53z"/>
			<path class="st0" d="M133.08,30.23c0.54-0.67,1.19-0.91,1.98-0.73c0.36,0.08,0.68,0.24,0.86,0.56c0.1,0.17,0.15,0.15,0.26,0.02
				c0.55-0.64,1.25-0.76,2.02-0.55c0.68,0.18,1.11,0.72,1.12,1.45c0.01,1.11,0,2.23,0.01,3.34c0,0.16-0.04,0.23-0.21,0.22
				c-0.27-0.01-0.55-0.02-0.82,0c-0.24,0.02-0.33-0.05-0.32-0.31c0.02-0.66,0.01-1.32,0.01-1.99c0-0.34,0-0.67-0.05-1
				c-0.05-0.42-0.24-0.65-0.62-0.72c-0.39-0.07-0.77,0.09-0.94,0.42c-0.11,0.22-0.16,0.45-0.16,0.69c0,0.87-0.01,1.74,0,2.62
				c0,0.21-0.03,0.3-0.27,0.28c-0.27-0.02-0.55-0.02-0.82,0c-0.25,0.02-0.3-0.08-0.29-0.31c0.01-0.86,0.01-1.72,0.01-2.58
				c0-0.04,0-0.08,0-0.13c0-0.7-0.23-1-0.75-1.01c-0.56-0.01-0.97,0.43-0.97,1.04c0,0.89-0.01,1.79,0,2.68
				c0,0.22-0.04,0.32-0.29,0.3c-0.26-0.02-0.53-0.02-0.79,0c-0.22,0.01-0.31-0.04-0.31-0.29c0.01-1.47,0.01-2.94,0-4.41
				c0-0.23,0.07-0.3,0.28-0.27c0.12,0.02,0.25,0,0.38,0C133.04,29.57,133.04,29.57,133.08,30.23z"/>
			<path class="st0" d="M50.74,31.09c0-1.04,0.01-2.08,0-3.12c0-0.21,0.04-0.29,0.27-0.29c1.54,0.01,3.07,0.01,4.61,0
				c0.19,0,0.26,0.05,0.25,0.24c-0.02,0.26-0.02,0.53,0,0.79c0.02,0.21-0.07,0.23-0.25,0.23c-1.02-0.01-2.04,0-3.06-0.01
				c-0.24,0-0.31,0.06-0.3,0.3c0.02,0.3,0.02,0.61,0,0.91c-0.02,0.25,0.08,0.29,0.3,0.29c0.9-0.01,1.81,0,2.71-0.01
				c0.23,0,0.35,0.03,0.32,0.3c-0.03,0.27,0.08,0.63-0.05,0.79c-0.16,0.18-0.53,0.06-0.81,0.06c-0.75,0.01-1.49,0.01-2.24,0
				c-0.18,0-0.24,0.04-0.23,0.23c0.01,0.41,0.02,0.82,0,1.23c-0.01,0.2,0.07,0.24,0.26,0.24c1.04-0.01,2.08,0.01,3.12-0.01
				c0.26,0,0.33,0.08,0.3,0.31c-0.03,0.31,0.13,0.72-0.07,0.9c-0.18,0.15-0.58,0.05-0.88,0.05c-1.32,0-2.63-0.01-3.95,0.01
				c-0.24,0-0.3-0.06-0.29-0.29C50.75,33.19,50.74,32.14,50.74,31.09z"/>
			<path class="st0" d="M101.89,30.16c0.61-0.67,1.31-0.85,2.1-0.64c0.81,0.22,1.25,0.84,1.42,1.61c0.17,0.78,0.17,1.58-0.18,2.33
				c-0.58,1.23-1.86,1.42-2.9,0.94c-0.19-0.09-0.32-0.27-0.46-0.41c-0.02,0.01-0.04,0.03-0.04,0.04c-0.02,0.5-0.02,0.5-0.52,0.5
				c-0.79,0-0.79,0-0.79-0.8c0-1.91,0-3.83,0-5.74c0-0.23,0.04-0.33,0.29-0.3c0.27,0.02,0.55,0.02,0.82,0
				c0.23-0.02,0.28,0.07,0.27,0.28C101.88,28.68,101.89,29.39,101.89,30.16z M104.16,32.06c0.03-0.2-0.03-0.42-0.08-0.63
				c-0.13-0.58-0.57-0.96-1.08-0.97c-0.51,0-0.91,0.34-1.08,0.92c-0.14,0.47-0.13,0.95,0.02,1.41c0.17,0.52,0.57,0.87,1.04,0.85
				c0.44-0.02,0.81-0.18,1.05-0.83C104.12,32.58,104.17,32.33,104.16,32.06z"/>
			<path class="st0" d="M155.24,30.14c0-0.77,0.01-1.48,0-2.19c0-0.2,0.05-0.28,0.26-0.26c0.27,0.02,0.55,0.02,0.82,0
				c0.23-0.02,0.31,0.05,0.3,0.29c-0.01,1.15-0.01,2.29-0.01,3.44c0,0.95-0.01,1.89,0,2.84c0,0.22-0.06,0.3-0.28,0.28
				c-0.24-0.02-0.49-0.02-0.73,0c-0.25,0.02-0.35-0.06-0.31-0.31c0.01-0.08,0-0.17,0-0.31c-0.47,0.62-1.08,0.78-1.79,0.71
				c-0.82-0.08-1.37-0.52-1.66-1.24c-0.43-1.06-0.43-2.11,0.23-3.11c0.67-1.01,2.34-1.13,3.06-0.22
				C155.16,30.08,155.19,30.1,155.24,30.14z M155.31,32.1c0-0.33-0.04-0.62-0.14-0.89c-0.29-0.81-1.3-1-1.88-0.36
				c-0.52,0.58-0.47,1.95,0.09,2.5c0.54,0.52,1.42,0.35,1.73-0.33C155.25,32.71,155.28,32.39,155.31,32.1z"/>
			<path class="st0" d="M120.03,34.53c-0.42,0-0.8-0.02-1.18,0c-0.34,0.02-0.18-0.3-0.33-0.42c-0.58,0.47-1.26,0.59-1.99,0.5
				c-0.77-0.09-1.28-0.58-1.32-1.3c-0.05-0.81,0.36-1.37,1.16-1.54c0.53-0.11,1.07-0.16,1.61-0.26c0.44-0.08,0.55-0.24,0.52-0.63
				c-0.02-0.29-0.25-0.48-0.61-0.5c-0.18-0.01-0.36-0.01-0.53,0.01c-0.27,0.03-0.48,0.17-0.55,0.44c-0.05,0.21-0.15,0.28-0.36,0.26
				c-0.26-0.02-0.53-0.02-0.79,0c-0.25,0.02-0.28-0.1-0.24-0.29c0.1-0.47,0.38-0.82,0.79-1.03c0.61-0.32,1.28-0.38,1.95-0.3
				c0.26,0.03,0.52,0.05,0.77,0.14c0.67,0.25,0.96,0.63,0.97,1.34c0.01,0.88,0.01,1.76,0,2.65C119.88,33.9,119.9,34.2,120.03,34.53z
				 M118.49,32.15c-0.3,0.11-0.59,0.17-0.9,0.2c-0.24,0.03-0.48,0.07-0.69,0.19c-0.4,0.22-0.46,0.79-0.1,1.06
				c0.51,0.38,1.42,0.11,1.63-0.49C118.54,32.8,118.47,32.48,118.49,32.15z"/>
			<path class="st0" d="M149.15,32.39c-0.5,0-1.01,0.01-1.51,0c-0.21-0.01-0.24,0.07-0.22,0.25c0.04,0.45,0.31,0.81,0.72,0.94
				c0.53,0.17,1.13,0.03,1.42-0.38c0.13-0.19,0.27-0.22,0.47-0.21c0.21,0.01,0.42,0.01,0.63,0c0.18-0.01,0.22,0.05,0.16,0.22
				c-0.27,0.79-0.98,1.33-1.82,1.42c-0.88,0.09-1.67-0.05-2.3-0.71c-0.82-0.85-0.89-2.57-0.13-3.51c0.79-0.99,2.21-1.26,3.28-0.61
				c0.9,0.55,1.18,1.64,1.13,2.47c-0.01,0.18-0.14,0.13-0.23,0.13C150.2,32.39,149.67,32.39,149.15,32.39z M148.47,31.52
				c0.31,0,0.63,0,0.94,0c0.12,0,0.16-0.02,0.15-0.15c-0.05-0.51-0.48-0.89-1.02-0.91c-0.55-0.01-1.04,0.36-1.12,0.85
				c-0.02,0.14-0.02,0.23,0.18,0.22C147.89,31.51,148.18,31.52,148.47,31.52z"/>
			<path class="st0" d="M111.12,32.05c0.02,1.55-0.95,2.61-2.56,2.6s-2.53-0.99-2.56-2.57c-0.03-1.57,1.02-2.63,2.55-2.64
				C110.11,29.44,111.11,30.46,111.12,32.05z M107.36,32.06c0.02,0.24,0.02,0.48,0.08,0.71c0.15,0.52,0.56,0.86,1.09,0.88
				c0.51,0.02,0.95-0.3,1.12-0.83c0.16-0.51,0.16-1.03,0-1.54c-0.17-0.53-0.61-0.85-1.13-0.83c-0.52,0.02-0.94,0.37-1.08,0.89
				C107.38,31.58,107.38,31.82,107.36,32.06z"/>
			<path class="st0" d="M98.34,33.93c-0.39,0.44-0.86,0.68-1.41,0.71c-1.01,0.05-1.83-0.26-1.93-1.57
				c-0.08-1.09-0.02-2.18-0.05-3.27c-0.01-0.21,0.07-0.24,0.25-0.24c0.28,0.01,0.57,0.02,0.85,0c0.21-0.01,0.28,0.04,0.28,0.27
				c-0.02,0.87-0.01,1.74-0.01,2.62c0,0.09,0,0.19,0.01,0.28c0.09,0.61,0.38,0.89,0.9,0.87c0.58-0.02,0.95-0.36,0.97-0.97
				c0.03-0.91,0.03-1.83,0.02-2.74c0-0.26,0.06-0.35,0.33-0.33c0.29,0.02,0.59,0.01,0.88,0c0.14,0,0.18,0.04,0.18,0.18
				c0,1.53,0,3.07,0,4.6c0,0.16-0.06,0.2-0.2,0.19c-0.26-0.01-0.53-0.02-0.79,0c-0.25,0.02-0.32-0.07-0.29-0.3
				C98.35,34.14,98.34,34.03,98.34,33.93z"/>
			<path class="st0" d="M72.22,32.07c0.01,1.57-0.98,2.59-2.58,2.59c-1.54,0-2.55-1.04-2.55-2.6c0-1.58,1.04-2.63,2.6-2.62
				C71.23,29.45,72.22,30.49,72.22,32.07z M68.47,32.07c0.02,0.21,0.01,0.43,0.08,0.66c0.15,0.57,0.57,0.92,1.11,0.92
				c0.52,0,0.93-0.31,1.1-0.85c0.16-0.51,0.15-1.03-0.01-1.54c-0.16-0.51-0.61-0.82-1.11-0.8c-0.52,0.01-0.95,0.36-1.09,0.88
				C68.49,31.57,68.47,31.81,68.47,32.07z"/>
			<path class="st0" d="M84.8,31.02c-0.39,0-0.76,0-1.14,0c-0.07,0-0.13,0-0.15-0.1c-0.08-0.4-0.38-0.52-0.74-0.54
				c-0.16-0.01-0.32-0.01-0.47,0.01c-0.22,0.02-0.4,0.12-0.45,0.36c-0.04,0.24,0.12,0.36,0.29,0.46c0.25,0.14,0.53,0.17,0.8,0.24
				c0.31,0.08,0.63,0.14,0.93,0.24c0.72,0.22,1.05,0.59,1.08,1.18c0.03,0.7-0.31,1.29-0.96,1.54c-0.88,0.34-1.78,0.34-2.66-0.02
				c-0.56-0.23-0.88-0.68-0.97-1.29c-0.02-0.15,0-0.21,0.17-0.2c0.31,0.01,0.63,0.01,0.95,0c0.12,0,0.18,0.03,0.2,0.17
				c0.05,0.39,0.34,0.58,0.68,0.64c0.4,0.07,0.83,0.09,1.13-0.28c0.23-0.28,0.1-0.61-0.29-0.76c-0.47-0.18-0.96-0.26-1.45-0.39
				c-0.13-0.03-0.26-0.07-0.39-0.12c-0.48-0.18-0.84-0.46-0.88-1.02c-0.04-0.63,0.18-1.15,0.77-1.41c0.87-0.38,1.77-0.4,2.65-0.03
				C84.46,29.93,84.77,30.38,84.8,31.02z"/>
			<path class="st0" d="M60.4,31.02c-0.11,0-0.21-0.01-0.32,0c-0.21,0.02-0.36-0.01-0.4-0.26c-0.02-0.15-0.16-0.24-0.3-0.3
				c-0.31-0.12-0.64-0.12-0.96-0.06c-0.17,0.04-0.33,0.15-0.35,0.36c-0.02,0.21,0.08,0.34,0.25,0.43c0.43,0.23,0.92,0.25,1.38,0.39
				c0.15,0.04,0.3,0.08,0.45,0.13c0.49,0.16,0.91,0.42,1,0.96c0.11,0.66-0.09,1.22-0.67,1.61c-0.77,0.52-2.64,0.51-3.36-0.16
				c-0.3-0.28-0.49-0.61-0.52-1.03c-0.01-0.13,0.01-0.19,0.16-0.18c0.18,0.01,0.36,0,0.54,0c0.3,0,0.55-0.06,0.7,0.37
				c0.18,0.53,1.23,0.63,1.64,0.22c0.29-0.29,0.22-0.65-0.19-0.82c-0.39-0.17-0.82-0.24-1.23-0.35c-0.23-0.06-0.47-0.11-0.69-0.2
				c-0.5-0.19-0.84-0.53-0.84-1.09c0-0.54,0.18-1.01,0.68-1.28c0.58-0.32,1.22-0.37,1.86-0.3c0.32,0.03,0.64,0.09,0.93,0.24
				c0.46,0.23,0.73,0.61,0.84,1.1c0.04,0.16,0,0.23-0.18,0.22C60.69,31.01,60.54,31.02,60.4,31.02z"/>
			<path class="st0" d="M123.73,31.11c0-1.05,0.01-2.1-0.01-3.15c0-0.23,0.07-0.29,0.28-0.27c0.3,0.02,0.61,0.02,0.91,0
				c0.26-0.02,0.33,0.05,0.33,0.32c-0.01,1.64,0,3.28-0.01,4.92c0,0.28,0.06,0.37,0.36,0.36c0.89-0.02,1.79,0,2.68-0.01
				c0.23,0,0.33,0.04,0.3,0.29c-0.02,0.23-0.02,0.46,0,0.69c0.02,0.22-0.05,0.29-0.28,0.28c-1.23-0.01-2.46-0.01-3.69-0.01
				c-0.19,0-0.38-0.02-0.57,0c-0.24,0.02-0.32-0.04-0.32-0.3C123.74,33.19,123.73,32.15,123.73,31.11z"/>
			<path class="st0" d="M65.99,31.33c-0.07,0-0.15-0.01-0.22,0c-0.28,0.03-0.45-0.02-0.57-0.34c-0.26-0.66-1.23-0.72-1.69-0.13
				c-0.43,0.54-0.47,1.76-0.07,2.32c0.23,0.32,0.54,0.48,0.94,0.45c0.49-0.03,0.8-0.3,0.92-0.75c0.05-0.2,0.13-0.25,0.31-0.24
				c0.27,0.01,0.55,0.02,0.82,0c0.22-0.01,0.25,0.07,0.2,0.25c-0.26,1.14-1.12,1.65-2.06,1.74c-1.27,0.12-2.35-0.53-2.68-1.75
				c-0.34-1.22,0.1-2.82,1.46-3.28c0.84-0.28,1.65-0.23,2.41,0.22c0.49,0.29,0.78,0.74,0.87,1.32c0.03,0.17-0.03,0.2-0.17,0.19
				C66.3,31.33,66.15,31.33,65.99,31.33z"/>
			<path class="st0" d="M143.26,32.02c0-0.44-0.01-0.88,0-1.32c0-0.17-0.05-0.21-0.21-0.21c-0.62-0.01-0.6-0.02-0.62-0.63
				c-0.01-0.27,0.1-0.3,0.32-0.3c0.51,0.01,0.5,0,0.51-0.5c0.01-0.31-0.14-0.73,0.06-0.9c0.17-0.15,0.58-0.05,0.88-0.05
				c0.42,0,0.42,0,0.42,0.43c0,0.27,0.01,0.55,0,0.82c-0.01,0.16,0.03,0.24,0.2,0.21c0.09-0.01,0.19,0,0.28,0
				c0.53,0,0.53,0,0.53,0.52c0,0.41,0,0.41-0.42,0.41c-0.59,0-0.59,0-0.59,0.61s0.01,1.22,0,1.83c-0.01,0.45,0.16,0.64,0.7,0.57
				c0.29-0.04,0.32,0.03,0.32,0.29c-0.01,0.77,0,0.77-0.77,0.77c-0.21,0-0.42,0.01-0.63-0.02c-0.67-0.1-0.97-0.47-0.99-1.22
				C143.26,32.89,143.26,32.45,143.26,32.02z"/>
			<path class="st0" d="M112.31,32.12c0-0.46-0.01-0.92,0-1.39c0.01-0.19-0.04-0.25-0.24-0.24c-0.59,0-0.57-0.01-0.6-0.61
				c-0.01-0.27,0.08-0.33,0.33-0.32c0.5,0.02,0.49,0.01,0.5-0.5c0.01-0.31-0.14-0.73,0.06-0.9c0.17-0.15,0.58-0.05,0.88-0.05
				c0.43,0,0.43,0,0.43,0.43c0,0.28,0.01,0.57,0,0.85c0,0.13,0.03,0.19,0.17,0.18c0.2-0.01,0.4,0.01,0.6-0.01
				c0.17-0.01,0.2,0.05,0.21,0.21c0.01,0.71,0.02,0.72-0.68,0.72c-0.22,0-0.31,0.03-0.3,0.28c0.02,0.71,0.01,1.43,0.01,2.14
				c0,0.51,0.2,0.69,0.7,0.59c0.24-0.05,0.28,0.02,0.28,0.24c0,0.82,0,0.82-0.81,0.82c-0.25,0-0.5,0-0.75-0.06
				c-0.52-0.15-0.79-0.47-0.79-1.02C112.3,33.02,112.31,32.57,112.31,32.12z"/>
			<path class="st0" d="M77.5,32.17c0-0.47-0.01-0.95,0.01-1.42c0.01-0.21-0.06-0.26-0.27-0.26c-0.56,0-0.54-0.01-0.57-0.58
				c-0.01-0.3,0.09-0.39,0.36-0.34c0.04,0.01,0.09-0.01,0.13,0c0.27,0.05,0.38-0.04,0.35-0.33c-0.03-0.3,0-0.61-0.01-0.91
				c-0.01-0.19,0.06-0.23,0.23-0.22c0.29,0.01,0.59,0.01,0.88,0c0.17-0.01,0.24,0.03,0.23,0.22c-0.02,0.35,0.01,0.69-0.01,1.04
				c-0.01,0.17,0.05,0.22,0.21,0.21c0.2-0.01,0.4,0.01,0.6-0.01c0.18-0.01,0.2,0.06,0.2,0.21c0.01,0.72,0.02,0.73-0.71,0.71
				c-0.26-0.01-0.31,0.07-0.31,0.31c0.02,0.69,0,1.39,0.01,2.08c0,0.47,0.09,0.69,0.75,0.61c0.22-0.03,0.28,0.02,0.25,0.23
				c-0.01,0.07,0,0.15,0,0.22c0,0.61,0,0.62-0.63,0.61c-0.31,0-0.63,0.02-0.94-0.07c-0.48-0.13-0.75-0.44-0.77-0.93
				C77.5,33.1,77.51,32.63,77.5,32.17C77.51,32.17,77.5,32.17,77.5,32.17z"/>
			<path class="st0" d="M74.23,30.49c0.33-0.59,0.76-0.91,1.35-1.03c0.45-0.08,0.54-0.02,0.54,0.42c0,0.28,0,0.57,0,0.87
				c-0.25-0.05-0.48-0.08-0.72-0.04c-0.7,0.12-1.1,0.62-1.11,1.41c-0.01,0.71-0.01,1.43,0,2.14c0,0.21-0.05,0.28-0.26,0.26
				c-0.35-0.03-0.83,0.15-1.03-0.07c-0.18-0.19-0.05-0.66-0.05-1c0-1.21,0.01-2.42-0.01-3.62c0-0.22,0.05-0.29,0.28-0.27
				c0.25,0.02,0.51,0.02,0.76,0c0.22-0.02,0.27,0.07,0.25,0.26C74.22,30.02,74.23,30.21,74.23,30.49z"/>
			<path class="st0" d="M130.63,32.03c0,0.75-0.01,1.49,0,2.24c0,0.19-0.03,0.29-0.25,0.27c-0.28-0.02-0.57-0.02-0.85,0
				c-0.2,0.01-0.24-0.06-0.24-0.25c0.01-1.49,0.01-2.98,0-4.48c0-0.18,0.03-0.26,0.24-0.25c0.29,0.02,0.59,0.02,0.88,0
				c0.18-0.01,0.23,0.04,0.23,0.22C130.62,30.53,130.63,31.28,130.63,32.03z"/>
			<path class="st0" d="M141.8,32.05c0,0.75-0.01,1.49,0,2.24c0,0.19-0.04,0.26-0.24,0.25c-0.3-0.02-0.61-0.01-0.92,0
				c-0.13,0-0.19-0.04-0.19-0.18c0-1.54,0-3.09,0-4.63c0-0.16,0.08-0.16,0.19-0.16c0.32,0,0.63,0.01,0.95,0
				c0.17-0.01,0.21,0.06,0.2,0.22C141.8,30.54,141.8,31.29,141.8,32.05z"/>
			<path class="st0" d="M141.16,27.69c0.65,0,0.65,0,0.65,0.65c0,0.47,0,0.48-0.47,0.47c-0.28,0-0.66,0.09-0.81-0.05
				c-0.18-0.17-0.03-0.55-0.06-0.84c-0.02-0.21,0.07-0.25,0.25-0.23C140.86,27.7,141.01,27.69,141.16,27.69z"/>
			<path class="st0" d="M129.96,28.81c-0.67,0-0.67,0-0.67-0.68c0-0.44,0-0.44,0.45-0.44c0.03,0,0.06,0,0.09,0
				c0.26,0.02,0.64-0.12,0.75,0.05c0.16,0.25,0.04,0.63,0.05,0.95c0.01,0.13-0.08,0.12-0.17,0.12
				C130.29,28.81,130.13,28.81,129.96,28.81z"/>
		</g>
	</g>
</g>
</svg>
