<?xml version="1.0" encoding="utf-8"?>
<!-- Generator: Adobe Illustrator 25.2.0, SVG Export Plug-In . SVG Version: 6.00 Build 0)  -->
<svg version="1.0" id="Layer_1" xmlns="http://www.w3.org/2000/svg" xmlns:xlink="http://www.w3.org/1999/xlink" x="0px" y="0px"
	 width="207.35px" height="36.71px" viewBox="0 0 207.35 36.71" style="enable-background:new 0 0 207.35 36.71;"
	 xml:space="preserve">
<style type="text/css">
	.st0{fill:#FFFFFF;}
	.st1{fill-rule:evenodd;clip-rule:evenodd;fill:#FFFFFF;}
</style>
<g>
	<g>
		<path class="st0" d="M22.84,11.36h14.33v2.39h-10.2v1.92h9.7v2.34h-9.7v3.51h-4.13L22.84,11.36L22.84,11.36z M52.56,21.53
			l-1.24-1.72h-9.54l-1.24,1.72h-5.02l7.65-10.16H50l7.55,10.16H52.56L52.56,21.53z M49.78,17.58L47,13.73h-0.88l-2.78,3.85H49.78
			L49.78,17.58z M59.32,21.53V11.37h9.98c2.34,0.01,3.74,0.02,4.21,0.06c0.46,0.03,0.91,0.15,1.34,0.35
			c0.52,0.23,0.87,0.55,1.06,0.97c0.19,0.41,0.29,1.05,0.29,1.93c0,0.74-0.06,1.28-0.18,1.63c-0.12,0.35-0.35,0.63-0.69,0.83
			c-0.36,0.22-0.91,0.38-1.65,0.46c0.87,0.05,1.49,0.24,1.87,0.56c0.22,0.19,0.36,0.43,0.42,0.7c0.06,0.28,0.09,0.85,0.09,1.73v0.95
			h-4.07V21c0-0.57-0.03-0.97-0.08-1.21c-0.06-0.24-0.16-0.43-0.31-0.56c-0.15-0.12-0.36-0.19-0.63-0.23
			c-0.27-0.03-0.83-0.05-1.68-0.05h-5.82v2.58L59.32,21.53L59.32,21.53z M63.45,16.4h5.81c1.01-0.02,1.62-0.03,1.81-0.04
			c0.19-0.01,0.36-0.05,0.5-0.12c0.18-0.08,0.3-0.21,0.38-0.37c0.07-0.17,0.11-0.42,0.11-0.76c0-0.33-0.04-0.58-0.13-0.74
			c-0.08-0.16-0.22-0.28-0.43-0.36c-0.15-0.05-0.32-0.08-0.52-0.09c-0.2-0.01-0.78-0.02-1.73-0.02h-5.8V16.4L63.45,16.4z
			 M78.86,11.36h8.12l4.37,6.6l4.37-6.6h8.07v10.16h-4.41l0.11-7.61h-0.73l-5.54,7.61H89.5l-5.54-7.61h-0.79l0.11,7.61h-4.41
			L78.86,11.36L78.86,11.36z M105.5,11.36h16.4v2.59h-6.03v7.57h-4.34v-7.57h-6.04v-2.59H105.5z M123.29,21.53V11.37h9.98
			c2.34,0,3.74,0.02,4.21,0.06c0.46,0.03,0.91,0.15,1.34,0.35c0.52,0.23,0.87,0.55,1.06,0.97c0.19,0.41,0.29,1.05,0.29,1.93
			c0,0.74-0.06,1.28-0.18,1.63c-0.12,0.35-0.35,0.63-0.69,0.83c-0.36,0.22-0.91,0.38-1.65,0.46c0.87,0.05,1.49,0.24,1.87,0.56
			c0.22,0.19,0.36,0.43,0.42,0.7c0.06,0.28,0.09,0.85,0.09,1.73v0.95h-4.07V21c0-0.57-0.03-0.97-0.08-1.21
			c-0.06-0.24-0.16-0.43-0.31-0.56c-0.15-0.12-0.36-0.19-0.63-0.23c-0.27-0.03-0.83-0.05-1.68-0.05h-5.82v2.58L123.29,21.53
			L123.29,21.53z M127.42,16.4h5.81c1.01-0.02,1.62-0.03,1.81-0.04c0.19-0.01,0.36-0.05,0.5-0.12c0.18-0.08,0.3-0.21,0.38-0.37
			c0.07-0.17,0.11-0.42,0.11-0.76c0-0.33-0.04-0.58-0.13-0.74c-0.08-0.16-0.22-0.28-0.43-0.36c-0.15-0.05-0.32-0.08-0.52-0.09
			c-0.2-0.01-0.78-0.02-1.73-0.02h-5.8V16.4L127.42,16.4z M179,17.6h4.13c0.02,0.5,0.04,0.82,0.04,0.96c0,0.79-0.16,1.4-0.47,1.84
			c-0.34,0.5-1.01,0.83-2.01,1.01s-2.73,0.27-5.18,0.27c-2.58,0-4.42-0.04-5.51-0.11s-1.92-0.22-2.48-0.43
			c-0.49-0.19-0.87-0.45-1.11-0.78s-0.4-0.78-0.48-1.35c-0.06-0.46-0.09-1.3-0.09-2.5c0-1.18,0.03-2.03,0.09-2.55
			c0.06-0.52,0.18-0.93,0.35-1.21c0.38-0.65,1.14-1.06,2.29-1.26c1.15-0.19,3.47-0.29,6.97-0.29c1.75,0,3.02,0.03,3.81,0.09
			c0.8,0.06,1.43,0.17,1.9,0.34c0.62,0.22,1.05,0.54,1.3,0.97s0.38,1.06,0.38,1.9c0,0.04,0,0.21-0.01,0.51h-4.13
			c-0.02-0.34-0.05-0.56-0.08-0.68c-0.04-0.11-0.11-0.21-0.22-0.28c-0.16-0.1-0.56-0.18-1.2-0.23s-1.61-0.07-2.92-0.07
			c-1.29,0-2.19,0.02-2.68,0.06c-0.5,0.04-0.85,0.12-1.05,0.25c-0.24,0.15-0.41,0.4-0.51,0.75c-0.09,0.35-0.14,0.91-0.14,1.68
			c0,0.77,0.04,1.31,0.13,1.63c0.08,0.32,0.25,0.54,0.5,0.68c0.23,0.13,0.6,0.22,1.1,0.27c0.51,0.04,1.4,0.07,2.69,0.07
			c1.58,0,2.64-0.02,3.16-0.06c0.53-0.04,0.88-0.13,1.07-0.26C178.86,18.64,178.99,18.24,179,17.6L179,17.6z M159.45,21.53
			l-1.24-1.72h-9.54l-1.24,1.72h-5.02l7.65-10.16h6.83l7.55,10.16H159.45L159.45,21.53z M156.67,17.58l-2.78-3.85h-0.88l-2.78,3.85
			H156.67L156.67,17.58z"/>
		<path class="st1" d="M194.29,21.75c8.96-3.66,13.75-7.41,12.98-10.87C205.03,0.84,156.82-2.93,99.61,2.46
			c-16.96,1.6-32.8,3.82-46.65,6.42l20.22,0.35c8.27-1.2,17.04-2.24,26.14-3.1c54.02-5.09,99.54-1.53,101.66,7.94
			C201.54,16.53,199.12,19.14,194.29,21.75L194.29,21.75z M19.03,17.31C6.29,21.64-0.85,26.23,0.08,30.39
			c0.56,2.52,4.02,4.64,9.78,6.32c-2.6-1.24-4.16-2.65-4.51-4.23c-0.77-3.43,4.27-7.17,13.56-10.78L19.03,17.31L19.03,17.31z"/>
	</g>
</g>
</svg>
