<?xml version="1.0" encoding="utf-8"?>
<!-- Generator: Adobe Illustrator 25.2.0, SVG Export Plug-In . SVG Version: 6.00 Build 0)  -->
<svg version="1.1" id="Layer_1" xmlns="http://www.w3.org/2000/svg" xmlns:xlink="http://www.w3.org/1999/xlink" x="0px" y="0px"
	 width="5867.4px" height="671.6px" viewBox="0 0 5867.4 671.6" style="enable-background:new 0 0 5867.4 671.6;"
	 xml:space="preserve">
<style type="text/css">
	.st0{fill:#009BDF;}
	.st1{fill:url(#SVGID_1_);}
	.st2{fill:url(#SVGID_2_);}
	.st3{fill:url(#SVGID_3_);}
	.st4{fill:#FFFFFF;}
</style>
<g>
	<g>
		<g>
			<polygon class="st0" points="5647.8,317.4 5523.4,255 5521.8,397.6 5636.1,450.3 5450.8,586.8 5450.8,0.2 5313.1,232.5 
				5313.1,671.6 5556.6,671.6 5768.9,512.8 			"/>
			
				<linearGradient id="SVGID_1_" gradientUnits="userSpaceOnUse" x1="5712.02" y1="-4523.5898" x2="5712.02" y2="-4707.2974" gradientTransform="matrix(1 0 0 -1 0 -4010.75)">
				<stop  offset="0" style="stop-color:#DBD8D6"/>
				<stop  offset="0" style="stop-color:#E5E3E1"/>
				<stop  offset="0" style="stop-color:#FFFFFF"/>
				<stop  offset="5.320000e-02" style="stop-color:#EBEBEB"/>
				<stop  offset="0.1618" style="stop-color:#B6B6B6"/>
				<stop  offset="0.264" style="stop-color:#808080"/>
				<stop  offset="0.3585" style="stop-color:#C1C1C1"/>
				<stop  offset="0.4329" style="stop-color:#EEEEEE"/>
				<stop  offset="0.4703" style="stop-color:#FFFFFF"/>
				<stop  offset="0.5435" style="stop-color:#E9E9E9"/>
				<stop  offset="0.6959" style="stop-color:#B0B0B0"/>
				<stop  offset="0.8764" style="stop-color:#666666"/>
				<stop  offset="0.9064" style="stop-color:#7A7A7A"/>
				<stop  offset="0.9677" style="stop-color:#ACAEAD"/>
				<stop  offset="1" style="stop-color:#C9CCCB"/>
				<stop  offset="1" style="stop-color:#FFFFFF"/>
			</linearGradient>
			<polygon class="st1" points="5867.4,671.6 5768.9,512.8 5556.6,671.6 5867.4,671.6 			"/>
			
				<linearGradient id="SVGID_2_" gradientUnits="userSpaceOnUse" x1="5182.875" y1="-4243.21" x2="5182.875" y2="-4752.2803" gradientTransform="matrix(1 0 0 -1 0 -4010.75)">
				<stop  offset="0" style="stop-color:#DBD8D6"/>
				<stop  offset="0" style="stop-color:#E5E3E1"/>
				<stop  offset="0" style="stop-color:#FFFFFF"/>
				<stop  offset="5.320000e-02" style="stop-color:#EBEBEB"/>
				<stop  offset="0.1618" style="stop-color:#B6B6B6"/>
				<stop  offset="0.264" style="stop-color:#808080"/>
				<stop  offset="0.3585" style="stop-color:#C1C1C1"/>
				<stop  offset="0.4329" style="stop-color:#EEEEEE"/>
				<stop  offset="0.4703" style="stop-color:#FFFFFF"/>
				<stop  offset="0.5435" style="stop-color:#E9E9E9"/>
				<stop  offset="0.6959" style="stop-color:#B0B0B0"/>
				<stop  offset="0.8764" style="stop-color:#666666"/>
				<stop  offset="0.9064" style="stop-color:#7A7A7A"/>
				<stop  offset="0.9677" style="stop-color:#ACAEAD"/>
				<stop  offset="1" style="stop-color:#C9CCCB"/>
				<stop  offset="1" style="stop-color:#FFFFFF"/>
			</linearGradient>
			<polygon class="st2" points="5052.7,671.6 5313.1,671.6 5313.1,232.5 			"/>
			
				<linearGradient id="SVGID_3_" gradientUnits="userSpaceOnUse" x1="5549.2549" y1="-4010.75" x2="5549.2549" y2="-4597.5103" gradientTransform="matrix(1 0 0 -1 0 -4010.75)">
				<stop  offset="0" style="stop-color:#DBD8D6"/>
				<stop  offset="0" style="stop-color:#E5E3E1"/>
				<stop  offset="0" style="stop-color:#FFFFFF"/>
				<stop  offset="5.320000e-02" style="stop-color:#EBEBEB"/>
				<stop  offset="0.1618" style="stop-color:#B6B6B6"/>
				<stop  offset="0.264" style="stop-color:#808080"/>
				<stop  offset="0.3585" style="stop-color:#C1C1C1"/>
				<stop  offset="0.4329" style="stop-color:#EEEEEE"/>
				<stop  offset="0.4703" style="stop-color:#FFFFFF"/>
				<stop  offset="0.5435" style="stop-color:#E9E9E9"/>
				<stop  offset="0.6959" style="stop-color:#B0B0B0"/>
				<stop  offset="0.8764" style="stop-color:#666666"/>
				<stop  offset="0.9064" style="stop-color:#7A7A7A"/>
				<stop  offset="0.9677" style="stop-color:#ACAEAD"/>
				<stop  offset="1" style="stop-color:#C9CCCB"/>
				<stop  offset="1" style="stop-color:#FFFFFF"/>
			</linearGradient>
			<polygon class="st3" points="5636.1,450.3 5521.8,397.6 5523.4,255 5647.8,317.4 5450.9,0 5450.8,0.2 5450.8,586.8 			"/>
		</g>
	</g>
	<g>
		<g>
			<g>
				<g>
					<g>
						<path class="st4" d="M2621.8,288.1c-5.2,1.8-10.3,4.2-14.9,7.4c-4.9,3.3-8.9,7.8-11.9,13.3c-3.1,5.6-4.7,11.9-4.7,18.6
							c0,9.3,2.9,17.1,8.6,23.3c5.8,6.2,13.8,9.3,23.9,9.3c10,0,17.8-2.9,23.2-8.5c5.4-5.6,8.2-12.4,8.2-20.2v-43.5l-2.3-0.7
							C2643.7,284.9,2632.5,284.5,2621.8,288.1 M2635.1,336.8c0,3.2-0.9,5.6-2.7,7.4c-1.8,1.8-4.5,2.7-8.2,2.7
							c-4.5,0-7.9-1.8-10.7-5.5c-2.9-3.9-4.4-9.6-4.4-16.9c0-4.3,0.7-8.2,2-11.6c1.3-3.4,2.9-6.1,4.8-8c2-2,4.2-3.7,6.7-5.1
							c2.5-1.4,4.8-2.4,6.8-2.9c2-0.5,3.9-0.8,5.6-0.8h0.2L2635.1,336.8z"/>
						<path class="st4" d="M2638.9,275.5c2.9,0,5.5-1.1,7.5-3.1l0,0c2.1-2.1,3.1-4.6,3.1-7.5c0-2.9-1.1-5.5-3.1-7.5
							c-4.1-4.1-11-4.1-15.1,0c-2.1,2.1-3.2,4.6-3.2,7.5c0,2.9,1.1,5.5,3.1,7.5C2633.4,274.4,2636,275.5,2638.9,275.5"/>
						<path class="st4" d="M2615.9,275.5c2.9,0,5.4-1.1,7.5-3.1c2.1-2.1,3.1-4.6,3.1-7.5c0-2.9-1.1-5.5-3.1-7.5
							c-4.2-4.2-10.9-4.2-15.1,0c-2,2.1-3.1,4.7-3.1,7.5c0,2.9,1.1,5.4,3.1,7.5C2610.4,274.4,2612.9,275.5,2615.9,275.5"/>
						<path class="st4" d="M2692.6,287c-6.2,0-11.6,1.2-16.1,3.5c-5.1,2.6-7.8,5.2-8.5,8.2l-0.2,1l0.3,0.9c0.7,1.9,2.8,5.1,8.8,5.1
							c1.4,0,2.8-0.2,3.9-0.6l1.3-0.4l0.6-1.2c1.9-4,5.1-5.8,9.9-5.8c4.1,0,5.5,2,6.2,3.7c1.4,3.3,2.1,8.9,2.1,16.6v20.6
							c0,3.6-1.1,5.8-6.5,5.8h-30.6V360h34.8c18.6,0,21.4-11.3,21.4-18v-24.8c0-9.9-2.3-17.4-6.8-22.4
							C2708.7,289.6,2701.8,287,2692.6,287"/>
						<path class="st4" d="M2767.6,284.8c-10.6,0-19.4,3.9-26.2,11.7c-6.7,7.7-10.1,16.9-10.1,27.4c0,4.3,0.5,8.4,1.5,12.3
							c1,4,2.6,7.8,4.7,11.3c2.2,3.7,5.4,6.8,9.4,9.1c4,2.3,8.6,3.4,13.8,3.4c6.3,0,12-2,17.1-6v8.8c0,3.7-1.4,7-4.4,9.8
							c-4,3.9-8.2,4.8-14.1,4c-0.9-0.1-2.6-0.6-5.4-2.1c-2.1-1.1-3.7-2.6-4.7-4.5l-1.1-2l-2.2,0.4c-2.6,0.4-5,2.2-7.2,5.3
							c-2,2.9-3,5.4-3,7.5v1.8l1.6,0.9c6.5,3.8,15.3,5.7,26.1,5.7c8.9,0,16.8-3.3,23.4-9.8c6.6-6.5,9.9-15.6,9.9-26.9v-36.1
							c0-9-2.3-16.6-7-22.6C2784.7,288,2777.4,284.8,2767.6,284.8 M2777.7,332.1c0,4.4-1.1,7.5-3.1,9.3c-2.3,2-5.3,2.9-9.2,2.9
							c-4.7,0-8.1-2-10.7-6.3c-2.8-4.7-4.3-11-4.3-18.7c0-6.4,1.5-12.2,4.5-17.1c2.7-4.5,6.7-6.7,12.2-6.7c3.5,0,5.9,1.2,7.7,3.9
							c2.1,3,3,6.3,3,9.9L2777.7,332.1L2777.7,332.1z"/>
						<path class="st4" d="M3171.3,257.5c-4,2.6-6.1,5.9-6.1,9.6v67.4c0,8.6-3.9,9.7-7.8,9.7h-9.9v0h-8.2c-3,0-5.8-0.8-8.5-2.4
							c-2.4-1.5-4.2-3.1-5.5-5.1l-0.1-6c-0.1-10.6-3.1-19.7-9-27c-6-7.6-14.4-11.4-25-11.4c-8.6,0-15.5,3.1-20.6,9.2
							c-4.9,5.9-7.4,14.2-7.4,24.6v9.8c0,4.6-1,6.2-1.5,6.6c-0.6,0.6-2.1,1.5-6.3,1.5h-3.4h-3.9c-3.4,0-6.7-0.6-9.9-1.9
							c-5.2-1.9-10.2-4.9-14.6-9c-4.6-4.2-8.5-8.5-11.5-12.8l-9.7-13.5c-3.3-4.6-7.1-8.4-11.3-11.3c-4.5-3.1-9.4-4.7-14.8-4.7
							c-7.9,0-14.3,2.8-19.2,8.3c-4.6,5.2-7.8,11.6-9.4,19.6c0,2.7,1.6,4.3,4.9,4.5c2.5-0.3,4.1-2.7,5.3-5l3.9-7.1
							c1-2.1,2.8-4.1,5.2-5.9c4.7-3.6,11.6-3.4,16.2,0.2c2.6,2.1,5,4.8,7,8.3l6.7,11.6c2.2,4.2,5.2,8.6,8.9,13.2
							c1.6,2,3.4,3.9,5.1,5.6h-73v0h-50.9h-7.1h-3.4c-3.2,0-6.1-0.7-8.7-2.2c-2.4-1.3-4.2-2.9-5.4-4.7v-20.1
							c0-9.9-2.3-17.4-6.8-22.5c-4.6-5.1-11.5-7.8-20.7-7.8c-6.2,0-11.6,1.2-16.1,3.5c-5.1,2.6-7.8,5.2-8.5,8.2l-0.2,1l0.4,0.9
							c0.7,1.9,2.8,5.1,8.9,5.1c1.4,0,2.7-0.2,3.9-0.6l1.3-0.4l0.6-1.2c1.9-4,5.1-5.8,9.9-5.8c4.1,0,5.5,2,6.2,3.7
							c1.4,3.3,2.1,8.9,2.1,16.6v20.6c0,3.6-1.1,5.8-6.5,5.8h-30.6V360h34.8c11.1,0,16.6-4,19.2-8.7c2,1.8,4.2,3.4,6.7,4.9
							c4.2,2.4,8.6,3.7,13,3.8v0h0.4h6.7h63.1v0h93.9v0h14.2c3.5,0,6.9-0.8,10-2.2c1.8-0.9,3.4-1.9,4.8-3.1c1.9,2.1,4.2,4,6.7,5.4
							c3.7,2.1,6.8,3.4,9.5,3.8c2.5,0.4,4.9,0.6,7.1,0.6c6.6,0,12.4-2,17.5-6c3.3-2.6,5.9-5.7,7.7-9c2.1,2.1,4.5,4.1,7.3,5.9
							c3.5,2.3,7.1,3.7,10.7,4.3v0.3h3.5h4.4h16.2c6.7,0,11.9-2.4,15.4-7.3c3.3-4.5,4.9-10.4,4.9-17.6V254h-3.2
							C3178,254,3174.9,255.1,3171.3,257.5 M3092.9,350.6c-2.9,0-5.5-0.8-7.9-2.6c-2.1-1.5-3.1-3.7-3.1-7v-19.8
							c0-18.8,7.5-18.8,10.3-18.8c3.5,0,14,0,14,23.8C3106.2,350.6,3096.2,350.6,3092.9,350.6"/>
						<path class="st4" d="M3204.4,257.7c-4.1,2.6-6.2,5.9-6.2,9.7v93.2l3.6-0.4c4.8-0.6,8.7-3,11.6-7.2c2.7-3.9,4-9.2,4-15.7v-83.1
							h-3.2C3211.3,254.1,3208.1,255.3,3204.4,257.7"/>
						<path class="st4" d="M3314.5,287.8l-2.3-0.7c-8.1-2.3-19.3-2.6-30.1,0.9c-5.2,1.8-10.3,4.2-14.9,7.4
							c-4.9,3.3-8.9,7.8-11.9,13.3c-3.1,5.6-4.7,11.9-4.7,18.6c0,9.3,2.9,17.1,8.7,23.3c5.8,6.2,13.8,9.3,23.9,9.3
							c10,0,17.8-2.9,23.2-8.5c5.4-5.6,8.2-12.4,8.2-20.2L3314.5,287.8L3314.5,287.8z M3295.5,336.8c0,3.2-0.9,5.6-2.7,7.4
							c-1.8,1.8-4.5,2.7-8.2,2.7c-4.4,0-7.9-1.8-10.6-5.5c-2.9-3.9-4.4-9.6-4.4-16.9c0-4.3,0.7-8.2,2-11.6c1.3-3.4,2.9-6.1,4.8-8
							c2-2,4.2-3.7,6.7-5.1c2.5-1.4,4.8-2.4,6.8-2.9c2-0.5,3.9-0.8,5.6-0.8h0.2L3295.5,336.8z"/>
						<path class="st4" d="M3276.3,275.5c2.9,0,5.5-1.1,7.5-3.1c2.1-2.1,3.1-4.6,3.1-7.5c0-2.9-1.1-5.5-3.1-7.5
							c-4.2-4.2-10.9-4.2-15.1,0c-2.1,2.1-3.1,4.7-3.1,7.5c0,2.9,1.1,5.4,3.1,7.5C3270.8,274.4,3273.4,275.5,3276.3,275.5"/>
						<path class="st4" d="M3299.3,275.5c2.9,0,5.5-1.1,7.5-3.1c2.1-2.1,3.1-4.6,3.1-7.5c0-2.9-1.1-5.5-3.1-7.5
							c-4.1-4.1-11-4.1-15.1,0c-2.1,2-3.1,4.6-3.1,7.5c0,2.9,1.1,5.5,3.1,7.5C3293.8,274.4,3296.4,275.5,3299.3,275.5"/>
						<path class="st4" d="M3345.9,287.9c-4,2.6-6.1,5.9-6.1,9.6v69.3c0,3-0.7,5.1-2.2,6.6c-1.4,1.5-3.4,2.2-6.1,2.2
							c-3.5,0-6-1.4-7.9-4.4l-1-1.7l-2,0.2c-2.5,0.2-5.1,1.3-7.9,3.3c-3.2,2.3-4.7,4.6-4.7,7.2v1.1l0.7,0.9c1.7,2.2,4.2,3.9,7.3,5
							c2.8,1,5.5,1.5,7.9,1.5c10.4,0,18.9-3.1,25.2-9.2c6.3-6.1,9.6-15.1,9.6-26.6v-68.7h-3.2
							C3352.7,284.4,3349.6,285.6,3345.9,287.9"/>
						<path class="st4" d="M3443.4,370.6c-2.1,2-3.1,4.7-3.1,7.5c0,2.9,1.1,5.5,3.1,7.6c2.1,2.1,4.6,3.1,7.5,3.1
							c2.9,0,5.5-1.1,7.5-3.1v0c2.1-2.1,3.1-4.6,3.1-7.5c0-2.9-1.1-5.5-3.1-7.5C3454.3,366.5,3447.5,366.5,3443.4,370.6"/>
						<path class="st4" d="M3519.9,279.3c2.9,0,5.4-1.1,7.5-3.1c2.1-2.1,3.2-4.6,3.2-7.5c0-2.9-1.1-5.5-3.1-7.5
							c-4.2-4.2-10.9-4.2-15.1,0c-2.1,2-3.1,4.6-3.1,7.5c0,2.9,1,5.5,3.1,7.5S3517,279.3,3519.9,279.3"/>
						<path class="st4" d="M3543,279.3c2.9,0,5.5-1.1,7.5-3.1l0,0c2.1-2.1,3.1-4.6,3.1-7.5c0-2.9-1.1-5.5-3.1-7.5
							c-4.1-4.1-11-4.1-15.1,0c-2.1,2-3.2,4.6-3.2,7.5c0,2.9,1.1,5.5,3.1,7.5C3537.5,278.2,3540.1,279.3,3543,279.3"/>
						<path class="st4" d="M3721.3,257.5c-4,2.6-6.1,5.9-6.1,9.6v67.4c0,8.6-3.8,9.7-7.8,9.7h-9.9h-7.9h-2.7c-3.2,0-6.1-0.7-8.7-2.2
							c-2.3-1.3-4.1-2.8-5.2-4.5v-83.5h-3.2c-2.8,0-5.9,1.1-9.6,3.5c-4,2.6-6.1,5.9-6.1,9.6v63.9c0,2.2-0.1,4.1-0.2,5.5
							c-0.1,1.2-0.5,2.7-1,4.2c-0.4,1.1-1,1.9-1.9,2.5c-0.9,0.6-2.2,0.9-3.9,0.9h-3H3632h-50.9v0h-10.5c-3.2,0-6.1-0.7-8.7-2.2
							c-2.3-1.3-4-2.8-5.2-4.5v-48.8h-3.2c-2.8,0-5.9,1.2-9.6,3.5c-5,3.3-6.1,7.1-6.1,9.6v29.2c0,2.2-0.1,4-0.2,5.5
							c-0.1,1.3-0.4,2.7-1,4.2c-0.4,1.1-1,1.9-1.9,2.5c-0.9,0.6-2.2,0.9-3.9,0.9h-11.4c-3.4,0-6.7-0.6-9.8-1.9
							c-5.2-1.9-10.2-4.9-14.6-9c-4.6-4.2-8.4-8.5-11.5-12.8l-9.7-13.5c-3.3-4.6-7.1-8.4-11.3-11.3c-4.5-3.1-9.4-4.7-14.8-4.7
							c-7.9,0-14.3,2.8-19.2,8.3c-4.6,5.2-7.8,11.6-9.4,19.6c0,2.6,1.8,4.5,4.8,4.5h0.1c2.5-0.3,4.1-2.7,5.4-5l3.9-7.1
							c1-2.1,2.8-4.1,5.2-5.9c4.7-3.6,11.6-3.4,16.2,0.2c2.6,2.1,5,4.8,7,8.3l6.7,11.6c2.2,4.2,5.2,8.6,8.9,13.2
							c1.6,2,3.3,3.9,5.1,5.6h-65.2h-17.4c-3.9,0-7.8-1.1-7.8-9.7v-80.4h-3.2c-2.8,0-5.9,1.1-9.7,3.4c-5.2,3.2-6.3,7-6.3,9.6v68
							c0,7.2,1.7,13.2,4.9,17.7c3.5,4.8,8.7,7.3,15.4,7.3h24v0h98.3h17.1c11.2,0,17-4.8,19.9-10.2c2.1,2.1,4.5,4,7.2,5.8
							c4.6,2.9,9.3,4.4,14.2,4.4v0h58h12.3h4.9c11.2,0,17-4.8,20-10.2c2.1,2.1,4.5,4,7.2,5.8c4.3,2.7,8.8,4.2,13.4,4.4v0.1h1.1
							c0,0,0,0,0.1,0h6.7v0h16.2c6.7,0,11.9-2.4,15.4-7.3c3.3-4.5,4.9-10.4,4.9-17.6V254h-3.2C3728.1,254,3724.9,255.2,3721.3,257.5
							"/>
						<path class="st4" d="M3954.8,370.6c-2,2.1-3.1,4.7-3.1,7.5c0,2.9,1.1,5.5,3.1,7.5c2.1,2.1,4.7,3.1,7.5,3.1
							c2.9,0,5.5-1.1,7.5-3.1v0c2.1-2.1,3.1-4.6,3.1-7.5c0-2.9-1.1-5.5-3.1-7.5C3965.8,366.5,3958.9,366.5,3954.8,370.6"/>
						<path class="st4" d="M4220.3,275.4c2.9,0,5.5-1.1,7.5-3.1c2.1-2,3.1-4.7,3.1-7.5c0-2.9-1-5.5-3.1-7.5c-4.1-4.1-11-4.1-15.1,0
							c-2.1,2.1-3.1,4.6-3.1,7.5c0,2.9,1.1,5.5,3.1,7.5C4214.8,274.3,4217.4,275.4,4220.3,275.4"/>
						<path class="st4" d="M4234.8,287.9c-4,2.6-6.1,5.9-6.1,9.6v37c0,8.6-4,9.7-7.8,9.7h-5.5v0h-58.7h-11.5h-47.2h-11.5h-55.6
							c-3.4,0-6.7-0.6-9.9-1.9c-5.2-1.9-10.1-4.9-14.6-9c-4.5-4.2-8.4-8.5-11.5-12.8l-9.7-13.5c-3.3-4.6-7.1-8.4-11.3-11.3
							c-4.5-3.1-9.4-4.7-14.8-4.7c-7.9,0-14.3,2.8-19.2,8.3c-4.6,5.2-7.7,11.6-9.4,19.6c0,2.6,1.8,4.5,4.8,4.5h0.1
							c2.5-0.3,4.1-2.7,5.4-5l3.9-7.1c1-2.1,2.8-4.1,5.2-5.9c4.7-3.6,11.6-3.4,16.2,0.2c2.6,2,5,4.8,7,8.3l6.7,11.6
							c2.2,4.2,5.2,8.6,8.9,13.2c1.6,2,3.3,3.9,5.1,5.6h-60.8v0H3870h-7.1h-3.4c-3.2,0-6.1-0.7-8.7-2.2c-2.3-1.3-4.1-2.8-5.2-4.5
							v-80.3l-0.1-3.2h-3.2c-2.8,0-5.9,1.1-9.5,3.5c-4,2.6-6,5.9-6,9.6v78.2c0,17.4-8.2,25.6-25.7,25.6c-5.9,0-10.7-1.6-14.8-5
							c-3.9-3.2-5.8-7.8-5.8-14c0-4.8,1-9.2,3.1-13.3c2.2-4.5,5.1-5.1,7-5.1h2l0.9-1.9c0.8-1.7,1.2-3.8,1.2-6.3
							c0-5.4-2.8-6.9-4.4-7.2l-0.6-0.1l-0.6,0.1c-6,0.9-11.2,5.5-15.5,13.6c-4,7.6-6,15.2-6,22.6c0,11,3,19.6,9,25.5
							c5.9,5.9,14,8.9,23.9,8.9c11.1,0,21.1-4.4,29.5-13.2c6.8-7,11.5-15,13.9-23.9c1.9,1.6,4,3.1,6.3,4.4c4.2,2.5,8.6,3.7,13,3.8v0
							h0.4h6.7h63.1v0h94.6v0h58.7h11.5h47.2h11.5h58.7v0h11.8c6.7,0,11.9-2.4,15.4-7.3c3.3-4.5,4.9-10.4,4.9-17.6v-50.8h-3.2
							C4241.5,284.4,4238.4,285.6,4234.8,287.9"/>
						<path class="st4" d="M4280.9,337.2v-83.1h-3.2c-2.9,0-6.1,1.1-9.8,3.5c-4.1,2.6-6.1,5.9-6.1,9.7v93.2l3.6-0.4
							c4.8-0.6,8.7-3,11.6-7.2C4279.5,349,4280.9,343.7,4280.9,337.2"/>
						<path class="st4" d="M4520.4,275.5c2.9,0,5.5-1.1,7.5-3.1c2.1-2.1,3.1-4.6,3.1-7.5c0-2.9-1.1-5.5-3.1-7.5
							c-4.1-4.1-11-4.1-15.1,0c-2.1,2.1-3.1,4.7-3.1,7.5c0,2.9,1,5.4,3.1,7.5C4515,274.4,4517.6,275.5,4520.4,275.5"/>
						<path class="st4" d="M4543.5,275.5c2.9,0,5.5-1.1,7.5-3.1h0c2.1-2.1,3.1-4.6,3.1-7.5c0-2.9-1.1-5.5-3.1-7.5
							c-4.1-4.1-11-4.1-15.1,0c-2.1,2-3.1,4.6-3.1,7.6c0,2.9,1.1,5.5,3.1,7.5C4538,274.4,4540.6,275.5,4543.5,275.5"/>
						<path class="st4" d="M4549.5,287.9c-4,2.6-6.1,5.9-6.1,9.6v37c0,8.5-3.8,9.7-7.8,9.7h-5.5h-12.3h-46.5h-11.5h-47.2h-11.5
							h-51.6h-7.1h-3.4c-3.2,0-6.1-0.7-8.7-2.2c-2.3-1.3-4.1-2.8-5.2-4.5v-48.8h-3.2c-2.8,0-6,1.2-9.6,3.5c-4,2.6-6.1,5.9-6.1,9.6
							v64.9c0,3-0.7,5.1-2.2,6.6c-1.5,1.5-3.5,2.2-6.1,2.3c-3.5,0-6-1.4-7.9-4.4l-1-1.7l-2,0.2c-2.5,0.2-5.1,1.4-7.9,3.3
							c-3.2,2.3-4.7,4.6-4.7,7.2c0,1.4,0.5,2.7,1.3,3.5c2.8,3.4,7.6,5,14.5,5c10.4,0,18.9-3.1,25.2-9.2c6.3-6.1,9.5-14.9,9.5-26.3
							c1.5,1.1,3.1,2.2,4.8,3.1c4.1,2.3,8.3,3.5,12.6,3.6v0h0.4h6.7h51.6h11.5h47.2h11.5h46.5h12.3h11.8c6.7,0,11.9-2.4,15.4-7.3
							c3.3-4.5,4.9-10.4,4.9-17.6v-50.8h-3.2C4556.2,284.4,4553.1,285.6,4549.5,287.9"/>
						<path class="st4" d="M4870.2,370.6c-2.1,2.1-3.1,4.7-3.1,7.5c0,2.9,1.1,5.5,3.1,7.5c2,2.1,4.7,3.1,7.5,3.1
							c2.9,0,5.4-1.1,7.5-3.1l0,0c2-2.1,3.1-4.7,3.1-7.5c0-2.9-1.1-5.5-3.2-7.5C4881.1,366.5,4874.3,366.5,4870.2,370.6"/>
						<path class="st4" d="M4894.5,284.4c-2.8,0-5.9,1.1-9.6,3.5c-4,2.6-6.1,5.9-6.1,9.6v37c0,8.6-4,9.7-7.8,9.7h-5.5h-63.1h-7.1
							h-3.4c-3.2,0-6.1-0.7-8.7-2.2c-2.3-1.3-4.1-2.8-5.2-4.5v-83.5h-3.2c-2.8,0-5.9,1.1-9.6,3.5c-4,2.6-6.1,5.9-6.1,9.6v63.9
							c0,2.2-0.1,4.1-0.2,5.5c-0.1,1.2-0.5,2.7-1,4.2c-0.4,1.1-1,1.9-1.9,2.5c-0.9,0.6-2.2,0.9-3.9,0.9h-3h-12.3H4686h-7.1H4665
							v-26.5c0-9-2.4-16.6-7-22.4c-4.8-6.1-12.2-9.1-21.9-9.1c-10.5,0-19.1,4.3-25.4,12.7c-6.2,8.2-9.3,17.7-9.3,28.5
							c0,8.9,2.8,16.6,8.4,22.9c5.6,6.4,13.6,9.7,23.8,9.7h12.6v2.8c0,3.7-1.4,6.9-4.4,9.8c-4,3.9-8.1,4.9-14.1,4
							c-0.9-0.1-2.6-0.6-5.4-2.1c-2.1-1.1-3.7-2.6-4.7-4.6l-1.1-2l-2.2,0.4c-2.6,0.4-5,2.2-7.2,5.3c-2,2.9-3,5.4-3,7.5v1.8l1.6,0.9
							c6.5,3.8,15.3,5.7,26.1,5.7c8.4,0,15.9-2.9,22.3-8.7c5.7-5.2,9.3-12.2,10.5-21h14.4h7.1h50.9h12.3h4.9c11.2,0,17-4.8,20-10.2
							c2.1,2.1,4.5,4,7.2,5.8c4.5,2.9,9.3,4.4,14.2,4.4v0h0.4h6.7h63.1v0h11.8c6.7,0,11.9-2.4,15.4-7.3c3.3-4.5,4.9-10.4,4.9-17.6
							v-50.8L4894.5,284.4L4894.5,284.4z M4646.1,344.3h-10.3c-5.5,0-9.3-1.6-11.7-4.8c-2.5-3.5-3.8-9.1-3.8-16.7
							c0-3.1,0.3-6.2,0.8-9.2c0.5-2.9,1.4-5.9,2.6-8.7c1.1-2.5,2.6-4.4,4.6-5.9c2-1.4,4.2-2.1,7-2.1c3.5,0,6,1.2,7.8,3.7
							c2,2.8,3,5.9,3,9.6V344.3z"/>
					</g>
					<g>
						<path class="st4" d="M2651.4,565.7v-0.4c13.5-5,20.8-15.6,20.8-27.1c0-10.6-5.2-18.7-13-23.4c-8.5-5.9-18.9-8-35.8-8
							c-12.8,0-26,1.1-33.2,2.6v123c5.8,0.7,15.4,1.7,28,1.7c22.8,0,37.4-3.9,46.4-11.7c7.2-5.9,12.1-14.6,12.1-25.8
							C2676.6,579.4,2664.6,569,2651.4,565.7 M2612.9,524.7c2.4-0.6,6.3-0.9,13-0.9c14.5,0,23.4,5.4,23.4,17.1
							c0,10.6-8.9,18-24.7,18h-11.7L2612.9,524.7L2612.9,524.7z M2624.9,616.9c-5.2,0-9.1-0.2-12.1-0.6v-40.8h11.3
							c15.8,0,28.4,5.9,28.4,20.4C2652.5,611.3,2639.6,616.9,2624.9,616.9"/>
						<rect x="2696.1" y="501.2" class="st4" width="23" height="131.7"/>
						<path class="st4" d="M2824.6,542.5h-22.8v54.5c0,2.6-0.6,5-1.3,7c-2.4,5.8-8.4,12.2-17.4,12.2c-12.1,0-16.9-9.6-16.9-24.7
							v-49.1h-22.8v53c0,29.5,15,39.3,31.5,39.3c16.1,0,25-9.3,28.9-15.8h0.4l1.1,13.7h20c-0.4-7.4-0.8-16.3-0.8-27.1L2824.6,542.5
							L2824.6,542.5z"/>
						<path class="st4" d="M2887.6,540.5c-28.9,0-44.1,23.6-44.1,48.6c0,27.6,17.2,45.6,46.6,45.6c13,0,23.7-2.4,31.5-5.6l-3.3-15.8
							c-6.9,2.6-14.5,4.1-25,4.1c-14.5,0-27.3-7.1-27.8-23.4h60.5c0.4-2,0.7-5.4,0.7-9.6C2926.5,564.6,2916.9,540.5,2887.6,540.5
							 M2865.3,578.1c0.9-9.3,6.9-22.1,21-22.1c15.2,0,18.9,13.7,18.7,22.1H2865.3z"/>
						<polygon class="st4" points="2965.1,526.9 3000.7,526.9 3000.7,632.8 3023.5,632.8 3023.5,526.9 3059.5,526.9 3059.5,507.8 
							2965.1,507.8 						"/>
						<path class="st4" d="M3084.5,559.8h-0.8l-0.7-17.2h-19.9c0.6,8.1,0.7,16.9,0.7,29.1v61.2h22.8v-46.7c0-2.6,0.4-5,0.8-7.1
							c2-10.2,9.4-17.2,20.4-17.2c2.8,0,4.8,0.4,6.7,0.7V541c-1.9-0.4-3.2-0.6-5.4-0.6C3099.5,540.5,3088.9,547,3084.5,559.8"/>
						<rect x="3129.9" y="542.5" class="st4" width="23" height="90.3"/>
						<path class="st4" d="M3141.4,504.9c-7.6,0-12.8,5.4-12.8,12.4c0,6.9,5,12.2,12.6,12.2c8,0,13-5.4,13-12.2
							C3154,510.2,3149.2,504.9,3141.4,504.9"/>
						<path class="st4" d="M3247.5,578.5c0-19.7-8.3-38-37.3-38c-14.3,0-26,3.9-32.6,8l4.4,14.8c6.1-3.9,15.4-6.7,24.3-6.7
							c16,0,18.4,9.8,18.4,15.8v1.5c-33.4-0.2-53.6,11.3-53.6,34.1c0,13.7,10.2,26.9,28.4,26.9c11.7,0,21.1-5,26.7-12.1h0.6l1.5,10
							h20.6c-0.9-5.6-1.3-13.5-1.3-21.7V578.5L3247.5,578.5z M3225.2,601.1c0,1.5-0.2,3.3-0.8,5c-2,6.5-8.7,12.4-17.8,12.4
							c-7.2,0-13-4.1-13-13c0-13.7,15.4-17.2,31.5-16.9L3225.2,601.1L3225.2,601.1z"/>
						<path class="st4" d="M3321.2,540.5c-15,0-24.9,8.5-28.7,15.6h-0.6l-1.1-13.6h-20c0.6,7.8,0.7,16.5,0.7,26.9v63.4h23v-53
							c0-2.6,0.2-5.4,0.9-7.4c2.4-6.9,8.7-13.4,17.8-13.4c12.4,0,17.2,9.8,17.2,22.8v51h22.8v-53.6
							C3353.3,550.7,3337,540.5,3321.2,540.5"/>
						<path class="st4" d="M3439.3,554.6h-0.4c-4.3-7.4-12.4-14.1-26.1-14.1c-21.7,0-41,18-41,47.7c0,25.6,15.9,44.1,38.4,44.1
							c11.9,0,21.1-5.4,26.3-13.3h0.4v7.8c0,19.5-11.1,27.3-26,27.3c-10.9,0-20.6-3.5-26.3-6.9l-5,17.2c7.8,4.8,20,7.2,31.5,7.2
							c12.4,0,25.4-2.6,34.9-10.9c9.4-8.5,13.3-22.1,13.3-41v-51.2c0-12.4,0.4-19.8,0.7-26h-19.8L3439.3,554.6z M3436.6,593.3
							c0,2.6-0.4,5.8-0.9,8.2c-2.6,8.2-10,13.7-18.5,13.7c-14.3,0-22.1-12.4-22.1-27.8c0-18.4,9.5-29.5,22.3-29.5
							c9.6,0,16.1,6.3,18.5,14.7c0.6,1.9,0.7,4.1,0.7,6.1V593.3z"/>
						<rect x="3483.8" y="501.2" class="st4" width="23" height="131.7"/>
						<path class="st4" d="M3569.8,540.5c-28.9,0-44.1,23.6-44.1,48.6c0,27.6,17.2,45.6,46.6,45.6c13,0,23.7-2.4,31.5-5.6l-3.3-15.8
							c-6.9,2.6-14.5,4.1-25,4.1c-14.5,0-27.3-7.1-27.8-23.4h60.5c0.4-2,0.7-5.4,0.7-9.6C3608.8,564.6,3599.1,540.5,3569.8,540.5
							 M3547.6,578.1c0.9-9.3,6.9-22.1,21-22.1c15.2,0,18.9,13.7,18.7,22.1H3547.6z"/>
						<polygon class="st4" points="3647.3,526.9 3682.9,526.9 3682.9,632.8 3705.7,632.8 3705.7,526.9 3741.7,526.9 3741.7,507.8 
							3647.3,507.8 						"/>
						<path class="st4" d="M3766.7,559.8h-0.8l-0.7-17.2h-19.9c0.6,8.1,0.7,16.9,0.7,29.1v61.2h22.8v-46.7c0-2.6,0.4-5,0.7-7.1
							c2-10.2,9.5-17.2,20.4-17.2c2.8,0,4.8,0.4,6.7,0.7V541c-1.8-0.4-3.1-0.6-5.4-0.6C3781.8,540.5,3771.2,547,3766.7,559.8"/>
						<path class="st4" d="M3880.6,578.5c0-19.7-8.3-38-37.3-38c-14.3,0-26,3.9-32.6,8l4.4,14.8c6.1-3.9,15.4-6.7,24.3-6.7
							c16,0,18.4,9.8,18.4,15.8v1.5c-33.4-0.2-53.6,11.3-53.6,34.1c0,13.7,10.2,26.9,28.4,26.9c11.7,0,21.1-5,26.7-12.1h0.6l1.5,10
							h20.6c-0.9-5.6-1.3-13.5-1.3-21.7L3880.6,578.5L3880.6,578.5z M3858.3,601.1c0,1.5-0.2,3.3-0.8,5c-2,6.5-8.7,12.4-17.8,12.4
							c-7.2,0-13-4.1-13-13c0-13.7,15.4-17.2,31.5-16.9L3858.3,601.1L3858.3,601.1z"/>
						<path class="st4" d="M3987.9,501.2h-22.8v51.2h-0.4c-4.1-6.7-13-11.9-25.4-11.9c-21.7,0-40.6,18-40.4,48.2
							c0,27.8,17.1,46.2,38.6,46.2c13.2,0,24.1-6.3,29.5-16.3h0.4l0.9,14.3h20.4c-0.4-6.1-0.7-16.1-0.7-25.4V501.2L3987.9,501.2z
							 M3965.1,593.7c0,2.4-0.2,4.6-0.8,6.7c-2.2,9.8-10.4,16.1-19.6,16.1c-14.5,0-22.6-12.1-22.6-28.6c0-16.9,8.2-29.9,22.8-29.9
							c10.4,0,17.6,7.2,19.7,16.1c0.4,1.9,0.6,4.1,0.6,5.9V593.7L3965.1,593.7z"/>
						<path class="st4" d="M4023.9,504.9c-7.6,0-12.8,5.4-12.8,12.4c0,6.9,5,12.2,12.6,12.2c8,0,13-5.4,13-12.2
							C4036.5,510.2,4031.6,504.9,4023.9,504.9"/>
						<rect x="4012.4" y="542.5" class="st4" width="23" height="90.3"/>
						<path class="st4" d="M4109.5,540.5c-15,0-24.9,8.5-28.7,15.6h-0.6l-1.1-13.6h-20c0.6,7.8,0.7,16.5,0.7,26.9v63.4h23v-53
							c0-2.6,0.2-5.4,0.9-7.4c2.4-6.9,8.7-13.4,17.8-13.4c12.4,0,17.2,9.8,17.2,22.8v51h22.8v-53.6
							C4141.6,550.7,4125.3,540.5,4109.5,540.5"/>
						<path class="st4" d="M4227.6,554.6h-0.4c-4.3-7.4-12.4-14.1-26.1-14.1c-21.7,0-41,18-41,47.7c0,25.6,16,44.1,38.4,44.1
							c11.9,0,21.2-5.4,26.3-13.3h0.4v7.8c0,19.5-11.1,27.3-26,27.3c-10.9,0-20.6-3.5-26.3-6.9l-5,17.2c7.8,4.8,20,7.2,31.5,7.2
							c12.4,0,25.4-2.6,34.9-10.9c9.5-8.5,13.4-22.1,13.4-41v-51.2c0-12.4,0.4-19.8,0.7-26h-19.8L4227.6,554.6z M4224.9,593.3
							c0,2.6-0.4,5.8-0.9,8.2c-2.6,8.2-10,13.7-18.5,13.7c-14.3,0-22.1-12.4-22.1-27.8c0-18.4,9.5-29.5,22.3-29.5
							c9.6,0,16.1,6.3,18.5,14.7c0.6,1.9,0.8,4.1,0.8,6.1L4224.9,593.3L4224.9,593.3z"/>
						<polygon class="st4" points="4334.2,507.8 4311.4,507.8 4311.4,632.8 4385.6,632.8 4385.6,613.7 4334.2,613.7 						"/>
						<path class="st4" d="M4413.4,504.9c-7.6,0-12.8,5.4-12.8,12.4c0,6.9,5,12.2,12.6,12.2c8,0,13-5.4,13-12.2
							C4426,510.2,4421.2,504.9,4413.4,504.9"/>
						<rect x="4401.9" y="542.5" class="st4" width="23" height="90.3"/>
						<path class="st4" d="M4552.3,540.5c-7.4,0-13.2,1.9-18.2,5.4c-4.3,2.6-8,6.3-11.1,11.3h-0.4c-3.9-10-13.2-16.7-25-16.7
							c-15.2,0-23.4,8.4-27.8,15.4h-0.6l-0.9-13.4h-19.7c0.6,7.8,0.7,16.5,0.7,26.9v63.4h22.3v-53.4c0-2.6,0.4-5.2,1.3-7.4
							c2-6.3,7.8-13,16.3-13c10.6,0,15.6,8.9,15.6,21.5v52.3h22.2v-54.2c0-2.6,0.6-5.4,1.1-7.6c2.4-6.5,8.2-12.1,16-12.1
							c10.9,0,16.1,8.9,16.1,23.9v49.9h22.3v-53.2C4582.5,550.7,4567.3,540.5,4552.3,540.5"/>
						<path class="st4" d="M4618.1,504.9c-7.6,0-12.8,5.4-12.8,12.4c0,6.9,5,12.2,12.6,12.2c8,0,13-5.4,13-12.2
							C4630.7,510.2,4625.8,504.9,4618.1,504.9"/>
						<rect x="4606.6" y="542.5" class="st4" width="23" height="90.3"/>
						<path class="st4" d="M4680.2,516.7l-22.3,5.4v20.4h-13v17.1h13v42.5c0,11.9,2.2,20,7.1,25.2c4.3,4.6,11.3,7.4,19.7,7.4
							c7.2,0,13.2-0.9,16.5-2.2l-0.4-17.4c-2,0.6-5,1.1-8.9,1.1c-8.7,0-11.7-5.8-11.7-16.7v-39.9h21.7v-17.1h-21.7V516.7z"/>
						<path class="st4" d="M4756.4,540.5c-28.9,0-44.1,23.6-44.1,48.6c0,27.6,17.2,45.6,46.5,45.6c13,0,23.7-2.4,31.5-5.6l-3.3-15.8
							c-6.9,2.6-14.5,4.1-25,4.1c-14.5,0-27.3-7.1-27.8-23.4h60.5c0.4-2,0.8-5.4,0.8-9.6C4795.3,564.6,4785.7,540.5,4756.4,540.5
							 M4734.1,578.1c0.9-9.3,6.9-22.1,21-22.1c15.2,0,18.9,13.7,18.7,22.1H4734.1z"/>
						<path class="st4" d="M4896.9,607.4V501.2h-22.8v51.2h-0.4c-4.1-6.7-13-11.9-25.4-11.9c-21.7,0-40.6,18-40.4,48.2
							c0,27.8,17.1,46.2,38.6,46.2c13.2,0,24.1-6.3,29.5-16.3h0.4l0.9,14.3h20.4C4897.3,626.7,4896.9,616.7,4896.9,607.4
							 M4874.1,593.7c0,2.4-0.2,4.6-0.8,6.7c-2.2,9.8-10.4,16.1-19.7,16.1c-14.5,0-22.6-12.1-22.6-28.6c0-16.9,8.1-29.9,22.8-29.9
							c10.4,0,17.6,7.2,19.7,16.1c0.4,1.9,0.6,4.1,0.6,5.9L4874.1,593.7L4874.1,593.7z"/>
					</g>
				</g>
			</g>
		</g>
	</g>
</g>
<g>
	<g>
		<path class="st4" d="M34.7,414.1c0,9.1-2.1,16.1-6.1,21.3c-4.1,5.1-9.5,7.7-16.2,7.7c-1.3,0-2.9-0.1-4.7-0.3
			c-1.8-0.2-3.8-0.4-5.8-0.6L0,459c2.1,0.1,4.1,0.3,6.2,0.6c2.1,0.2,4.1,0.3,6,0.3c8,0,15.2-1.9,21.4-5.7
			c6.2-3.8,11.1-9.2,14.6-16.1c3.5-6.9,5.3-14.9,5.3-24V300.9H34.7L34.7,414.1L34.7,414.1z"/>
		<path class="st4" d="M439.2,379.6c-3-6.4-4.5-13.3-4.5-20.6c0-8,1.6-15.2,4.9-21.4c3.3-6.2,7.9-11.1,13.9-14.6
			c6-3.5,12.8-5.3,20.4-5.3c3.2,0,6.6,0.4,10.3,1.1c3.6,0.7,7.3,1.7,11,2.9l6.1-15.8c-4.5-1.6-9.2-2.9-14-3.7
			c-4.8-0.9-9.4-1.3-13.8-1.3c-8,0-15.6,1.4-22.6,4.3c-7,2.9-13.1,6.9-18.3,12.2s-9.3,11.4-12.3,18.5c-3,7.1-4.5,14.8-4.5,23.1
			c0,9.6,2.1,18.8,6.1,27.4c1.2,2.6,2.9,4.9,4.5,7.2h-33.2c0,0,0,0,0,0c0,0,0,0,0,0h-23.7v-36.9c0-13.7-2.1-24.7-6.1-32.9
			c-4.1-8.2-10.3-14.1-18.6-17.8c-8.3-3.7-18.7-5.5-31.1-5.5c-8.5,0-16.3,0.6-23.4,2s-12.2,2.6-15.5,3.9c-0.9,3.4-1.8,7.8-2.7,13.4
			s-1.8,11.7-2.5,18.5c-0.7,6.8-1.1,13.8-1.1,20.9c0,7.4,0.3,14.5,1,21.1c0.5,5,1.1,9.3,1.7,13.2h-26.6h-54.8h-54.8h-26.5V253.5
			H89.7v157h18.6h26.5h54.8h54.8h125h23.7c0,0,0,0,0,0s0,0,0,0H504v-16.9h-54.6C445.2,389.4,441.6,384.8,439.2,379.6z M290,393.1
			c-0.7-4.3-1.4-9.5-2-15.5c-0.6-6-0.9-12.1-0.9-18.2c0-6,0.3-12,0.9-18.1c0.6-6.1,1.3-11.8,2.2-17.1c0.3-1.6,0.5-3,0.8-4.4
			c1.5-0.3,2.8-0.6,4.5-0.8c6-0.8,12.1-1.2,18.2-1.2c9.4,0,16.8,1.2,22.3,3.5c5.5,2.3,9.4,6.4,11.6,12.1c2.3,5.7,3.4,13.5,3.4,23.5
			v36.9h-60.9C290,393.5,290,393.3,290,393.1z"/>
		<path class="st4" d="M571.9,458.1c-0.8-1.8-1.2-3.5-1.2-5.3c0-3.1,1-5.6,3-7.5c2-1.9,4.6-2.9,8-2.9c1.2,0,2.3,0.1,3.4,0.3
			c1.1,0.2,2.2,0.7,3.4,1.4l5.9-10.5c-1.8-1.2-3.8-2.1-6.2-2.7c-2.4-0.7-4.8-1-7.1-1c-4.2,0-8.2,1-11.8,3c-3.7,2-6.6,4.7-8.8,8.1
			c-2.2,3.4-3.3,7.4-3.3,11.7c0,1.9,0.7,3.7,1.2,5.5H553v12.3h44.5v-12.3h-25.4C572,458.3,571.9,458.2,571.9,458.1z"/>
		<polygon class="st4" points="629.1,393.7 584.5,393.7 584.5,284.6 565.9,284.6 565.9,393.7 531.4,393.7 531.4,410.6 647.9,410.6 
			647.9,253.5 629.1,253.5 		"/>
		<rect x="686.1" y="253.5" class="st4" width="18.6" height="157"/>
		<path class="st4" d="M754.2,306.7c-7.2,3.9-12.4,9.9-15.4,18.1c-3,8.2-4.5,18.5-4.5,30.9c0,12.6,1.5,22.9,4.5,31s8.1,14.1,15.4,18
			c7.2,3.9,17.1,5.8,29.7,5.8h27.2v5.9c0,8.6-2.7,15.2-8.1,19.7c-5.4,4.5-14,6.8-25.9,6.8c-3.7,0-8.1-0.2-13.3-0.6
			c-5.2-0.4-11.7-1.2-19.4-2.2l-2.9,15.1c6.9,1.5,13.2,2.6,19,3.4c5.8,0.8,11.3,1.2,16.6,1.2c11,0,20.4-1.7,28.3-5
			c7.9-3.4,13.9-8.3,18.2-14.9c4.2-6.6,6.4-14.5,6.4-23.7V300.9h-46.1C771.3,300.9,761.4,302.8,754.2,306.7z M783.9,393.7
			c-8,0-14.3-1-18.9-3c-4.5-2-7.6-5.7-9.3-11.1c-1.7-5.4-2.5-13.4-2.5-23.9s0.9-18.5,2.6-23.9c1.8-5.4,4.9-9.1,9.3-11.1
			c4.5-2,10.7-3,18.8-3h27.2v75.9L783.9,393.7L783.9,393.7z"/>
		<rect x="1057" y="430.7" class="st4" width="18.6" height="20.4"/>
		<rect x="1025.6" y="430.7" class="st4" width="18.6" height="20.4"/>
		<path class="st4" d="M1060.9,300.9H1042v92.8h-25.2H962h-23.5v-92.8h-18.9v113.2c0,9.1-2.1,16.1-6.1,21.3
			c-4.1,5.1-9.5,7.7-16.2,7.7c-1.3,0-2.9-0.1-4.7-0.3c-1.8-0.2-3.8-0.4-5.8-0.6L885,459c2.1,0.1,4.1,0.3,6.2,0.6
			c2.1,0.2,4.1,0.3,6,0.3c8,0,15.2-1.9,21.4-5.7c6.2-3.8,11.1-9.2,14.6-16.1c3.5-6.9,5.3-14.9,5.3-24v-3.5H962h54.8h44.1
			L1060.9,300.9L1060.9,300.9z"/>
		<rect x="1413.6" y="260.8" class="st4" width="18.6" height="20.4"/>
		<rect x="1382.2" y="260.8" class="st4" width="18.6" height="20.4"/>
		<path class="st4" d="M1466.9,393.7h-26.3c0,0,0,0,0,0c0,0,0,0,0,0h-24.1v-92.8h-18.9v92.8h-25.2h-17.8v-35.5
			c0-6.4-0.8-13-2.3-19.6c-1.5-6.6-4.2-12.9-8-18.6c-3.8-5.8-9-10.4-15.7-13.8c-6.6-3.4-15.2-5.1-25.6-5.1c-9.1,0-17.1,1.4-24.1,4.2
			c-7,2.8-13.3,6.4-18.9,11s-10.7,9.6-15.5,15.4c-1.6,1.9-3.1,3.9-4.7,5.8v-83.7H1221v140.1h-14.5h-23.7v-92.8h-46.1
			c-12.6,0-22.5,1.9-29.7,5.8c-7.2,3.9-12.4,9.9-15.4,18.1c-3,8.2-4.5,18.5-4.5,30.9c0,12.6,1.5,22.9,4.5,31s8.1,14.1,15.4,18
			c7.2,3.9,17.1,5.8,29.7,5.8h27.2v5.9c0,8.6-2.7,15.2-8.1,19.7c-5.4,4.5-14,6.8-25.9,6.8c-3.7,0-8.1-0.2-13.3-0.6
			c-5.2-0.4-11.7-1.2-19.4-2.2l-2.9,15.1c6.9,1.5,13.2,2.6,19,3.4c5.8,0.8,11.3,1.2,16.6,1.2c11,0,20.4-1.7,28.3-5
			c7.9-3.4,13.9-8.3,18.2-14.9c4.2-6.6,6.4-14.5,6.4-23.7v-5.7h23.7h142.4h5.7h17.8h44.1h24.1c0,0,0,0,0,0s0,0,0,0h26.3h18.9v-157
			h-18.9L1466.9,393.7L1466.9,393.7z M1136.8,393.7c-8,0-14.3-1-18.9-3c-4.5-2-7.6-5.7-9.3-11.1c-1.7-5.4-2.5-13.4-2.5-23.9
			s0.9-18.5,2.6-23.9c1.8-5.4,4.9-9.1,9.3-11.1c4.5-2,10.7-3,18.8-3h27.2v75.9L1136.8,393.7L1136.8,393.7z M1239.9,360.7
			c1.8-2.3,3.5-4.4,5.5-6.9c3.4-4.2,7.1-8.4,11.1-12.6c4-4.2,8.4-8,13.1-11.5s9.8-6.4,15.2-8.6s11.4-3.3,17.9-3.3
			c7.5,0,13.6,1.5,18.5,4.5c4.9,3,8.6,7.4,11.1,13.4c2.5,5.9,3.7,13.4,3.7,22.5v35.5h-96.1L1239.9,360.7L1239.9,360.7z"/>
		<rect x="1523" y="253.5" class="st4" width="18.6" height="157"/>
		<path class="st4" d="M1651.8,381.4c-2.1-4.8-3.1-9.9-3.1-15.1c0-6.6,1.5-12.4,4.4-17.4c2.9-5,6.9-9,11.9-11.9s10.9-4.4,17.4-4.4
			c3.8,0,7.2,0.4,10.3,1.3c3.1,0.9,6.1,2.4,9.2,4.4l10.1-14.3c-4.2-2.6-8.9-4.7-14-6.1c-5.1-1.5-10.4-2.2-15.8-2.2
			c-7.3,0-14.1,1.2-20.4,3.7c-6.3,2.5-11.8,6-16.6,10.5c-4.8,4.5-8.5,9.9-11.2,16.1c-2.7,6.2-4.1,13-4.1,20.3
			c0,7.6,1.4,14.7,4.3,21.3c0.9,2.1,2.2,4.1,3.4,6.1h-18.2v16.9h102.9v-16.9h-62.8C1656.2,389.5,1653.5,385.4,1651.8,381.4z"/>
		<path class="st4" d="M2019.5,327.3c-3.4-5.2-8.1-9.4-14.1-12.5c-6-3.1-13.6-4.7-22.8-4.7h-42l7.2-13.6c1.6-3.1,3.3-6.1,5-9.1
			c1.8-3,3.9-6.6,6.6-10.7c2.6-4.2,6-9.4,10.1-15.7l-15.6-9.4c-4.2,6.3-7.8,11.6-10.5,16s-5.1,8.2-6.9,11.5
			c-1.8,3.3-3.6,6.5-5.4,9.5l-9.6,18.6l13.4,20h47.8c6.1,0,11.2,1.2,15.2,3.7c4,2.5,7.1,6.2,9.1,11.3c2.1,5.1,3.1,11.5,3.1,19.4v32
			h-103.1H1852h-54.8h-26.5V253.5H1752v157h18.6h26.5h54.8h54.8h121.9v-48.9c0-5.7-0.7-11.5-2.1-17.5
			C2025.3,338.1,2022.9,332.5,2019.5,327.3z"/>
		<path class="st4" d="M2275.4,336c-0.7-5.7-1.5-11.7-2.5-18c-1-6.3-2.1-12-3.1-17.1l-18.2,3.1c1.3,6.1,2.5,12.2,3.4,18.3
			c0.9,6.1,1.7,11.5,2.2,16.3c0.5,4.8,0.8,8.5,0.8,11v44.1h-31.6c-2.8,0-5.5-0.6-8.2-1.9c-1.7-0.8-3.6-2.4-5.4-3.7
			c2-6.6,3.1-14.6,3.1-24.7v-51.5H2197v51.5c0,8.5-0.5,14.9-1.5,19.3c-1,4.4-2.9,7.3-5.5,8.8c-2.6,1.5-6.4,2.2-11.4,2.2h-23.5v-92.8
			h-18.9v21.5h-47.2v-21.5h-18.9v113.2c0,9.1-2.1,16.1-6.1,21.3c-4.1,5.1-9.5,7.7-16.2,7.7c-1.3,0-2.9-0.1-4.7-0.3
			c-1.8-0.2-3.8-0.4-5.8-0.6l-1.8,16.9c2.1,0.1,4.1,0.3,6.2,0.6c2.1,0.2,4.1,0.3,6,0.3c8,0,15.2-1.9,21.4-5.7
			c6.2-3.8,11.1-9.2,14.6-16.1c3.5-6.9,5.3-14.9,5.3-24v-74.6h47.2v71.1h18.9h23.5c8.9,0,16.1-1.5,21.5-4.5c1.3-0.7,2.2-1.9,3.3-2.8
			c2.6,1.7,5.3,3.2,8,4.3c4.9,2,9.9,3,15,3h50v-61C2276.4,346.2,2276.1,341.7,2275.4,336z"/>
		<rect x="2212.6" y="260.8" class="st4" width="18.7" height="20.4"/>
		<rect x="2197.7" y="232.5" class="st4" width="17.1" height="19.1"/>
		<rect x="2181.2" y="260.8" class="st4" width="18.7" height="20.4"/>
	</g>
	<g>
		<path class="st4" d="M63.4,558.2c-2.7-4.1-6.4-7.2-11.1-9.5c-4.7-2.3-10.6-3.4-17.7-3.4H0v95.8h34.7c7.1,0,13-1.2,17.7-3.8
			c4.7-2.5,8.4-6,11.1-10.5c2.7-4.5,4.7-9.7,5.8-15.7c1.1-6,1.7-12.4,1.7-19.4s-0.6-13.3-1.7-19C68.1,567.1,66.1,562.2,63.4,558.2z
			 M57.3,606.4c-0.7,4.6-1.9,8.7-3.6,12.3c-1.7,3.6-4.1,6.4-7.1,8.5c-3.1,2.1-7,3.1-11.9,3.1H12.2v-74.4h22.4
			c4.8,0,8.8,0.9,11.9,2.7c3.1,1.8,5.5,4.3,7.2,7.6c1.7,3.2,2.9,7,3.6,11.4c0.7,4.4,1,9.1,1,14.2C58.3,596.9,58,601.8,57.3,606.4z"
			/>
		<path class="st4" d="M114.4,570.2c-6.1,0-11.4,1.2-15.8,3.7c-4.4,2.4-7.8,6.4-10.2,11.7c-2.4,5.4-3.6,12.4-3.6,21.1
			c0,7.9,0.9,14.4,2.7,19.7c1.8,5.3,4.7,9.2,8.8,11.9s9.6,4,16.7,4c2.9,0,6-0.1,9.4-0.4c3.4-0.2,6.7-0.5,9.9-0.9
			c3.2-0.4,6-0.7,8.2-1.1l-0.3-9.2c-2.1,0.2-4.8,0.4-7.8,0.6c-3.1,0.2-6.2,0.4-9.4,0.5c-3.1,0.1-6,0.2-8.6,0.2
			c-6.6,0-11.1-1.8-13.6-5.3c-2.5-3.6-3.8-8.8-3.9-15.6h45.4l0.6-8.6c0-11.3-2.4-19.5-7.1-24.6C131,572.8,123.9,570.2,114.4,570.2z
			 M96.9,601.9c0-5.3,0.7-9.5,2.1-12.8c1.4-3.2,3.4-5.6,5.9-7.1c2.5-1.5,5.7-2.2,9.5-2.2c5.8,0,10,1.6,12.6,4.9
			c2.6,3.3,3.9,9,3.9,17.1L96.9,601.9L96.9,601.9z"/>
		<polygon class="st4" points="184.1,630.9 179.1,630.9 163.9,571.6 151.1,571.6 170.1,641.1 193.2,641.1 212.2,571.6 200,571.6 		
			"/>
		<path class="st4" d="M250.2,570.2c-6.1,0-11.4,1.2-15.8,3.7c-4.4,2.4-7.8,6.4-10.2,11.7c-2.4,5.4-3.6,12.4-3.6,21.1
			c0,7.9,0.9,14.4,2.7,19.7c1.8,5.3,4.7,9.2,8.8,11.9s9.6,4,16.7,4c2.9,0,6-0.1,9.4-0.4c3.4-0.2,6.7-0.5,9.9-0.9
			c3.2-0.4,6-0.7,8.2-1.1l-0.3-9.2c-2.1,0.2-4.8,0.4-7.8,0.6c-3.1,0.2-6.2,0.4-9.4,0.5c-3.1,0.1-6,0.2-8.6,0.2
			c-6.6,0-11.1-1.8-13.6-5.3c-2.5-3.6-3.8-8.8-3.9-15.6h45.4l0.6-8.6c0-11.3-2.4-19.5-7.1-24.6C266.8,572.8,259.7,570.2,250.2,570.2
			z M232.7,601.9c0-5.3,0.7-9.5,2.1-12.8c1.4-3.2,3.4-5.6,5.9-7.1c2.5-1.5,5.7-2.2,9.5-2.2c5.8,0,10,1.6,12.6,4.9
			c2.6,3.3,3.9,9,3.9,17.1L232.7,601.9L232.7,601.9z"/>
		<rect x="294.9" y="541.6" class="st4" width="11.8" height="99.4"/>
		<path class="st4" d="M371.7,574.1c-4.4-2.5-10.4-3.8-17.8-3.8c-7.3,0-13.2,1.3-17.6,3.8c-4.4,2.6-7.6,6.4-9.6,11.7
			c-1.9,5.2-2.9,11.8-2.9,19.8c0,8.4,0.9,15.3,2.6,20.8s4.8,9.5,9.2,12.1c4.4,2.7,10.5,4,18.3,4c7.9,0,14-1.3,18.3-4
			c4.4-2.7,7.4-6.7,9.2-12.1s2.7-12.3,2.7-20.8c0-8-1-14.6-2.9-19.8C379.4,580.5,376.2,576.6,371.7,574.1z M370.8,620.9
			c-0.8,4-2.5,6.9-5.1,8.7c-2.6,1.8-6.5,2.7-11.7,2.7s-9.1-0.9-11.7-2.7c-2.6-1.8-4.3-4.7-5.1-8.7c-0.8-4-1.2-9.1-1.2-15.4
			c0-6.2,0.5-11.1,1.6-14.9s2.9-6.3,5.6-7.9c2.6-1.6,6.3-2.4,10.9-2.4c4.7,0,8.4,0.8,11,2.4c2.6,1.6,4.4,4.2,5.5,7.9
			s1.6,8.7,1.6,14.9C372,611.8,371.6,616.9,370.8,620.9z"/>
		<path class="st4" d="M447,573.9c-3.7-2.4-8.6-3.7-14.6-3.7c-2.4,0-4.9,0.3-7.4,1c-2.6,0.6-4.9,1.5-7.1,2.4s-4.1,1.9-5.6,2.9v-4.9
			h-11.7v100h11.7v-30.7c1.6,0.3,3.8,0.6,6.7,1c2.9,0.4,5.8,0.6,8.5,0.6c7.1,0,12.9-1.2,17.4-3.5c4.5-2.4,7.8-6.2,9.9-11.7
			c2.1-5.4,3.1-12.7,3.1-21.7c0-8.1-0.9-14.8-2.7-20.1C453.4,580.2,450.7,576.4,447,573.9z M444,620.8c-1.2,3.9-3.1,6.8-5.9,8.6
			c-2.8,1.8-6.6,2.7-11.5,2.7c-2.6,0-5.2-0.2-8-0.5c-2.7-0.3-4.8-0.6-6.3-0.8v-45.1c1.4-0.8,3.1-1.6,5.1-2.4c2-0.7,4.2-1.4,6.4-1.9
			c2.3-0.6,4.5-0.8,6.6-0.8c4.8,0,8.6,1.9,11.2,5.6c2.7,3.8,4,10.2,4,19.2C445.8,611.8,445.2,616.9,444,620.8z"/>
		<path class="st4" d="M567,577.9c-1.7-2.7-4.1-4.6-7.2-5.8c-3.1-1.2-7-1.8-11.7-1.8c-3,0-6,0.4-9,1.1c-3.1,0.7-5.9,1.6-8.6,2.7
			c-2.7,1.1-5,2.1-6.8,3.1c-1.8-2.4-4-4.2-6.8-5.3s-6.5-1.7-11.1-1.7c-2.3,0-4.7,0.3-7.2,1c-2.5,0.6-4.9,1.4-7.1,2.4
			c-2.2,0.9-4.1,1.9-5.6,2.8v-4.7h-11.7v69.4h11.7v-55.5c1.3-0.6,2.9-1.3,4.7-2.1c1.9-0.7,3.9-1.4,6.2-1.9c2.3-0.5,4.5-0.8,6.7-0.8
			c4.1,0,7.1,0.8,9.1,2.4c2,1.6,3.3,4.2,4,7.8c0.6,3.6,1,8.5,1,14.6v35.6h11.7v-36c0-3.7-0.1-7.3-0.4-10.8s-0.6-6.4-1.2-8.8
			c1.2-0.6,2.8-1.3,4.9-2.1s4.2-1.4,6.6-1.9c2.4-0.5,4.7-0.8,7-0.8c4,0,6.9,0.8,8.9,2.4s3.3,4.1,4,7.7c0.7,3.6,1,8.3,1,14.1v36.1
			h11.8v-36.7c0-6.3-0.4-11.6-1.1-16C570,584.1,568.8,580.6,567,577.9z"/>
		<path class="st4" d="M616.8,570.2c-6.1,0-11.4,1.2-15.8,3.7c-4.4,2.4-7.8,6.4-10.2,11.7c-2.4,5.4-3.6,12.4-3.6,21.1
			c0,7.9,0.9,14.4,2.7,19.7c1.8,5.3,4.7,9.2,8.8,11.9s9.6,4,16.7,4c2.9,0,6-0.1,9.4-0.4c3.4-0.2,6.7-0.5,9.9-0.9
			c3.2-0.4,6-0.7,8.2-1.1l-0.3-9.2c-2.1,0.2-4.8,0.4-7.8,0.6c-3.1,0.2-6.2,0.4-9.4,0.5c-3.1,0.1-6,0.2-8.6,0.2
			c-6.6,0-11.1-1.8-13.6-5.3c-2.5-3.6-3.8-8.8-3.9-15.6h45.4l0.6-8.6c0-11.3-2.4-19.5-7.1-24.6C633.4,572.8,626.2,570.2,616.8,570.2
			z M599.3,601.9c0-5.3,0.7-9.5,2.1-12.8c1.4-3.2,3.4-5.6,5.9-7.1c2.5-1.5,5.7-2.2,9.5-2.2c5.8,0,10,1.6,12.6,4.9
			c2.6,3.3,3.9,9,3.9,17.1L599.3,601.9L599.3,601.9z"/>
		<path class="st4" d="M712.6,578.1c-1.7-2.7-4.1-4.7-7.2-6c-3.1-1.2-7.1-1.9-11.9-1.9c-2.4,0-4.9,0.3-7.6,1
			c-2.6,0.6-5.1,1.4-7.5,2.4c-2.4,0.9-4.3,1.9-5.9,2.8v-4.7h-11.7v69.4h11.7v-55.4c1.4-0.7,3.1-1.5,5.1-2.2c2-0.7,4.2-1.4,6.6-1.9
			c2.4-0.5,4.7-0.8,6.9-0.8c4.2,0,7.2,0.8,9.2,2.4s3.3,4.1,4,7.6c0.7,3.5,1,8.2,1,14V641h11.8v-36.7c0-6.2-0.4-11.4-1-15.8
			C715.5,584.3,714.3,580.8,712.6,578.1z"/>
		<path class="st4" d="M768.1,631.6c-1.5,0.1-3,0.3-4.4,0.4s-2.6,0.1-3.5,0.1c-2.9,0-5-0.5-6.3-1.6s-2.2-2.9-2.6-5.6
			c-0.4-2.6-0.6-6.3-0.6-11v-32.1h21.2v-10.1h-21.2v-20.8h-11.8v20.8h-9.6v10.1h9.6v35.4c0,6.7,0.6,11.8,1.9,15.5
			c1.2,3.6,3.3,6.2,6.2,7.7c2.9,1.5,6.7,2.2,11.5,2.2c1.2,0,2.7-0.1,4.4-0.3c1.8-0.2,3.5-0.4,5.4-0.6c1.8-0.2,3.4-0.4,4.6-0.6
			l-0.7-9.9C770.9,631.3,769.6,631.4,768.1,631.6z"/>
		<path class="st4" d="M883.7,610.3c0.8-3.2,1.6-6.6,2.4-10.2c0.7-3.6,1.2-7,1.5-10.3l-11.2-0.1c-0.1,2-0.4,4.5-0.8,7.3
			c-0.5,2.8-0.9,5.5-1.5,8.1c-0.5,2.6-1,4.6-1.6,6l-19.9-19.7c3.7-1.8,6.9-3.5,9.6-5.2c2.7-1.7,4.9-3.6,6.6-5.6c1.7-2,3-4.2,3.8-6.7
			c0.8-2.5,1.2-5.4,1.2-8.8c0-4.4-0.9-8.3-2.7-11.4c-1.8-3.2-4.6-5.6-8.3-7.4c-3.7-1.7-8.3-2.6-13.9-2.6c-5.4,0-9.9,0.9-13.6,2.6
			c-3.7,1.7-6.5,4.1-8.5,7.2c-1.9,3.1-2.9,6.7-2.9,10.9c0,2.7,0.2,5.1,0.6,7.2c0.4,2.1,1.1,4.2,2.2,6.3c1.1,2.1,2.8,4.4,5.1,7
			c-4.7,1.6-8.7,3.5-11.8,5.8c-3.1,2.3-5.5,5.2-7,8.8c-1.5,3.6-2.3,8.1-2.3,13.5c0,6.1,1.1,11.4,3.2,15.8c2.1,4.4,5.7,7.8,10.8,10.1
			c5,2.4,11.9,3.5,20.6,3.5c6.6,0,12.4-1.3,17.5-3.8s9.2-6.3,12.4-11.3l16.9,15l6.4-7.8l-17.4-16.1
			C882,616.2,882.9,613.5,883.7,610.3z M839.3,556.8c2.3-2,5.4-3.1,9.5-3.1c4.5,0,7.8,1,9.9,3.1c2,2,3.1,5,3.1,9
			c0,3.1-0.6,5.8-1.7,7.9c-1.1,2.1-2.9,4-5.2,5.7c-2.4,1.7-5.4,3.3-9.2,5c-2.1-2.2-3.9-4.1-5.2-5.7c-1.3-1.6-2.3-3-3-4.3
			c-0.6-1.3-1.1-2.6-1.2-3.9c-0.2-1.3-0.3-2.8-0.3-4.4C835.9,561.9,837.1,558.8,839.3,556.8z M857.7,629c-3.8,1.9-8.3,2.9-13.3,2.9
			c-7.8,0-13.4-1.7-16.7-5.1c-3.4-3.4-5.1-8.3-5.1-14.8c0-3.7,0.6-6.8,1.7-9.3c1.1-2.5,2.8-4.6,5.1-6.2c2.3-1.7,5.3-3.1,9-4.2
			l28.2,28C864.5,624.3,861.5,627.1,857.7,629z"/>
		<path class="st4" d="M956.4,563.9c1.7-3.2,4.2-5.5,7.4-7c3.2-1.5,7.4-2.2,12.6-2.2c2.5,0,5.3,0.1,8.3,0.4c3.1,0.2,6,0.5,9,0.9
			c2.9,0.4,5.4,0.7,7.4,1.1l0.4-10.1c-2-0.5-4.5-0.9-7.4-1.5c-2.9-0.5-6-0.9-9.3-1.2s-6.6-0.5-9.9-0.5c-7.2,0-13.1,1-17.8,3.1
			c-4.6,2.1-8.3,5.2-10.9,9.4c-2.6,4.2-4.4,9.4-5.4,15.6s-1.5,13.4-1.5,21.5c0,8.1,0.5,15.1,1.5,21.2s2.8,11.2,5.4,15.4
			c2.6,4.2,6.2,7.3,10.8,9.4c4.6,2.1,10.5,3.1,17.8,3.1c3.1,0,6.2-0.1,9.5-0.4c3.3-0.3,6.4-0.6,9.4-1.1c3-0.5,5.6-0.9,7.8-1.4
			l-0.4-10.3c-3.2,0.6-7.2,1.1-11.8,1.6c-4.6,0.5-8.9,0.8-12.8,0.8c-5.3,0-9.5-0.8-12.8-2.3s-5.7-3.8-7.4-6.9
			c-1.7-3.1-2.8-7.1-3.5-11.9c-0.6-4.9-1-10.6-1-17.1c0-6.7,0.3-12.4,1-17.3C953.5,571.1,954.7,567.1,956.4,563.9z"/>
		<path class="st4" d="M1060.1,574.1c-4.4-2.5-10.4-3.8-17.8-3.8c-7.3,0-13.2,1.3-17.6,3.8c-4.4,2.6-7.6,6.4-9.6,11.7
			c-1.9,5.2-2.9,11.8-2.9,19.8c0,8.4,0.9,15.3,2.6,20.8s4.8,9.5,9.2,12.1c4.4,2.7,10.5,4,18.3,4c7.9,0,14-1.3,18.3-4
			c4.4-2.7,7.4-6.7,9.2-12.1s2.7-12.3,2.7-20.8c0-8-1-14.6-2.9-19.8C1067.7,580.5,1064.5,576.6,1060.1,574.1z M1059.1,620.9
			c-0.8,4-2.5,6.9-5.1,8.7c-2.6,1.8-6.5,2.7-11.7,2.7s-9.1-0.9-11.7-2.7c-2.6-1.8-4.3-4.7-5.1-8.7c-0.8-4-1.2-9.1-1.2-15.4
			c0-6.2,0.5-11.1,1.6-14.9s2.9-6.3,5.6-7.9c2.6-1.6,6.3-2.4,10.9-2.4c4.7,0,8.4,0.8,11,2.4c2.6,1.6,4.4,4.2,5.5,7.9
			s1.6,8.7,1.6,14.9C1060.3,611.8,1059.9,616.9,1059.1,620.9z"/>
		<path class="st4" d="M1140.6,578.1c-1.7-2.7-4.1-4.7-7.2-6c-3.1-1.2-7.1-1.9-11.9-1.9c-2.4,0-4.9,0.3-7.6,1
			c-2.6,0.6-5.1,1.4-7.5,2.4c-2.4,0.9-4.3,1.9-5.9,2.8v-4.7h-11.7v69.4h11.7v-55.4c1.4-0.7,3.1-1.5,5.1-2.2c2-0.7,4.2-1.4,6.6-1.9
			c2.4-0.5,4.7-0.8,6.9-0.8c4.2,0,7.2,0.8,9.2,2.4s3.3,4.1,4,7.6c0.7,3.5,1,8.2,1,14V641h11.8v-36.7c0-6.2-0.4-11.4-1-15.8
			C1143.6,584.3,1142.4,580.8,1140.6,578.1z"/>
		<path class="st4" d="M1203.4,604c-3.5-1.4-8.1-2.6-13.8-3.5c-4.8-0.8-8.5-1.6-11-2.4c-2.5-0.8-4.2-1.8-5.1-3
			c-0.9-1.2-1.4-2.8-1.4-4.7c0-2.5,0.6-4.5,1.9-5.9c1.2-1.4,2.9-2.4,5.1-3s4.5-0.8,7.2-0.8c2.2,0,4.8,0.1,7.8,0.4
			c3,0.2,5.9,0.5,9,0.8c3,0.3,5.6,0.7,7.8,1l0.3-10c-2.1-0.4-4.7-0.8-7.6-1.2c-3-0.4-6-0.8-9.2-1s-6.1-0.4-8.8-0.4
			c-4.3,0-8.3,0.6-12.2,1.9c-3.9,1.2-7,3.4-9.4,6.4c-2.4,3-3.6,7.1-3.6,12.4c0,4.6,0.8,8.2,2.4,10.7c1.6,2.5,4.2,4.4,7.6,5.7
			s7.8,2.4,13,3.2c4.9,0.6,8.6,1.4,11.2,2.2c2.6,0.8,4.3,1.9,5.3,3.1c1,1.2,1.5,2.9,1.5,5.1c0,3-0.6,5.2-1.9,6.8
			c-1.2,1.6-3.1,2.7-5.5,3.3c-2.4,0.6-5.4,1-9,1c-1.8,0-4-0.1-6.8-0.4c-2.8-0.2-5.6-0.5-8.5-0.9c-2.9-0.4-5.5-0.7-7.8-1l-0.7,10
			c2.3,0.4,4.9,0.8,7.9,1.2c3,0.4,6,0.8,9.1,1c3.1,0.3,5.8,0.4,8,0.4c5.7,0,10.6-0.7,14.6-2.1c4-1.4,7.1-3.7,9.4-6.9
			c2.2-3.2,3.3-7.6,3.3-12.9c0-4.5-0.8-8.1-2.4-10.6C1209.4,607.3,1206.9,605.4,1203.4,604z"/>
		<path class="st4" d="M1261.5,631.6c-1.5,0.1-3,0.3-4.4,0.4s-2.6,0.1-3.5,0.1c-2.9,0-5-0.5-6.3-1.6s-2.2-2.9-2.6-5.6
			c-0.4-2.6-0.6-6.3-0.6-11v-32.1h21.2v-10.1h-21.2v-20.8h-11.8v20.8h-9.6v10.1h9.6v35.4c0,6.7,0.6,11.8,1.9,15.5
			c1.2,3.6,3.3,6.2,6.2,7.7c2.9,1.5,6.7,2.2,11.5,2.2c1.2,0,2.7-0.1,4.4-0.3c1.8-0.2,3.5-0.4,5.4-0.6c1.8-0.2,3.4-0.4,4.6-0.6
			l-0.7-9.9C1264.3,631.3,1263,631.4,1261.5,631.6z"/>
		<path class="st4" d="M1295.9,576.8c-2.6,1.4-4.8,2.8-6.6,4v-9.2h-11.7v69.4h11.7v-50.1c1.8-0.9,4-2,6.7-3.2
			c2.7-1.2,5.6-2.3,8.8-3.3c3.1-1,6.2-1.9,9.3-2.5v-11.8c-3.1,0.5-6.3,1.3-9.4,2.6C1301.4,574,1298.5,575.4,1295.9,576.8z"/>
		<path class="st4" d="M1369,627c-1.9,1.1-4.5,2.2-7.8,3.3c-3.2,1.1-6.8,1.6-10.7,1.6c-3.9,0-6.8-0.8-8.8-2.4s-3.3-4.1-3.9-7.6
			c-0.6-3.5-0.9-8.2-0.9-14.2v-36.1h-11.7v36.2c0,8,0.6,14.5,1.7,19.6s3.3,8.9,6.5,11.3s7.8,3.6,13.7,3.6c4.7,0,8.8-0.6,12.2-1.8
			c3.4-1.2,6.6-2.6,9.6-4.3v4.7h11.8v-69.4H1369L1369,627L1369,627z"/>
		<path class="st4" d="M1439.9,631.2c-2.1,0.2-4.1,0.4-6.2,0.5s-3.7,0.2-5,0.2c-5.5,0-9.6-0.9-12.4-2.6c-2.8-1.7-4.6-4.5-5.6-8.4
			c-1-3.9-1.5-9.1-1.5-15.7c0-6,0.6-10.8,1.7-14.3c1.1-3.5,3.1-6.1,5.9-7.7c2.8-1.6,6.8-2.4,11.9-2.4c1.3,0,2.9,0.1,4.9,0.2
			c2,0.1,4,0.3,6,0.5c2,0.2,3.9,0.4,5.6,0.6l0.4-9.7c-1.8-0.3-3.9-0.6-6.3-0.9c-2.4-0.3-4.8-0.6-7.1-0.8c-2.3-0.2-4.3-0.4-6-0.4
			c-6.9,0-12.4,1.1-16.7,3.4c-4.3,2.3-7.4,6-9.4,11.2c-1.9,5.2-2.9,12-2.9,20.4c0,9,0.9,16.2,2.6,21.7c1.7,5.5,4.7,9.4,8.9,11.9
			c4.2,2.4,10,3.7,17.4,3.7c1.7,0,3.7-0.1,6-0.4c2.4-0.2,4.8-0.5,7.2-0.8s4.6-0.6,6.5-1l-0.3-9.6
			C1443.8,630.9,1442,631,1439.9,631.2z"/>
		<path class="st4" d="M1493.6,631.6c-1.5,0.1-3,0.3-4.4,0.4s-2.6,0.1-3.5,0.1c-2.9,0-5-0.5-6.3-1.6s-2.2-2.9-2.6-5.6
			c-0.4-2.6-0.6-6.3-0.6-11v-32.1h21.2v-10.1H1476v-20.8h-11.8v20.8h-9.6v10.1h9.6v35.4c0,6.7,0.6,11.8,1.9,15.5
			c1.2,3.6,3.3,6.2,6.2,7.7c2.9,1.5,6.7,2.2,11.5,2.2c1.2,0,2.7-0.1,4.4-0.3c1.8-0.2,3.5-0.4,5.4-0.6c1.8-0.2,3.4-0.4,4.6-0.6
			l-0.7-9.9C1496.5,631.3,1495.1,631.4,1493.6,631.6z"/>
		<rect x="1509.8" y="544" class="st4" width="11.7" height="12.9"/>
		<rect x="1509.8" y="571.6" class="st4" width="11.7" height="69.4"/>
		<path class="st4" d="M1585.8,574.1c-4.4-2.5-10.4-3.8-17.8-3.8c-7.3,0-13.2,1.3-17.6,3.8c-4.4,2.6-7.6,6.4-9.6,11.7
			c-1.9,5.2-2.9,11.8-2.9,19.8c0,8.4,0.9,15.3,2.6,20.8s4.8,9.5,9.2,12.1c4.4,2.7,10.5,4,18.3,4c7.9,0,14-1.3,18.3-4
			c4.4-2.7,7.4-6.7,9.2-12.1s2.7-12.3,2.7-20.8c0-8-1-14.6-2.9-19.8C1593.4,580.5,1590.2,576.6,1585.8,574.1z M1584.8,620.9
			c-0.8,4-2.5,6.9-5.1,8.7c-2.6,1.8-6.5,2.7-11.7,2.7s-9.1-0.9-11.7-2.7c-2.6-1.8-4.3-4.7-5.1-8.7c-0.8-4-1.2-9.1-1.2-15.4
			c0-6.2,0.5-11.1,1.6-14.9s2.9-6.3,5.6-7.9c2.6-1.6,6.3-2.4,10.9-2.4c4.7,0,8.4,0.8,11,2.4c2.6,1.6,4.4,4.2,5.5,7.9
			s1.6,8.7,1.6,14.9C1586,611.8,1585.6,616.9,1584.8,620.9z"/>
		<path class="st4" d="M1666.4,578.1c-1.7-2.7-4.1-4.7-7.2-6c-3.1-1.2-7.1-1.9-11.9-1.9c-2.4,0-4.9,0.3-7.6,1
			c-2.6,0.6-5.1,1.4-7.5,2.4c-2.4,0.9-4.3,1.9-5.9,2.8v-4.7h-11.7v69.4h11.7v-55.4c1.4-0.7,3.1-1.5,5.1-2.2c2-0.7,4.2-1.4,6.6-1.9
			c2.4-0.5,4.7-0.8,6.9-0.8c4.2,0,7.2,0.8,9.2,2.4s3.3,4.1,4,7.6c0.7,3.5,1,8.2,1,14V641h11.8v-36.7c0-6.2-0.4-11.4-1-15.8
			C1669.3,584.3,1668.1,580.8,1666.4,578.1z"/>
		<path class="st4" d="M1729.1,604c-3.5-1.4-8.1-2.6-13.8-3.5c-4.8-0.8-8.5-1.6-11-2.4c-2.5-0.8-4.2-1.8-5.1-3
			c-0.9-1.2-1.4-2.8-1.4-4.7c0-2.5,0.6-4.5,1.9-5.9c1.2-1.4,2.9-2.4,5.1-3c2.1-0.6,4.5-0.8,7.2-0.8c2.2,0,4.8,0.1,7.8,0.4
			c3,0.2,5.9,0.5,9,0.8c3,0.3,5.6,0.7,7.8,1l0.3-10c-2.1-0.4-4.7-0.8-7.6-1.2c-3-0.4-6-0.8-9.2-1s-6.1-0.4-8.8-0.4
			c-4.3,0-8.3,0.6-12.2,1.9c-3.9,1.2-7,3.4-9.4,6.4c-2.4,3-3.6,7.1-3.6,12.4c0,4.6,0.8,8.2,2.4,10.7c1.6,2.5,4.2,4.4,7.6,5.7
			s7.8,2.4,13,3.2c4.9,0.6,8.6,1.4,11.2,2.2c2.6,0.8,4.3,1.9,5.3,3.1c1,1.2,1.5,2.9,1.5,5.1c0,3-0.6,5.2-1.9,6.8
			c-1.2,1.6-3.1,2.7-5.5,3.3c-2.4,0.6-5.4,1-9,1c-1.8,0-4-0.1-6.8-0.4c-2.8-0.2-5.6-0.5-8.5-0.9c-2.9-0.4-5.5-0.7-7.8-1l-0.7,10
			c2.3,0.4,4.9,0.8,7.9,1.2c3,0.4,6,0.8,9.1,1c3.1,0.3,5.8,0.4,8,0.4c5.7,0,10.6-0.7,14.6-2.1c4-1.4,7.1-3.7,9.4-6.9
			c2.2-3.2,3.3-7.6,3.3-12.9c0-4.5-0.8-8.1-2.4-10.6C1735.1,607.3,1732.6,605.4,1729.1,604z"/>
		<path class="st4" d="M1839.4,548.6c-4.6-2.3-10.5-3.4-17.6-3.4h-35.3v95.8h12.2v-31.5h23.1c7.1,0,13-1.3,17.6-3.8
			c4.6-2.6,8.1-6.2,10.4-11.1c2.3-4.9,3.4-10.9,3.4-18c0-7.2-1.1-13.1-3.4-17.7C1847.5,554.3,1844.1,550.9,1839.4,548.6z
			 M1836.2,593.1c-3,3.9-7.8,5.8-14.6,5.8h-22.9v-43.2h22.9c6.8,0,11.6,1.7,14.6,5s4.4,8.6,4.4,15.8
			C1840.7,583.8,1839.2,589.3,1836.2,593.1z"/>
		<path class="st4" d="M1916.1,627.3v-34.7c0-5.2-0.8-9.4-2.4-12.7c-1.6-3.3-4.1-5.7-7.6-7.3c-3.4-1.6-7.8-2.4-13.2-2.4
			c-2.9,0-6,0.2-9.5,0.5s-6.8,0.7-10,1.2s-5.9,0.9-8.1,1.4l0.6,8.9c2.4-0.3,5.2-0.6,8.4-0.8s6.4-0.5,9.6-0.7c3.2-0.2,6-0.3,8.4-0.3
			c3.9,0,6.9,0.9,8.9,2.8c2,1.9,3.1,5,3.1,9.6v5.7l-20.8,2.1c-4.7,0.4-8.7,1.3-12,2.8c-3.3,1.5-5.7,3.7-7.4,6.5s-2.4,6.6-2.4,11.2
			c0,7,1.7,12.4,5.1,16c3.4,3.6,8.4,5.4,14.9,5.4c3.1,0,6.1-0.3,9.2-0.9c3.1-0.6,5.9-1.3,8.6-2.2c2.7-0.8,4.9-1.6,6.7-2.4
			c1,0.9,2.1,1.7,3.2,2.4c1.1,0.7,2.4,1.3,3.8,1.7c0.9,0.3,1.9,0.5,3.1,0.7c1.1,0.2,2.3,0.3,3.6,0.4c1.2,0.1,2.5,0.1,3.8,0.1
			l0.4-9.2c-2.1-0.3-3.9-0.9-5.3-1.7C1917.1,630.7,1916.3,629.2,1916.1,627.3z M1904.1,628.7c-1.5,0.6-3.4,1.2-5.7,1.8
			c-2.3,0.6-4.8,1.2-7.4,1.6c-2.6,0.4-5.1,0.6-7.5,0.6c-3.2,0-5.7-1.1-7.4-3.2c-1.7-2.1-2.6-5-2.6-8.8c0-3.6,0.9-6.4,2.6-8.4
			s4.6-3.2,8.6-3.5l19.3-1.8V628.7z"/>
		<path class="st4" d="M1954.3,576.8c-2.6,1.4-4.8,2.8-6.6,4v-9.2h-11.7v69.4h11.7v-50.1c1.8-0.9,4-2,6.7-3.2
			c2.7-1.2,5.6-2.3,8.8-3.3c3.1-1,6.2-1.9,9.3-2.5v-11.8c-3.1,0.5-6.3,1.3-9.4,2.6C1959.9,574,1957,575.4,1954.3,576.8z"/>
		<path class="st4" d="M2017.1,631.6c-1.5,0.1-3,0.3-4.4,0.4s-2.6,0.1-3.5,0.1c-2.9,0-5-0.5-6.3-1.6s-2.2-2.9-2.6-5.6
			c-0.4-2.6-0.6-6.3-0.6-11v-32.1h21.2v-10.1h-21.2v-20.8h-11.8v20.8h-9.6v10.1h9.6v35.4c0,6.7,0.6,11.8,1.9,15.5
			c1.2,3.6,3.3,6.2,6.2,7.7c2.9,1.5,6.7,2.2,11.5,2.2c1.2,0,2.7-0.1,4.4-0.3c1.8-0.2,3.5-0.4,5.4-0.6c1.8-0.2,3.4-0.4,4.6-0.6
			l-0.7-9.9C2019.9,631.3,2018.6,631.4,2017.1,631.6z"/>
		<path class="st4" d="M2085,578.1c-1.7-2.7-4.1-4.7-7.2-6c-3.1-1.2-7.1-1.9-11.9-1.9c-2.4,0-4.9,0.3-7.6,1
			c-2.6,0.6-5.1,1.4-7.5,2.4c-2.4,0.9-4.3,1.9-5.9,2.8v-4.7h-11.7v69.4h11.7v-55.4c1.4-0.7,3.1-1.5,5.1-2.2c2-0.7,4.2-1.4,6.6-1.9
			c2.4-0.5,4.7-0.8,6.9-0.8c4.2,0,7.2,0.8,9.2,2.4s3.3,4.1,4,7.6c0.7,3.5,1,8.2,1,14V641h11.8v-36.7c0-6.2-0.3-11.4-1-15.8
			C2087.9,584.3,2086.7,580.8,2085,578.1z"/>
		<path class="st4" d="M2134.6,570.2c-6.1,0-11.4,1.2-15.8,3.7c-4.4,2.4-7.8,6.4-10.2,11.7c-2.4,5.4-3.6,12.4-3.6,21.1
			c0,7.9,0.9,14.4,2.7,19.7c1.8,5.3,4.7,9.2,8.8,11.9c4.1,2.7,9.6,4,16.7,4c2.9,0,6-0.1,9.4-0.4c3.4-0.2,6.7-0.5,9.9-0.9
			c3.2-0.4,6-0.7,8.2-1.1l-0.3-9.2c-2.1,0.2-4.8,0.4-7.8,0.6c-3.1,0.2-6.2,0.4-9.4,0.5s-6,0.2-8.6,0.2c-6.6,0-11.1-1.8-13.6-5.3
			c-2.5-3.6-3.8-8.8-3.9-15.6h45.4l0.6-8.6c0-11.3-2.4-19.5-7.2-24.6C2151.2,572.8,2144.1,570.2,2134.6,570.2z M2117.1,601.9
			c0-5.3,0.7-9.5,2.1-12.8c1.4-3.2,3.4-5.6,5.9-7.1c2.5-1.5,5.7-2.2,9.5-2.2c5.8,0,10,1.6,12.6,4.9c2.6,3.3,3.9,9,3.9,17.1
			L2117.1,601.9L2117.1,601.9z"/>
		<path class="st4" d="M2196.9,576.8c-2.6,1.4-4.8,2.8-6.6,4v-9.2h-11.7v69.4h11.7v-50.1c1.8-0.9,4-2,6.7-3.2
			c2.7-1.2,5.6-2.3,8.8-3.3c3.2-1,6.2-1.9,9.3-2.5v-11.8c-3.1,0.5-6.3,1.3-9.4,2.6C2202.5,574,2199.6,575.4,2196.9,576.8z"/>
		<path class="st4" d="M2274.1,609.9c-1.6-2.5-4.1-4.5-7.6-5.9s-8.1-2.6-13.8-3.5c-4.8-0.8-8.5-1.6-11-2.4c-2.5-0.8-4.2-1.8-5.1-3
			c-0.9-1.2-1.4-2.8-1.4-4.7c0-2.5,0.6-4.5,1.9-5.9c1.2-1.4,2.9-2.4,5.1-3c2.1-0.6,4.5-0.8,7.2-0.8c2.2,0,4.8,0.1,7.8,0.4
			c3,0.2,5.9,0.5,9,0.8c3,0.3,5.6,0.7,7.8,1l0.3-10c-2.1-0.4-4.7-0.8-7.6-1.2c-3-0.4-6-0.8-9.2-1s-6.1-0.4-8.8-0.4
			c-4.3,0-8.3,0.6-12.2,1.9c-3.9,1.2-7,3.4-9.4,6.4c-2.4,3-3.6,7.1-3.6,12.4c0,4.6,0.8,8.2,2.4,10.7c1.6,2.5,4.2,4.4,7.6,5.7
			c3.5,1.3,7.8,2.4,13,3.2c4.9,0.6,8.6,1.4,11.2,2.2c2.6,0.8,4.3,1.9,5.3,3.1c1,1.2,1.5,2.9,1.5,5.1c0,3-0.6,5.2-1.9,6.8
			c-1.2,1.6-3.1,2.7-5.5,3.3c-2.4,0.6-5.4,1-9,1c-1.8,0-4-0.1-6.8-0.4c-2.8-0.2-5.6-0.5-8.5-0.9c-2.9-0.4-5.5-0.7-7.8-1l-0.7,10
			c2.3,0.4,4.9,0.8,7.9,1.2c3,0.4,6,0.8,9.1,1c3.1,0.3,5.8,0.4,8,0.4c5.7,0,10.6-0.7,14.6-2.1c4-1.4,7.2-3.7,9.4-6.9
			s3.3-7.6,3.3-12.9C2276.4,616,2275.6,612.4,2274.1,609.9z"/>
	</g>
</g>
<rect x="2428.2" y="232.5" class="st4" width="10.2" height="439.1"/>
</svg>
