<?xml version="1.0" encoding="utf-8"?>
<!-- Generator: Adobe Illustrator 25.2.0, SVG Export Plug-In . SVG Version: 6.00 Build 0)  -->
<svg version="1.1" id="Layer_1" xmlns="http://www.w3.org/2000/svg" xmlns:xlink="http://www.w3.org/1999/xlink" x="0px" y="0px"
	 width="2334.8px" height="2397.2px" viewBox="0 0 2334.8 2397.2" style="enable-background:new 0 0 2334.8 2397.2;"
	 xml:space="preserve">
<style type="text/css">
	.st0{fill:#009BDF;}
	.st1{fill:url(#SVGID_1_);}
	.st2{fill:url(#SVGID_2_);}
	.st3{fill:url(#SVGID_3_);}
	.st4{fill:#FFFFFF;}
</style>
<g>
	<g>
		<g>
			<polygon class="st0" points="1552.6,607.9 1314.4,488.4 1311.3,761.5 1530.2,862.4 1175.3,1123.8 1175.3,0.4 911.6,445.3 
				911.6,1286.2 1378,1286.2 1784.5,982.1 			"/>
			
				<linearGradient id="SVGID_1_" gradientUnits="userSpaceOnUse" x1="1675.5757" y1="5834.7236" x2="1675.5757" y2="6186.5493" gradientTransform="matrix(1 0 0 1 0 -4852.6401)">
				<stop  offset="0" style="stop-color:#DBD8D6"/>
				<stop  offset="0" style="stop-color:#E5E3E1"/>
				<stop  offset="0" style="stop-color:#FFFFFF"/>
				<stop  offset="5.320000e-02" style="stop-color:#EBEBEB"/>
				<stop  offset="0.1618" style="stop-color:#B6B6B6"/>
				<stop  offset="0.264" style="stop-color:#808080"/>
				<stop  offset="0.3585" style="stop-color:#C1C1C1"/>
				<stop  offset="0.4329" style="stop-color:#EEEEEE"/>
				<stop  offset="0.4703" style="stop-color:#FFFFFF"/>
				<stop  offset="0.5435" style="stop-color:#E9E9E9"/>
				<stop  offset="0.6959" style="stop-color:#B0B0B0"/>
				<stop  offset="0.8764" style="stop-color:#666666"/>
				<stop  offset="0.9064" style="stop-color:#7A7A7A"/>
				<stop  offset="0.9677" style="stop-color:#ACAEAD"/>
				<stop  offset="1" style="stop-color:#C9CCCB"/>
				<stop  offset="1" style="stop-color:#FFFFFF"/>
			</linearGradient>
			<polygon class="st1" points="1973.2,1286.2 1784.5,982.1 1378,1286.2 			"/>
			
				<linearGradient id="SVGID_2_" gradientUnits="userSpaceOnUse" x1="662.2754" y1="5297.9102" x2="662.2754" y2="6272.8511" gradientTransform="matrix(1 0 0 1 0 -4852.6401)">
				<stop  offset="0" style="stop-color:#DBD8D6"/>
				<stop  offset="0" style="stop-color:#E5E3E1"/>
				<stop  offset="0" style="stop-color:#FFFFFF"/>
				<stop  offset="5.320000e-02" style="stop-color:#EBEBEB"/>
				<stop  offset="0.1618" style="stop-color:#B6B6B6"/>
				<stop  offset="0.264" style="stop-color:#808080"/>
				<stop  offset="0.3585" style="stop-color:#C1C1C1"/>
				<stop  offset="0.4329" style="stop-color:#EEEEEE"/>
				<stop  offset="0.4703" style="stop-color:#FFFFFF"/>
				<stop  offset="0.5435" style="stop-color:#E9E9E9"/>
				<stop  offset="0.6959" style="stop-color:#B0B0B0"/>
				<stop  offset="0.8764" style="stop-color:#666666"/>
				<stop  offset="0.9064" style="stop-color:#7A7A7A"/>
				<stop  offset="0.9677" style="stop-color:#ACAEAD"/>
				<stop  offset="1" style="stop-color:#C9CCCB"/>
				<stop  offset="1" style="stop-color:#FFFFFF"/>
			</linearGradient>
			<polygon class="st2" points="412.9,1286.2 911.6,1286.2 911.6,445.3 			"/>
			
				<linearGradient id="SVGID_3_" gradientUnits="userSpaceOnUse" x1="1363.9821" y1="4852.6401" x2="1363.9821" y2="5976.4443" gradientTransform="matrix(1 0 0 1 0 -4852.6401)">
				<stop  offset="0" style="stop-color:#DBD8D6"/>
				<stop  offset="0" style="stop-color:#E5E3E1"/>
				<stop  offset="0" style="stop-color:#FFFFFF"/>
				<stop  offset="5.320000e-02" style="stop-color:#EBEBEB"/>
				<stop  offset="0.1618" style="stop-color:#B6B6B6"/>
				<stop  offset="0.264" style="stop-color:#808080"/>
				<stop  offset="0.3585" style="stop-color:#C1C1C1"/>
				<stop  offset="0.4329" style="stop-color:#EEEEEE"/>
				<stop  offset="0.4703" style="stop-color:#FFFFFF"/>
				<stop  offset="0.5435" style="stop-color:#E9E9E9"/>
				<stop  offset="0.6959" style="stop-color:#B0B0B0"/>
				<stop  offset="0.8764" style="stop-color:#666666"/>
				<stop  offset="0.9064" style="stop-color:#7A7A7A"/>
				<stop  offset="0.9677" style="stop-color:#ACAEAD"/>
				<stop  offset="1" style="stop-color:#C9CCCB"/>
				<stop  offset="1" style="stop-color:#FFFFFF"/>
			</linearGradient>
			<polygon class="st3" points="1530.2,862.4 1311.3,761.5 1314.4,488.4 1552.6,607.9 1175.5,0 1175.3,0.4 1175.3,1123.8 			"/>
		</g>
	</g>
</g>
<g>
	<g>
		<path class="st4" d="M52.5,2139.7c0,9.1-2.1,16.1-6.1,21.3c-4.1,5.1-9.5,7.7-16.2,7.7c-1.3,0-2.9-0.1-4.7-0.3
			c-1.8-0.2-3.8-0.4-5.8-0.6l-1.9,16.8c2.1,0.1,4.1,0.3,6.2,0.6c2.1,0.2,4.1,0.3,6,0.3c8,0,15.2-1.9,21.4-5.7s11.1-9.2,14.6-16.1
			c3.5-6.9,5.3-14.9,5.3-24v-113.2H52.5V2139.7L52.5,2139.7z"/>
		<path class="st4" d="M457,2105.2c-3-6.4-4.5-13.3-4.5-20.6c0-8,1.6-15.2,4.9-21.4s7.9-11.1,13.9-14.6c6-3.5,12.8-5.3,20.4-5.3
			c3.2,0,6.6,0.4,10.3,1.1c3.6,0.7,7.3,1.7,11,2.9l6.1-15.8c-4.5-1.6-9.2-2.9-14-3.7c-4.8-0.9-9.4-1.3-13.8-1.3
			c-8,0-15.6,1.4-22.6,4.3c-7,2.9-13.1,6.9-18.3,12.2s-9.3,11.4-12.3,18.5s-4.5,14.8-4.5,23.1c0,9.6,2.1,18.8,6.1,27.4
			c1.2,2.6,2.9,4.9,4.5,7.2H411l0,0l0,0h-23.7v-36.9c0-13.7-2.1-24.7-6.1-32.9c-4.1-8.2-10.3-14.1-18.6-17.8
			c-8.3-3.7-18.7-5.5-31.1-5.5c-8.5,0-16.3,0.6-23.4,2c-7.1,1.4-12.2,2.6-15.5,3.9c-0.9,3.4-1.8,7.8-2.7,13.4s-1.8,11.7-2.5,18.5
			c-0.7,6.8-1.1,13.8-1.1,20.9c0,7.4,0.3,14.5,1,21.1c0.5,5,1.1,9.3,1.7,13.2h-26.6h-54.8h-54.8h-26.5v-140h-18.8v157h18.6h26.5
			h54.8h54.8h125h23.7l0,0l0,0h110.9v-16.9h-54.6C463,2115,459.4,2110.4,457,2105.2z M307.8,2118.7c-0.7-4.3-1.4-9.5-2-15.5
			s-0.9-12.1-0.9-18.2c0-6,0.3-12,0.9-18.1c0.6-6.1,1.3-11.8,2.2-17.1c0.3-1.6,0.5-3,0.8-4.4c1.5-0.3,2.8-0.6,4.5-0.8
			c6-0.8,12.1-1.2,18.2-1.2c9.4,0,16.8,1.2,22.3,3.5c5.5,2.3,9.4,6.4,11.6,12.1c2.3,5.7,3.4,13.5,3.4,23.5v36.9h-60.9
			C307.8,2119.1,307.8,2118.9,307.8,2118.7z"/>
		<path class="st4" d="M589.7,2183.7c-0.8-1.8-1.2-3.5-1.2-5.3c0-3.1,1-5.6,3-7.5c2-1.9,4.6-2.9,8-2.9c1.2,0,2.3,0.1,3.4,0.3
			c1.1,0.2,2.2,0.7,3.4,1.4l5.9-10.5c-1.8-1.2-3.8-2.1-6.2-2.7c-2.4-0.7-4.8-1-7.1-1c-4.2,0-8.2,1-11.8,3c-3.7,2-6.6,4.7-8.8,8.1
			c-2.2,3.4-3.3,7.4-3.3,11.7c0,1.9,0.7,3.7,1.2,5.5h-5.4v12.3h44.5v-12.3h-25.4C589.8,2183.9,589.7,2183.8,589.7,2183.7z"/>
		<polygon class="st4" points="646.9,2119.3 602.3,2119.3 602.3,2010.2 583.7,2010.2 583.7,2119.3 549.2,2119.3 549.2,2136.2 
			665.7,2136.2 665.7,1979.1 646.9,1979.1 		"/>
		<rect x="703.9" y="1979.1" class="st4" width="18.6" height="157"/>
		<path class="st4" d="M772,2032.3c-7.2,3.9-12.4,9.9-15.4,18.1c-3,8.2-4.5,18.5-4.5,30.9c0,12.6,1.5,22.9,4.5,31
			c3,8.1,8.1,14.1,15.4,18c7.2,3.9,17.1,5.8,29.7,5.8h27.2v5.9c0,8.6-2.7,15.2-8.1,19.7c-5.4,4.5-14,6.8-25.9,6.8
			c-3.7,0-8.1-0.2-13.3-0.6c-5.2-0.4-11.7-1.2-19.4-2.2l-2.9,15.1c6.9,1.5,13.2,2.6,19,3.4s11.3,1.2,16.6,1.2c11,0,20.4-1.7,28.3-5
			c7.9-3.4,13.9-8.3,18.2-14.9c4.2-6.6,6.4-14.5,6.4-23.7v-115.3h-46.1C789.1,2026.5,779.2,2028.4,772,2032.3z M801.7,2119.3
			c-8,0-14.3-1-18.9-3c-4.5-2-7.6-5.7-9.3-11.1c-1.7-5.4-2.5-13.4-2.5-23.9s0.9-18.5,2.6-23.9c1.8-5.4,4.9-9.1,9.3-11.1
			c4.5-2,10.7-3,18.8-3h27.2v75.9L801.7,2119.3L801.7,2119.3z"/>
		<rect x="1074.8" y="2156.3" class="st4" width="18.6" height="20.4"/>
		<rect x="1043.4" y="2156.3" class="st4" width="18.6" height="20.4"/>
		<path class="st4" d="M1078.7,2026.5h-18.9v92.8h-25.2h-54.8h-23.5v-92.8h-18.9v113.2c0,9.1-2.1,16.1-6.1,21.3
			c-4.1,5.1-9.5,7.7-16.2,7.7c-1.3,0-2.9-0.1-4.7-0.3c-1.8-0.2-3.8-0.4-5.8-0.6l-1.8,16.8c2.1,0.1,4.1,0.3,6.2,0.6
			c2.1,0.2,4.1,0.3,6,0.3c8,0,15.2-1.9,21.4-5.7s11.1-9.2,14.6-16.1s5.3-14.9,5.3-24v-3.5h23.5h54.8h44.1V2026.5L1078.7,2026.5z"/>
		<rect x="1431.4" y="1986.4" class="st4" width="18.6" height="20.4"/>
		<rect x="1400" y="1986.4" class="st4" width="18.6" height="20.4"/>
		<path class="st4" d="M1484.7,2119.3h-26.3l0,0l0,0h-24.1v-92.8h-18.9v92.8h-25.2h-17.8v-35.5c0-6.4-0.8-13-2.3-19.6
			c-1.5-6.6-4.2-12.9-8-18.6c-3.8-5.8-9-10.4-15.7-13.8c-6.6-3.4-15.2-5.1-25.6-5.1c-9.1,0-17.1,1.4-24.1,4.2
			c-7,2.8-13.3,6.4-18.9,11s-10.7,9.6-15.5,15.4c-1.6,1.9-3.1,3.9-4.7,5.8v-83.7h-18.8v140.1h-14.5h-23.7v-92.8h-46.1
			c-12.6,0-22.5,1.9-29.7,5.8s-12.4,9.9-15.4,18.1c-3,8.2-4.5,18.5-4.5,30.9c0,12.6,1.5,22.9,4.5,31s8.1,14.1,15.4,18
			c7.2,3.9,17.1,5.8,29.7,5.8h27.2v5.9c0,8.6-2.7,15.2-8.1,19.7s-14,6.8-25.9,6.8c-3.7,0-8.1-0.2-13.3-0.6
			c-5.2-0.4-11.7-1.2-19.4-2.2l-2.9,15.1c6.9,1.5,13.2,2.6,19,3.4c5.8,0.8,11.3,1.2,16.6,1.2c11,0,20.4-1.7,28.3-5
			c7.9-3.4,13.9-8.3,18.2-14.9c4.2-6.6,6.4-14.5,6.4-23.7v-5.7h23.7h142.4h5.7h17.8h44.1h24.1l0,0l0,0h26.3h18.9v-157h-18.9
			L1484.7,2119.3L1484.7,2119.3z M1154.6,2119.3c-8,0-14.3-1-18.9-3c-4.5-2-7.6-5.7-9.3-11.1c-1.7-5.4-2.5-13.4-2.5-23.9
			s0.9-18.5,2.6-23.9c1.8-5.4,4.9-9.1,9.3-11.1c4.5-2,10.7-3,18.8-3h27.2v75.9L1154.6,2119.3L1154.6,2119.3z M1257.7,2086.3
			c1.8-2.3,3.5-4.4,5.5-6.9c3.4-4.2,7.1-8.4,11.1-12.6s8.4-8,13.1-11.5s9.8-6.4,15.2-8.6s11.4-3.3,17.9-3.3c7.5,0,13.6,1.5,18.5,4.5
			c4.9,3,8.6,7.4,11.1,13.4c2.5,5.9,3.7,13.4,3.7,22.5v35.5h-96.1L1257.7,2086.3L1257.7,2086.3z"/>
		<rect x="1540.8" y="1979.1" class="st4" width="18.6" height="157"/>
		<path class="st4" d="M1669.6,2107c-2.1-4.8-3.1-9.9-3.1-15.1c0-6.6,1.5-12.4,4.4-17.4s6.9-9,11.9-11.9c5-2.9,10.9-4.4,17.4-4.4
			c3.8,0,7.2,0.4,10.3,1.3c3.1,0.9,6.1,2.4,9.2,4.4l10.1-14.3c-4.2-2.6-8.9-4.7-14-6.1c-5.1-1.5-10.4-2.2-15.8-2.2
			c-7.3,0-14.1,1.2-20.4,3.7s-11.8,6-16.6,10.5c-4.8,4.5-8.5,9.9-11.2,16.1c-2.7,6.2-4.1,13-4.1,20.3c0,7.6,1.4,14.7,4.3,21.3
			c0.9,2.1,2.2,4.1,3.4,6.1h-18.2v16.9h102.9v-16.9h-62.8C1674,2115.1,1671.3,2111,1669.6,2107z"/>
		<path class="st4" d="M2037.3,2052.9c-3.4-5.2-8.1-9.4-14.1-12.5c-6-3.1-13.6-4.7-22.8-4.7h-42l7.2-13.6c1.6-3.1,3.3-6.1,5-9.1
			c1.8-3,3.9-6.6,6.6-10.7c2.6-4.2,6-9.4,10.1-15.7l-15.6-9.4c-4.2,6.3-7.8,11.6-10.5,16s-5.1,8.2-6.9,11.5
			c-1.8,3.3-3.6,6.5-5.4,9.5l-9.6,18.6l13.4,20h47.8c6.1,0,11.2,1.2,15.2,3.7s7.1,6.2,9.1,11.3c2.1,5.1,3.1,11.5,3.1,19.4v32h-103.1
			h-55H1815h-26.5v-140.1h-18.7v157h18.6h26.5h54.8h54.8h121.9v-48.9c0-5.7-0.7-11.5-2.1-17.5
			C2043.1,2063.7,2040.7,2058.1,2037.3,2052.9z"/>
		<path class="st4" d="M2293.2,2061.6c-0.7-5.7-1.5-11.7-2.5-18s-2.1-12-3.1-17.1l-18.2,3.1c1.3,6.1,2.5,12.2,3.4,18.3
			s1.7,11.5,2.2,16.3s0.8,8.5,0.8,11v44.1h-31.6c-2.8,0-5.5-0.6-8.2-1.9c-1.7-0.8-3.6-2.4-5.4-3.7c2-6.6,3.1-14.6,3.1-24.7v-51.5
			h-18.9v51.5c0,8.5-0.5,14.9-1.5,19.3c-1,4.4-2.9,7.3-5.5,8.8s-6.4,2.2-11.4,2.2h-23.5v-92.8H2154v21.5h-47.2v-21.5h-18.9v113.2
			c0,9.1-2.1,16.1-6.1,21.3c-4.1,5.1-9.5,7.7-16.2,7.7c-1.3,0-2.9-0.1-4.7-0.3s-3.8-0.4-5.8-0.6l-1.8,16.9c2.1,0.1,4.1,0.3,6.2,0.6
			c2.1,0.2,4.1,0.3,6,0.3c8,0,15.2-1.9,21.4-5.7s11.1-9.2,14.6-16.1c3.5-6.9,5.3-14.9,5.3-24v-74.6h47.2v71.1h18.9h23.5
			c8.9,0,16.1-1.5,21.5-4.5c1.3-0.7,2.2-1.9,3.3-2.8c2.6,1.7,5.3,3.2,8,4.3c4.9,2,9.9,3,15,3h50v-61
			C2294.2,2071.8,2293.9,2067.3,2293.2,2061.6z"/>
		<rect x="2230.4" y="1986.4" class="st4" width="18.7" height="20.4"/>
		<rect x="2215.5" y="1958.1" class="st4" width="17.1" height="19.1"/>
		<rect x="2199" y="1986.4" class="st4" width="18.7" height="20.4"/>
	</g>
	<g>
		<path class="st4" d="M81.2,2283.8c-2.7-4.1-6.4-7.2-11.1-9.5s-10.6-3.4-17.7-3.4H17.8v95.8h34.7c7.1,0,13-1.2,17.7-3.8
			c4.7-2.5,8.4-6,11.1-10.5s4.7-9.7,5.8-15.7c1.1-6,1.7-12.4,1.7-19.4s-0.6-13.3-1.7-19C85.9,2292.7,83.9,2287.8,81.2,2283.8z
			 M75.1,2332c-0.7,4.6-1.9,8.7-3.6,12.3c-1.7,3.6-4.1,6.4-7.1,8.5c-3.1,2.1-7,3.1-11.9,3.1H30v-74.4h22.4c4.8,0,8.8,0.9,11.9,2.7
			s5.5,4.3,7.2,7.6c1.7,3.2,2.9,7,3.6,11.4c0.7,4.4,1,9.1,1,14.2C76.1,2322.5,75.8,2327.4,75.1,2332z"/>
		<path class="st4" d="M132.2,2295.8c-6.1,0-11.4,1.2-15.8,3.7c-4.4,2.4-7.8,6.4-10.2,11.7c-2.4,5.4-3.6,12.4-3.6,21.1
			c0,7.9,0.9,14.4,2.7,19.7c1.8,5.3,4.7,9.2,8.8,11.9c4.1,2.7,9.6,4,16.7,4c2.9,0,6-0.1,9.4-0.4c3.4-0.2,6.7-0.5,9.9-0.9
			c3.2-0.4,6-0.7,8.2-1.1l-0.3-9.2c-2.1,0.2-4.8,0.4-7.8,0.6c-3.1,0.2-6.2,0.4-9.4,0.5c-3.1,0.1-6,0.2-8.6,0.2
			c-6.6,0-11.1-1.8-13.6-5.3c-2.5-3.6-3.8-8.8-3.9-15.6h45.4l0.6-8.6c0-11.3-2.4-19.5-7.1-24.6
			C148.8,2298.4,141.7,2295.8,132.2,2295.8z M114.7,2327.5c0-5.3,0.7-9.5,2.1-12.8c1.4-3.2,3.4-5.6,5.9-7.1s5.7-2.2,9.5-2.2
			c5.8,0,10,1.6,12.6,4.9c2.6,3.3,3.9,9,3.9,17.1L114.7,2327.5L114.7,2327.5z"/>
		<polygon class="st4" points="201.9,2356.5 196.9,2356.5 181.7,2297.2 168.9,2297.2 187.9,2366.7 211,2366.7 230,2297.2 
			217.8,2297.2 		"/>
		<path class="st4" d="M268,2295.8c-6.1,0-11.4,1.2-15.8,3.7c-4.4,2.4-7.8,6.4-10.2,11.7c-2.4,5.4-3.6,12.4-3.6,21.1
			c0,7.9,0.9,14.4,2.7,19.7s4.7,9.2,8.8,11.9c4.1,2.7,9.6,4,16.7,4c2.9,0,6-0.1,9.4-0.4c3.4-0.2,6.7-0.5,9.9-0.9
			c3.2-0.4,6-0.7,8.2-1.1l-0.3-9.2c-2.1,0.2-4.8,0.4-7.8,0.6c-3.1,0.2-6.2,0.4-9.4,0.5c-3.1,0.1-6,0.2-8.6,0.2
			c-6.6,0-11.1-1.8-13.6-5.3c-2.5-3.6-3.8-8.8-3.9-15.6h45.4l0.6-8.6c0-11.3-2.4-19.5-7.1-24.6
			C284.6,2298.4,277.5,2295.8,268,2295.8z M250.5,2327.5c0-5.3,0.7-9.5,2.1-12.8c1.4-3.2,3.4-5.6,5.9-7.1s5.7-2.2,9.5-2.2
			c5.8,0,10,1.6,12.6,4.9c2.6,3.3,3.9,9,3.9,17.1L250.5,2327.5L250.5,2327.5z"/>
		<rect x="312.7" y="2267.2" class="st4" width="11.8" height="99.4"/>
		<path class="st4" d="M389.5,2299.7c-4.4-2.5-10.4-3.8-17.8-3.8c-7.3,0-13.2,1.3-17.6,3.8c-4.4,2.6-7.6,6.4-9.6,11.7
			c-1.9,5.2-2.9,11.8-2.9,19.8c0,8.4,0.9,15.3,2.6,20.8s4.8,9.5,9.2,12.1c4.4,2.7,10.5,4,18.3,4c7.9,0,14-1.3,18.3-4
			c4.4-2.7,7.4-6.7,9.2-12.1s2.7-12.3,2.7-20.8c0-8-1-14.6-2.9-19.8C397.2,2306.1,394,2302.2,389.5,2299.7z M388.6,2346.5
			c-0.8,4-2.5,6.9-5.1,8.7c-2.6,1.8-6.5,2.7-11.7,2.7s-9.1-0.9-11.7-2.7c-2.6-1.8-4.3-4.7-5.1-8.7c-0.8-4-1.2-9.1-1.2-15.4
			c0-6.2,0.5-11.1,1.6-14.9s2.9-6.3,5.6-7.9c2.6-1.6,6.3-2.4,10.9-2.4c4.7,0,8.4,0.8,11,2.4c2.6,1.6,4.4,4.2,5.5,7.9
			s1.6,8.7,1.6,14.9C389.8,2337.4,389.4,2342.5,388.6,2346.5z"/>
		<path class="st4" d="M464.8,2299.5c-3.7-2.4-8.6-3.7-14.6-3.7c-2.4,0-4.9,0.3-7.4,1c-2.6,0.6-4.9,1.5-7.1,2.4
			c-2.2,0.9-4.1,1.9-5.6,2.9v-4.9h-11.7v100h11.7v-30.7c1.6,0.3,3.8,0.6,6.7,1c2.9,0.4,5.8,0.6,8.5,0.6c7.1,0,12.9-1.2,17.4-3.5
			c4.5-2.4,7.8-6.2,9.9-11.7c2.1-5.4,3.1-12.7,3.1-21.7c0-8.1-0.9-14.8-2.7-20.1C471.2,2305.8,468.5,2302,464.8,2299.5z
			 M461.8,2346.4c-1.2,3.9-3.1,6.8-5.9,8.6s-6.6,2.7-11.5,2.7c-2.6,0-5.2-0.2-8-0.5c-2.7-0.3-4.8-0.6-6.3-0.8v-45.1
			c1.4-0.8,3.1-1.6,5.1-2.4c2-0.7,4.2-1.4,6.4-1.9c2.3-0.6,4.5-0.8,6.6-0.8c4.8,0,8.6,1.9,11.2,5.6c2.7,3.8,4,10.2,4,19.2
			C463.6,2337.4,463,2342.5,461.8,2346.4z"/>
		<path class="st4" d="M584.8,2303.5c-1.7-2.7-4.1-4.6-7.2-5.8c-3.1-1.2-7-1.8-11.7-1.8c-3,0-6,0.4-9,1.1c-3.1,0.7-5.9,1.6-8.6,2.7
			c-2.7,1.1-5,2.1-6.8,3.1c-1.8-2.4-4-4.2-6.8-5.3c-2.8-1.1-6.5-1.7-11.1-1.7c-2.3,0-4.7,0.3-7.2,1c-2.5,0.6-4.9,1.4-7.1,2.4
			c-2.2,0.9-4.1,1.9-5.6,2.8v-4.7H492v69.4h11.7v-55.5c1.3-0.6,2.9-1.3,4.7-2.1c1.9-0.7,3.9-1.4,6.2-1.9s4.5-0.8,6.7-0.8
			c4.1,0,7.1,0.8,9.1,2.4s3.3,4.2,4,7.8c0.6,3.6,1,8.5,1,14.6v35.6h11.7v-36c0-3.7-0.1-7.3-0.4-10.8s-0.6-6.4-1.2-8.8
			c1.2-0.6,2.8-1.3,4.9-2.1s4.2-1.4,6.6-1.9c2.4-0.5,4.7-0.8,7-0.8c4,0,6.9,0.8,8.9,2.4s3.3,4.1,4,7.7c0.7,3.6,1,8.3,1,14.1v36.1
			h11.8V2330c0-6.3-0.4-11.6-1.1-16C587.8,2309.7,586.6,2306.2,584.8,2303.5z"/>
		<path class="st4" d="M634.6,2295.8c-6.1,0-11.4,1.2-15.8,3.7c-4.4,2.4-7.8,6.4-10.2,11.7c-2.4,5.4-3.6,12.4-3.6,21.1
			c0,7.9,0.9,14.4,2.7,19.7s4.7,9.2,8.8,11.9c4.1,2.7,9.6,4,16.7,4c2.9,0,6-0.1,9.4-0.4c3.4-0.2,6.7-0.5,9.9-0.9
			c3.2-0.4,6-0.7,8.2-1.1l-0.3-9.2c-2.1,0.2-4.8,0.4-7.8,0.6c-3.1,0.2-6.2,0.4-9.4,0.5c-3.1,0.1-6,0.2-8.6,0.2
			c-6.6,0-11.1-1.8-13.6-5.3c-2.5-3.6-3.8-8.8-3.9-15.6h45.4l0.6-8.6c0-11.3-2.4-19.5-7.1-24.6
			C651.2,2298.4,644,2295.8,634.6,2295.8z M617.1,2327.5c0-5.3,0.7-9.5,2.1-12.8c1.4-3.2,3.4-5.6,5.9-7.1s5.7-2.2,9.5-2.2
			c5.8,0,10,1.6,12.6,4.9s3.9,9,3.9,17.1L617.1,2327.5L617.1,2327.5z"/>
		<path class="st4" d="M730.4,2303.7c-1.7-2.7-4.1-4.7-7.2-6c-3.1-1.2-7.1-1.9-11.9-1.9c-2.4,0-4.9,0.3-7.6,1
			c-2.6,0.6-5.1,1.4-7.5,2.4c-2.4,0.9-4.3,1.9-5.9,2.8v-4.7h-11.7v69.4h11.7v-55.4c1.4-0.7,3.1-1.5,5.1-2.2c2-0.7,4.2-1.4,6.6-1.9
			c2.4-0.5,4.7-0.8,6.9-0.8c4.2,0,7.2,0.8,9.2,2.4c2,1.6,3.3,4.1,4,7.6s1,8.2,1,14v36.2h11.8v-36.7c0-6.2-0.4-11.4-1-15.8
			C733.3,2309.9,732.1,2306.4,730.4,2303.7z"/>
		<path class="st4" d="M785.9,2357.2c-1.5,0.1-3,0.3-4.4,0.4c-1.4,0.1-2.6,0.1-3.5,0.1c-2.9,0-5-0.5-6.3-1.6
			c-1.3-1.1-2.2-2.9-2.6-5.6c-0.4-2.6-0.6-6.3-0.6-11v-32.1h21.2v-10.1h-21.2v-20.8h-11.8v20.8h-9.6v10.1h9.6v35.4
			c0,6.7,0.6,11.8,1.9,15.5c1.2,3.6,3.3,6.2,6.2,7.7s6.7,2.2,11.5,2.2c1.2,0,2.7-0.1,4.4-0.3c1.8-0.2,3.5-0.4,5.4-0.6
			c1.8-0.2,3.4-0.4,4.6-0.6l-0.7-9.9C788.7,2356.9,787.4,2357,785.9,2357.2z"/>
		<path class="st4" d="M901.5,2335.9c0.8-3.2,1.6-6.6,2.4-10.2c0.7-3.6,1.2-7,1.5-10.3l-11.2-0.1c-0.1,2-0.4,4.5-0.8,7.3
			c-0.5,2.8-0.9,5.5-1.5,8.1c-0.5,2.6-1,4.6-1.6,6l-19.9-19.7c3.7-1.8,6.9-3.5,9.6-5.2c2.7-1.7,4.9-3.6,6.6-5.6c1.7-2,3-4.2,3.8-6.7
			s1.2-5.4,1.2-8.8c0-4.4-0.9-8.3-2.7-11.4c-1.8-3.2-4.6-5.6-8.3-7.4c-3.7-1.7-8.3-2.6-13.9-2.6c-5.4,0-9.9,0.9-13.6,2.6
			c-3.7,1.7-6.5,4.1-8.5,7.2c-1.9,3.1-2.9,6.7-2.9,10.9c0,2.7,0.2,5.1,0.6,7.2c0.4,2.1,1.1,4.2,2.2,6.3c1.1,2.1,2.8,4.4,5.1,7
			c-4.7,1.6-8.7,3.5-11.8,5.8c-3.1,2.3-5.5,5.2-7,8.8c-1.5,3.6-2.3,8.1-2.3,13.5c0,6.1,1.1,11.4,3.2,15.8c2.1,4.4,5.7,7.8,10.8,10.1
			c5,2.4,11.9,3.5,20.6,3.5c6.6,0,12.4-1.3,17.5-3.8s9.2-6.3,12.4-11.3l16.9,15l6.4-7.8l-17.4-16.1
			C899.8,2341.8,900.7,2339.1,901.5,2335.9z M857.1,2282.4c2.3-2,5.4-3.1,9.5-3.1c4.5,0,7.8,1,9.9,3.1c2,2,3.1,5,3.1,9
			c0,3.1-0.6,5.8-1.7,7.9c-1.1,2.1-2.9,4-5.2,5.7c-2.4,1.7-5.4,3.3-9.2,5c-2.1-2.2-3.9-4.1-5.2-5.7s-2.3-3-3-4.3
			c-0.6-1.3-1.1-2.6-1.2-3.9c-0.2-1.3-0.3-2.8-0.3-4.4C853.7,2287.5,854.9,2284.4,857.1,2282.4z M875.5,2354.6
			c-3.8,1.9-8.3,2.9-13.3,2.9c-7.8,0-13.4-1.7-16.7-5.1c-3.4-3.4-5.1-8.3-5.1-14.8c0-3.7,0.6-6.8,1.7-9.3c1.1-2.5,2.8-4.6,5.1-6.2
			c2.3-1.7,5.3-3.1,9-4.2l28.2,28C882.3,2349.9,879.3,2352.7,875.5,2354.6z"/>
		<path class="st4" d="M974.2,2289.5c1.7-3.2,4.2-5.5,7.4-7s7.4-2.2,12.6-2.2c2.5,0,5.3,0.1,8.3,0.4c3.1,0.2,6,0.5,9,0.9
			c2.9,0.4,5.4,0.7,7.4,1.1l0.4-10.1c-2-0.5-4.5-0.9-7.4-1.5c-2.9-0.5-6-0.9-9.3-1.2c-3.3-0.3-6.6-0.5-9.9-0.5
			c-7.2,0-13.1,1-17.8,3.1c-4.6,2.1-8.3,5.2-10.9,9.4c-2.6,4.2-4.4,9.4-5.4,15.6s-1.5,13.4-1.5,21.5c0,8.1,0.5,15.1,1.5,21.2
			c1,6.1,2.8,11.2,5.4,15.4c2.6,4.2,6.2,7.3,10.8,9.4c4.6,2.1,10.5,3.1,17.8,3.1c3.1,0,6.2-0.1,9.5-0.4c3.3-0.3,6.4-0.6,9.4-1.1
			s5.6-0.9,7.8-1.4l-0.4-10.3c-3.2,0.6-7.2,1.1-11.8,1.6s-8.9,0.8-12.8,0.8c-5.3,0-9.5-0.8-12.8-2.3s-5.7-3.8-7.4-6.9
			c-1.7-3.1-2.8-7.1-3.5-11.9c-0.6-4.9-1-10.6-1-17.1c0-6.7,0.3-12.4,1-17.3C971.3,2296.7,972.5,2292.7,974.2,2289.5z"/>
		<path class="st4" d="M1077.9,2299.7c-4.4-2.5-10.4-3.8-17.8-3.8c-7.3,0-13.2,1.3-17.6,3.8c-4.4,2.6-7.6,6.4-9.6,11.7
			c-1.9,5.2-2.9,11.8-2.9,19.8c0,8.4,0.9,15.3,2.6,20.8s4.8,9.5,9.2,12.1c4.4,2.7,10.5,4,18.3,4c7.9,0,14-1.3,18.3-4
			c4.4-2.7,7.4-6.7,9.2-12.1s2.7-12.3,2.7-20.8c0-8-1-14.6-2.9-19.8C1085.5,2306.1,1082.3,2302.2,1077.9,2299.7z M1076.9,2346.5
			c-0.8,4-2.5,6.9-5.1,8.7c-2.6,1.8-6.5,2.7-11.7,2.7s-9.1-0.9-11.7-2.7c-2.6-1.8-4.3-4.7-5.1-8.7c-0.8-4-1.2-9.1-1.2-15.4
			c0-6.2,0.5-11.1,1.6-14.9s2.9-6.3,5.6-7.9c2.6-1.6,6.3-2.4,10.9-2.4c4.7,0,8.4,0.8,11,2.4c2.6,1.6,4.4,4.2,5.5,7.9
			s1.6,8.7,1.6,14.9C1078.1,2337.4,1077.7,2342.5,1076.9,2346.5z"/>
		<path class="st4" d="M1158.4,2303.7c-1.7-2.7-4.1-4.7-7.2-6c-3.1-1.2-7.1-1.9-11.9-1.9c-2.4,0-4.9,0.3-7.6,1
			c-2.6,0.6-5.1,1.4-7.5,2.4c-2.4,0.9-4.3,1.9-5.9,2.8v-4.7h-11.7v69.4h11.7v-55.4c1.4-0.7,3.1-1.5,5.1-2.2c2-0.7,4.2-1.4,6.6-1.9
			s4.7-0.8,6.9-0.8c4.2,0,7.2,0.8,9.2,2.4c2,1.6,3.3,4.1,4,7.6s1,8.2,1,14v36.2h11.8v-36.7c0-6.2-0.4-11.4-1-15.8
			C1161.4,2309.9,1160.2,2306.4,1158.4,2303.7z"/>
		<path class="st4" d="M1221.2,2329.6c-3.5-1.4-8.1-2.6-13.8-3.5c-4.8-0.8-8.5-1.6-11-2.4s-4.2-1.8-5.1-3s-1.4-2.8-1.4-4.7
			c0-2.5,0.6-4.5,1.9-5.9c1.2-1.4,2.9-2.4,5.1-3c2.2-0.6,4.5-0.8,7.2-0.8c2.2,0,4.8,0.1,7.8,0.4c3,0.2,5.9,0.5,9,0.8
			c3,0.3,5.6,0.7,7.8,1l0.3-10c-2.1-0.4-4.7-0.8-7.6-1.2c-3-0.4-6-0.8-9.2-1c-3.2-0.2-6.1-0.4-8.8-0.4c-4.3,0-8.3,0.6-12.2,1.9
			c-3.9,1.2-7,3.4-9.4,6.4s-3.6,7.1-3.6,12.4c0,4.6,0.8,8.2,2.4,10.7s4.2,4.4,7.6,5.7s7.8,2.4,13,3.2c4.9,0.6,8.6,1.4,11.2,2.2
			c2.6,0.8,4.3,1.9,5.3,3.1s1.5,2.9,1.5,5.1c0,3-0.6,5.2-1.9,6.8c-1.2,1.6-3.1,2.7-5.5,3.3c-2.4,0.6-5.4,1-9,1c-1.8,0-4-0.1-6.8-0.4
			c-2.8-0.2-5.6-0.5-8.5-0.9c-2.9-0.4-5.5-0.7-7.8-1l-0.7,10c2.3,0.4,4.9,0.8,7.9,1.2c3,0.4,6,0.8,9.1,1c3.1,0.3,5.8,0.4,8,0.4
			c5.7,0,10.6-0.7,14.6-2.1c4-1.4,7.1-3.7,9.4-6.9c2.2-3.2,3.3-7.6,3.3-12.9c0-4.5-0.8-8.1-2.4-10.6
			C1227.2,2332.9,1224.7,2331,1221.2,2329.6z"/>
		<path class="st4" d="M1279.3,2357.2c-1.5,0.1-3,0.3-4.4,0.4c-1.4,0.1-2.6,0.1-3.5,0.1c-2.9,0-5-0.5-6.3-1.6
			c-1.3-1.1-2.2-2.9-2.6-5.6c-0.4-2.6-0.6-6.3-0.6-11v-32.1h21.2v-10.1h-21.2v-20.8h-11.8v20.8h-9.6v10.1h9.6v35.4
			c0,6.7,0.6,11.8,1.9,15.5c1.2,3.6,3.3,6.2,6.2,7.7c2.9,1.5,6.7,2.2,11.5,2.2c1.2,0,2.7-0.1,4.4-0.3c1.8-0.2,3.5-0.4,5.4-0.6
			c1.8-0.2,3.4-0.4,4.6-0.6l-0.7-9.9C1282.1,2356.9,1280.8,2357,1279.3,2357.2z"/>
		<path class="st4" d="M1313.7,2302.4c-2.6,1.4-4.8,2.8-6.6,4v-9.2h-11.7v69.4h11.7v-50.1c1.8-0.9,4-2,6.7-3.2s5.6-2.3,8.8-3.3
			c3.1-1,6.2-1.9,9.3-2.5v-11.8c-3.1,0.5-6.3,1.3-9.4,2.6C1319.2,2299.6,1316.3,2301,1313.7,2302.4z"/>
		<path class="st4" d="M1386.8,2352.6c-1.9,1.1-4.5,2.2-7.8,3.3c-3.2,1.1-6.8,1.6-10.7,1.6c-3.9,0-6.8-0.8-8.8-2.4
			c-2-1.6-3.3-4.1-3.9-7.6s-0.9-8.2-0.9-14.2v-36.1H1343v36.2c0,8,0.6,14.5,1.7,19.6c1.1,5.1,3.3,8.9,6.5,11.3
			c3.2,2.4,7.8,3.6,13.7,3.6c4.7,0,8.8-0.6,12.2-1.8c3.4-1.2,6.6-2.6,9.6-4.3v4.7h11.8v-69.4h-11.7V2352.6L1386.8,2352.6z"/>
		<path class="st4" d="M1457.7,2356.8c-2.1,0.2-4.1,0.4-6.2,0.5c-2.1,0.1-3.7,0.2-5,0.2c-5.5,0-9.6-0.9-12.4-2.6
			c-2.8-1.7-4.6-4.5-5.6-8.4c-1-3.9-1.5-9.1-1.5-15.7c0-6,0.6-10.8,1.7-14.3s3.1-6.1,5.9-7.7s6.8-2.4,11.9-2.4
			c1.3,0,2.9,0.1,4.9,0.2c2,0.1,4,0.3,6,0.5c2,0.2,3.9,0.4,5.6,0.6l0.4-9.7c-1.8-0.3-3.9-0.6-6.3-0.9c-2.4-0.3-4.8-0.6-7.1-0.8
			c-2.3-0.2-4.3-0.4-6-0.4c-6.9,0-12.4,1.1-16.7,3.4c-4.3,2.3-7.4,6-9.4,11.2c-1.9,5.2-2.9,12-2.9,20.4c0,9,0.9,16.2,2.6,21.7
			s4.7,9.4,8.9,11.9c4.2,2.4,10,3.7,17.4,3.7c1.7,0,3.7-0.1,6-0.4c2.4-0.2,4.8-0.5,7.2-0.8s4.6-0.6,6.5-1l-0.3-9.6
			C1461.6,2356.5,1459.8,2356.6,1457.7,2356.8z"/>
		<path class="st4" d="M1511.4,2357.2c-1.5,0.1-3,0.3-4.4,0.4c-1.4,0.1-2.6,0.1-3.5,0.1c-2.9,0-5-0.5-6.3-1.6
			c-1.3-1.1-2.2-2.9-2.6-5.6c-0.4-2.6-0.6-6.3-0.6-11v-32.1h21.2v-10.1h-21.4v-20.8H1482v20.8h-9.6v10.1h9.6v35.4
			c0,6.7,0.6,11.8,1.9,15.5c1.2,3.6,3.3,6.2,6.2,7.7c2.9,1.5,6.7,2.2,11.5,2.2c1.2,0,2.7-0.1,4.4-0.3c1.8-0.2,3.5-0.4,5.4-0.6
			c1.8-0.2,3.4-0.4,4.6-0.6l-0.7-9.9C1514.3,2356.9,1512.9,2357,1511.4,2357.2z"/>
		<rect x="1527.6" y="2269.6" class="st4" width="11.7" height="12.9"/>
		<rect x="1527.6" y="2297.2" class="st4" width="11.7" height="69.4"/>
		<path class="st4" d="M1603.6,2299.7c-4.4-2.5-10.4-3.8-17.8-3.8c-7.3,0-13.2,1.3-17.6,3.8c-4.4,2.6-7.6,6.4-9.6,11.7
			c-1.9,5.2-2.9,11.8-2.9,19.8c0,8.4,0.9,15.3,2.6,20.8s4.8,9.5,9.2,12.1c4.4,2.7,10.5,4,18.3,4c7.9,0,14-1.3,18.3-4
			c4.4-2.7,7.4-6.7,9.2-12.1s2.7-12.3,2.7-20.8c0-8-1-14.6-2.9-19.8C1611.2,2306.1,1608,2302.2,1603.6,2299.7z M1602.6,2346.5
			c-0.8,4-2.5,6.9-5.1,8.7c-2.6,1.8-6.5,2.7-11.7,2.7s-9.1-0.9-11.7-2.7c-2.6-1.8-4.3-4.7-5.1-8.7c-0.8-4-1.2-9.1-1.2-15.4
			c0-6.2,0.5-11.1,1.6-14.9s2.9-6.3,5.6-7.9c2.6-1.6,6.3-2.4,10.9-2.4c4.7,0,8.4,0.8,11,2.4c2.6,1.6,4.4,4.2,5.5,7.9
			s1.6,8.7,1.6,14.9C1603.8,2337.4,1603.4,2342.5,1602.6,2346.5z"/>
		<path class="st4" d="M1684.2,2303.7c-1.7-2.7-4.1-4.7-7.2-6c-3.1-1.2-7.1-1.9-11.9-1.9c-2.4,0-4.9,0.3-7.6,1
			c-2.6,0.6-5.1,1.4-7.5,2.4c-2.4,0.9-4.3,1.9-5.9,2.8v-4.7h-11.7v69.4h11.7v-55.4c1.4-0.7,3.1-1.5,5.1-2.2c2-0.7,4.2-1.4,6.6-1.9
			s4.7-0.8,6.9-0.8c4.2,0,7.2,0.8,9.2,2.4c2,1.6,3.3,4.1,4,7.6s1,8.2,1,14v36.2h11.8v-36.7c0-6.2-0.4-11.4-1-15.8
			C1687.1,2309.9,1685.9,2306.4,1684.2,2303.7z"/>
		<path class="st4" d="M1746.9,2329.6c-3.5-1.4-8.1-2.6-13.8-3.5c-4.8-0.8-8.5-1.6-11-2.4s-4.2-1.8-5.1-3s-1.4-2.8-1.4-4.7
			c0-2.5,0.6-4.5,1.9-5.9c1.2-1.4,2.9-2.4,5.1-3c2.1-0.6,4.5-0.8,7.2-0.8c2.2,0,4.8,0.1,7.8,0.4c3,0.2,5.9,0.5,9,0.8
			c3,0.3,5.6,0.7,7.8,1l0.3-10c-2.1-0.4-4.7-0.8-7.6-1.2c-3-0.4-6-0.8-9.2-1c-3.2-0.2-6.1-0.4-8.8-0.4c-4.3,0-8.3,0.6-12.2,1.9
			c-3.9,1.2-7,3.4-9.4,6.4s-3.6,7.1-3.6,12.4c0,4.6,0.8,8.2,2.4,10.7s4.2,4.4,7.6,5.7s7.8,2.4,13,3.2c4.9,0.6,8.6,1.4,11.2,2.2
			c2.6,0.8,4.3,1.9,5.3,3.1s1.5,2.9,1.5,5.1c0,3-0.6,5.2-1.9,6.8c-1.2,1.6-3.1,2.7-5.5,3.3c-2.4,0.6-5.4,1-9,1c-1.8,0-4-0.1-6.8-0.4
			c-2.8-0.2-5.6-0.5-8.5-0.9c-2.9-0.4-5.5-0.7-7.8-1l-0.7,10c2.3,0.4,4.9,0.8,7.9,1.2c3,0.4,6,0.8,9.1,1c3.1,0.3,5.8,0.4,8,0.4
			c5.7,0,10.6-0.7,14.6-2.1c4-1.4,7.1-3.7,9.4-6.9c2.2-3.2,3.3-7.6,3.3-12.9c0-4.5-0.8-8.1-2.4-10.6
			C1752.9,2332.9,1750.4,2331,1746.9,2329.6z"/>
		<path class="st4" d="M1857.2,2274.2c-4.6-2.3-10.5-3.4-17.6-3.4h-35.3v95.8h12.2v-31.5h23.1c7.1,0,13-1.3,17.6-3.8
			c4.6-2.6,8.1-6.2,10.4-11.1s3.4-10.9,3.4-18c0-7.2-1.1-13.1-3.4-17.7C1865.3,2279.9,1861.9,2276.5,1857.2,2274.2z M1854,2318.7
			c-3,3.9-7.8,5.8-14.6,5.8h-22.9v-43.2h22.9c6.8,0,11.6,1.7,14.6,5c3,3.3,4.4,8.6,4.4,15.8C1858.5,2309.4,1857,2314.9,1854,2318.7z
			"/>
		<path class="st4" d="M1933.9,2352.9v-34.7c0-5.2-0.8-9.4-2.4-12.7s-4.1-5.7-7.6-7.3c-3.4-1.6-7.8-2.4-13.2-2.4
			c-2.9,0-6,0.2-9.5,0.5c-3.5,0.3-6.8,0.7-10,1.2s-5.9,0.9-8.1,1.4l0.6,8.9c2.4-0.3,5.2-0.6,8.4-0.8s6.4-0.5,9.6-0.7s6-0.3,8.4-0.3
			c3.9,0,6.9,0.9,8.9,2.8s3.1,5,3.1,9.6v5.7l-20.8,2.1c-4.7,0.4-8.7,1.3-12,2.8s-5.7,3.7-7.4,6.5s-2.4,6.6-2.4,11.2
			c0,7,1.7,12.4,5.1,16c3.4,3.6,8.4,5.4,14.9,5.4c3.1,0,6.1-0.3,9.2-0.9c3.1-0.6,5.9-1.3,8.6-2.2c2.7-0.8,4.9-1.6,6.7-2.4
			c1,0.9,2.1,1.7,3.2,2.4s2.4,1.3,3.8,1.7c0.9,0.3,1.9,0.5,3.1,0.7c1.1,0.2,2.3,0.3,3.6,0.4c1.2,0.1,2.5,0.1,3.8,0.1l0.4-9.2
			c-2.1-0.3-3.9-0.9-5.3-1.7C1934.9,2356.3,1934.1,2354.8,1933.9,2352.9z M1921.9,2354.3c-1.5,0.6-3.4,1.2-5.7,1.8
			c-2.3,0.6-4.8,1.2-7.4,1.6c-2.6,0.4-5.1,0.6-7.5,0.6c-3.2,0-5.7-1.1-7.4-3.2c-1.7-2.1-2.6-5-2.6-8.8c0-3.6,0.9-6.4,2.6-8.4
			s4.6-3.2,8.6-3.5l19.3-1.8L1921.9,2354.3L1921.9,2354.3z"/>
		<path class="st4" d="M1972.1,2302.4c-2.6,1.4-4.8,2.8-6.6,4v-9.2h-11.7v69.4h11.7v-50.1c1.8-0.9,4-2,6.7-3.2s5.6-2.3,8.8-3.3
			c3.1-1,6.2-1.9,9.3-2.5v-11.8c-3.1,0.5-6.3,1.3-9.4,2.6C1977.7,2299.6,1974.8,2301,1972.1,2302.4z"/>
		<path class="st4" d="M2034.9,2357.2c-1.5,0.1-3,0.3-4.4,0.4c-1.4,0.1-2.6,0.1-3.5,0.1c-2.9,0-5-0.5-6.3-1.6
			c-1.3-1.1-2.2-2.9-2.6-5.6c-0.4-2.6-0.6-6.3-0.6-11v-32.1h21.2v-10.1h-21.2v-20.8h-11.8v20.8h-9.6v10.1h9.6v35.4
			c0,6.7,0.6,11.8,1.9,15.5c1.2,3.6,3.3,6.2,6.2,7.7c2.9,1.5,6.7,2.2,11.5,2.2c1.2,0,2.7-0.1,4.4-0.3c1.8-0.2,3.5-0.4,5.4-0.6
			c1.8-0.2,3.4-0.4,4.6-0.6l-0.7-9.9C2037.7,2356.9,2036.4,2357,2034.9,2357.2z"/>
		<path class="st4" d="M2102.8,2303.7c-1.7-2.7-4.1-4.7-7.2-6c-3.1-1.2-7.1-1.9-11.9-1.9c-2.4,0-4.9,0.3-7.6,1
			c-2.6,0.6-5.1,1.4-7.5,2.4c-2.4,0.9-4.3,1.9-5.9,2.8v-4.7H2051v69.4h11.7v-55.4c1.4-0.7,3.1-1.5,5.1-2.2c2-0.7,4.2-1.4,6.6-1.9
			c2.4-0.5,4.7-0.8,6.9-0.8c4.2,0,7.2,0.8,9.2,2.4c2,1.6,3.3,4.1,4,7.6s1,8.2,1,14v36.2h11.8v-36.7c0-6.2-0.3-11.4-1-15.8
			C2105.7,2309.9,2104.5,2306.4,2102.8,2303.7z"/>
		<path class="st4" d="M2152.4,2295.8c-6.1,0-11.4,1.2-15.8,3.7c-4.4,2.4-7.8,6.4-10.2,11.7c-2.4,5.4-3.6,12.4-3.6,21.1
			c0,7.9,0.9,14.4,2.7,19.7s4.7,9.2,8.8,11.9c4.1,2.7,9.6,4,16.7,4c2.9,0,6-0.1,9.4-0.4c3.4-0.2,6.7-0.5,9.9-0.9
			c3.2-0.4,6-0.7,8.2-1.1l-0.3-9.2c-2.1,0.2-4.8,0.4-7.8,0.6c-3.1,0.2-6.2,0.4-9.4,0.5c-3.2,0.1-6,0.2-8.6,0.2
			c-6.6,0-11.1-1.8-13.6-5.3c-2.5-3.6-3.8-8.8-3.9-15.6h45.4l0.6-8.6c0-11.3-2.4-19.5-7.2-24.6
			C2169,2298.4,2161.9,2295.8,2152.4,2295.8z M2134.9,2327.5c0-5.3,0.7-9.5,2.1-12.8c1.4-3.2,3.4-5.6,5.9-7.1s5.7-2.2,9.5-2.2
			c5.8,0,10,1.6,12.6,4.9s3.9,9,3.9,17.1L2134.9,2327.5L2134.9,2327.5z"/>
		<path class="st4" d="M2214.7,2302.4c-2.6,1.4-4.8,2.8-6.6,4v-9.2h-11.7v69.4h11.7v-50.1c1.8-0.9,4-2,6.7-3.2s5.6-2.3,8.8-3.3
			s6.2-1.9,9.3-2.5v-11.8c-3.1,0.5-6.3,1.3-9.4,2.6C2220.3,2299.6,2217.4,2301,2214.7,2302.4z"/>
		<path class="st4" d="M2291.9,2335.5c-1.6-2.5-4.1-4.5-7.6-5.9c-3.5-1.4-8.1-2.6-13.8-3.5c-4.8-0.8-8.5-1.6-11-2.4s-4.2-1.8-5.1-3
			c-0.9-1.2-1.4-2.8-1.4-4.7c0-2.5,0.6-4.5,1.9-5.9c1.2-1.4,2.9-2.4,5.1-3c2.1-0.6,4.5-0.8,7.2-0.8c2.2,0,4.8,0.1,7.8,0.4
			c3,0.2,5.9,0.5,9,0.8c3,0.3,5.6,0.7,7.8,1l0.3-10c-2.1-0.4-4.7-0.8-7.6-1.2c-3-0.4-6-0.8-9.2-1c-3.2-0.2-6.1-0.4-8.8-0.4
			c-4.3,0-8.3,0.6-12.2,1.9c-3.9,1.2-7,3.4-9.4,6.4s-3.6,7.1-3.6,12.4c0,4.6,0.8,8.2,2.4,10.7c1.6,2.5,4.2,4.4,7.6,5.7
			c3.5,1.3,7.8,2.4,13,3.2c4.9,0.6,8.6,1.4,11.2,2.2c2.6,0.8,4.3,1.9,5.3,3.1s1.5,2.9,1.5,5.1c0,3-0.6,5.2-1.9,6.8
			c-1.2,1.6-3.1,2.7-5.5,3.3c-2.4,0.6-5.4,1-9,1c-1.8,0-4-0.1-6.8-0.4c-2.8-0.2-5.6-0.5-8.5-0.9c-2.9-0.4-5.5-0.7-7.8-1l-0.7,10
			c2.3,0.4,4.9,0.8,7.9,1.2c3,0.4,6,0.8,9.1,1c3.1,0.3,5.8,0.4,8,0.4c5.7,0,10.6-0.7,14.6-2.1c4-1.4,7.2-3.7,9.4-6.9
			s3.3-7.6,3.3-12.9C2294.2,2341.6,2293.4,2338,2291.9,2335.5z"/>
	</g>
</g>
<g>
	<g>
		<g>
			<g>
				<g>
					<path class="st4" d="M43.9,1408.9c-5.2,1.8-10.3,4.2-14.9,7.4c-4.9,3.3-8.9,7.8-11.9,13.3c-3.1,5.6-4.7,11.9-4.7,18.6
						c0,9.3,2.9,17.1,8.6,23.3c5.8,6.2,13.8,9.3,23.9,9.3c10,0,17.8-2.9,23.2-8.5c5.4-5.6,8.2-12.4,8.2-20.2v-43.5l-2.3-0.7
						C65.8,1405.7,54.6,1405.3,43.9,1408.9 M57.2,1457.6c0,3.2-0.9,5.6-2.7,7.4c-1.8,1.8-4.5,2.7-8.2,2.7c-4.5,0-7.9-1.8-10.7-5.5
						c-2.9-3.9-4.4-9.6-4.4-16.9c0-4.3,0.7-8.2,2-11.6c1.3-3.4,2.9-6.1,4.8-8c2-2,4.2-3.7,6.7-5.1c2.5-1.4,4.8-2.4,6.8-2.9
						s3.9-0.8,5.6-0.8h0.2L57.2,1457.6z"/>
					<path class="st4" d="M61,1396.3c2.9,0,5.5-1.1,7.5-3.1l0,0c2.1-2.1,3.1-4.6,3.1-7.5c0-2.9-1.1-5.5-3.1-7.5
						c-4.1-4.1-11-4.1-15.1,0c-2.1,2.1-3.2,4.6-3.2,7.5c0,2.9,1.1,5.5,3.1,7.5C55.5,1395.2,58.1,1396.3,61,1396.3"/>
					<path class="st4" d="M38,1396.3c2.9,0,5.4-1.1,7.5-3.1c2.1-2.1,3.1-4.6,3.1-7.5c0-2.9-1.1-5.5-3.1-7.5
						c-4.2-4.2-10.9-4.2-15.1,0c-2,2.1-3.1,4.7-3.1,7.5c0,2.9,1.1,5.4,3.1,7.5C32.5,1395.2,35,1396.3,38,1396.3"/>
					<path class="st4" d="M114.7,1407.8c-6.2,0-11.6,1.2-16.1,3.5c-5.1,2.6-7.8,5.2-8.5,8.2l-0.2,1l0.3,0.9c0.7,1.9,2.8,5.1,8.8,5.1
						c1.4,0,2.8-0.2,3.9-0.6l1.3-0.4l0.6-1.2c1.9-4,5.1-5.8,9.9-5.8c4.1,0,5.5,2,6.2,3.7c1.4,3.3,2.1,8.9,2.1,16.6v20.6
						c0,3.6-1.1,5.8-6.5,5.8H85.9v15.6h34.8c18.6,0,21.4-11.3,21.4-18V1438c0-9.9-2.3-17.4-6.8-22.4
						C130.8,1410.4,123.9,1407.8,114.7,1407.8"/>
					<path class="st4" d="M189.7,1405.6c-10.6,0-19.4,3.9-26.2,11.7c-6.7,7.7-10.1,16.9-10.1,27.4c0,4.3,0.5,8.4,1.5,12.3
						c1,4,2.6,7.8,4.7,11.3c2.2,3.7,5.4,6.8,9.4,9.1c4,2.3,8.6,3.4,13.8,3.4c6.3,0,12-2,17.1-6v8.8c0,3.7-1.4,7-4.4,9.8
						c-4,3.9-8.2,4.8-14.1,4c-0.9-0.1-2.6-0.6-5.4-2.1c-2.1-1.1-3.7-2.6-4.7-4.5l-1.1-2l-2.2,0.4c-2.6,0.4-5,2.2-7.2,5.3
						c-2,2.9-3,5.4-3,7.5v1.8l1.6,0.9c6.5,3.8,15.3,5.7,26.1,5.7c8.9,0,16.8-3.3,23.4-9.8c6.6-6.5,9.9-15.6,9.9-26.9v-36.1
						c0-9-2.3-16.6-7-22.6C206.8,1408.8,199.5,1405.6,189.7,1405.6 M199.8,1452.9c0,4.4-1.1,7.5-3.1,9.3c-2.3,2-5.3,2.9-9.2,2.9
						c-4.7,0-8.1-2-10.7-6.3c-2.8-4.7-4.3-11-4.3-18.7c0-6.4,1.5-12.2,4.5-17.1c2.7-4.5,6.7-6.7,12.2-6.7c3.5,0,5.9,1.2,7.7,3.9
						c2.1,3,3,6.3,3,9.9L199.8,1452.9L199.8,1452.9z"/>
					<path class="st4" d="M593.4,1378.3c-4,2.6-6.1,5.9-6.1,9.6v67.4c0,8.6-3.9,9.7-7.8,9.7h-9.9l0,0h-8.2c-3,0-5.8-0.8-8.5-2.4
						c-2.4-1.5-4.2-3.1-5.5-5.1l-0.1-6c-0.1-10.6-3.1-19.7-9-27c-6-7.6-14.4-11.4-25-11.4c-8.6,0-15.5,3.1-20.6,9.2
						c-4.9,5.9-7.4,14.2-7.4,24.6v9.8c0,4.6-1,6.2-1.5,6.6c-0.6,0.6-2.1,1.5-6.3,1.5h-3.4h-3.9c-3.4,0-6.7-0.6-9.9-1.9
						c-5.2-1.9-10.2-4.9-14.6-9c-4.6-4.2-8.5-8.5-11.5-12.8l-9.7-13.5c-3.3-4.6-7.1-8.4-11.3-11.3c-4.5-3.1-9.4-4.7-14.8-4.7
						c-7.9,0-14.3,2.8-19.2,8.3c-4.6,5.2-7.8,11.6-9.4,19.6c0,2.7,1.6,4.3,4.9,4.5c2.5-0.3,4.1-2.7,5.3-5l3.9-7.1
						c1-2.1,2.8-4.1,5.2-5.9c4.7-3.6,11.6-3.4,16.2,0.2c2.6,2.1,5,4.8,7,8.3l6.7,11.6c2.2,4.2,5.2,8.6,8.9,13.2
						c1.6,2,3.4,3.9,5.1,5.6h-73l0,0h-50.9H302h-3.4c-3.2,0-6.1-0.7-8.7-2.2c-2.4-1.3-4.2-2.9-5.4-4.7v-20.1
						c0-9.9-2.3-17.4-6.8-22.5c-4.6-5.1-11.5-7.8-20.7-7.8c-6.2,0-11.6,1.2-16.1,3.5c-5.1,2.6-7.8,5.2-8.5,8.2l-0.2,1l0.4,0.9
						c0.7,1.9,2.8,5.1,8.9,5.1c1.4,0,2.7-0.2,3.9-0.6l1.3-0.4l0.6-1.2c1.9-4,5.1-5.8,9.9-5.8c4.1,0,5.5,2,6.2,3.7
						c1.4,3.3,2.1,8.9,2.1,16.6v20.6c0,3.6-1.1,5.8-6.5,5.8h-30.6v15.8h34.8c11.1,0,16.6-4,19.2-8.7c2,1.8,4.2,3.4,6.7,4.9
						c4.2,2.4,8.6,3.7,13,3.8l0,0h0.4h6.7h63.1l0,0h93.9l0,0h14.2c3.5,0,6.9-0.8,10-2.2c1.8-0.9,3.4-1.9,4.8-3.1
						c1.9,2.1,4.2,4,6.7,5.4c3.7,2.1,6.8,3.4,9.5,3.8c2.5,0.4,4.9,0.6,7.1,0.6c6.6,0,12.4-2,17.5-6c3.3-2.6,5.9-5.7,7.7-9
						c2.1,2.1,4.5,4.1,7.3,5.9c3.5,2.3,7.1,3.7,10.7,4.3v0.3h3.5h4.4h16.2c6.7,0,11.9-2.4,15.4-7.3c3.3-4.5,4.9-10.4,4.9-17.6v-81.1
						h-3.2C600.1,1374.8,597,1375.9,593.4,1378.3 M515,1471.4c-2.9,0-5.5-0.8-7.9-2.6c-2.1-1.5-3.1-3.7-3.1-7V1442
						c0-18.8,7.5-18.8,10.3-18.8c3.5,0,14,0,14,23.8C528.3,1471.4,518.3,1471.4,515,1471.4"/>
					<path class="st4" d="M626.5,1378.5c-4.1,2.6-6.2,5.9-6.2,9.7v93.2l3.6-0.4c4.8-0.6,8.7-3,11.6-7.2c2.7-3.9,4-9.2,4-15.7V1375
						h-3.2C633.4,1374.9,630.2,1376.1,626.5,1378.5"/>
					<path class="st4" d="M736.6,1408.6l-2.3-0.7c-8.1-2.3-19.3-2.6-30.1,0.9c-5.2,1.8-10.3,4.2-14.9,7.4
						c-4.9,3.3-8.9,7.8-11.9,13.3c-3.1,5.6-4.7,11.9-4.7,18.6c0,9.3,2.9,17.1,8.7,23.3c5.8,6.2,13.8,9.3,23.9,9.3
						c10,0,17.8-2.9,23.2-8.5s8.2-12.4,8.2-20.2L736.6,1408.6L736.6,1408.6z M717.6,1457.6c0,3.2-0.9,5.6-2.7,7.4
						c-1.8,1.8-4.5,2.7-8.2,2.7c-4.4,0-7.9-1.8-10.6-5.5c-2.9-3.9-4.4-9.6-4.4-16.9c0-4.3,0.7-8.2,2-11.6c1.3-3.4,2.9-6.1,4.8-8
						c2-2,4.2-3.7,6.7-5.1c2.5-1.4,4.8-2.4,6.8-2.9s3.9-0.8,5.6-0.8h0.2L717.6,1457.6z"/>
					<path class="st4" d="M698.4,1396.3c2.9,0,5.5-1.1,7.5-3.1c2.1-2.1,3.1-4.6,3.1-7.5c0-2.9-1.1-5.5-3.1-7.5
						c-4.2-4.2-10.9-4.2-15.1,0c-2.1,2.1-3.1,4.7-3.1,7.5c0,2.9,1.1,5.4,3.1,7.5C692.9,1395.2,695.5,1396.3,698.4,1396.3"/>
					<path class="st4" d="M721.4,1396.3c2.9,0,5.5-1.1,7.5-3.1c2.1-2.1,3.1-4.6,3.1-7.5c0-2.9-1.1-5.5-3.1-7.5
						c-4.1-4.1-11-4.1-15.1,0c-2.1,2-3.1,4.6-3.1,7.5c0,2.9,1.1,5.5,3.1,7.5C715.9,1395.2,718.5,1396.3,721.4,1396.3"/>
					<path class="st4" d="M768,1408.7c-4,2.6-6.1,5.9-6.1,9.6v69.3c0,3-0.7,5.1-2.2,6.6c-1.4,1.5-3.4,2.2-6.1,2.2
						c-3.5,0-6-1.4-7.9-4.4l-1-1.7l-2,0.2c-2.5,0.2-5.1,1.3-7.9,3.3c-3.2,2.3-4.7,4.6-4.7,7.2v1.1l0.7,0.9c1.7,2.2,4.2,3.9,7.3,5
						c2.8,1,5.5,1.5,7.9,1.5c10.4,0,18.9-3.1,25.2-9.2s9.6-15.1,9.6-26.6V1405h-3.2C774.8,1405.2,771.7,1406.4,768,1408.7"/>
					<path class="st4" d="M865.5,1491.4c-2.1,2-3.1,4.7-3.1,7.5c0,2.9,1.1,5.5,3.1,7.6c2.1,2.1,4.6,3.1,7.5,3.1s5.5-1.1,7.5-3.1l0,0
						c2.1-2.1,3.1-4.6,3.1-7.5c0-2.9-1.1-5.5-3.1-7.5C876.4,1487.3,869.6,1487.3,865.5,1491.4"/>
					<path class="st4" d="M942,1400.1c2.9,0,5.4-1.1,7.5-3.1c2.1-2.1,3.2-4.6,3.2-7.5s-1.1-5.5-3.1-7.5c-4.2-4.2-10.9-4.2-15.1,0
						c-2.1,2-3.1,4.6-3.1,7.5s1,5.5,3.1,7.5S939.1,1400.1,942,1400.1"/>
					<path class="st4" d="M965.1,1400.1c2.9,0,5.5-1.1,7.5-3.1l0,0c2.1-2.1,3.1-4.6,3.1-7.5s-1.1-5.5-3.1-7.5
						c-4.1-4.1-11-4.1-15.1,0c-2.1,2-3.2,4.6-3.2,7.5s1.1,5.5,3.1,7.5C959.6,1399,962.2,1400.1,965.1,1400.1"/>
					<path class="st4" d="M1143.4,1378.3c-4,2.6-6.1,5.9-6.1,9.6v67.4c0,8.6-3.8,9.7-7.8,9.7h-9.9h-7.9h-2.7c-3.2,0-6.1-0.7-8.7-2.2
						c-2.3-1.3-4.1-2.8-5.2-4.5v-83.5h-3.2c-2.8,0-5.9,1.1-9.6,3.5c-4,2.6-6.1,5.9-6.1,9.6v63.9c0,2.2-0.1,4.1-0.2,5.5
						c-0.1,1.2-0.5,2.7-1,4.2c-0.4,1.1-1,1.9-1.9,2.5c-0.9,0.6-2.2,0.9-3.9,0.9h-3h-12.1h-50.9l0,0h-10.5c-3.2,0-6.1-0.7-8.7-2.2
						c-2.3-1.3-4-2.8-5.2-4.5v-48.8h-3.2c-2.8,0-5.9,1.2-9.6,3.5c-5,3.3-6.1,7.1-6.1,9.6v29.2c0,2.2-0.1,4-0.2,5.5
						c-0.1,1.3-0.4,2.7-1,4.2c-0.4,1.1-1,1.9-1.9,2.5c-0.9,0.6-2.2,0.9-3.9,0.9h-11.4c-3.4,0-6.7-0.6-9.8-1.9
						c-5.2-1.9-10.2-4.9-14.6-9c-4.6-4.2-8.4-8.5-11.5-12.8l-9.7-13.5c-3.3-4.6-7.1-8.4-11.3-11.3c-4.5-3.1-9.4-4.7-14.8-4.7
						c-7.9,0-14.3,2.8-19.2,8.3c-4.6,5.2-7.8,11.6-9.4,19.6c0,2.6,1.8,4.5,4.8,4.5h0.1c2.5-0.3,4.1-2.7,5.4-5l3.9-7.1
						c1-2.1,2.8-4.1,5.2-5.9c4.7-3.6,11.6-3.4,16.2,0.2c2.6,2.1,5,4.8,7,8.3l6.7,11.6c2.2,4.2,5.2,8.6,8.9,13.2
						c1.6,2,3.3,3.9,5.1,5.6h-65.2h-17.4c-3.9,0-7.8-1.1-7.8-9.7v-80.4h-3.2c-2.8,0-5.9,1.1-9.7,3.4c-5.2,3.2-6.3,7-6.3,9.6v68
						c0,7.2,1.7,13.2,4.9,17.7c3.5,4.8,8.7,7.3,15.4,7.3h24l0,0h98.3h17.1c11.2,0,17-4.8,19.9-10.2c2.1,2.1,4.5,4,7.2,5.8
						c4.6,2.9,9.3,4.4,14.2,4.4l0,0h58h12.3h4.9c11.2,0,17-4.8,20-10.2c2.1,2.1,4.5,4,7.2,5.8c4.3,2.7,8.8,4.2,13.4,4.4v0.1h1.1
						c0,0,0,0,0.1,0h6.7l0,0h16.2c6.7,0,11.9-2.4,15.4-7.3c3.3-4.5,4.9-10.4,4.9-17.6v-81.2h-3.2
						C1150.2,1374.8,1147,1376,1143.4,1378.3"/>
					<path class="st4" d="M1376.9,1491.4c-2,2.1-3.1,4.7-3.1,7.5c0,2.9,1.1,5.5,3.1,7.5c2.1,2.1,4.7,3.1,7.5,3.1
						c2.9,0,5.5-1.1,7.5-3.1l0,0c2.1-2.1,3.1-4.6,3.1-7.5s-1.1-5.5-3.1-7.5C1387.9,1487.3,1381,1487.3,1376.9,1491.4"/>
					<path class="st4" d="M1642.4,1396.2c2.9,0,5.5-1.1,7.5-3.1c2.1-2,3.1-4.7,3.1-7.5c0-2.9-1-5.5-3.1-7.5c-4.1-4.1-11-4.1-15.1,0
						c-2.1,2.1-3.1,4.6-3.1,7.5c0,2.9,1.1,5.5,3.1,7.5C1636.9,1395.1,1639.5,1396.2,1642.4,1396.2"/>
					<path class="st4" d="M1656.9,1408.7c-4,2.6-6.1,5.9-6.1,9.6v37c0,8.6-4,9.7-7.8,9.7h-5.5l0,0h-58.7h-11.5h-47.2h-11.5H1453
						c-3.4,0-6.7-0.6-9.9-1.9c-5.2-1.9-10.1-4.9-14.6-9c-4.5-4.2-8.4-8.5-11.5-12.8l-9.7-13.5c-3.3-4.6-7.1-8.4-11.3-11.3
						c-4.5-3.1-9.4-4.7-14.8-4.7c-7.9,0-14.3,2.8-19.2,8.3c-4.6,5.2-7.7,11.6-9.4,19.6c0,2.6,1.8,4.5,4.8,4.5h0.1
						c2.5-0.3,4.1-2.7,5.4-5l3.9-7.1c1-2.1,2.8-4.1,5.2-5.9c4.7-3.6,11.6-3.4,16.2,0.2c2.6,2,5,4.8,7,8.3l6.7,11.6
						c2.2,4.2,5.2,8.6,8.9,13.2c1.6,2,3.3,3.9,5.1,5.6h-60.8l0,0h-63h-7.1h-3.4c-3.2,0-6.1-0.7-8.7-2.2c-2.3-1.3-4.1-2.8-5.2-4.5
						v-80.3l-0.1-3.2h-3.2c-2.8,0-5.9,1.1-9.5,3.5c-4,2.6-6,5.9-6,9.6v78.2c0,17.4-8.2,25.6-25.7,25.6c-5.9,0-10.7-1.6-14.8-5
						c-3.9-3.2-5.8-7.8-5.8-14c0-4.8,1-9.2,3.1-13.3c2.2-4.5,5.1-5.1,7-5.1h2l0.9-1.9c0.8-1.7,1.2-3.8,1.2-6.3
						c0-5.4-2.8-6.9-4.4-7.2l-0.6-0.1l-0.6,0.1c-6,0.9-11.2,5.5-15.5,13.6c-4,7.6-6,15.2-6,22.6c0,11,3,19.6,9,25.5
						c5.9,5.9,14,8.9,23.9,8.9c11.1,0,21.1-4.4,29.5-13.2c6.8-7,11.5-15,13.9-23.9c1.9,1.6,4,3.1,6.3,4.4c4.2,2.5,8.6,3.7,13,3.8
						l0,0h0.4h6.7h63.1l0,0h94.6l0,0h58.7h11.5h47.2h11.5h58.7l0,0h11.8c6.7,0,11.9-2.4,15.4-7.3c3.3-4.5,4.9-10.4,4.9-17.6V1405
						h-3.2C1663.6,1405.2,1660.5,1406.4,1656.9,1408.7"/>
					<path class="st4" d="M1703,1458v-83.1h-3.2c-2.9,0-6.1,1.1-9.8,3.5c-4.1,2.6-6.1,5.9-6.1,9.7v93.2l3.6-0.4
						c4.8-0.6,8.7-3,11.6-7.2C1701.6,1469.8,1703,1464.5,1703,1458"/>
					<path class="st4" d="M1942.5,1396.3c2.9,0,5.5-1.1,7.5-3.1c2.1-2.1,3.1-4.6,3.1-7.5c0-2.9-1.1-5.5-3.1-7.5
						c-4.1-4.1-11-4.1-15.1,0c-2.1,2.1-3.1,4.7-3.1,7.5c0,2.9,1,5.4,3.1,7.5C1937.1,1395.2,1939.7,1396.3,1942.5,1396.3"/>
					<path class="st4" d="M1965.6,1396.3c2.9,0,5.5-1.1,7.5-3.1l0,0c2.1-2.1,3.1-4.6,3.1-7.5c0-2.9-1.1-5.5-3.1-7.5
						c-4.1-4.1-11-4.1-15.1,0c-2.1,2-3.1,4.6-3.1,7.6c0,2.9,1.1,5.5,3.1,7.5C1960.1,1395.2,1962.7,1396.3,1965.6,1396.3"/>
					<path class="st4" d="M1971.6,1408.7c-4,2.6-6.1,5.9-6.1,9.6v37c0,8.5-3.8,9.7-7.8,9.7h-5.5h-12.3h-46.5h-11.5h-47.2h-11.5
						h-51.6h-7.1h-3.4c-3.2,0-6.1-0.7-8.7-2.2c-2.3-1.3-4.1-2.8-5.2-4.5v-48.8h-3.2c-2.8,0-6,1.2-9.6,3.5c-4,2.6-6.1,5.9-6.1,9.6
						v64.9c0,3-0.7,5.1-2.2,6.6s-3.5,2.2-6.1,2.3c-3.5,0-6-1.4-7.9-4.4l-1-1.7l-2,0.2c-2.5,0.2-5.1,1.4-7.9,3.3
						c-3.2,2.3-4.7,4.6-4.7,7.2c0,1.4,0.5,2.7,1.3,3.5c2.8,3.4,7.6,5,14.5,5c10.4,0,18.9-3.1,25.2-9.2c6.3-6.1,9.5-14.9,9.5-26.3
						c1.5,1.1,3.1,2.2,4.8,3.1c4.1,2.3,8.3,3.5,12.6,3.6l0,0h0.4h6.7h51.6h11.5h47.2h11.5h46.5h12.3h11.8c6.7,0,11.9-2.4,15.4-7.3
						c3.3-4.5,4.9-10.4,4.9-17.6V1405h-3.2C1978.3,1405.2,1975.2,1406.4,1971.6,1408.7"/>
					<path class="st4" d="M2292.3,1491.4c-2.1,2.1-3.1,4.7-3.1,7.5c0,2.9,1.1,5.5,3.1,7.5c2,2.1,4.7,3.1,7.5,3.1
						c2.9,0,5.4-1.1,7.5-3.1l0,0c2-2.1,3.1-4.7,3.1-7.5c0-2.9-1.1-5.5-3.2-7.5C2303.2,1487.3,2296.4,1487.3,2292.3,1491.4"/>
					<path class="st4" d="M2316.6,1405.2c-2.8,0-5.9,1.1-9.6,3.5c-4,2.6-6.1,5.9-6.1,9.6v37c0,8.6-4,9.7-7.8,9.7h-5.5h-63.1h-7.1
						h-3.4c-3.2,0-6.1-0.7-8.7-2.2c-2.3-1.3-4.1-2.8-5.2-4.5v-83.5h-3.2c-2.8,0-5.9,1.1-9.6,3.5c-4,2.6-6.1,5.9-6.1,9.6v63.9
						c0,2.2-0.1,4.1-0.2,5.5c-0.1,1.2-0.5,2.7-1,4.2c-0.4,1.1-1,1.9-1.9,2.5c-0.9,0.6-2.2,0.9-3.9,0.9h-3h-12.3h-50.8h-7.1h-13.9
						v-26.5c0-9-2.4-16.6-7-22.4c-4.8-6.1-12.2-9.1-21.9-9.1c-10.5,0-19.1,4.3-25.4,12.7c-6.2,8.2-9.3,17.7-9.3,28.5
						c0,8.9,2.8,16.6,8.4,22.9c5.6,6.4,13.6,9.7,23.8,9.7h12.6v2.8c0,3.7-1.4,6.9-4.4,9.8c-4,3.9-8.1,4.9-14.1,4
						c-0.9-0.1-2.6-0.6-5.4-2.1c-2.1-1.1-3.7-2.6-4.7-4.6l-1.1-2l-2.2,0.4c-2.6,0.4-5,2.2-7.2,5.3c-2,2.9-3,5.4-3,7.5v1.8l1.6,0.9
						c6.5,3.8,15.3,5.7,26.1,5.7c8.4,0,15.9-2.9,22.3-8.7c5.7-5.2,9.3-12.2,10.5-21h14.4h7.1h50.9h12.3h4.9c11.2,0,17-4.8,20-10.2
						c2.1,2.1,4.5,4,7.2,5.8c4.5,2.9,9.3,4.4,14.2,4.4l0,0h0.4h6.7h63.1l0,0h11.8c6.7,0,11.9-2.4,15.4-7.3
						c3.3-4.5,4.9-10.4,4.9-17.6v-50.8L2316.6,1405.2L2316.6,1405.2z M2068.2,1465.1h-10.3c-5.5,0-9.3-1.6-11.7-4.8
						c-2.5-3.5-3.8-9.1-3.8-16.7c0-3.1,0.3-6.2,0.8-9.2c0.5-2.9,1.4-5.9,2.6-8.7c1.1-2.5,2.6-4.4,4.6-5.9c2-1.4,4.2-2.1,7-2.1
						c3.5,0,6,1.2,7.8,3.7c2,2.8,3,5.9,3,9.6V1465.1z"/>
				</g>
				<g>
					<path class="st4" d="M73.5,1686.5v-0.4c13.5-5,20.8-15.6,20.8-27.1c0-10.6-5.2-18.7-13-23.4c-8.5-5.9-18.9-8-35.8-8
						c-12.8,0-26,1.1-33.2,2.6v123c5.8,0.7,15.4,1.7,28,1.7c22.8,0,37.4-3.9,46.4-11.7c7.2-5.9,12.1-14.6,12.1-25.8
						C98.7,1700.2,86.7,1689.8,73.5,1686.5 M35,1645.5c2.4-0.6,6.3-0.9,13-0.9c14.5,0,23.4,5.4,23.4,17.1c0,10.6-8.9,18-24.7,18H35
						V1645.5L35,1645.5z M47,1737.7c-5.2,0-9.1-0.2-12.1-0.6v-40.8h11.3c15.8,0,28.4,5.9,28.4,20.4
						C74.6,1732.1,61.7,1737.7,47,1737.7"/>
					<rect x="118.2" y="1622" class="st4" width="23" height="131.7"/>
					<path class="st4" d="M246.7,1663.3h-22.8v54.5c0,2.6-0.6,5-1.3,7c-2.4,5.8-8.4,12.2-17.4,12.2c-12.1,0-16.9-9.6-16.9-24.7
						v-49.1h-22.8v53c0,29.5,15,39.3,31.5,39.3c16.1,0,25-9.3,28.9-15.8h0.4l1.1,13.7h20c-0.4-7.4-0.8-16.3-0.8-27.1L246.7,1663.3
						L246.7,1663.3z"/>
					<path class="st4" d="M309.7,1661.3c-28.9,0-44.1,23.6-44.1,48.6c0,27.6,17.2,45.6,46.6,45.6c13,0,23.7-2.4,31.5-5.6l-3.3-15.8
						c-6.9,2.6-14.5,4.1-25,4.1c-14.5,0-27.3-7.1-27.8-23.4h60.5c0.4-2,0.7-5.4,0.7-9.6C348.6,1685.4,339,1661.3,309.7,1661.3
						 M287.4,1698.9c0.9-9.3,6.9-22.1,21-22.1c15.2,0,18.9,13.7,18.7,22.1H287.4z"/>
					<polygon class="st4" points="387.2,1647.7 422.8,1647.7 422.8,1753.6 445.6,1753.6 445.6,1647.7 481.6,1647.7 481.6,1628.6 
						387.2,1628.6 					"/>
					<path class="st4" d="M506.6,1680.6h-0.8l-0.7-17.2h-19.9c0.6,8.1,0.7,16.9,0.7,29.1v61.2h22.8V1707c0-2.6,0.4-5,0.8-7.1
						c2-10.2,9.4-17.2,20.4-17.2c2.8,0,4.8,0.4,6.7,0.7v-21.6c-1.9-0.4-3.2-0.6-5.4-0.6C521.6,1661.3,511,1667.8,506.6,1680.6"/>
					<rect x="552" y="1663.3" class="st4" width="23" height="90.3"/>
					<path class="st4" d="M563.5,1625.7c-7.6,0-12.8,5.4-12.8,12.4c0,6.9,5,12.2,12.6,12.2c8,0,13-5.4,13-12.2
						C576.1,1631,571.3,1625.7,563.5,1625.7"/>
					<path class="st4" d="M669.6,1699.3c0-19.7-8.3-38-37.3-38c-14.3,0-26,3.9-32.6,8l4.4,14.8c6.1-3.9,15.4-6.7,24.3-6.7
						c16,0,18.4,9.8,18.4,15.8v1.5c-33.4-0.2-53.6,11.3-53.6,34.1c0,13.7,10.2,26.9,28.4,26.9c11.7,0,21.1-5,26.7-12.1h0.6l1.5,10
						H671c-0.9-5.6-1.3-13.5-1.3-21.7L669.6,1699.3L669.6,1699.3z M647.3,1721.9c0,1.5-0.2,3.3-0.8,5c-2,6.5-8.7,12.4-17.8,12.4
						c-7.2,0-13-4.1-13-13c0-13.7,15.4-17.2,31.5-16.9L647.3,1721.9L647.3,1721.9z"/>
					<path class="st4" d="M743.3,1661.3c-15,0-24.9,8.5-28.7,15.6H714l-1.1-13.6h-20c0.6,7.8,0.7,16.5,0.7,26.9v63.4h23v-53
						c0-2.6,0.2-5.4,0.9-7.4c2.4-6.9,8.7-13.4,17.8-13.4c12.4,0,17.2,9.8,17.2,22.8v51h22.8V1700
						C775.4,1671.5,759.1,1661.3,743.3,1661.3"/>
					<path class="st4" d="M861.4,1675.4H861c-4.3-7.4-12.4-14.1-26.1-14.1c-21.7,0-41,18-41,47.7c0,25.6,15.9,44.1,38.4,44.1
						c11.9,0,21.1-5.4,26.3-13.3h0.4v7.8c0,19.5-11.1,27.3-26,27.3c-10.9,0-20.6-3.5-26.3-6.9l-5,17.2c7.8,4.8,20,7.2,31.5,7.2
						c12.4,0,25.4-2.6,34.9-10.9c9.4-8.5,13.3-22.1,13.3-41v-51.2c0-12.4,0.4-19.8,0.7-26h-19.8L861.4,1675.4z M858.7,1714.1
						c0,2.6-0.4,5.8-0.9,8.2c-2.6,8.2-10,13.7-18.5,13.7c-14.3,0-22.1-12.4-22.1-27.8c0-18.4,9.5-29.5,22.3-29.5
						c9.6,0,16.1,6.3,18.5,14.7c0.6,1.9,0.7,4.1,0.7,6.1V1714.1z"/>
					<rect x="905.9" y="1622" class="st4" width="23" height="131.7"/>
					<path class="st4" d="M991.9,1661.3c-28.9,0-44.1,23.6-44.1,48.6c0,27.6,17.2,45.6,46.6,45.6c13,0,23.7-2.4,31.5-5.6l-3.3-15.8
						c-6.9,2.6-14.5,4.1-25,4.1c-14.5,0-27.3-7.1-27.8-23.4h60.5c0.4-2,0.7-5.4,0.7-9.6C1030.9,1685.4,1021.2,1661.3,991.9,1661.3
						 M969.7,1698.9c0.9-9.3,6.9-22.1,21-22.1c15.2,0,18.9,13.7,18.7,22.1H969.7z"/>
					<polygon class="st4" points="1069.4,1647.7 1105,1647.7 1105,1753.6 1127.8,1753.6 1127.8,1647.7 1163.8,1647.7 1163.8,1628.6 
						1069.4,1628.6 					"/>
					<path class="st4" d="M1188.8,1680.6h-0.8l-0.7-17.2h-19.9c0.6,8.1,0.7,16.9,0.7,29.1v61.2h22.8V1707c0-2.6,0.4-5,0.7-7.1
						c2-10.2,9.5-17.2,20.4-17.2c2.8,0,4.8,0.4,6.7,0.7v-21.6c-1.8-0.4-3.1-0.6-5.4-0.6C1203.9,1661.3,1193.3,1667.8,1188.8,1680.6"
						/>
					<path class="st4" d="M1302.7,1699.3c0-19.7-8.3-38-37.3-38c-14.3,0-26,3.9-32.6,8l4.4,14.8c6.1-3.9,15.4-6.7,24.3-6.7
						c16,0,18.4,9.8,18.4,15.8v1.5c-33.4-0.2-53.6,11.3-53.6,34.1c0,13.7,10.2,26.9,28.4,26.9c11.7,0,21.1-5,26.7-12.1h0.6l1.5,10
						h20.6c-0.9-5.6-1.3-13.5-1.3-21.7L1302.7,1699.3L1302.7,1699.3z M1280.4,1721.9c0,1.5-0.2,3.3-0.8,5c-2,6.5-8.7,12.4-17.8,12.4
						c-7.2,0-13-4.1-13-13c0-13.7,15.4-17.2,31.5-16.9L1280.4,1721.9L1280.4,1721.9z"/>
					<path class="st4" d="M1410,1622h-22.8v51.2h-0.4c-4.1-6.7-13-11.9-25.4-11.9c-21.7,0-40.6,18-40.4,48.2
						c0,27.8,17.1,46.2,38.6,46.2c13.2,0,24.1-6.3,29.5-16.3h0.4l0.9,14.3h20.4c-0.4-6.1-0.7-16.1-0.7-25.4V1622H1410z
						 M1387.2,1714.5c0,2.4-0.2,4.6-0.8,6.7c-2.2,9.8-10.4,16.1-19.6,16.1c-14.5,0-22.6-12.1-22.6-28.6c0-16.9,8.2-29.9,22.8-29.9
						c10.4,0,17.6,7.2,19.7,16.1c0.4,1.9,0.6,4.1,0.6,5.9L1387.2,1714.5L1387.2,1714.5z"/>
					<path class="st4" d="M1446,1625.7c-7.6,0-12.8,5.4-12.8,12.4c0,6.9,5,12.2,12.6,12.2c8,0,13-5.4,13-12.2
						C1458.6,1631,1453.7,1625.7,1446,1625.7"/>
					<rect x="1434.5" y="1663.3" class="st4" width="23" height="90.3"/>
					<path class="st4" d="M1531.6,1661.3c-15,0-24.9,8.5-28.7,15.6h-0.6l-1.1-13.6h-20c0.6,7.8,0.7,16.5,0.7,26.9v63.4h23v-53
						c0-2.6,0.2-5.4,0.9-7.4c2.4-6.9,8.7-13.4,17.8-13.4c12.4,0,17.2,9.8,17.2,22.8v51h22.8V1700
						C1563.7,1671.5,1547.4,1661.3,1531.6,1661.3"/>
					<path class="st4" d="M1649.7,1675.4h-0.4c-4.3-7.4-12.4-14.1-26.1-14.1c-21.7,0-41,18-41,47.7c0,25.6,16,44.1,38.4,44.1
						c11.9,0,21.2-5.4,26.3-13.3h0.4v7.8c0,19.5-11.1,27.3-26,27.3c-10.9,0-20.6-3.5-26.3-6.9l-5,17.2c7.8,4.8,20,7.2,31.5,7.2
						c12.4,0,25.4-2.6,34.9-10.9c9.5-8.5,13.4-22.1,13.4-41v-51.2c0-12.4,0.4-19.8,0.7-26h-19.8L1649.7,1675.4z M1647,1714.1
						c0,2.6-0.4,5.8-0.9,8.2c-2.6,8.2-10,13.7-18.5,13.7c-14.3,0-22.1-12.4-22.1-27.8c0-18.4,9.5-29.5,22.3-29.5
						c9.6,0,16.1,6.3,18.5,14.7c0.6,1.9,0.8,4.1,0.8,6.1L1647,1714.1L1647,1714.1z"/>
					<polygon class="st4" points="1756.3,1628.6 1733.5,1628.6 1733.5,1753.6 1807.7,1753.6 1807.7,1734.5 1756.3,1734.5 					"/>
					<path class="st4" d="M1835.5,1625.7c-7.6,0-12.8,5.4-12.8,12.4c0,6.9,5,12.2,12.6,12.2c8,0,13-5.4,13-12.2
						C1848.1,1631,1843.3,1625.7,1835.5,1625.7"/>
					<rect x="1824" y="1663.3" class="st4" width="23" height="90.3"/>
					<path class="st4" d="M1974.4,1661.3c-7.4,0-13.2,1.9-18.2,5.4c-4.3,2.6-8,6.3-11.1,11.3h-0.4c-3.9-10-13.2-16.7-25-16.7
						c-15.2,0-23.4,8.4-27.8,15.4h-0.6l-0.9-13.4h-19.7c0.6,7.8,0.7,16.5,0.7,26.9v63.4h22.3v-53.4c0-2.6,0.4-5.2,1.3-7.4
						c2-6.3,7.8-13,16.3-13c10.6,0,15.6,8.9,15.6,21.5v52.3h22.2v-54.2c0-2.6,0.6-5.4,1.1-7.6c2.4-6.5,8.2-12.1,16-12.1
						c10.9,0,16.1,8.9,16.1,23.9v49.9h22.3v-53.2C2004.6,1671.5,1989.4,1661.3,1974.4,1661.3"/>
					<path class="st4" d="M2040.2,1625.7c-7.6,0-12.8,5.4-12.8,12.4c0,6.9,5,12.2,12.6,12.2c8,0,13-5.4,13-12.2
						C2052.8,1631,2047.9,1625.7,2040.2,1625.7"/>
					<rect x="2028.7" y="1663.3" class="st4" width="23" height="90.3"/>
					<path class="st4" d="M2102.3,1637.5l-22.3,5.4v20.4h-13v17.1h13v42.5c0,11.9,2.2,20,7.1,25.2c4.3,4.6,11.3,7.4,19.7,7.4
						c7.2,0,13.2-0.9,16.5-2.2l-0.4-17.4c-2,0.6-5,1.1-8.9,1.1c-8.7,0-11.7-5.8-11.7-16.7v-39.9h21.7v-17.1h-21.7L2102.3,1637.5
						L2102.3,1637.5z"/>
					<path class="st4" d="M2178.5,1661.3c-28.9,0-44.1,23.6-44.1,48.6c0,27.6,17.2,45.6,46.5,45.6c13,0,23.7-2.4,31.5-5.6l-3.3-15.8
						c-6.9,2.6-14.5,4.1-25,4.1c-14.5,0-27.3-7.1-27.8-23.4h60.5c0.4-2,0.8-5.4,0.8-9.6C2217.4,1685.4,2207.8,1661.3,2178.5,1661.3
						 M2156.2,1698.9c0.9-9.3,6.9-22.1,21-22.1c15.2,0,18.9,13.7,18.7,22.1H2156.2z"/>
					<path class="st4" d="M2319,1728.2V1622h-22.8v51.2h-0.4c-4.1-6.7-13-11.9-25.4-11.9c-21.7,0-40.6,18-40.4,48.2
						c0,27.8,17.1,46.2,38.6,46.2c13.2,0,24.1-6.3,29.5-16.3h0.4l0.9,14.3h20.4C2319.4,1747.5,2319,1737.5,2319,1728.2
						 M2296.2,1714.5c0,2.4-0.2,4.6-0.8,6.7c-2.2,9.8-10.4,16.1-19.7,16.1c-14.5,0-22.6-12.1-22.6-28.6c0-16.9,8.1-29.9,22.8-29.9
						c10.4,0,17.6,7.2,19.7,16.1c0.4,1.9,0.6,4.1,0.6,5.9V1714.5L2296.2,1714.5z"/>
				</g>
			</g>
		</g>
	</g>
</g>
<rect x="0" y="1848.6" transform="matrix(1 -2.879491e-03 2.879491e-03 1 -5.3329 3.3692)" class="st4" width="2334.8" height="10.2"/>
</svg>
