<?xml version="1.0" encoding="utf-8"?>
<!-- Generator: Adobe Illustrator 25.2.0, SVG Export Plug-In . SVG Version: 6.00 Build 0)  -->
<svg version="1.0" id="Layer_1" xmlns="http://www.w3.org/2000/svg" xmlns:xlink="http://www.w3.org/1999/xlink" x="0px" y="0px"
	 width="2589.13px" height="289.83px" viewBox="0 0 2589.13 289.83" style="enable-background:new 0 0 2589.13 289.83;"
	 xml:space="preserve">
<style type="text/css">
	.st0{fill:#FFFFFF;}
	.st1{fill:#FFFFFF;stroke:#FFFFFF;stroke-width:10;stroke-miterlimit:10;}
</style>
<g>
	<g>
		<g>
			<g>
				<g>
					<path class="st0" d="M1411.06,76.79c-2.71,0.91-5.32,2.2-7.73,3.85c-2.52,1.71-4.6,4.04-6.17,6.91
						c-1.6,2.9-2.42,6.14-2.42,9.65c0,4.82,1.51,8.87,4.48,12.04c3,3.19,7.16,4.81,12.37,4.81c5.16,0,9.2-1.49,12.01-4.42
						c2.81-2.92,4.23-6.43,4.23-10.45V76.65l-1.21-0.34C1422.45,75.13,1416.64,74.93,1411.06,76.79 M1417.99,101.99
						c0,1.63-0.46,2.89-1.42,3.85c-0.95,0.95-2.33,1.41-4.22,1.41c-2.3,0-4.1-0.92-5.51-2.83c-1.5-2.03-2.26-4.97-2.26-8.74
						c0-2.22,0.35-4.24,1.03-6.02c0.68-1.75,1.52-3.15,2.49-4.14c1.03-1.05,2.19-1.94,3.46-2.64c1.29-0.72,2.48-1.22,3.52-1.48
						c1.04-0.27,2.01-0.41,2.9-0.41h0.09L1417.99,101.99z"/>
					<path class="st0" d="M1419.95,70.29c1.49,0,2.84-0.56,3.9-1.62l0,0c1.08-1.07,1.62-2.39,1.62-3.9c0-1.5-0.56-2.84-1.62-3.9
						c-2.13-2.13-5.69-2.12-7.8,0c-1.07,1.06-1.63,2.41-1.63,3.9c0,1.52,0.55,2.83,1.62,3.9
						C1417.11,69.73,1418.46,70.29,1419.95,70.29"/>
					<path class="st0" d="M1408.02,70.29c1.51,0,2.82-0.55,3.9-1.62c1.08-1.08,1.63-2.39,1.63-3.9c0-1.49-0.56-2.84-1.62-3.9
						c-2.16-2.16-5.65-2.16-7.81,0c-1.06,1.07-1.62,2.41-1.62,3.9c0,1.51,0.54,2.82,1.62,3.9
						C1405.19,69.74,1406.51,70.29,1408.02,70.29"/>
					<path class="st0" d="M1447.76,76.25c-3.2,0-6.01,0.61-8.36,1.81c-2.64,1.35-4.04,2.69-4.42,4.23l-0.12,0.5l0.18,0.48
						c0.38,0.99,1.47,2.66,4.58,2.66c0.74,0,1.43-0.11,2.04-0.31l0.67-0.23l0.3-0.63c0.98-2.06,2.61-3.02,5.12-3.02
						c2.13,0,2.84,1.01,3.23,1.9c0.74,1.71,1.12,4.6,1.12,8.61v10.64c0,1.84-0.56,2.98-3.36,2.98h-15.86v8.16h17.99
						c9.64,0,11.08-5.84,11.08-9.32V91.88c0-5.1-1.17-9.01-3.5-11.62C1456.08,77.6,1452.49,76.25,1447.76,76.25"/>
					<path class="st0" d="M1486.58,75.11c-5.49,0-10.06,2.04-13.59,6.07c-3.47,3.97-5.23,8.75-5.23,14.2c0,2.21,0.26,4.35,0.77,6.36
						c0.52,2.07,1.34,4.03,2.43,5.84c1.15,1.94,2.78,3.51,4.85,4.69c2.07,1.18,4.47,1.78,7.13,1.78c3.24,0,6.2-1.04,8.83-3.11v4.57
						c0,1.94-0.74,3.6-2.27,5.09c-2.05,1.99-4.22,2.49-7.3,2.06c-0.46-0.07-1.33-0.32-2.8-1.12c-1.1-0.59-1.9-1.36-2.46-2.35
						l-0.57-1.02l-1.15,0.19c-1.36,0.23-2.61,1.15-3.71,2.75c-1.04,1.52-1.54,2.79-1.54,3.9v0.95l0.82,0.48
						c3.38,1.96,7.92,2.95,13.52,2.95c4.63,0,8.71-1.71,12.11-5.08c3.39-3.37,5.12-8.05,5.12-13.9V91.73c0-4.66-1.21-8.6-3.61-11.72
						C1495.43,76.76,1491.62,75.11,1486.58,75.11 M1491.77,99.56c0,2.27-0.55,3.89-1.63,4.82c-1.17,1.01-2.73,1.51-4.77,1.51
						c-2.42,0-4.19-1.03-5.54-3.24c-1.48-2.41-2.23-5.67-2.23-9.7c0-3.32,0.78-6.31,2.31-8.87c1.38-2.32,3.44-3.45,6.29-3.45
						c1.79,0,3.06,0.64,3.99,2.01c1.06,1.56,1.58,3.25,1.58,5.15V99.56z"/>
					<path class="st0" d="M1695.51,60.98c-2.08,1.36-3.15,3.04-3.15,4.99v34.88c0,4.44-2.04,5.04-4.05,5.04h-5.11v0h-4.24
						c-1.58,0-3.01-0.41-4.38-1.24c-1.23-0.75-2.19-1.63-2.86-2.62l-0.06-3.09c-0.06-5.48-1.63-10.18-4.66-13.98
						c-3.12-3.91-7.48-5.89-12.95-5.89c-4.45,0-8.03,1.6-10.65,4.77c-2.55,3.08-3.84,7.37-3.84,12.75v5.09c0,2.4-0.54,3.2-0.77,3.43
						c-0.28,0.28-1.09,0.76-3.28,0.76h-1.77h-2.03c-1.78,0-3.49-0.32-5.14-0.96c-2.71-0.98-5.25-2.54-7.54-4.64
						c-2.37-2.18-4.38-4.41-5.97-6.63l-5.02-7c-1.72-2.37-3.69-4.33-5.86-5.86c-2.31-1.61-4.88-2.43-7.64-2.43
						c-4.07,0-7.41,1.44-9.93,4.28c-2.39,2.69-4.02,5.98-4.87,10.14c0,1.37,0.85,2.23,2.55,2.32c1.27-0.17,2.1-1.4,2.76-2.6l2-3.69
						c0.54-1.08,1.45-2.11,2.71-3.07c2.43-1.85,5.99-1.78,8.39,0.1c1.35,1.06,2.57,2.5,3.61,4.28l3.47,6.03
						c1.15,2.16,2.71,4.46,4.61,6.83c0.84,1.05,1.73,2.02,2.66,2.9h-37.78v0h-26.33h-3.68h-1.77c-1.66,0-3.14-0.37-4.52-1.13
						c-1.26-0.69-2.18-1.5-2.79-2.44V91.89c0-5.11-1.17-9.02-3.49-11.63c-2.36-2.66-5.96-4.01-10.69-4.01c-3.18,0-6,0.61-8.36,1.82
						c-2.63,1.34-4.03,2.68-4.42,4.22l-0.12,0.5l0.18,0.48c0.38,1,1.47,2.67,4.58,2.67c0.73,0,1.41-0.1,2.03-0.3l0.67-0.22l0.3-0.64
						c0.99-2.06,2.62-3.02,5.12-3.02c2.14,0,2.85,1.01,3.23,1.9c0.74,1.7,1.12,4.6,1.12,8.61v10.64c0,1.84-0.56,2.98-3.36,2.98
						h-15.86v8.16h17.99c5.75,0,8.58-2.09,9.93-4.5c1.03,0.93,2.2,1.78,3.49,2.53c2.19,1.27,4.46,1.92,6.74,1.96v0.01h0.21h3.48
						h32.67v0h48.59v0h7.35c1.81,0,3.55-0.39,5.19-1.14c0.94-0.44,1.77-0.98,2.48-1.62c0.99,1.12,2.16,2.05,3.49,2.81
						c1.92,1.09,3.52,1.74,4.91,1.98c1.28,0.22,2.52,0.32,3.7,0.32c3.4,0,6.44-1.04,9.04-3.09c1.73-1.36,3.06-2.93,4-4.68
						c1.09,1.12,2.35,2.14,3.76,3.06c1.81,1.19,3.67,1.93,5.56,2.22v0.14h1.81h2.26h8.38c3.48,0,6.16-1.26,7.99-3.77
						c1.69-2.33,2.55-5.41,2.55-9.13v-42h-1.65C1699.02,59.15,1697.4,59.75,1695.51,60.98 M1654.96,109.15
						c-1.49,0-2.83-0.44-4.1-1.34c-1.11-0.77-1.62-1.93-1.62-3.62V93.94c0-9.75,3.88-9.75,5.34-9.75c1.79,0,7.24,0,7.24,12.33
						C1661.82,109.15,1656.66,109.15,1654.96,109.15"/>
					<path class="st0" d="M1712.65,61.05c-2.12,1.36-3.19,3.04-3.19,5v48.22l1.85-0.23c2.5-0.31,4.52-1.56,5.98-3.71
						c1.38-2.02,2.08-4.75,2.08-8.11V59.23h-1.65C1716.22,59.23,1714.56,59.83,1712.65,61.05"/>
					<path class="st0" d="M1769.67,76.65l-1.21-0.34c-4.18-1.17-9.98-1.37-15.56,0.48c-2.71,0.91-5.32,2.2-7.73,3.85
						c-2.52,1.71-4.6,4.04-6.17,6.91c-1.6,2.9-2.42,6.14-2.42,9.65c0,4.82,1.51,8.87,4.48,12.04c3,3.19,7.16,4.81,12.38,4.81
						c5.16,0,9.2-1.49,12.01-4.42c2.8-2.92,4.23-6.43,4.23-10.45V76.65z M1759.83,101.99c0,1.63-0.46,2.89-1.41,3.85
						c-0.95,0.95-2.33,1.41-4.23,1.41c-2.3,0-4.1-0.92-5.51-2.83c-1.5-2.03-2.26-4.97-2.26-8.74c0-2.22,0.35-4.25,1.02-6.02
						c0.68-1.75,1.52-3.15,2.49-4.14c1.03-1.05,2.19-1.94,3.46-2.64c1.29-0.72,2.48-1.22,3.52-1.48c1.04-0.27,2.01-0.41,2.9-0.41
						h0.09L1759.83,101.99z"/>
					<path class="st0" d="M1749.86,70.29c1.51,0,2.82-0.55,3.9-1.62c1.08-1.08,1.63-2.39,1.63-3.9c0-1.49-0.56-2.84-1.62-3.9
						c-2.16-2.16-5.65-2.16-7.81,0c-1.06,1.07-1.62,2.41-1.62,3.9c0,1.51,0.54,2.82,1.62,3.9
						C1747.03,69.74,1748.35,70.29,1749.86,70.29"/>
					<path class="st0" d="M1761.79,70.29c1.51,0,2.82-0.55,3.9-1.62c1.08-1.08,1.62-2.39,1.62-3.9c0-1.5-0.56-2.84-1.62-3.9
						c-2.14-2.14-5.67-2.14-7.8,0c-1.07,1.06-1.62,2.41-1.62,3.9c0,1.52,0.54,2.83,1.62,3.9
						C1758.95,69.73,1760.3,70.29,1761.79,70.29"/>
					<path class="st0" d="M1785.92,76.71c-2.08,1.36-3.14,3.04-3.14,4.99v35.86c0,1.54-0.37,2.67-1.13,3.44
						c-0.74,0.76-1.77,1.14-3.15,1.14c-1.8,0-3.1-0.72-4.07-2.26l-0.54-0.87l-1.02,0.1c-1.29,0.12-2.66,0.69-4.07,1.71
						c-1.64,1.17-2.44,2.39-2.44,3.73v0.57l0.35,0.45c0.9,1.16,2.17,2.04,3.76,2.6c1.46,0.52,2.84,0.78,4.08,0.78
						c5.39,0,9.77-1.6,13.04-4.75c3.29-3.16,4.95-7.8,4.95-13.77V74.89h-1.65C1789.44,74.89,1787.81,75.48,1785.92,76.71"/>
					<path class="st0" d="M1836.38,119.51c-1.06,1.06-1.62,2.41-1.62,3.9c0,1.52,0.55,2.83,1.62,3.91c1.08,1.08,2.39,1.62,3.9,1.62
						c1.49,0,2.83-0.56,3.9-1.62v0c1.08-1.08,1.62-2.39,1.62-3.9c0-1.49-0.56-2.85-1.62-3.9
						C1842.03,117.37,1838.52,117.37,1836.38,119.51"/>
					<path class="st0" d="M1875.99,72.26c1.51,0,2.82-0.55,3.9-1.62c1.08-1.07,1.63-2.39,1.63-3.9c0-1.5-0.56-2.85-1.62-3.89
						c-2.16-2.17-5.66-2.16-7.8-0.01c-1.07,1.06-1.62,2.4-1.62,3.9c0,1.52,0.54,2.83,1.62,3.9
						C1873.16,71.71,1874.48,72.26,1875.99,72.26"/>
					<path class="st0" d="M1887.92,72.26c1.51,0,2.83-0.55,3.9-1.62l0,0c1.08-1.07,1.62-2.39,1.62-3.9c0-1.5-0.56-2.84-1.62-3.89
						c-2.14-2.15-5.69-2.14-7.8-0.01c-1.07,1.05-1.63,2.4-1.63,3.9c0,1.52,0.55,2.83,1.62,3.9
						C1885.07,71.7,1886.42,72.26,1887.92,72.26"/>
					<path class="st0" d="M1980.21,60.98c-2.08,1.36-3.14,3.04-3.14,4.99v34.87c0,4.43-1.95,5.04-4.05,5.04h-5.11h-4.07h-1.38
						c-1.66,0-3.14-0.37-4.52-1.13c-1.21-0.67-2.1-1.43-2.71-2.33v-43.2h-1.65c-1.46,0-3.08,0.6-4.97,1.83
						c-2.09,1.36-3.15,3.03-3.15,4.98V99.1c0,1.15-0.03,2.1-0.1,2.84c-0.06,0.64-0.24,1.38-0.52,2.19c-0.21,0.59-0.51,1-0.96,1.28
						c-0.48,0.31-1.16,0.47-2,0.47h-1.54h-6.34h-26.33v0h-5.45c-1.66,0-3.14-0.37-4.52-1.12c-1.21-0.67-2.1-1.43-2.72-2.33V77.16
						h-1.65c-1.46,0-3.08,0.6-4.97,1.83c-2.59,1.69-3.14,3.65-3.14,4.99V99.1c0,1.15-0.03,2.09-0.11,2.84
						c-0.07,0.66-0.23,1.38-0.51,2.19c-0.22,0.6-0.52,1.01-0.97,1.29c-0.48,0.31-1.16,0.46-2.01,0.46h-5.88
						c-1.75,0-3.45-0.32-5.1-0.97c-2.71-0.98-5.25-2.54-7.54-4.64c-2.36-2.16-4.36-4.39-5.97-6.62l-5.02-7
						c-1.72-2.36-3.68-4.32-5.86-5.86c-2.31-1.6-4.88-2.42-7.64-2.42c-4.07,0-7.41,1.44-9.93,4.28c-2.39,2.69-4.01,5.98-4.86,10.14
						c0,1.37,0.95,2.33,2.5,2.33h0.02c1.29-0.15,2.12-1.4,2.78-2.6l2.01-3.7c0.53-1.07,1.45-2.1,2.71-3.06
						c2.44-1.85,6-1.78,8.39,0.09c1.35,1.06,2.57,2.5,3.61,4.28l3.47,6.03c1.15,2.16,2.7,4.46,4.62,6.83
						c0.84,1.05,1.73,2.02,2.66,2.9h-33.73h-9.03c-2,0-4.04-0.6-4.04-5.04V59.23h-1.65c-1.43,0-3.07,0.58-5.01,1.77
						c-2.69,1.65-3.25,3.62-3.25,4.98v35.18c0,3.74,0.86,6.81,2.55,9.15c1.82,2.49,4.51,3.76,7.99,3.76h12.44v0h50.87h8.87
						c5.81,0,8.8-2.49,10.32-5.29c1.07,1.09,2.32,2.08,3.72,2.98c2.36,1.49,4.82,2.25,7.33,2.29v0.02h30.01h6.34h2.52
						c5.81,0,8.8-2.49,10.33-5.29c1.07,1.09,2.31,2.08,3.72,2.98c2.23,1.42,4.56,2.16,6.94,2.26v0.04h0.57c0.01,0,0.01,0,0.02,0
						h3.48v0h8.37c3.48,0,6.16-1.26,7.99-3.76c1.69-2.33,2.55-5.41,2.55-9.14v-42h-1.65C1983.72,59.15,1982.09,59.75,1980.21,60.98"
						/>
					<path class="st0" d="M2101.09,119.52c-1.06,1.06-1.62,2.41-1.62,3.9c0,1.49,0.56,2.84,1.62,3.9c1.06,1.06,2.41,1.62,3.9,1.62
						c1.49,0,2.84-0.56,3.9-1.62v0c1.08-1.08,1.62-2.39,1.62-3.9c0-1.49-0.56-2.84-1.62-3.9
						C2106.77,117.39,2103.22,117.39,2101.09,119.52"/>
					<path class="st0" d="M2238.49,70.21c1.49,0,2.84-0.56,3.9-1.62c1.07-1.06,1.62-2.41,1.62-3.9c0-1.52-0.54-2.83-1.62-3.9
						c-2.12-2.13-5.67-2.13-7.81,0c-1.08,1.07-1.62,2.39-1.62,3.9c0,1.49,0.56,2.85,1.62,3.9
						C2235.66,69.65,2237.01,70.21,2238.49,70.21"/>
					<path class="st0" d="M2245.99,76.71c-2.09,1.36-3.15,3.04-3.15,4.99v19.15c0,4.44-2.04,5.04-4.05,5.04h-2.83v0h-30.39h-5.96
						h-24.43h-5.96h-28.76c-1.76,0-3.46-0.32-5.11-0.97c-2.71-0.98-5.25-2.54-7.54-4.64c-2.35-2.16-4.36-4.39-5.96-6.62l-5.02-7
						c-1.72-2.36-3.68-4.33-5.86-5.86c-2.31-1.6-4.88-2.42-7.64-2.42c-4.07,0-7.42,1.44-9.94,4.28c-2.39,2.69-4.01,5.98-4.86,10.14
						c0,1.37,0.94,2.33,2.5,2.33h0.03c1.28-0.16,2.12-1.4,2.78-2.6l2-3.69c0.54-1.08,1.45-2.11,2.71-3.07
						c2.45-1.86,6.01-1.78,8.39,0.09c1.35,1.06,2.57,2.5,3.61,4.28l3.47,6.03c1.16,2.17,2.72,4.47,4.62,6.83
						c0.84,1.05,1.73,2.02,2.67,2.9h-31.45v0h-32.67h-3.68h-1.77c-1.66,0-3.14-0.37-4.53-1.13c-1.21-0.67-2.1-1.43-2.71-2.33V60.88
						l-0.07-1.65h-1.65c-1.46,0-3.08,0.6-4.94,1.83c-2.05,1.36-3.1,3.03-3.1,4.98v40.5c0,9.03-4.23,13.24-13.32,13.24
						c-3.03,0-5.54-0.85-7.66-2.59c-2.02-1.66-3-4.03-3-7.23c0-2.47,0.53-4.79,1.58-6.91c1.16-2.34,2.61-2.61,3.61-2.61h1.05
						l0.45-0.96c0.41-0.89,0.61-1.96,0.61-3.28c0-2.8-1.43-3.55-2.28-3.74l-0.31-0.07l-0.31,0.05c-3.12,0.49-5.81,2.86-8.01,7.05
						c-2.07,3.95-3.12,7.88-3.12,11.67c0,5.7,1.56,10.14,4.63,13.18c3.07,3.04,7.23,4.59,12.37,4.59c5.75,0,10.89-2.29,15.28-6.81
						c3.53-3.64,5.94-7.78,7.2-12.35c0.99,0.84,2.07,1.6,3.25,2.29c2.18,1.27,4.45,1.93,6.74,1.96v0.01h0.21h3.48h32.67v0h48.97v0
						h30.39h5.96h24.43h5.96h30.39v0h6.1c3.48,0,6.16-1.26,7.98-3.76c1.69-2.33,2.55-5.41,2.55-9.14V74.88h-1.65
						C2249.51,74.88,2247.89,75.48,2245.99,76.71"/>
					<path class="st0" d="M2269.86,102.22V59.23h-1.65c-1.5,0-3.16,0.59-5.07,1.82c-2.11,1.36-3.18,3.04-3.18,5v48.22l1.85-0.23
						c2.5-0.31,4.51-1.56,5.98-3.71C2269.16,108.31,2269.86,105.58,2269.86,102.22"/>
					<path class="st0" d="M2393.87,70.29c1.49,0,2.85-0.56,3.9-1.62c1.08-1.08,1.63-2.39,1.63-3.9c0-1.49-0.56-2.84-1.62-3.9
						c-2.12-2.12-5.68-2.13-7.81,0c-1.07,1.06-1.62,2.41-1.62,3.9c0,1.51,0.54,2.82,1.62,3.9
						C2391.04,69.73,2392.39,70.29,2393.87,70.29"/>
					<path class="st0" d="M2405.81,70.29c1.51,0,2.82-0.55,3.9-1.62h0c1.08-1.08,1.62-2.39,1.62-3.9c0-1.5-0.56-2.84-1.62-3.9
						c-2.15-2.14-5.68-2.13-7.8,0c-1.07,1.06-1.63,2.41-1.63,3.91c0,1.52,0.54,2.83,1.62,3.9
						C2402.96,69.73,2404.31,70.29,2405.81,70.29"/>
					<path class="st0" d="M2408.89,76.71c-2.09,1.36-3.15,3.04-3.15,4.99v19.15c0,4.42-1.95,5.03-4.05,5.03h-2.83h-6.34h-24.05
						h-5.96h-24.43h-5.96h-26.7h-3.69h-1.77c-1.66,0-3.14-0.37-4.52-1.13c-1.21-0.66-2.1-1.43-2.71-2.33V77.16h-1.65
						c-1.46,0-3.08,0.6-4.97,1.83c-2.08,1.36-3.14,3.04-3.14,4.99v33.59c0,1.53-0.37,2.64-1.12,3.39c-0.75,0.76-1.8,1.14-3.16,1.19
						c-1.81,0-3.11-0.72-4.07-2.26l-0.54-0.87l-1.01,0.1c-1.3,0.13-2.67,0.7-4.07,1.71c-1.64,1.17-2.44,2.4-2.44,3.73
						c0,0.75,0.28,1.41,0.69,1.82c1.46,1.73,3.91,2.57,7.5,2.57c5.38,0,9.76-1.6,13.04-4.75c3.25-3.15,4.92-7.73,4.95-13.62
						c0.77,0.59,1.6,1.13,2.47,1.63c2.1,1.19,4.3,1.81,6.54,1.84v0.01h0.21h3.48h26.7h5.96h24.43h5.96h24.05h6.34h6.1
						c3.48,0,6.17-1.27,7.99-3.76c1.69-2.34,2.55-5.41,2.55-9.14V74.88h-1.65C2412.41,74.88,2410.78,75.48,2408.89,76.71"/>
					<path class="st0" d="M2574.92,119.51c-1.07,1.06-1.63,2.42-1.63,3.9c0,1.49,0.56,2.84,1.63,3.9c1.06,1.06,2.41,1.62,3.9,1.62
						c1.51,0,2.82-0.54,3.9-1.62l0,0c1.06-1.07,1.62-2.41,1.62-3.9c0-1.49-0.57-2.84-1.63-3.9
						C2580.57,117.37,2577.05,117.38,2574.92,119.51"/>
					<path class="st0" d="M2587.48,74.88c-1.45,0-3.08,0.6-4.97,1.83c-2.08,1.36-3.14,3.04-3.14,4.99v19.15
						c0,4.44-2.04,5.04-4.05,5.04h-2.83h-32.67h-3.68h-1.77c-1.66,0-3.14-0.37-4.52-1.13c-1.21-0.67-2.1-1.43-2.72-2.33v-43.2h-1.65
						c-1.46,0-3.08,0.6-4.97,1.83c-2.08,1.35-3.14,3.04-3.14,4.98V99.1c0,1.15-0.03,2.1-0.11,2.84c-0.06,0.64-0.24,1.38-0.52,2.19
						c-0.21,0.58-0.52,1-0.96,1.29c-0.49,0.31-1.16,0.46-2.01,0.46h-1.54h-6.34h-26.33h-3.69h-7.18v-13.7
						c0-4.67-1.22-8.58-3.62-11.59c-2.5-3.14-6.31-4.74-11.32-4.74c-5.43,0-9.86,2.22-13.17,6.58c-3.2,4.22-4.82,9.18-4.82,14.75
						c0,4.6,1.45,8.58,4.32,11.84c2.92,3.32,7.06,5.01,12.3,5.01h6.55v1.46c0,1.93-0.74,3.6-2.27,5.09
						c-2.06,1.99-4.2,2.51-7.31,2.06c-0.47-0.07-1.33-0.32-2.8-1.12c-1.1-0.59-1.9-1.36-2.46-2.35l-0.57-1.02l-1.15,0.19
						c-1.36,0.23-2.61,1.15-3.71,2.75c-1.04,1.51-1.55,2.79-1.55,3.9v0.95l0.82,0.48c3.38,1.96,7.93,2.95,13.52,2.95
						c4.36,0,8.23-1.51,11.52-4.5c2.97-2.69,4.8-6.33,5.45-10.85h7.43h3.69h26.33h6.34h2.52c5.81,0,8.8-2.49,10.33-5.29
						c1.07,1.09,2.31,2.08,3.72,2.98c2.36,1.49,4.82,2.25,7.33,2.29v0.01h0.21h3.48h32.67v0h6.1c3.48,0,6.17-1.26,7.98-3.76
						c1.69-2.33,2.56-5.41,2.56-9.14V74.88H2587.48z M2458.94,105.89h-5.34c-2.86,0-4.83-0.81-6.03-2.47
						c-1.31-1.81-1.97-4.71-1.97-8.64c0-1.6,0.15-3.2,0.43-4.75c0.28-1.52,0.73-3.03,1.35-4.49c0.54-1.29,1.32-2.29,2.37-3.06
						c1.01-0.73,2.19-1.09,3.62-1.09c1.81,0,3.09,0.6,4.02,1.9c1.04,1.45,1.55,3.07,1.55,4.96V105.89z"/>
				</g>
				<g>
					<path class="st0" d="M1426.42,220.5v-0.19c7.01-2.59,10.76-8.06,10.76-14.02c0-5.47-2.69-9.7-6.73-12.1
						c-4.41-3.07-9.79-4.13-18.52-4.13c-6.62,0-13.44,0.57-17.19,1.34v63.65c2.98,0.38,7.97,0.86,14.5,0.86
						c11.81,0,19.39-2.01,24-6.05c3.75-3.07,6.24-7.58,6.24-13.34C1439.48,227.6,1433.24,222.23,1426.42,220.5 M1406.46,199.28
						c1.25-0.29,3.26-0.48,6.72-0.48c7.49,0,12.1,2.79,12.1,8.83c0,5.48-4.61,9.32-12.77,9.32h-6.04V199.28z M1412.69,247
						c-2.69,0-4.7-0.1-6.24-0.29v-21.12h5.85c8.16,0,14.69,3.07,14.69,10.56C1427,244.11,1420.28,247,1412.69,247"/>
					<rect x="1449.54" y="187.1" class="st0" width="11.9" height="68.16"/>
					<path class="st0" d="M1516.05,208.5h-11.81v28.22c0,1.34-0.28,2.59-0.67,3.64c-1.25,2.98-4.32,6.34-9.03,6.34
						c-6.24,0-8.73-4.99-8.73-12.76V208.5h-11.81v27.45c0,15.26,7.77,20.36,16.32,20.36c8.35,0,12.96-4.81,14.98-8.17h0.19
						l0.58,7.11h10.37c-0.19-3.84-0.39-8.45-0.39-14.02V208.5z"/>
					<path class="st0" d="M1548.68,207.44c-14.98,0-22.85,12.19-22.85,25.16c0,14.3,8.93,23.61,24.09,23.61
						c6.73,0,12.29-1.25,16.32-2.88l-1.73-8.16c-3.55,1.34-7.49,2.11-12.96,2.11c-7.49,0-14.11-3.65-14.4-12.09h31.29
						c0.2-1.05,0.38-2.78,0.38-4.99C1568.83,219.92,1563.84,207.44,1548.68,207.44 M1537.15,226.93c0.48-4.8,3.55-11.42,10.85-11.42
						c7.87,0,9.79,7.1,9.7,11.42H1537.15z"/>
					<polygon class="st0" points="1588.78,200.43 1607.21,200.43 1607.21,255.25 1619.02,255.25 1619.02,200.43 1637.64,200.43 
						1637.64,190.55 1588.78,190.55 					"/>
					<path class="st0" d="M1650.59,217.43h-0.39l-0.38-8.93h-10.27c0.29,4.22,0.38,8.74,0.38,15.07v31.68h11.81v-24.19
						c0-1.35,0.19-2.59,0.39-3.65c1.05-5.28,4.89-8.93,10.55-8.93c1.45,0,2.5,0.2,3.46,0.38v-11.13c-0.96-0.19-1.64-0.29-2.78-0.29
						C1658.36,207.44,1652.89,210.81,1650.59,217.43"/>
					<rect x="1674.09" y="208.5" class="st0" width="11.91" height="46.75"/>
					<path class="st0" d="M1680.05,189.01c-3.94,0-6.63,2.78-6.63,6.43c0,3.55,2.6,6.34,6.53,6.34c4.13,0,6.73-2.78,6.73-6.34
						C1686.57,191.8,1684.07,189.01,1680.05,189.01"/>
					<path class="st0" d="M1734.95,227.13c0-10.18-4.32-19.68-19.29-19.68c-7.39,0-13.45,2.01-16.9,4.13l2.3,7.68
						c3.17-2.01,7.97-3.46,12.57-3.46c8.26,0,9.51,5.09,9.51,8.17v0.76c-17.28-0.09-27.74,5.86-27.74,17.67
						c0,7.1,5.28,13.92,14.69,13.92c6.04,0,10.94-2.59,13.82-6.24h0.28l0.77,5.19h10.66c-0.48-2.88-0.67-7.01-0.67-11.23V227.13z
						 M1723.43,238.83c0,0.77-0.1,1.73-0.39,2.6c-1.05,3.36-4.51,6.43-9.22,6.43c-3.74,0-6.72-2.12-6.72-6.72
						c0-7.11,7.97-8.93,16.32-8.74V238.83z"/>
					<path class="st0" d="M1773.14,207.44c-7.77,0-12.87,4.41-14.88,8.07h-0.29l-0.58-7.01h-10.36c0.28,4.03,0.38,8.54,0.38,13.92
						v32.83h11.91V227.8c0-1.34,0.1-2.79,0.48-3.84c1.26-3.56,4.51-6.92,9.22-6.92c6.44,0,8.93,5.09,8.93,11.8v26.41h11.81v-27.75
						C1789.75,212.72,1781.3,207.44,1773.14,207.44"/>
					<path class="st0" d="M1834.27,214.74h-0.2c-2.21-3.84-6.43-7.3-13.53-7.3c-11.24,0-21.22,9.31-21.22,24.68
						c0,13.25,8.26,22.84,19.87,22.84c6.14,0,10.94-2.78,13.63-6.91h0.2v4.03c0,10.08-5.76,14.11-13.44,14.11
						c-5.67,0-10.66-1.83-13.63-3.55l-2.59,8.93c4.03,2.5,10.37,3.75,16.32,3.75c6.44,0,13.15-1.34,18.05-5.67
						c4.89-4.42,6.91-11.43,6.91-21.22v-26.5c0-6.43,0.19-10.27,0.38-13.44h-10.27L1834.27,214.74z M1832.83,234.8
						c0,1.34-0.2,2.98-0.48,4.23c-1.34,4.23-5.18,7.11-9.6,7.11c-7.38,0-11.42-6.44-11.42-14.4c0-9.51,4.9-15.27,11.52-15.27
						c5,0,8.35,3.26,9.6,7.59c0.28,0.96,0.38,2.11,0.38,3.16V234.8z"/>
					<rect x="1857.29" y="187.1" class="st0" width="11.9" height="68.16"/>
					<path class="st0" d="M1901.82,207.44c-14.98,0-22.85,12.19-22.85,25.16c0,14.3,8.93,23.61,24.1,23.61
						c6.72,0,12.29-1.25,16.32-2.88l-1.73-8.16c-3.55,1.34-7.49,2.11-12.96,2.11c-7.49,0-14.11-3.65-14.4-12.09h31.29
						c0.2-1.05,0.38-2.78,0.38-4.99C1921.98,219.92,1916.99,207.44,1901.82,207.44 M1890.3,226.93c0.49-4.8,3.55-11.42,10.85-11.42
						c7.87,0,9.79,7.1,9.7,11.42H1890.3z"/>
					<polygon class="st0" points="1941.92,200.43 1960.36,200.43 1960.36,255.25 1972.17,255.25 1972.17,200.43 1990.79,200.43 
						1990.79,190.55 1941.92,190.55 					"/>
					<path class="st0" d="M2003.74,217.43h-0.39l-0.38-8.93h-10.27c0.29,4.22,0.38,8.74,0.38,15.07v31.68h11.81v-24.19
						c0-1.35,0.19-2.59,0.38-3.65c1.05-5.28,4.9-8.93,10.56-8.93c1.44,0,2.5,0.2,3.46,0.38v-11.13c-0.96-0.19-1.63-0.29-2.78-0.29
						C2011.51,207.44,2006.04,210.81,2003.74,217.43"/>
					<path class="st0" d="M2062.66,227.13c0-10.18-4.31-19.68-19.29-19.68c-7.39,0-13.45,2.01-16.9,4.13l2.3,7.68
						c3.17-2.01,7.97-3.46,12.57-3.46c8.26,0,9.51,5.09,9.51,8.17v0.76c-17.28-0.09-27.75,5.86-27.75,17.67
						c0,7.1,5.28,13.92,14.69,13.92c6.04,0,10.94-2.59,13.82-6.24h0.28l0.77,5.19h10.66c-0.48-2.88-0.68-7.01-0.68-11.23V227.13z
						 M2051.15,238.83c0,0.77-0.1,1.73-0.39,2.6c-1.05,3.36-4.51,6.43-9.22,6.43c-3.74,0-6.72-2.12-6.72-6.72
						c0-7.11,7.97-8.93,16.32-8.74V238.83z"/>
					<path class="st0" d="M2118.23,187.09h-11.81v26.49h-0.19c-2.11-3.45-6.72-6.14-13.15-6.14c-11.23,0-21.02,9.31-20.93,24.96
						c0,14.4,8.83,23.91,19.97,23.91c6.81,0,12.48-3.27,15.27-8.45h0.19l0.48,7.39h10.56c-0.19-3.17-0.38-8.35-0.38-13.15V187.09z
						 M2106.43,234.99c0,1.25-0.1,2.4-0.39,3.46c-1.15,5.08-5.37,8.35-10.17,8.35c-7.49,0-11.71-6.24-11.71-14.79
						c0-8.73,4.22-15.46,11.8-15.46c5.37,0,9.12,3.75,10.18,8.36c0.19,0.96,0.28,2.11,0.28,3.07V234.99z"/>
					<path class="st0" d="M2136.84,189.01c-3.94,0-6.63,2.78-6.63,6.43c0,3.55,2.59,6.34,6.53,6.34c4.12,0,6.72-2.78,6.72-6.34
						C2143.37,191.8,2140.87,189.01,2136.84,189.01"/>
					<rect x="2130.89" y="208.5" class="st0" width="11.9" height="46.75"/>
					<path class="st0" d="M2181.18,207.44c-7.77,0-12.87,4.41-14.88,8.07h-0.29l-0.58-7.01h-10.37c0.29,4.03,0.38,8.54,0.38,13.92
						v32.83h11.91V227.8c0-1.34,0.09-2.79,0.48-3.84c1.25-3.56,4.51-6.92,9.22-6.92c6.43,0,8.93,5.09,8.93,11.8v26.41h11.8v-27.75
						C2197.78,212.72,2189.34,207.44,2181.18,207.44"/>
					<path class="st0" d="M2242.31,214.74h-0.19c-2.21-3.84-6.44-7.3-13.53-7.3c-11.24,0-21.22,9.31-21.22,24.68
						c0,13.25,8.25,22.84,19.87,22.84c6.15,0,10.95-2.78,13.63-6.91h0.19v4.03c0,10.08-5.76,14.11-13.44,14.11
						c-5.66,0-10.65-1.83-13.63-3.55l-2.59,8.93c4.03,2.5,10.37,3.75,16.32,3.75c6.43,0,13.15-1.34,18.05-5.67
						c4.9-4.42,6.91-11.43,6.91-21.22v-26.5c0-6.43,0.19-10.27,0.38-13.44h-10.27L2242.31,214.74z M2240.87,234.8
						c0,1.34-0.19,2.98-0.48,4.23c-1.34,4.23-5.18,7.11-9.6,7.11c-7.39,0-11.42-6.44-11.42-14.4c0-9.51,4.9-15.27,11.52-15.27
						c4.99,0,8.35,3.26,9.59,7.59c0.29,0.96,0.39,2.11,0.39,3.16V234.8z"/>
					<polygon class="st0" points="2297.49,190.55 2285.67,190.55 2285.67,255.25 2324.07,255.25 2324.07,245.36 2297.49,245.36 
											"/>
					<path class="st0" d="M2338.46,189.01c-3.94,0-6.62,2.78-6.62,6.43c0,3.55,2.59,6.34,6.52,6.34c4.13,0,6.73-2.78,6.73-6.34
						C2344.99,191.8,2342.49,189.01,2338.46,189.01"/>
					<rect x="2332.51" y="208.5" class="st0" width="11.91" height="46.75"/>
					<path class="st0" d="M2410.35,207.44c-3.84,0-6.82,0.96-9.41,2.78c-2.21,1.34-4.13,3.26-5.76,5.85h-0.19
						c-2.01-5.18-6.82-8.64-12.96-8.64c-7.87,0-12.1,4.32-14.4,7.97h-0.28l-0.48-6.92h-10.18c0.28,4.03,0.38,8.54,0.38,13.92v32.83
						h11.52V227.6c0-1.34,0.2-2.69,0.68-3.84c1.05-3.26,4.03-6.72,8.45-6.72c5.47,0,8.06,4.61,8.06,11.13v27.08h11.52v-28.04
						c0-1.34,0.29-2.78,0.57-3.93c1.25-3.36,4.22-6.24,8.26-6.24c5.66,0,8.35,4.61,8.35,12.38v25.83H2426V227.7
						C2426,212.72,2418.13,207.44,2410.35,207.44"/>
					<path class="st0" d="M2444.4,189.01c-3.94,0-6.62,2.78-6.62,6.43c0,3.55,2.59,6.34,6.52,6.34c4.13,0,6.73-2.78,6.73-6.34
						C2450.93,191.8,2448.43,189.01,2444.4,189.01"/>
					<rect x="2438.45" y="208.5" class="st0" width="11.91" height="46.75"/>
					<path class="st0" d="M2476.55,195.16l-11.52,2.79v10.56h-6.72v8.82h6.72v21.99c0,6.14,1.15,10.36,3.65,13.05
						c2.21,2.4,5.85,3.84,10.17,3.84c3.74,0,6.81-0.49,8.54-1.16l-0.2-9.02c-1.05,0.29-2.59,0.58-4.6,0.58
						c-4.51,0-6.05-2.98-6.05-8.64v-20.64h11.24v-8.82h-11.24V195.16z"/>
					<path class="st0" d="M2516,207.44c-14.98,0-22.85,12.19-22.85,25.16c0,14.3,8.93,23.61,24.09,23.61
						c6.73,0,12.29-1.25,16.32-2.88l-1.73-8.16c-3.55,1.34-7.49,2.11-12.96,2.11c-7.49,0-14.11-3.65-14.4-12.09h31.29
						c0.2-1.05,0.39-2.78,0.39-4.99C2536.16,219.92,2531.17,207.44,2516,207.44 M2504.48,226.93c0.48-4.8,3.55-11.42,10.85-11.42
						c7.87,0,9.79,7.1,9.7,11.42H2504.48z"/>
					<path class="st0" d="M2588.75,242.1v-55.01h-11.81v26.49h-0.2c-2.11-3.45-6.72-6.14-13.15-6.14
						c-11.23,0-21.02,9.31-20.93,24.96c0,14.4,8.83,23.91,19.97,23.91c6.82,0,12.48-3.27,15.26-8.45h0.19l0.49,7.39h10.56
						C2588.93,252.08,2588.75,246.9,2588.75,242.1 M2576.94,234.99c0,1.25-0.1,2.4-0.39,3.46c-1.15,5.08-5.37,8.35-10.17,8.35
						c-7.49,0-11.71-6.24-11.71-14.79c0-8.73,4.22-15.46,11.8-15.46c5.37,0,9.12,3.75,10.18,8.36c0.19,0.96,0.29,2.11,0.29,3.07
						V234.99z"/>
				</g>
				<g>
					<g>
						<path class="st0" d="M15.34,156.21c-1.05,0-2.16-0.06-3.34-0.18c-1.17-0.12-2.32-0.22-3.46-0.3l1.09-8.61
							c1.13,0.08,2.18,0.18,3.15,0.3c0.97,0.12,1.82,0.18,2.55,0.18c3.8,0,6.87-1.44,9.22-4.31c2.34-2.87,3.52-6.85,3.52-11.95
							v-62.6h9.46v62.6c0,4.93-0.95,9.28-2.85,13.04c-1.9,3.76-4.51,6.67-7.83,8.74C23.54,155.18,19.7,156.21,15.34,156.21z"/>
						<path class="st0" d="M57.8,129.4V42.41h9.34v86.99H57.8z M67.14,129.4v-8.61h14.8v8.61H67.14z M81.94,129.4v-8.61
							c0.48,0,0.89,0.1,1.21,0.3c0.32,0.2,0.56,0.49,0.73,0.85c0.16,0.36,0.28,0.81,0.36,1.33c0.08,0.53,0.12,1.11,0.12,1.76
							c0,0.65-0.04,1.25-0.12,1.82c-0.08,0.57-0.2,1.03-0.36,1.4c-0.16,0.36-0.41,0.65-0.73,0.85
							C82.83,129.3,82.42,129.4,81.94,129.4z"/>
						<path class="st0" d="M81.94,129.4c-0.49,0-0.89-0.1-1.21-0.3c-0.32-0.2-0.56-0.49-0.73-0.85c-0.16-0.36-0.28-0.83-0.36-1.4
							c-0.08-0.56-0.12-1.17-0.12-1.82c0-0.89,0.06-1.64,0.18-2.25c0.12-0.61,0.36-1.09,0.73-1.46c0.36-0.36,0.87-0.55,1.52-0.55
							V129.4z M81.94,129.4v-8.61h30.33v8.61H81.94z M112.27,129.4v-8.61c0.49,0,0.89,0.1,1.21,0.3c0.32,0.2,0.56,0.49,0.73,0.85
							c0.16,0.36,0.28,0.81,0.36,1.33c0.08,0.53,0.12,1.11,0.12,1.76c0,0.65-0.04,1.25-0.12,1.82c-0.08,0.57-0.2,1.03-0.36,1.4
							c-0.16,0.36-0.41,0.65-0.73,0.85C113.16,129.3,112.75,129.4,112.27,129.4z"/>
						<path class="st0" d="M112.27,129.4c-0.49,0-0.89-0.1-1.21-0.3c-0.32-0.2-0.56-0.49-0.73-0.85c-0.16-0.36-0.28-0.83-0.36-1.4
							c-0.08-0.56-0.12-1.17-0.12-1.82c0-0.89,0.06-1.64,0.18-2.25c0.12-0.61,0.36-1.09,0.73-1.46c0.36-0.36,0.87-0.55,1.52-0.55
							V129.4z M112.27,129.4v-8.61h30.33v8.61H112.27z M142.6,129.4v-8.61c0.49,0,0.89,0.1,1.21,0.3c0.32,0.2,0.56,0.49,0.73,0.85
							c0.16,0.36,0.28,0.81,0.36,1.33c0.08,0.53,0.12,1.11,0.12,1.76c0,0.65-0.04,1.25-0.12,1.82c-0.08,0.57-0.2,1.03-0.36,1.4
							c-0.16,0.36-0.41,0.65-0.73,0.85C143.49,129.3,143.08,129.4,142.6,129.4z"/>
						<path class="st0" d="M142.6,129.4c-0.49,0-0.89-0.1-1.21-0.3c-0.32-0.2-0.57-0.49-0.73-0.85c-0.16-0.36-0.28-0.83-0.36-1.4
							c-0.08-0.56-0.12-1.17-0.12-1.82c0-0.89,0.06-1.64,0.18-2.25c0.12-0.61,0.36-1.09,0.73-1.46c0.36-0.36,0.87-0.55,1.52-0.55
							V129.4z M142.6,129.4v-8.61h66.36l-7.04,4.97V99.68c0-5.66-0.65-10.11-1.94-13.35c-1.29-3.23-3.5-5.54-6.61-6.92
							c-3.12-1.37-7.34-2.06-12.68-2.06c-3.4,0-6.77,0.24-10.13,0.73c-3.36,0.49-5.97,1.13-7.83,1.94l5.7-5.82
							c-0.49,1.94-0.97,4.39-1.46,7.34c-0.49,2.95-0.89,6.13-1.21,9.52c-0.32,3.4-0.49,6.79-0.49,10.19c0,3.48,0.16,6.88,0.49,10.19
							c0.32,3.32,0.69,6.19,1.09,8.61c0.4,2.43,0.73,4.12,0.97,5.1l-8.98,2.55c-0.32-1.05-0.71-2.87-1.15-5.46
							c-0.45-2.59-0.85-5.7-1.21-9.34c-0.36-3.64-0.55-7.52-0.55-11.65c0-3.96,0.18-7.83,0.55-11.59c0.36-3.76,0.81-7.18,1.33-10.25
							c0.53-3.07,1.03-5.54,1.52-7.4c1.78-0.73,4.61-1.46,8.49-2.18c3.88-0.73,8.17-1.09,12.86-1.09c6.79,0,12.48,1.01,17.05,3.03
							c4.57,2.02,7.99,5.28,10.25,9.77c2.26,4.49,3.4,10.54,3.4,18.14v29.72H142.6z M211.39,129.4v-8.61h13.1v8.61H211.39z
							 M224.49,129.4v-8.61c0.49,0,0.89,0.1,1.21,0.3c0.32,0.2,0.56,0.49,0.73,0.85c0.16,0.36,0.28,0.81,0.36,1.33
							c0.08,0.53,0.12,1.11,0.12,1.76c0,0.65-0.04,1.25-0.12,1.82c-0.08,0.57-0.2,1.03-0.36,1.4c-0.16,0.36-0.41,0.65-0.73,0.85
							C225.38,129.3,224.98,129.4,224.49,129.4z"/>
						<path class="st0" d="M224.49,129.4c-0.49,0-0.89-0.1-1.21-0.3c-0.32-0.2-0.57-0.49-0.73-0.85c-0.16-0.36-0.28-0.83-0.36-1.4
							c-0.08-0.56-0.12-1.17-0.12-1.82c0-0.89,0.06-1.64,0.18-2.25c0.12-0.61,0.36-1.09,0.73-1.46c0.36-0.36,0.87-0.55,1.52-0.55
							V129.4z M224.49,129.4v-8.61h61.39v8.61H224.49z M250.82,129.04c-4.37-3.72-7.7-7.99-10.01-12.8
							c-2.3-4.81-3.46-9.93-3.46-15.35c0-4.61,0.81-8.88,2.43-12.8c1.62-3.92,3.84-7.34,6.67-10.25c2.83-2.91,6.19-5.16,10.07-6.73
							c3.88-1.58,8.05-2.37,12.5-2.37c2.34,0,4.87,0.24,7.58,0.73c2.71,0.49,5.32,1.17,7.83,2.06l-3.28,8.13
							c-2.02-0.73-4.06-1.29-6.13-1.7c-2.06-0.4-4.02-0.61-5.88-0.61c-4.29,0-8.13,1.01-11.53,3.03c-3.4,2.02-6.05,4.79-7.95,8.31
							c-1.9,3.52-2.85,7.58-2.85,12.19c0,4.21,0.87,8.15,2.61,11.83c1.74,3.68,4.26,6.94,7.58,9.77L250.82,129.04z"/>
						<path class="st0" d="M301.17,129.4v-8.61h59.33l-5.34,5.46V42.41h9.46v86.99H301.17z M313.3,162.04v-6.43h23.9v6.43H313.3z
							 M319.61,162.04c-1.29-1.62-2.29-3.2-2.97-4.73c-0.69-1.54-1.03-3.15-1.03-4.85c0-2.35,0.59-4.45,1.76-6.31
							c1.17-1.86,2.73-3.32,4.67-4.37c1.94-1.05,4.04-1.58,6.31-1.58c1.29,0,2.59,0.18,3.88,0.55c1.29,0.36,2.43,0.87,3.4,1.52
							l-3.16,5.46c-0.65-0.41-1.27-0.67-1.88-0.79c-0.61-0.12-1.23-0.18-1.88-0.18c-1.86,0-3.34,0.53-4.43,1.58
							c-1.09,1.05-1.64,2.43-1.64,4.12c0,1.05,0.22,2.06,0.67,3.03c0.44,0.97,1.11,2.02,2,3.15L319.61,162.04z M320.58,120.79V59.64
							h9.34v61.15H320.58z"/>
						<path class="st0" d="M386.09,129.4V42.41h9.34v86.99H386.09z"/>
						<path class="st0" d="M435.35,156.21c-2.83,0-5.84-0.22-9.04-0.67c-3.2-0.45-6.69-1.07-10.49-1.88l1.46-7.64
							c4.29,0.56,7.86,0.97,10.74,1.21c2.87,0.24,5.32,0.36,7.34,0.36c6.71,0,11.61-1.27,14.68-3.82c3.07-2.55,4.61-6.25,4.61-11.1
							V74.2l4.85,3.15h-20.5c-4.69,0-8.31,0.57-10.86,1.7c-2.55,1.13-4.31,3.26-5.28,6.37c-0.97,3.12-1.46,7.67-1.46,13.65
							c0,5.99,0.48,10.54,1.46,13.65c0.97,3.11,2.73,5.24,5.28,6.37c2.55,1.13,6.17,1.7,10.86,1.7h15.65v8.61h-15.65
							c-7.04,0-12.52-1.07-16.44-3.21c-3.92-2.14-6.67-5.46-8.25-9.95c-1.58-4.49-2.37-10.21-2.37-17.17
							c0-6.96,0.79-12.68,2.37-17.17c1.58-4.49,4.33-7.8,8.25-9.95c3.92-2.14,9.4-3.22,16.44-3.22h25.11v63.82
							c0,5.01-1.15,9.3-3.46,12.86c-2.31,3.56-5.6,6.25-9.89,8.07C446.47,155.3,441.33,156.21,435.35,156.21z"/>
						<path class="st0" d="M500.98,156.21c-1.05,0-2.16-0.06-3.34-0.18c-1.17-0.12-2.32-0.22-3.46-0.3l1.09-8.61
							c1.13,0.08,2.18,0.18,3.15,0.3c0.97,0.12,1.82,0.18,2.55,0.18c3.8,0,6.87-1.44,9.22-4.31c2.34-2.87,3.52-6.85,3.52-11.95
							v-62.6h9.46v62.6c0,4.93-0.95,9.28-2.85,13.04c-1.9,3.76-4.51,6.67-7.83,8.74C509.19,155.18,505.35,156.21,500.98,156.21z
							 M520.75,129.4v-8.61h15.53v8.61H520.75z M536.28,129.4v-8.61c0.49,0,0.89,0.1,1.21,0.3c0.32,0.2,0.57,0.49,0.73,0.85
							c0.16,0.36,0.28,0.81,0.36,1.33c0.08,0.53,0.12,1.11,0.12,1.76c0,0.65-0.04,1.25-0.12,1.82c-0.08,0.57-0.2,1.03-0.36,1.4
							c-0.16,0.36-0.41,0.65-0.73,0.85C537.17,129.3,536.77,129.4,536.28,129.4z"/>
						<path class="st0" d="M536.28,129.4c-0.49,0-0.89-0.1-1.21-0.3c-0.32-0.2-0.57-0.49-0.73-0.85c-0.16-0.36-0.28-0.83-0.36-1.4
							c-0.08-0.56-0.12-1.17-0.12-1.82c0-0.89,0.06-1.64,0.18-2.25c0.12-0.61,0.36-1.09,0.73-1.46c0.36-0.36,0.87-0.55,1.52-0.55
							V129.4z M536.28,129.4v-8.61h17.47l-4.37,3.52V68.74h9.46v60.66H536.28z M541.13,151.24v-10.92h9.46v10.92H541.13z
							 M557.76,151.24v-10.92h9.46v10.92H557.76z"/>
						<path class="st0" d="M596.94,156.21c-2.83,0-5.84-0.22-9.04-0.67c-3.2-0.45-6.69-1.07-10.49-1.88l1.46-7.64
							c4.29,0.56,7.86,0.97,10.74,1.21c2.87,0.24,5.32,0.36,7.34,0.36c6.71,0,11.61-1.27,14.68-3.82c3.07-2.55,4.61-6.25,4.61-11.1
							V74.2l4.85,3.15h-20.5c-4.69,0-8.31,0.57-10.86,1.7c-2.55,1.13-4.31,3.26-5.28,6.37c-0.97,3.12-1.46,7.67-1.46,13.65
							c0,5.99,0.48,10.54,1.46,13.65c0.97,3.11,2.73,5.24,5.28,6.37c2.55,1.13,6.17,1.7,10.86,1.7h15.65v8.61h-15.65
							c-7.04,0-12.52-1.07-16.44-3.21c-3.92-2.14-6.67-5.46-8.25-9.95c-1.58-4.49-2.37-10.21-2.37-17.17
							c0-6.96,0.79-12.68,2.37-17.17c1.58-4.49,4.33-7.8,8.25-9.95c3.92-2.14,9.4-3.22,16.44-3.22h25.11v63.82
							c0,5.01-1.15,9.3-3.46,12.86c-2.31,3.56-5.6,6.25-9.89,8.07C608.06,155.3,602.93,156.21,596.94,156.21z M625.7,129.4v-8.61
							h13.1v8.61H625.7z M638.8,129.4v-8.61c0.49,0,0.89,0.1,1.21,0.3c0.32,0.2,0.57,0.49,0.73,0.85c0.16,0.36,0.28,0.81,0.36,1.33
							c0.08,0.53,0.12,1.11,0.12,1.76c0,0.65-0.04,1.25-0.12,1.82c-0.08,0.57-0.2,1.03-0.36,1.4c-0.16,0.36-0.41,0.65-0.73,0.85
							C639.69,129.3,639.28,129.4,638.8,129.4z"/>
						<path class="st0" d="M638.8,129.4c-0.49,0-0.89-0.1-1.21-0.3c-0.32-0.2-0.57-0.49-0.73-0.85c-0.16-0.36-0.28-0.83-0.36-1.4
							c-0.08-0.56-0.12-1.17-0.12-1.82c0-0.89,0.06-1.64,0.18-2.25c0.12-0.61,0.36-1.09,0.73-1.46c0.36-0.36,0.87-0.55,1.52-0.55
							V129.4z M638.8,129.4v-8.61h80.44l-8.74,7.89v-28.51c0-5.1-0.71-9.32-2.12-12.68c-1.42-3.35-3.52-5.88-6.31-7.58
							c-2.79-1.7-6.29-2.55-10.5-2.55c-3.56,0-6.85,0.59-9.89,1.76c-3.03,1.17-5.84,2.71-8.43,4.61c-2.59,1.9-5,4-7.22,6.31
							c-2.23,2.31-4.27,4.63-6.13,6.98c-1.86,2.35-3.56,4.49-5.1,6.43l-3.15-8.61c2.51-3.16,5.05-6.27,7.64-9.34
							c2.59-3.07,5.42-5.86,8.49-8.37c3.07-2.51,6.55-4.53,10.43-6.07c3.88-1.54,8.33-2.31,13.34-2.31c5.74,0,10.45,0.97,14.13,2.91
							c3.68,1.94,6.55,4.51,8.61,7.7c2.06,3.2,3.5,6.61,4.31,10.25c0.81,3.64,1.21,7.16,1.21,10.55v29.24H638.8z M646.8,120.79
							V42.41h9.46v78.37H646.8z M716.56,129.4v-8.61h13.1v8.61H716.56z M729.67,129.4v-8.61c0.49,0,0.89,0.1,1.21,0.3
							c0.32,0.2,0.56,0.49,0.73,0.85c0.16,0.36,0.28,0.81,0.36,1.33c0.08,0.53,0.12,1.11,0.12,1.76c0,0.65-0.04,1.25-0.12,1.82
							c-0.08,0.57-0.2,1.03-0.36,1.4c-0.16,0.36-0.41,0.65-0.73,0.85C730.56,129.3,730.15,129.4,729.67,129.4z"/>
						<path class="st0" d="M729.67,129.4c-0.49,0-0.89-0.1-1.21-0.3c-0.32-0.2-0.57-0.49-0.73-0.85c-0.16-0.36-0.28-0.83-0.36-1.4
							c-0.08-0.56-0.12-1.17-0.12-1.82c0-0.89,0.06-1.64,0.18-2.25c0.12-0.61,0.36-1.09,0.73-1.46c0.36-0.36,0.87-0.55,1.52-0.55
							V129.4z M729.67,129.4v-8.61h17.47l-4.37,3.52V68.74h9.46v60.66H729.67z M734.52,57.82V46.9h9.46v10.92H734.52z M751.14,57.82
							V46.9h9.46v10.92H751.14z M752.23,129.4v-8.61h13.1v8.61H752.23z M765.33,129.4v-8.61c0.48,0,0.89,0.1,1.21,0.3
							c0.32,0.2,0.56,0.49,0.73,0.85c0.16,0.36,0.28,0.81,0.36,1.33c0.08,0.53,0.12,1.11,0.12,1.76c0,0.65-0.04,1.25-0.12,1.82
							c-0.08,0.57-0.2,1.03-0.36,1.4c-0.16,0.36-0.41,0.65-0.73,0.85C766.22,129.3,765.82,129.4,765.33,129.4z"/>
						<path class="st0" d="M765.33,129.4c-0.49,0-0.89-0.1-1.21-0.3c-0.32-0.2-0.57-0.49-0.73-0.85c-0.16-0.36-0.28-0.83-0.36-1.4
							c-0.08-0.56-0.12-1.17-0.12-1.82c0-0.89,0.06-1.64,0.18-2.25c0.12-0.61,0.36-1.09,0.73-1.46c0.36-0.36,0.87-0.55,1.52-0.55
							V129.4z M765.33,129.4v-8.61h14.68v8.61H765.33z M780.01,129.4V42.41h9.46v86.99H780.01z"/>
						<path class="st0" d="M810.34,129.4V42.41h9.34v86.99H810.34z"/>
						<path class="st0" d="M862.87,129.4v-8.61h56.17v8.61H862.87z M878.28,127.7c-3.24-3.64-5.64-7.28-7.22-10.92
							s-2.37-7.52-2.37-11.65c0-4.04,0.73-7.76,2.18-11.16c1.46-3.4,3.48-6.33,6.07-8.8c2.59-2.47,5.6-4.39,9.04-5.76
							c3.44-1.37,7.14-2.06,11.1-2.06c2.99,0,5.88,0.41,8.67,1.21c2.79,0.81,5.32,1.94,7.58,3.4l-5.22,7.16
							c-1.7-1.13-3.42-1.94-5.16-2.43c-1.74-0.49-3.66-0.73-5.76-0.73c-3.72,0-7.02,0.83-9.89,2.49c-2.87,1.66-5.14,3.92-6.79,6.79
							c-1.66,2.87-2.49,6.17-2.49,9.89c0,2.99,0.59,5.84,1.76,8.55c1.17,2.71,3.01,5.48,5.52,8.31L878.28,127.7z"/>
						<path class="st0" d="M935.66,129.4V42.41h9.34v86.99H935.66z M945.01,129.4v-8.61h14.8v8.61H945.01z M959.81,129.4v-8.61
							c0.49,0,0.89,0.1,1.21,0.3c0.32,0.2,0.57,0.49,0.73,0.85c0.16,0.36,0.28,0.81,0.36,1.33c0.08,0.53,0.12,1.11,0.12,1.76
							c0,0.65-0.04,1.25-0.12,1.82c-0.08,0.57-0.2,1.03-0.36,1.4c-0.16,0.36-0.41,0.65-0.73,0.85
							C960.7,129.3,960.29,129.4,959.81,129.4z"/>
						<path class="st0" d="M959.81,129.4c-0.49,0-0.89-0.1-1.21-0.3c-0.32-0.2-0.57-0.49-0.73-0.85c-0.16-0.36-0.28-0.83-0.36-1.4
							c-0.08-0.56-0.12-1.17-0.12-1.82c0-0.89,0.06-1.64,0.18-2.25c0.12-0.61,0.36-1.09,0.73-1.46c0.36-0.36,0.87-0.55,1.52-0.55
							V129.4z M959.81,129.4v-8.61h30.33v8.61H959.81z M990.14,129.4v-8.61c0.49,0,0.89,0.1,1.21,0.3c0.32,0.2,0.56,0.49,0.73,0.85
							c0.16,0.36,0.28,0.81,0.36,1.33c0.08,0.53,0.12,1.11,0.12,1.76c0,0.65-0.04,1.25-0.12,1.82c-0.08,0.57-0.2,1.03-0.36,1.4
							c-0.16,0.36-0.41,0.65-0.73,0.85C991.03,129.3,990.62,129.4,990.14,129.4z"/>
						<path class="st0" d="M990.14,129.4c-0.49,0-0.89-0.1-1.21-0.3c-0.32-0.2-0.57-0.49-0.73-0.85c-0.16-0.36-0.28-0.83-0.36-1.4
							c-0.08-0.56-0.12-1.17-0.12-1.82c0-0.89,0.06-1.64,0.18-2.25c0.12-0.61,0.36-1.09,0.73-1.46c0.36-0.36,0.87-0.55,1.52-0.55
							V129.4z M990.14,129.4v-8.61h30.33v8.61H990.14z M1020.47,129.4v-8.61c0.49,0,0.89,0.1,1.21,0.3c0.32,0.2,0.56,0.49,0.73,0.85
							c0.16,0.36,0.28,0.81,0.36,1.33c0.08,0.53,0.12,1.11,0.12,1.76c0,0.65-0.04,1.25-0.12,1.82c-0.08,0.57-0.2,1.03-0.36,1.4
							c-0.16,0.36-0.41,0.65-0.73,0.85C1021.36,129.3,1020.95,129.4,1020.47,129.4z"/>
						<path class="st0" d="M1020.47,129.4c-0.49,0-0.89-0.1-1.21-0.3c-0.32-0.2-0.57-0.49-0.73-0.85c-0.16-0.36-0.28-0.83-0.36-1.4
							c-0.08-0.56-0.12-1.17-0.12-1.82c0-0.89,0.06-1.64,0.18-2.25c0.12-0.61,0.36-1.09,0.73-1.46c0.36-0.36,0.87-0.55,1.52-0.55
							V129.4z M1020.47,129.4v-8.61h60.66l-3.4,3.03v-21.59c0-4.37-0.59-7.99-1.76-10.86c-1.17-2.87-2.91-5.01-5.22-6.43
							c-2.31-1.42-5.2-2.12-8.67-2.12h-26.45l-6.92-10.43l5.22-10.07c0.97-1.78,1.98-3.6,3.03-5.46c1.05-1.86,2.34-4,3.88-6.43
							c1.54-2.43,3.48-5.38,5.82-8.86l7.89,4.73c-2.35,3.56-4.25,6.51-5.7,8.86c-1.46,2.35-2.69,4.37-3.7,6.07
							c-1.01,1.7-1.96,3.4-2.85,5.1l-6.07,11.65l-2.43-3.76h28.27c5.1,0,9.28,0.87,12.56,2.61c3.28,1.74,5.82,4.02,7.64,6.85
							c1.82,2.83,3.09,5.88,3.82,9.16c0.73,3.28,1.09,6.41,1.09,9.4v27.18H1020.47z"/>
						<path class="st0" d="M1097.39,156.21c-1.05,0-2.16-0.06-3.34-0.18c-1.17-0.12-2.32-0.22-3.46-0.3l1.09-8.61
							c1.13,0.08,2.18,0.18,3.15,0.3c0.97,0.12,1.82,0.18,2.55,0.18c3.8,0,6.87-1.44,9.22-4.31c2.34-2.87,3.52-6.85,3.52-11.95
							v-62.6h9.46v62.6c0,4.93-0.95,9.28-2.85,13.04c-1.9,3.76-4.51,6.67-7.83,8.74C1105.59,155.18,1101.75,156.21,1097.39,156.21z
							 M1119.59,89.37v-8.74h26.21v8.74H1119.59z M1145.79,129.4V68.74h9.46v60.66H1145.79z M1155.26,129.4v-8.61h13.59
							c2.75,0,4.85-0.4,6.31-1.21c1.46-0.81,2.47-2.43,3.03-4.85c0.57-2.43,0.85-5.98,0.85-10.68V74.81h9.46v29.24
							c0,6.31-0.67,11.33-2,15.04c-1.33,3.72-3.44,6.37-6.31,7.95c-2.87,1.58-6.65,2.37-11.34,2.37H1155.26z M1170.66,57.82V46.9
							h9.46v10.92H1170.66z M1194.44,129.4c-2.75,0-5.44-0.53-8.07-1.58c-2.63-1.05-5.2-2.71-7.7-4.97l6.31-6.43
							c1.78,1.54,3.42,2.65,4.91,3.34c1.5,0.69,3.01,1.03,4.55,1.03h21.6l-3.64,3.88v-29c0-1.46-0.14-3.52-0.42-6.19
							c-0.28-2.67-0.69-5.68-1.21-9.04c-0.53-3.36-1.15-6.73-1.88-10.13l9.22-1.58c0.57,2.83,1.13,5.99,1.7,9.46
							c0.57,3.48,1.03,6.77,1.4,9.89c0.36,3.11,0.55,5.64,0.55,7.58v33.73H1194.44z M1179.4,41.81V31.5h8.73v10.31H1179.4z
							 M1187.29,57.82V46.9h9.46v10.92H1187.29z"/>
						<path class="st0" d="M3.52,243.67V192h18.47c3.79,0,6.93,0.61,9.42,1.83c2.49,1.22,4.46,2.94,5.91,5.16
							c1.44,2.22,2.47,4.86,3.07,7.93s0.9,6.44,0.9,10.13c0,3.74-0.29,7.21-0.86,10.43c-0.57,3.21-1.58,6.04-3.03,8.49
							c-1.45,2.44-3.42,4.34-5.91,5.68c-2.49,1.35-5.66,2.02-9.5,2.02H3.52z M9.5,238.36h12.49c2.69,0,4.88-0.57,6.58-1.72
							c1.69-1.15,3.02-2.72,3.96-4.71c0.95-1.99,1.61-4.26,1.98-6.8c0.37-2.54,0.56-5.23,0.56-8.08c0-2.79-0.19-5.38-0.56-7.78
							c-0.37-2.39-1.04-4.49-1.98-6.28c-0.95-1.79-2.27-3.19-3.96-4.19c-1.69-1-3.89-1.5-6.58-1.5H9.5V238.36z"/>
						<path class="st0" d="M64,244.42c-3.74,0-6.69-0.72-8.86-2.17c-2.17-1.44-3.73-3.59-4.67-6.43c-0.95-2.84-1.42-6.38-1.42-10.62
							c0-4.73,0.65-8.54,1.94-11.4c1.3-2.87,3.11-4.96,5.46-6.28c2.34-1.32,5.11-1.98,8.3-1.98c4.98,0,8.75,1.38,11.29,4.15
							c2.54,2.77,3.81,7.22,3.81,13.35l-0.3,4.41h-24.6c0.05,3.89,0.77,6.83,2.17,8.82c1.39,1.99,3.91,2.99,7.55,2.99
							c1.4,0,2.93-0.04,4.6-0.11c1.67-0.08,3.33-0.16,4.97-0.26c1.65-0.1,3.04-0.2,4.19-0.3l0.15,4.56c-1.2,0.2-2.65,0.4-4.37,0.6
							c-1.72,0.2-3.48,0.36-5.27,0.49C67.14,244.35,65.5,244.42,64,244.42z M54.96,222.73h19.07c0-4.59-0.74-7.79-2.21-9.61
							c-1.47-1.82-3.83-2.73-7.07-2.73c-2.09,0-3.86,0.41-5.31,1.23c-1.45,0.82-2.55,2.13-3.33,3.93
							C55.34,217.35,54.96,219.74,54.96,222.73z"/>
						<path class="st0" d="M95.4,243.67l-10.47-37.38h6.28l8.52,32.37h2.84l8.82-32.37h5.98l-10.47,37.38H95.4z"/>
						<path class="st0" d="M137.8,244.42c-3.74,0-6.69-0.72-8.86-2.17c-2.17-1.44-3.73-3.59-4.67-6.43
							c-0.95-2.84-1.42-6.38-1.42-10.62c0-4.73,0.65-8.54,1.94-11.4c1.3-2.87,3.11-4.96,5.46-6.28c2.34-1.32,5.11-1.98,8.3-1.98
							c4.98,0,8.75,1.38,11.29,4.15c2.54,2.77,3.81,7.22,3.81,13.35l-0.3,4.41h-24.6c0.05,3.89,0.77,6.83,2.17,8.82
							c1.4,1.99,3.91,2.99,7.55,2.99c1.39,0,2.93-0.04,4.6-0.11c1.67-0.08,3.33-0.16,4.97-0.26c1.64-0.1,3.04-0.2,4.19-0.3
							l0.15,4.56c-1.2,0.2-2.65,0.4-4.37,0.6c-1.72,0.2-3.48,0.36-5.27,0.49C140.94,244.35,139.29,244.42,137.8,244.42z
							 M128.75,222.73h19.07c0-4.59-0.74-7.79-2.21-9.61c-1.47-1.82-3.83-2.73-7.07-2.73c-2.09,0-3.86,0.41-5.31,1.23
							c-1.45,0.82-2.56,2.13-3.33,3.93C129.14,217.35,128.75,219.74,128.75,222.73z"/>
						<path class="st0" d="M162.77,243.67v-53.61h5.76v53.61H162.77z"/>
						<path class="st0" d="M194.09,244.42c-4.19,0-7.44-0.72-9.76-2.17c-2.32-1.44-3.94-3.64-4.86-6.58
							c-0.92-2.94-1.38-6.65-1.38-11.14c0-4.29,0.51-7.83,1.53-10.62c1.02-2.79,2.7-4.88,5.05-6.28c2.34-1.39,5.48-2.09,9.42-2.09
							c3.99,0,7.15,0.7,9.5,2.09c2.34,1.4,4.02,3.49,5.05,6.28c1.02,2.79,1.53,6.33,1.53,10.62c0,4.49-0.46,8.2-1.38,11.14
							c-0.92,2.94-2.54,5.13-4.86,6.58C201.61,243.69,198.33,244.42,194.09,244.42z M194.09,239.41c2.89,0,5.06-0.51,6.5-1.53
							c1.45-1.02,2.4-2.63,2.88-4.82c0.47-2.19,0.71-5.03,0.71-8.52c0-3.44-0.3-6.18-0.9-8.22c-0.6-2.04-1.62-3.51-3.07-4.41
							c-1.45-0.9-3.49-1.35-6.13-1.35c-2.59,0-4.62,0.45-6.09,1.35c-1.47,0.9-2.5,2.37-3.1,4.41c-0.6,2.04-0.9,4.79-0.9,8.22
							c0,3.49,0.24,6.33,0.71,8.52c0.47,2.19,1.43,3.8,2.88,4.82C189.04,238.9,191.2,239.41,194.09,239.41z"/>
						<path class="st0" d="M219.29,260.19v-53.91h5.76v2.69c0.8-0.5,1.81-1.01,3.03-1.53c1.22-0.52,2.53-0.97,3.92-1.35
							c1.39-0.37,2.74-0.56,4.04-0.56c3.19,0,5.78,0.66,7.78,1.98c1.99,1.32,3.48,3.38,4.45,6.17c0.97,2.79,1.46,6.41,1.46,10.84
							c0,4.89-0.56,8.79-1.68,11.7c-1.12,2.92-2.89,5.01-5.31,6.28c-2.42,1.27-5.55,1.91-9.38,1.91c-1.54,0-3.1-0.1-4.67-0.3
							s-2.78-0.37-3.63-0.52v16.6H219.29z M233.05,239.33c2.69,0,4.82-0.5,6.39-1.5c1.57-1,2.68-2.58,3.33-4.75
							c0.65-2.17,0.97-5.02,0.97-8.56c0-5.03-0.75-8.58-2.24-10.65c-1.5-2.07-3.59-3.1-6.28-3.1c-1.2,0-2.43,0.15-3.7,0.45
							c-1.27,0.3-2.48,0.66-3.63,1.08c-1.15,0.42-2.09,0.86-2.84,1.31v24.97c0.8,0.1,1.97,0.25,3.51,0.45
							C230.11,239.23,231.6,239.33,233.05,239.33z"/>
						<path class="st0" d="M258.77,243.67v-37.38h5.76v2.62c0.8-0.5,1.79-1,2.99-1.5c1.2-0.5,2.48-0.93,3.85-1.31
							c1.37-0.37,2.68-0.56,3.93-0.56c2.49,0,4.5,0.3,6.02,0.9c1.52,0.6,2.75,1.57,3.7,2.92c1-0.55,2.22-1.12,3.66-1.72
							c1.45-0.6,3-1.1,4.67-1.5c1.67-0.4,3.3-0.6,4.9-0.6c2.54,0,4.64,0.33,6.28,0.97c1.64,0.65,2.93,1.69,3.85,3.14
							c0.92,1.45,1.57,3.33,1.94,5.65c0.37,2.32,0.56,5.17,0.56,8.56v19.81h-5.76v-19.59c0-3.24-0.19-5.83-0.56-7.78
							c-0.37-1.94-1.11-3.35-2.21-4.22c-1.1-0.87-2.77-1.31-5.01-1.31c-1.3,0-2.61,0.14-3.93,0.41c-1.32,0.27-2.54,0.62-3.66,1.05
							c-1.12,0.42-2.03,0.83-2.73,1.23c0.35,1.3,0.58,2.9,0.71,4.82c0.12,1.92,0.19,3.9,0.19,5.94v19.44h-5.76v-19.29
							c0-3.39-0.17-6.07-0.52-8.04c-0.35-1.97-1.08-3.39-2.21-4.26c-1.12-0.87-2.8-1.31-5.05-1.31c-1.25,0-2.5,0.14-3.78,0.41
							c-1.27,0.27-2.43,0.62-3.48,1.05c-1.05,0.42-1.92,0.83-2.62,1.23v30.21H258.77z"/>
						<path class="st0" d="M334.51,244.42c-3.74,0-6.69-0.72-8.86-2.17c-2.17-1.44-3.73-3.59-4.67-6.43
							c-0.95-2.84-1.42-6.38-1.42-10.62c0-4.73,0.65-8.54,1.94-11.4c1.3-2.87,3.11-4.96,5.46-6.28c2.34-1.32,5.11-1.98,8.3-1.98
							c4.98,0,8.75,1.38,11.29,4.15c2.54,2.77,3.81,7.22,3.81,13.35l-0.3,4.41h-24.6c0.05,3.89,0.77,6.83,2.17,8.82
							c1.4,1.99,3.91,2.99,7.55,2.99c1.39,0,2.93-0.04,4.6-0.11c1.67-0.08,3.33-0.16,4.97-0.26c1.64-0.1,3.04-0.2,4.19-0.3
							l0.15,4.56c-1.2,0.2-2.65,0.4-4.37,0.6c-1.72,0.2-3.48,0.36-5.27,0.49C337.65,244.35,336,244.42,334.51,244.42z
							 M325.46,222.73h19.07c0-4.59-0.74-7.79-2.21-9.61c-1.47-1.82-3.83-2.73-7.07-2.73c-2.09,0-3.86,0.41-5.31,1.23
							c-1.45,0.82-2.56,2.13-3.33,3.93C325.85,217.35,325.46,219.74,325.46,222.73z"/>
						<path class="st0" d="M359.03,243.67v-37.38h5.76v2.62c0.85-0.5,1.91-1,3.18-1.5c1.27-0.5,2.63-0.93,4.07-1.31
							c1.45-0.37,2.84-0.56,4.19-0.56c2.59,0,4.71,0.34,6.36,1.01c1.64,0.67,2.93,1.75,3.85,3.21c0.92,1.47,1.57,3.36,1.94,5.68
							c0.37,2.32,0.56,5.12,0.56,8.41v19.81h-5.83v-19.59c0-3.24-0.19-5.83-0.56-7.78c-0.37-1.94-1.12-3.35-2.24-4.22
							c-1.12-0.87-2.83-1.31-5.12-1.31c-1.25,0-2.53,0.14-3.85,0.41c-1.32,0.27-2.55,0.62-3.7,1.05c-1.15,0.42-2.09,0.83-2.84,1.23
							v30.21H359.03z"/>
						<path class="st0" d="M411.52,244.49c-2.59,0-4.65-0.4-6.17-1.2s-2.6-2.18-3.25-4.15c-0.65-1.97-0.97-4.75-0.97-8.34v-19.51
							h-5.31v-5.01h5.31v-11.44h5.76v11.44h11.74v5.01h-11.74v17.79c0,2.64,0.11,4.7,0.34,6.17c0.22,1.47,0.71,2.5,1.46,3.1
							c0.75,0.6,1.92,0.9,3.51,0.9c0.5,0,1.15-0.02,1.94-0.08c0.8-0.05,1.61-0.11,2.43-0.19c0.82-0.08,1.56-0.14,2.21-0.19
							l0.37,4.86c-0.7,0.1-1.52,0.21-2.47,0.34c-0.95,0.12-1.88,0.24-2.8,0.34C412.95,244.44,412.17,244.49,411.52,244.49z"/>
						<path class="st0" d="M458.17,244.42c-4.69,0-8.37-0.65-11.07-1.94c-2.69-1.3-4.6-3.13-5.72-5.5c-1.12-2.37-1.68-5.2-1.68-8.49
							c0-2.94,0.41-5.37,1.23-7.29c0.82-1.92,2.09-3.49,3.81-4.71s3.88-2.25,6.47-3.1c-1.25-1.45-2.18-2.74-2.8-3.89
							c-0.62-1.15-1.04-2.29-1.23-3.44c-0.2-1.15-0.3-2.44-0.3-3.89c0-2.19,0.51-4.11,1.53-5.76c1.02-1.65,2.52-2.93,4.49-3.85
							c1.97-0.92,4.35-1.38,7.14-1.38c2.94,0,5.38,0.46,7.33,1.38c1.94,0.92,3.39,2.24,4.34,3.96c0.95,1.72,1.42,3.75,1.42,6.09
							c0,1.79-0.22,3.37-0.67,4.71s-1.13,2.55-2.06,3.63c-0.92,1.07-2.11,2.08-3.55,3.03c-1.45,0.95-3.17,1.89-5.16,2.84
							l11.07,10.99c0.3-0.8,0.6-1.92,0.9-3.37c0.3-1.44,0.57-2.95,0.82-4.52c0.25-1.57,0.4-2.93,0.45-4.07l5.61,0.07
							c-0.15,1.75-0.41,3.6-0.79,5.57c-0.37,1.97-0.79,3.83-1.23,5.57c-0.45,1.75-0.92,3.21-1.42,4.41l9.57,8.97l-3.44,3.89
							l-9.05-8.3c-1.7,2.74-3.9,4.82-6.62,6.24C464.84,243.71,461.71,244.42,458.17,244.42z M457.65,239.18
							c2.79,0,5.27-0.54,7.44-1.61c2.17-1.07,3.85-2.73,5.05-4.97l-15.63-15.55c-2.09,0.65-3.8,1.43-5.12,2.36
							c-1.32,0.92-2.29,2.08-2.92,3.48c-0.62,1.4-0.94,3.14-0.94,5.23c0,3.59,0.94,6.33,2.8,8.22
							C450.21,238.24,453.31,239.18,457.65,239.18z M458.25,213.31c2.14-0.95,3.88-1.88,5.2-2.8c1.32-0.92,2.28-1.97,2.88-3.14
							c0.6-1.17,0.9-2.63,0.9-4.37c0-2.19-0.56-3.86-1.68-5.01c-1.12-1.15-2.95-1.72-5.5-1.72c-2.29,0-4.08,0.56-5.35,1.68
							c-1.27,1.12-1.91,2.85-1.91,5.2c0,0.9,0.06,1.71,0.19,2.43c0.12,0.72,0.36,1.45,0.71,2.17c0.35,0.72,0.9,1.52,1.64,2.39
							C456.08,211.01,457.05,212.07,458.25,213.31z"/>
						<path class="st0" d="M527.85,244.42c-3.89,0-7.07-0.57-9.53-1.72c-2.47-1.15-4.4-2.84-5.79-5.08c-1.4-2.24-2.36-5.01-2.88-8.3
							c-0.52-3.29-0.79-7.08-0.79-11.36c0-4.39,0.26-8.25,0.79-11.59c0.52-3.34,1.48-6.13,2.88-8.37c1.4-2.24,3.33-3.94,5.79-5.08
							c2.47-1.15,5.64-1.72,9.53-1.72c1.79,0,3.58,0.09,5.35,0.26c1.77,0.18,3.43,0.4,4.97,0.67c1.54,0.27,2.87,0.54,3.96,0.79
							l-0.22,5.01c-1.1-0.2-2.44-0.4-4.04-0.6c-1.6-0.2-3.21-0.37-4.86-0.52c-1.64-0.15-3.14-0.22-4.49-0.22
							c-2.84,0-5.15,0.42-6.92,1.27c-1.77,0.85-3.13,2.16-4.07,3.93c-0.95,1.77-1.6,3.99-1.94,6.65c-0.35,2.67-0.52,5.84-0.52,9.53
							c0,3.59,0.17,6.72,0.52,9.38c0.35,2.67,0.98,4.86,1.91,6.58c0.92,1.72,2.28,3,4.07,3.85c1.79,0.85,4.14,1.27,7.03,1.27
							c2.09,0,4.4-0.14,6.92-0.41c2.52-0.27,4.65-0.56,6.39-0.86l0.22,5.08c-1.2,0.25-2.59,0.5-4.19,0.75
							c-1.6,0.25-3.26,0.45-5.01,0.6C531.19,244.34,529.5,244.42,527.85,244.42z"/>
						<path class="st0" d="M564.94,244.42c-4.19,0-7.44-0.72-9.76-2.17c-2.32-1.44-3.94-3.64-4.86-6.58
							c-0.92-2.94-1.38-6.65-1.38-11.14c0-4.29,0.51-7.83,1.53-10.62c1.02-2.79,2.7-4.88,5.05-6.28c2.34-1.39,5.48-2.09,9.42-2.09
							c3.99,0,7.15,0.7,9.5,2.09c2.34,1.4,4.02,3.49,5.05,6.28c1.02,2.79,1.53,6.33,1.53,10.62c0,4.49-0.46,8.2-1.38,11.14
							c-0.92,2.94-2.54,5.13-4.86,6.58C572.45,243.69,569.17,244.42,564.94,244.42z M564.94,239.41c2.89,0,5.06-0.51,6.5-1.53
							c1.45-1.02,2.4-2.63,2.88-4.82c0.47-2.19,0.71-5.03,0.71-8.52c0-3.44-0.3-6.18-0.9-8.22c-0.6-2.04-1.62-3.51-3.07-4.41
							c-1.45-0.9-3.49-1.35-6.13-1.35c-2.59,0-4.62,0.45-6.09,1.35c-1.47,0.9-2.5,2.37-3.1,4.41c-0.6,2.04-0.9,4.79-0.9,8.22
							c0,3.49,0.24,6.33,0.71,8.52c0.47,2.19,1.43,3.8,2.88,4.82C559.88,238.9,562.05,239.41,564.94,239.41z"/>
						<path class="st0" d="M590.13,243.67v-37.38h5.76v2.62c0.85-0.5,1.91-1,3.18-1.5c1.27-0.5,2.63-0.93,4.07-1.31
							c1.45-0.37,2.84-0.56,4.19-0.56c2.59,0,4.71,0.34,6.36,1.01c1.64,0.67,2.93,1.75,3.85,3.21c0.92,1.47,1.57,3.36,1.94,5.68
							c0.37,2.32,0.56,5.12,0.56,8.41v19.81h-5.83v-19.59c0-3.24-0.19-5.83-0.56-7.78c-0.37-1.94-1.12-3.35-2.24-4.22
							c-1.12-0.87-2.83-1.31-5.12-1.31c-1.25,0-2.53,0.14-3.85,0.41c-1.32,0.27-2.55,0.62-3.7,1.05c-1.15,0.42-2.09,0.83-2.84,1.23
							v30.21H590.13z"/>
						<path class="st0" d="M642.02,244.42c-1.15,0-2.53-0.08-4.15-0.22c-1.62-0.15-3.23-0.34-4.82-0.56
							c-1.6-0.22-3.02-0.44-4.26-0.64l0.3-5.01c1.25,0.15,2.65,0.33,4.22,0.52c1.57,0.2,3.1,0.36,4.6,0.49
							c1.5,0.12,2.69,0.19,3.59,0.19c2.04,0,3.74-0.19,5.08-0.56c1.35-0.37,2.37-1.01,3.07-1.91c0.7-0.9,1.05-2.17,1.05-3.81
							c0-1.25-0.26-2.22-0.78-2.92c-0.52-0.7-1.5-1.27-2.92-1.72c-1.42-0.45-3.48-0.87-6.17-1.27c-2.79-0.45-5.12-1.01-6.99-1.68
							s-3.25-1.68-4.15-3.03c-0.9-1.35-1.35-3.26-1.35-5.76c0-2.79,0.65-4.98,1.94-6.58c1.3-1.59,2.98-2.73,5.05-3.4
							c2.07-0.67,4.22-1.01,6.47-1.01c1.39,0,2.93,0.08,4.6,0.22c1.67,0.15,3.3,0.34,4.9,0.56c1.59,0.22,2.96,0.44,4.11,0.64
							l-0.15,5.01c-1.2-0.2-2.59-0.39-4.19-0.56c-1.6-0.17-3.19-0.32-4.79-0.45c-1.6-0.12-2.99-0.19-4.19-0.19
							c-1.5,0-2.84,0.16-4.04,0.49c-1.2,0.33-2.14,0.89-2.84,1.68c-0.7,0.8-1.05,1.92-1.05,3.36c0,1.1,0.25,1.98,0.75,2.65
							c0.5,0.67,1.45,1.23,2.84,1.68c1.4,0.45,3.41,0.9,6.06,1.35c3.09,0.5,5.57,1.12,7.44,1.87s3.23,1.79,4.07,3.14
							c0.85,1.35,1.27,3.24,1.27,5.68c0,2.89-0.59,5.2-1.76,6.92c-1.17,1.72-2.84,2.95-5.01,3.7
							C647.67,244.04,645.06,244.42,642.02,244.42z"/>
						<path class="st0" d="M677.46,244.49c-2.59,0-4.65-0.4-6.17-1.2s-2.6-2.18-3.25-4.15c-0.65-1.97-0.97-4.75-0.97-8.34v-19.51
							h-5.31v-5.01h5.31v-11.44h5.76v11.44h11.74v5.01h-11.74v17.79c0,2.64,0.11,4.7,0.34,6.17c0.22,1.47,0.71,2.5,1.46,3.1
							c0.75,0.6,1.92,0.9,3.51,0.9c0.5,0,1.15-0.02,1.94-0.08c0.8-0.05,1.61-0.11,2.43-0.19c0.82-0.08,1.56-0.14,2.21-0.19
							l0.37,4.86c-0.7,0.1-1.52,0.21-2.47,0.34c-0.95,0.12-1.88,0.24-2.8,0.34C678.89,244.44,678.11,244.49,677.46,244.49z"/>
						<path class="st0" d="M691.44,243.67v-37.38h5.76v5.01c0.95-0.65,2.14-1.36,3.59-2.13c1.45-0.77,3.04-1.51,4.79-2.21
							c1.74-0.7,3.49-1.2,5.23-1.5v5.91c-1.7,0.35-3.42,0.81-5.16,1.38c-1.75,0.57-3.35,1.19-4.82,1.83
							c-1.47,0.65-2.68,1.22-3.63,1.72v27.37H691.44z"/>
						<path class="st0" d="M728.75,244.42c-3.19,0-5.63-0.65-7.33-1.94c-1.7-1.3-2.85-3.31-3.48-6.06
							c-0.62-2.74-0.93-6.28-0.93-10.62v-19.51h5.76v19.51c0,3.29,0.16,5.91,0.49,7.85c0.32,1.94,1.03,3.35,2.13,4.22
							c1.1,0.87,2.74,1.31,4.93,1.31c2.19,0,4.19-0.3,5.98-0.9c1.79-0.6,3.24-1.2,4.34-1.79v-30.21h5.76v37.38h-5.76v-2.62
							c-1.6,0.9-3.33,1.68-5.2,2.36S731.34,244.42,728.75,244.42z"/>
						<path class="st0" d="M771,244.42c-3.94,0-7.03-0.66-9.27-1.98s-3.83-3.45-4.75-6.39c-0.92-2.94-1.38-6.83-1.38-11.66
							c0-4.54,0.51-8.19,1.53-10.95c1.02-2.77,2.68-4.77,4.97-6.02c2.29-1.25,5.28-1.87,8.97-1.87c0.85,0,1.88,0.06,3.1,0.19
							c1.22,0.12,2.48,0.27,3.78,0.45c1.29,0.17,2.42,0.34,3.36,0.49l-0.22,4.79c-0.85-0.1-1.82-0.2-2.92-0.3
							c-1.1-0.1-2.17-0.19-3.21-0.26c-1.05-0.07-1.92-0.11-2.62-0.11c-2.84,0-5.05,0.45-6.62,1.35c-1.57,0.9-2.67,2.33-3.29,4.3
							c-0.62,1.97-0.93,4.62-0.93,7.96c0,3.64,0.27,6.54,0.82,8.71c0.55,2.17,1.59,3.73,3.14,4.67c1.54,0.95,3.84,1.42,6.88,1.42
							c0.7,0,1.58-0.04,2.65-0.11c1.07-0.07,2.17-0.16,3.29-0.26c1.12-0.1,2.11-0.17,2.95-0.22l0.15,4.79
							c-1,0.15-2.14,0.3-3.44,0.45c-1.3,0.15-2.57,0.29-3.81,0.41C772.89,244.35,771.84,244.42,771,244.42z"/>
						<path class="st0" d="M802.02,244.49c-2.59,0-4.65-0.4-6.17-1.2s-2.6-2.18-3.25-4.15c-0.65-1.97-0.97-4.75-0.97-8.34v-19.51
							h-5.31v-5.01h5.31v-11.44h5.76v11.44h11.74v5.01h-11.74v17.79c0,2.64,0.11,4.7,0.34,6.17c0.22,1.47,0.71,2.5,1.46,3.1
							c0.75,0.6,1.92,0.9,3.51,0.9c0.5,0,1.15-0.02,1.94-0.08c0.8-0.05,1.61-0.11,2.43-0.19c0.82-0.08,1.56-0.14,2.21-0.19
							l0.37,4.86c-0.7,0.1-1.52,0.21-2.47,0.34c-0.95,0.12-1.88,0.24-2.8,0.34C803.46,244.44,802.67,244.49,802.02,244.49z"/>
						<path class="st0" d="M816,198.06v-6.73h5.76v6.73H816z M816,243.67v-37.38h5.76v37.38H816z"/>
						<path class="st0" d="M846.88,244.42c-4.19,0-7.44-0.72-9.76-2.17c-2.32-1.44-3.94-3.64-4.86-6.58
							c-0.92-2.94-1.38-6.65-1.38-11.14c0-4.29,0.51-7.83,1.53-10.62c1.02-2.79,2.7-4.88,5.05-6.28c2.34-1.39,5.48-2.09,9.42-2.09
							c3.99,0,7.15,0.7,9.5,2.09c2.34,1.4,4.02,3.49,5.05,6.28c1.02,2.79,1.53,6.33,1.53,10.62c0,4.49-0.46,8.2-1.38,11.14
							c-0.92,2.94-2.54,5.13-4.86,6.58C854.4,243.69,851.12,244.42,846.88,244.42z M846.88,239.41c2.89,0,5.06-0.51,6.5-1.53
							c1.45-1.02,2.4-2.63,2.88-4.82c0.47-2.19,0.71-5.03,0.71-8.52c0-3.44-0.3-6.18-0.9-8.22c-0.6-2.04-1.62-3.51-3.07-4.41
							c-1.45-0.9-3.49-1.35-6.13-1.35c-2.59,0-4.62,0.45-6.09,1.35c-1.47,0.9-2.5,2.37-3.1,4.41c-0.6,2.04-0.9,4.79-0.9,8.22
							c0,3.49,0.24,6.33,0.71,8.52c0.47,2.19,1.43,3.8,2.88,4.82C841.82,238.9,843.99,239.41,846.88,239.41z"/>
						<path class="st0" d="M872.08,243.67v-37.38h5.76v2.62c0.85-0.5,1.91-1,3.18-1.5c1.27-0.5,2.63-0.93,4.07-1.31
							c1.45-0.37,2.84-0.56,4.19-0.56c2.59,0,4.71,0.34,6.36,1.01c1.64,0.67,2.93,1.75,3.85,3.21c0.92,1.47,1.57,3.36,1.94,5.68
							c0.37,2.32,0.56,5.12,0.56,8.41v19.81h-5.83v-19.59c0-3.24-0.19-5.83-0.56-7.78c-0.37-1.94-1.12-3.35-2.24-4.22
							c-1.12-0.87-2.83-1.31-5.12-1.31c-1.25,0-2.53,0.14-3.85,0.41c-1.32,0.27-2.55,0.62-3.7,1.05c-1.15,0.42-2.09,0.83-2.84,1.23
							v30.21H872.08z"/>
						<path class="st0" d="M923.97,244.42c-1.15,0-2.53-0.08-4.15-0.22c-1.62-0.15-3.23-0.34-4.82-0.56
							c-1.6-0.22-3.02-0.44-4.26-0.64l0.3-5.01c1.25,0.15,2.65,0.33,4.22,0.52c1.57,0.2,3.1,0.36,4.6,0.49
							c1.5,0.12,2.69,0.19,3.59,0.19c2.04,0,3.74-0.19,5.08-0.56c1.35-0.37,2.37-1.01,3.07-1.91c0.7-0.9,1.05-2.17,1.05-3.81
							c0-1.25-0.26-2.22-0.78-2.92c-0.52-0.7-1.5-1.27-2.92-1.72c-1.42-0.45-3.48-0.87-6.17-1.27c-2.79-0.45-5.12-1.01-6.99-1.68
							s-3.25-1.68-4.15-3.03c-0.9-1.35-1.35-3.26-1.35-5.76c0-2.79,0.65-4.98,1.94-6.58c1.3-1.59,2.98-2.73,5.05-3.4
							c2.07-0.67,4.22-1.01,6.47-1.01c1.39,0,2.93,0.08,4.6,0.22c1.67,0.15,3.3,0.34,4.9,0.56c1.59,0.22,2.96,0.44,4.11,0.64
							l-0.15,5.01c-1.2-0.2-2.59-0.39-4.19-0.56c-1.6-0.17-3.19-0.32-4.79-0.45c-1.6-0.12-2.99-0.19-4.19-0.19
							c-1.5,0-2.84,0.16-4.04,0.49c-1.2,0.33-2.14,0.89-2.84,1.68c-0.7,0.8-1.05,1.92-1.05,3.36c0,1.1,0.25,1.98,0.75,2.65
							c0.5,0.67,1.45,1.23,2.84,1.68c1.4,0.45,3.41,0.9,6.06,1.35c3.09,0.5,5.57,1.12,7.44,1.87s3.23,1.79,4.07,3.14
							c0.85,1.35,1.27,3.24,1.27,5.68c0,2.89-0.59,5.2-1.76,6.92c-1.17,1.72-2.84,2.95-5.01,3.7
							C929.61,244.04,927.01,244.42,923.97,244.42z"/>
						<path class="st0" d="M964.49,243.67V192h18.92c3.79,0,6.9,0.61,9.35,1.83c2.44,1.22,4.26,3.07,5.46,5.53
							c1.2,2.47,1.79,5.6,1.79,9.38c0,3.74-0.6,6.92-1.79,9.53s-3.02,4.61-5.46,5.98c-2.44,1.37-5.56,2.06-9.35,2.06h-12.93v17.35
							H964.49z M970.47,221.09h12.93c3.69,0,6.36-1.07,8-3.21c1.64-2.14,2.47-5.18,2.47-9.12c0-3.99-0.82-6.9-2.47-8.75
							c-1.65-1.84-4.31-2.77-8-2.77h-12.93V221.09z"/>
						<path class="st0" d="M1016,244.42c-3.44,0-6.06-0.97-7.85-2.92c-1.79-1.94-2.69-4.79-2.69-8.52c0-2.44,0.42-4.44,1.27-5.98
							c0.85-1.54,2.13-2.73,3.85-3.55s3.85-1.33,6.39-1.53l11.51-1.12v-3.21c0-2.54-0.56-4.34-1.68-5.38s-2.78-1.57-4.97-1.57
							c-1.25,0-2.73,0.05-4.45,0.15s-3.43,0.22-5.12,0.37c-1.7,0.15-3.19,0.3-4.49,0.45l-0.3-4.41c1.2-0.25,2.64-0.5,4.34-0.75
							c1.69-0.25,3.46-0.46,5.31-0.64c1.84-0.17,3.54-0.26,5.08-0.26c2.84,0,5.16,0.44,6.95,1.31c1.79,0.87,3.1,2.19,3.92,3.96
							c0.82,1.77,1.23,4.03,1.23,6.77v18.92c0.1,1.1,0.53,1.89,1.31,2.39c0.77,0.5,1.76,0.82,2.95,0.97l-0.22,4.56
							c-0.7,0-1.37-0.03-2.02-0.08c-0.65-0.05-1.26-0.14-1.83-0.26c-0.57-0.12-1.13-0.26-1.68-0.41c-0.65-0.25-1.26-0.55-1.83-0.9
							c-0.57-0.35-1.13-0.77-1.68-1.27c-0.95,0.4-2.16,0.82-3.63,1.27c-1.47,0.45-3.04,0.84-4.71,1.16
							C1019.31,244.25,1017.65,244.42,1016,244.42z M1016.98,239.56c1.35,0,2.74-0.12,4.19-0.37c1.44-0.25,2.82-0.55,4.11-0.9
							s2.37-0.67,3.22-0.97v-12.19l-10.84,1.05c-2.24,0.2-3.85,0.85-4.82,1.94c-0.97,1.1-1.46,2.67-1.46,4.71
							c0,2.09,0.47,3.74,1.42,4.94C1013.74,238.96,1015.13,239.56,1016.98,239.56z"/>
						<path class="st0" d="M1045.39,243.67v-37.38h5.76v5.01c0.95-0.65,2.14-1.36,3.59-2.13c1.45-0.77,3.04-1.51,4.79-2.21
							c1.74-0.7,3.49-1.2,5.23-1.5v5.91c-1.7,0.35-3.42,0.81-5.16,1.38c-1.75,0.57-3.35,1.19-4.82,1.83
							c-1.47,0.65-2.68,1.22-3.63,1.72v27.37H1045.39z"/>
						<path class="st0" d="M1083.59,244.49c-2.59,0-4.65-0.4-6.17-1.2s-2.6-2.18-3.25-4.15c-0.65-1.97-0.97-4.75-0.97-8.34v-19.51
							h-5.31v-5.01h5.31v-11.44h5.76v11.44h11.74v5.01h-11.74v17.79c0,2.64,0.11,4.7,0.34,6.17c0.22,1.47,0.71,2.5,1.46,3.1
							c0.75,0.6,1.92,0.9,3.51,0.9c0.5,0,1.15-0.02,1.94-0.08c0.8-0.05,1.61-0.11,2.43-0.19c0.82-0.08,1.56-0.14,2.21-0.19
							l0.37,4.86c-0.7,0.1-1.52,0.21-2.47,0.34c-0.95,0.12-1.88,0.24-2.8,0.34C1085.03,244.44,1084.24,244.49,1083.59,244.49z"/>
						<path class="st0" d="M1097.58,243.67v-37.38h5.76v2.62c0.85-0.5,1.91-1,3.18-1.5c1.27-0.5,2.63-0.93,4.07-1.31
							c1.45-0.37,2.84-0.56,4.19-0.56c2.59,0,4.71,0.34,6.36,1.01c1.64,0.67,2.93,1.75,3.85,3.21c0.92,1.47,1.57,3.36,1.94,5.68
							c0.37,2.32,0.56,5.12,0.56,8.41v19.81h-5.83v-19.59c0-3.24-0.19-5.83-0.56-7.78c-0.37-1.94-1.12-3.35-2.24-4.22
							c-1.12-0.87-2.83-1.31-5.12-1.31c-1.25,0-2.53,0.14-3.85,0.41c-1.32,0.27-2.55,0.62-3.7,1.05c-1.15,0.42-2.09,0.83-2.84,1.23
							v30.21H1097.58z"/>
						<path class="st0" d="M1151.03,244.42c-3.74,0-6.69-0.72-8.86-2.17c-2.17-1.44-3.73-3.59-4.67-6.43
							c-0.95-2.84-1.42-6.38-1.42-10.62c0-4.73,0.65-8.54,1.94-11.4c1.3-2.87,3.11-4.96,5.46-6.28c2.34-1.32,5.11-1.98,8.3-1.98
							c4.98,0,8.75,1.38,11.29,4.15c2.54,2.77,3.81,7.22,3.81,13.35l-0.3,4.41h-24.6c0.05,3.89,0.77,6.83,2.17,8.82
							c1.4,1.99,3.91,2.99,7.55,2.99c1.39,0,2.93-0.04,4.6-0.11c1.67-0.08,3.33-0.16,4.97-0.26c1.64-0.1,3.04-0.2,4.19-0.3
							l0.15,4.56c-1.2,0.2-2.65,0.4-4.37,0.6c-1.72,0.2-3.48,0.36-5.27,0.49C1154.17,244.35,1152.53,244.42,1151.03,244.42z
							 M1141.99,222.73h19.07c0-4.59-0.74-7.79-2.21-9.61c-1.47-1.82-3.83-2.73-7.07-2.73c-2.09,0-3.86,0.41-5.31,1.23
							c-1.45,0.82-2.56,2.13-3.33,3.93C1142.37,217.35,1141.99,219.74,1141.99,222.73z"/>
						<path class="st0" d="M1175.56,243.67v-37.38h5.76v5.01c0.95-0.65,2.14-1.36,3.59-2.13c1.45-0.77,3.04-1.51,4.79-2.21
							c1.74-0.7,3.49-1.2,5.23-1.5v5.91c-1.7,0.35-3.42,0.81-5.16,1.38c-1.75,0.57-3.35,1.19-4.82,1.83
							c-1.47,0.65-2.68,1.22-3.63,1.72v27.37H1175.56z"/>
						<path class="st0" d="M1213.16,244.42c-1.15,0-2.53-0.08-4.15-0.22c-1.62-0.15-3.23-0.34-4.82-0.56
							c-1.6-0.22-3.02-0.44-4.26-0.64l0.3-5.01c1.25,0.15,2.65,0.33,4.23,0.52c1.57,0.2,3.1,0.36,4.6,0.49
							c1.5,0.12,2.69,0.19,3.59,0.19c2.04,0,3.74-0.19,5.08-0.56c1.35-0.37,2.37-1.01,3.07-1.91c0.7-0.9,1.05-2.17,1.05-3.81
							c0-1.25-0.26-2.22-0.78-2.92c-0.52-0.7-1.5-1.27-2.92-1.72c-1.42-0.45-3.48-0.87-6.17-1.27c-2.79-0.45-5.12-1.01-6.99-1.68
							s-3.25-1.68-4.15-3.03c-0.9-1.35-1.35-3.26-1.35-5.76c0-2.79,0.65-4.98,1.94-6.58c1.3-1.59,2.98-2.73,5.05-3.4
							c2.07-0.67,4.22-1.01,6.47-1.01c1.39,0,2.93,0.08,4.6,0.22c1.67,0.15,3.3,0.34,4.9,0.56c1.59,0.22,2.96,0.44,4.11,0.64
							l-0.15,5.01c-1.2-0.2-2.59-0.39-4.19-0.56c-1.6-0.17-3.19-0.32-4.79-0.45c-1.6-0.12-2.99-0.19-4.19-0.19
							c-1.5,0-2.84,0.16-4.04,0.49c-1.2,0.33-2.14,0.89-2.84,1.68c-0.7,0.8-1.05,1.92-1.05,3.36c0,1.1,0.25,1.98,0.75,2.65
							c0.5,0.67,1.45,1.23,2.84,1.68c1.4,0.45,3.41,0.9,6.06,1.35c3.09,0.5,5.57,1.12,7.44,1.87s3.23,1.79,4.07,3.14
							c0.85,1.35,1.27,3.24,1.27,5.68c0,2.89-0.59,5.2-1.76,6.92c-1.17,1.72-2.84,2.95-5.01,3.7
							C1218.81,244.04,1216.2,244.42,1213.16,244.42z"/>
					</g>
				</g>
				<line class="st1" x1="1306.51" y1="0" x2="1306.51" y2="289.83"/>
			</g>
		</g>
	</g>
</g>
</svg>
